G04 Layer_Physical_Order=1*
G04 Layer_Color=255*
%FSLAX44Y44*%
%MOMM*%
G71*
G01*
G75*
%ADD10R,0.8000X0.9000*%
%ADD11O,0.6000X1.9000*%
%ADD12O,1.9000X0.6000*%
%ADD13R,0.9000X0.8000*%
%ADD14R,2.0000X3.2000*%
%ADD15R,1.4000X2.6000*%
%ADD16R,3.8000X4.2000*%
%ADD17R,2.6000X1.4000*%
%ADD18R,1.1000X0.6500*%
%ADD19R,3.0000X2.1300*%
%ADD20O,0.5000X2.2000*%
%ADD21R,0.5000X2.2000*%
%ADD22R,1.7000X2.5000*%
%ADD23R,4.5000X2.2000*%
%ADD24R,0.9000X1.1000*%
%ADD25R,1.0000X1.0000*%
%ADD26C,0.5000*%
%ADD27C,0.3000*%
%ADD28C,0.2000*%
%ADD29C,0.7500*%
%ADD30C,1.0000*%
%ADD31C,0.6000*%
%ADD32R,2.3000X5.1000*%
%ADD33R,5.3000X1.9000*%
%ADD34R,8.4000X1.3000*%
%ADD35R,8.7000X4.0000*%
%ADD36R,3.0000X5.5000*%
%ADD37C,2.0000*%
%ADD38C,2.1000*%
%ADD39C,5.0000*%
%ADD40C,1.6000*%
%ADD41R,1.6000X1.6000*%
%ADD42C,1.8000*%
%ADD43C,0.7000*%
G36*
X1095000Y845000D02*
X1000000D01*
Y880000D01*
X1040000D01*
Y945000D01*
X950000D01*
Y1035000D01*
X1026226D01*
X1026847Y1033892D01*
X1025869Y1032296D01*
X1024242Y1028369D01*
X1023250Y1024237D01*
X1022916Y1020000D01*
X1023250Y1015763D01*
X1024242Y1011631D01*
X1025869Y1007704D01*
X1028089Y1004081D01*
X1030849Y1000849D01*
X1034081Y998089D01*
X1037704Y995868D01*
X1041631Y994242D01*
X1042940Y993928D01*
Y972620D01*
X1043180Y970793D01*
X1043500Y970021D01*
Y966620D01*
X1046321D01*
X1046470Y966506D01*
X1048173Y965800D01*
X1050000Y965560D01*
X1051827Y965800D01*
X1053530Y966506D01*
X1053679Y966620D01*
X1056500D01*
Y970021D01*
X1056820Y970793D01*
X1057060Y972620D01*
Y993928D01*
X1058369Y994242D01*
X1062296Y995868D01*
X1065919Y998089D01*
X1069151Y1000849D01*
X1071911Y1004081D01*
X1074132Y1007704D01*
X1075758Y1011631D01*
X1076750Y1015763D01*
X1077084Y1020000D01*
X1076750Y1024237D01*
X1075758Y1028369D01*
X1074132Y1032296D01*
X1073153Y1033892D01*
X1073774Y1035000D01*
X1095000D01*
Y845000D01*
D02*
G37*
G36*
X716160Y983827D02*
X692477Y960143D01*
X691703Y958986D01*
X691431Y957620D01*
Y933844D01*
X690161Y933264D01*
X690000Y933404D01*
Y985000D01*
X715674D01*
X716160Y983827D01*
D02*
G37*
G36*
X895000Y955000D02*
X910000Y940000D01*
X1035000D01*
Y885000D01*
X920000D01*
X870000Y935000D01*
X750000Y935000D01*
Y975000D01*
X895000D01*
Y955000D01*
D02*
G37*
G36*
X870000Y857417D02*
X869819Y857146D01*
X869392Y855000D01*
X869819Y852854D01*
X870000Y852583D01*
Y842417D01*
X869819Y842146D01*
X869392Y840000D01*
X869819Y837854D01*
X870000Y837583D01*
Y763409D01*
X868854Y763181D01*
X867035Y761965D01*
X865819Y760146D01*
X865392Y758000D01*
X865819Y755854D01*
X867035Y754035D01*
X868854Y752819D01*
X870000Y752591D01*
Y745608D01*
X867854Y745181D01*
X866035Y743965D01*
X864819Y742146D01*
X864392Y740000D01*
X864819Y737854D01*
X866035Y736035D01*
X867854Y734819D01*
X870000Y734392D01*
Y655608D01*
X867854Y655181D01*
X866035Y653965D01*
X864819Y652146D01*
X864392Y650000D01*
X864819Y647854D01*
X866035Y646035D01*
X867854Y644819D01*
X870000Y644392D01*
X872146Y644819D01*
X873965Y646035D01*
X875181Y647854D01*
X875608Y650000D01*
X875604Y650018D01*
X876410Y651000D01*
X877928D01*
X878527Y649880D01*
X878240Y649451D01*
X877852Y647500D01*
Y634500D01*
X878240Y632549D01*
X879345Y630895D01*
X880999Y629790D01*
X882950Y629402D01*
X884901Y629790D01*
X886555Y630895D01*
X887660Y632549D01*
X888048Y634500D01*
Y647500D01*
X887660Y649451D01*
X887373Y649880D01*
X887972Y651000D01*
X916028D01*
X916627Y649880D01*
X916340Y649451D01*
X915952Y647500D01*
Y634500D01*
X916340Y632549D01*
X917445Y630895D01*
X919099Y629790D01*
X921050Y629402D01*
X923001Y629790D01*
X924655Y630895D01*
X925760Y632549D01*
X926148Y634500D01*
Y636412D01*
X930000D01*
Y627211D01*
X929018Y626405D01*
X928000Y626608D01*
X925854Y626181D01*
X924035Y624965D01*
X922819Y623146D01*
X922392Y621000D01*
X922819Y618854D01*
X924035Y617035D01*
X924431Y616770D01*
Y606478D01*
X918579Y600626D01*
X918319Y600628D01*
X917227Y600914D01*
X917181Y601146D01*
X915965Y602965D01*
X914146Y604181D01*
X912000Y604608D01*
X909854Y604181D01*
X908035Y602965D01*
X906819Y601146D01*
X906611Y600100D01*
X905106Y598594D01*
X904111Y597106D01*
X903762Y595350D01*
Y589633D01*
X903640Y589451D01*
X903252Y587500D01*
Y585588D01*
X900748D01*
Y587500D01*
X900360Y589451D01*
X899255Y591105D01*
X897601Y592210D01*
X895650Y592598D01*
X893699Y592210D01*
X892045Y591105D01*
X890940Y589451D01*
X890552Y587500D01*
Y575000D01*
X888048D01*
Y587500D01*
X887660Y589451D01*
X886555Y591105D01*
X884901Y592210D01*
X882950Y592598D01*
X880999Y592210D01*
X879345Y591105D01*
X878240Y589451D01*
X877852Y587500D01*
Y575592D01*
X876620Y575500D01*
Y575500D01*
X864620D01*
Y575000D01*
X861380D01*
Y575500D01*
X849380D01*
Y575000D01*
X785000D01*
Y630000D01*
X750000D01*
Y680000D01*
X785000D01*
Y735000D01*
X750000D01*
Y785000D01*
X755760D01*
Y780000D01*
X773760D01*
Y785000D01*
X785000D01*
Y835000D01*
X750000D01*
Y885000D01*
X755760D01*
Y880000D01*
X773760D01*
Y885000D01*
X785000D01*
Y930000D01*
X870000D01*
Y857417D01*
D02*
G37*
G36*
X736620Y983500D02*
X745000D01*
Y930000D01*
X767979D01*
X768736Y928730D01*
X768392Y927000D01*
X768819Y924854D01*
X770035Y923035D01*
X771854Y921819D01*
X774000Y921392D01*
X776146Y921819D01*
X777965Y923035D01*
X778730Y924179D01*
X780000Y923794D01*
Y890000D01*
X745000D01*
Y830000D01*
X767979D01*
X768736Y828730D01*
X768392Y827000D01*
X768819Y824854D01*
X770035Y823035D01*
X771854Y821819D01*
X774000Y821392D01*
X776146Y821819D01*
X777965Y823035D01*
X778730Y824179D01*
X780000Y823794D01*
Y790000D01*
X745000D01*
Y730000D01*
X767979D01*
X768736Y728730D01*
X768392Y727000D01*
X768819Y724854D01*
X770035Y723035D01*
X771854Y721819D01*
X774000Y721392D01*
X776146Y721819D01*
X777965Y723035D01*
X778730Y724179D01*
X780000Y723794D01*
Y685000D01*
X745000D01*
Y625000D01*
X767979D01*
X768736Y623730D01*
X768392Y622000D01*
X768819Y619854D01*
X770035Y618035D01*
X771854Y616819D01*
X774000Y616392D01*
X776146Y616819D01*
X777965Y618035D01*
X778730Y619179D01*
X780000Y618794D01*
Y575000D01*
Y570000D01*
X780000Y570000D01*
X780000D01*
X779230Y569096D01*
X779035Y568965D01*
X777819Y567146D01*
X777392Y565000D01*
X777819Y562854D01*
X779035Y561035D01*
X780854Y559819D01*
X783000Y559392D01*
X785146Y559819D01*
X786965Y561035D01*
X788181Y562854D01*
X788608Y565000D01*
X788181Y567146D01*
X787122Y568730D01*
X787529Y570000D01*
X840000D01*
X840000Y475000D01*
X690486Y475000D01*
X690123Y476270D01*
X691181Y477854D01*
X691608Y480000D01*
X691181Y482146D01*
X690000Y483913D01*
Y587583D01*
X690181Y587854D01*
X690608Y590000D01*
X690181Y592146D01*
X690000Y592417D01*
Y612583D01*
X690181Y612854D01*
X690608Y615000D01*
X690181Y617146D01*
X690000Y617417D01*
Y697583D01*
X690181Y697854D01*
X690608Y700000D01*
X690181Y702146D01*
X690000Y702417D01*
Y722583D01*
X690181Y722854D01*
X690608Y725000D01*
X690181Y727146D01*
X690000Y727417D01*
X690000Y785941D01*
X691380D01*
Y783500D01*
X703380D01*
Y792534D01*
X704553Y793020D01*
X706620Y790953D01*
Y783500D01*
X718620D01*
Y784392D01*
X720766Y784819D01*
X722585Y786035D01*
X723801Y787854D01*
X724228Y790000D01*
X723801Y792146D01*
X722585Y793965D01*
X720766Y795181D01*
X718620Y795608D01*
Y796500D01*
X711167D01*
X698569Y809098D01*
Y956142D01*
X725927Y983500D01*
X733380D01*
Y985000D01*
X736620D01*
Y983500D01*
D02*
G37*
G36*
X415000Y540000D02*
X335000D01*
Y600000D01*
X344803D01*
X344857Y599590D01*
X345865Y597157D01*
X347468Y595068D01*
X349557Y593465D01*
X351990Y592457D01*
X354600Y592114D01*
X357211Y592457D01*
X359643Y593465D01*
X361732Y595068D01*
X363335Y597157D01*
X364343Y599590D01*
X364397Y600000D01*
X370203D01*
X370257Y599590D01*
X371265Y597157D01*
X372868Y595068D01*
X374957Y593465D01*
X377389Y592457D01*
X380000Y592114D01*
X382611Y592457D01*
X385043Y593465D01*
X387132Y595068D01*
X388735Y597157D01*
X389743Y599590D01*
X389797Y600000D01*
X415000D01*
Y540000D01*
D02*
G37*
G36*
X1095000Y380000D02*
X790000D01*
Y430000D01*
X930000D01*
Y455000D01*
X947226D01*
X947309Y454367D01*
X948518Y451448D01*
X950442Y448941D01*
X952948Y447018D01*
X955867Y445809D01*
X959000Y445396D01*
X962133Y445809D01*
X965052Y447018D01*
X967559Y448941D01*
X969482Y451448D01*
X970691Y454367D01*
X970774Y455000D01*
X1035000D01*
Y545000D01*
X1000000D01*
Y575000D01*
X1095000D01*
Y380000D01*
D02*
G37*
G36*
X995000Y540000D02*
X1030000D01*
Y495000D01*
Y460000D01*
X925000D01*
Y440000D01*
X790000D01*
Y455000D01*
X845000D01*
Y555000D01*
X995000D01*
Y540000D01*
D02*
G37*
%LPC*%
G36*
X1056500Y963380D02*
X1043500D01*
Y951380D01*
X1044137D01*
Y950000D01*
X1044584Y947757D01*
X1045854Y945854D01*
X1047757Y944584D01*
X1050000Y944137D01*
X1052244Y944584D01*
X1054146Y945854D01*
X1055416Y947757D01*
X1055863Y950000D01*
Y951380D01*
X1056500D01*
Y963380D01*
D02*
G37*
G36*
X822000Y910608D02*
X819854Y910181D01*
X818035Y908965D01*
X816819Y907146D01*
X816392Y905000D01*
X816819Y902854D01*
X818035Y901035D01*
X819854Y899819D01*
X822000Y899392D01*
X824146Y899819D01*
X825965Y901035D01*
X827181Y902854D01*
X827608Y905000D01*
X827181Y907146D01*
X825965Y908965D01*
X824146Y910181D01*
X822000Y910608D01*
D02*
G37*
G36*
X860000Y860608D02*
X857854Y860181D01*
X856035Y858965D01*
X854819Y857146D01*
X854392Y855000D01*
X854819Y852854D01*
X856035Y851035D01*
X857854Y849819D01*
X860000Y849392D01*
X862146Y849819D01*
X863965Y851035D01*
X865181Y852854D01*
X865608Y855000D01*
X865181Y857146D01*
X863965Y858965D01*
X862146Y860181D01*
X860000Y860608D01*
D02*
G37*
G36*
X845000D02*
X842854Y860181D01*
X841035Y858965D01*
X839819Y857146D01*
X839392Y855000D01*
X839819Y852854D01*
X841035Y851035D01*
X842854Y849819D01*
X845000Y849392D01*
X847146Y849819D01*
X848965Y851035D01*
X850181Y852854D01*
X850608Y855000D01*
X850181Y857146D01*
X848965Y858965D01*
X847146Y860181D01*
X845000Y860608D01*
D02*
G37*
G36*
X830000D02*
X827854Y860181D01*
X826035Y858965D01*
X824819Y857146D01*
X824392Y855000D01*
X824819Y852854D01*
X826035Y851035D01*
X827854Y849819D01*
X830000Y849392D01*
X832146Y849819D01*
X833965Y851035D01*
X835181Y852854D01*
X835608Y855000D01*
X835181Y857146D01*
X833965Y858965D01*
X832146Y860181D01*
X830000Y860608D01*
D02*
G37*
G36*
X815000D02*
X812854Y860181D01*
X811035Y858965D01*
X809819Y857146D01*
X809392Y855000D01*
X809819Y852854D01*
X811035Y851035D01*
X812854Y849819D01*
X815000Y849392D01*
X817146Y849819D01*
X818965Y851035D01*
X820181Y852854D01*
X820608Y855000D01*
X820181Y857146D01*
X818965Y858965D01*
X817146Y860181D01*
X815000Y860608D01*
D02*
G37*
G36*
X800000D02*
X797854Y860181D01*
X796035Y858965D01*
X794819Y857146D01*
X794392Y855000D01*
X794819Y852854D01*
X796035Y851035D01*
X797854Y849819D01*
X800000Y849392D01*
X802146Y849819D01*
X803965Y851035D01*
X805181Y852854D01*
X805608Y855000D01*
X805181Y857146D01*
X803965Y858965D01*
X802146Y860181D01*
X800000Y860608D01*
D02*
G37*
G36*
X774000Y858608D02*
X771854Y858181D01*
X770035Y856965D01*
X768819Y855146D01*
X768392Y853000D01*
X768819Y850854D01*
X770035Y849035D01*
X771854Y847819D01*
X774000Y847392D01*
X776146Y847819D01*
X777965Y849035D01*
X779181Y850854D01*
X779608Y853000D01*
X779181Y855146D01*
X777965Y856965D01*
X776146Y858181D01*
X774000Y858608D01*
D02*
G37*
G36*
X860000Y845608D02*
X857854Y845181D01*
X856035Y843965D01*
X854819Y842146D01*
X854392Y840000D01*
X854819Y837854D01*
X856035Y836035D01*
X857854Y834819D01*
X860000Y834392D01*
X862146Y834819D01*
X863965Y836035D01*
X865181Y837854D01*
X865608Y840000D01*
X865181Y842146D01*
X863965Y843965D01*
X862146Y845181D01*
X860000Y845608D01*
D02*
G37*
G36*
X845000D02*
X842854Y845181D01*
X841035Y843965D01*
X839819Y842146D01*
X839392Y840000D01*
X839819Y837854D01*
X841035Y836035D01*
X842854Y834819D01*
X845000Y834392D01*
X847146Y834819D01*
X848965Y836035D01*
X850181Y837854D01*
X850608Y840000D01*
X850181Y842146D01*
X848965Y843965D01*
X847146Y845181D01*
X845000Y845608D01*
D02*
G37*
G36*
X830000D02*
X827854Y845181D01*
X826035Y843965D01*
X824819Y842146D01*
X824392Y840000D01*
X824819Y837854D01*
X826035Y836035D01*
X827854Y834819D01*
X830000Y834392D01*
X832146Y834819D01*
X833965Y836035D01*
X835181Y837854D01*
X835608Y840000D01*
X835181Y842146D01*
X833965Y843965D01*
X832146Y845181D01*
X830000Y845608D01*
D02*
G37*
G36*
X815000D02*
X812854Y845181D01*
X811035Y843965D01*
X809819Y842146D01*
X809392Y840000D01*
X809819Y837854D01*
X811035Y836035D01*
X812854Y834819D01*
X815000Y834392D01*
X817146Y834819D01*
X818965Y836035D01*
X820181Y837854D01*
X820608Y840000D01*
X820181Y842146D01*
X818965Y843965D01*
X817146Y845181D01*
X815000Y845608D01*
D02*
G37*
G36*
X800000D02*
X797854Y845181D01*
X796035Y843965D01*
X794819Y842146D01*
X794392Y840000D01*
X794819Y837854D01*
X796035Y836035D01*
X797854Y834819D01*
X800000Y834392D01*
X802146Y834819D01*
X803965Y836035D01*
X805181Y837854D01*
X805608Y840000D01*
X805181Y842146D01*
X803965Y843965D01*
X802146Y845181D01*
X800000Y845608D01*
D02*
G37*
G36*
X822000Y811608D02*
X819854Y811181D01*
X818035Y809965D01*
X816819Y808146D01*
X816392Y806000D01*
X816819Y803854D01*
X818035Y802035D01*
X819854Y800819D01*
X822000Y800392D01*
X824146Y800819D01*
X825965Y802035D01*
X827181Y803854D01*
X827608Y806000D01*
X827181Y808146D01*
X825965Y809965D01*
X824146Y811181D01*
X822000Y811608D01*
D02*
G37*
G36*
X855000Y763608D02*
X852854Y763181D01*
X851035Y761965D01*
X849819Y760146D01*
X849392Y758000D01*
X849819Y755854D01*
X851035Y754035D01*
X852854Y752819D01*
X855000Y752392D01*
X857146Y752819D01*
X858965Y754035D01*
X860181Y755854D01*
X860608Y758000D01*
X860181Y760146D01*
X858965Y761965D01*
X857146Y763181D01*
X855000Y763608D01*
D02*
G37*
G36*
X840000D02*
X837854Y763181D01*
X836035Y761965D01*
X834819Y760146D01*
X834392Y758000D01*
X834819Y755854D01*
X836035Y754035D01*
X837854Y752819D01*
X840000Y752392D01*
X842146Y752819D01*
X843965Y754035D01*
X845181Y755854D01*
X845608Y758000D01*
X845181Y760146D01*
X843965Y761965D01*
X842146Y763181D01*
X840000Y763608D01*
D02*
G37*
G36*
X825000D02*
X822854Y763181D01*
X821035Y761965D01*
X819819Y760146D01*
X819392Y758000D01*
X819819Y755854D01*
X821035Y754035D01*
X822854Y752819D01*
X825000Y752392D01*
X827146Y752819D01*
X828965Y754035D01*
X830181Y755854D01*
X830608Y758000D01*
X830181Y760146D01*
X828965Y761965D01*
X827146Y763181D01*
X825000Y763608D01*
D02*
G37*
G36*
X810000D02*
X807854Y763181D01*
X806035Y761965D01*
X804819Y760146D01*
X804392Y758000D01*
X804819Y755854D01*
X806035Y754035D01*
X807854Y752819D01*
X810000Y752392D01*
X812146Y752819D01*
X813965Y754035D01*
X815181Y755854D01*
X815608Y758000D01*
X815181Y760146D01*
X813965Y761965D01*
X812146Y763181D01*
X810000Y763608D01*
D02*
G37*
G36*
X773000Y757608D02*
X770854Y757181D01*
X769035Y755965D01*
X767819Y754146D01*
X767392Y752000D01*
X767819Y749854D01*
X769035Y748035D01*
X770854Y746819D01*
X773000Y746392D01*
X775146Y746819D01*
X776965Y748035D01*
X778181Y749854D01*
X778608Y752000D01*
X778181Y754146D01*
X776965Y755965D01*
X775146Y757181D01*
X773000Y757608D01*
D02*
G37*
G36*
X855000Y745608D02*
X852854Y745181D01*
X851035Y743965D01*
X849819Y742146D01*
X849392Y740000D01*
X849819Y737854D01*
X851035Y736035D01*
X852854Y734819D01*
X855000Y734392D01*
X857146Y734819D01*
X858965Y736035D01*
X860181Y737854D01*
X860608Y740000D01*
X860181Y742146D01*
X858965Y743965D01*
X857146Y745181D01*
X855000Y745608D01*
D02*
G37*
G36*
X840000D02*
X837854Y745181D01*
X836035Y743965D01*
X834819Y742146D01*
X834392Y740000D01*
X834819Y737854D01*
X836035Y736035D01*
X837854Y734819D01*
X840000Y734392D01*
X842146Y734819D01*
X843965Y736035D01*
X845181Y737854D01*
X845608Y740000D01*
X845181Y742146D01*
X843965Y743965D01*
X842146Y745181D01*
X840000Y745608D01*
D02*
G37*
G36*
X825000D02*
X822854Y745181D01*
X821035Y743965D01*
X819819Y742146D01*
X819392Y740000D01*
X819819Y737854D01*
X821035Y736035D01*
X822854Y734819D01*
X825000Y734392D01*
X827146Y734819D01*
X828965Y736035D01*
X830181Y737854D01*
X830608Y740000D01*
X830181Y742146D01*
X828965Y743965D01*
X827146Y745181D01*
X825000Y745608D01*
D02*
G37*
G36*
X810000D02*
X807854Y745181D01*
X806035Y743965D01*
X804819Y742146D01*
X804392Y740000D01*
X804819Y737854D01*
X806035Y736035D01*
X807854Y734819D01*
X810000Y734392D01*
X812146Y734819D01*
X813965Y736035D01*
X815181Y737854D01*
X815608Y740000D01*
X815181Y742146D01*
X813965Y743965D01*
X812146Y745181D01*
X810000Y745608D01*
D02*
G37*
G36*
X822000Y711608D02*
X819854Y711181D01*
X818035Y709965D01*
X816819Y708146D01*
X816392Y706000D01*
X816819Y703854D01*
X818035Y702035D01*
X819854Y700819D01*
X822000Y700392D01*
X824146Y700819D01*
X825965Y702035D01*
X827181Y703854D01*
X827608Y706000D01*
X827181Y708146D01*
X825965Y709965D01*
X824146Y711181D01*
X822000Y711608D01*
D02*
G37*
G36*
X855000Y655608D02*
X852854Y655181D01*
X851035Y653965D01*
X849819Y652146D01*
X849392Y650000D01*
X849819Y647854D01*
X851035Y646035D01*
X852854Y644819D01*
X855000Y644392D01*
X857146Y644819D01*
X858965Y646035D01*
X860181Y647854D01*
X860608Y650000D01*
X860181Y652146D01*
X858965Y653965D01*
X857146Y655181D01*
X855000Y655608D01*
D02*
G37*
G36*
X840000D02*
X837854Y655181D01*
X836035Y653965D01*
X834819Y652146D01*
X834392Y650000D01*
X834819Y647854D01*
X836035Y646035D01*
X837854Y644819D01*
X840000Y644392D01*
X842146Y644819D01*
X843965Y646035D01*
X845181Y647854D01*
X845608Y650000D01*
X845181Y652146D01*
X843965Y653965D01*
X842146Y655181D01*
X840000Y655608D01*
D02*
G37*
G36*
X825000D02*
X822854Y655181D01*
X821035Y653965D01*
X819819Y652146D01*
X819392Y650000D01*
X819819Y647854D01*
X821035Y646035D01*
X822854Y644819D01*
X825000Y644392D01*
X827146Y644819D01*
X828965Y646035D01*
X830181Y647854D01*
X830608Y650000D01*
X830181Y652146D01*
X828965Y653965D01*
X827146Y655181D01*
X825000Y655608D01*
D02*
G37*
G36*
X810000D02*
X807854Y655181D01*
X806035Y653965D01*
X804819Y652146D01*
X804392Y650000D01*
X804819Y647854D01*
X806035Y646035D01*
X807854Y644819D01*
X810000Y644392D01*
X812146Y644819D01*
X813965Y646035D01*
X815181Y647854D01*
X815608Y650000D01*
X815181Y652146D01*
X813965Y653965D01*
X812146Y655181D01*
X810000Y655608D01*
D02*
G37*
G36*
X773000Y652608D02*
X770854Y652181D01*
X769035Y650965D01*
X767819Y649146D01*
X767392Y647000D01*
X767819Y644854D01*
X769035Y643035D01*
X770854Y641819D01*
X773000Y641392D01*
X775146Y641819D01*
X776965Y643035D01*
X778181Y644854D01*
X778608Y647000D01*
X778181Y649146D01*
X776965Y650965D01*
X775146Y652181D01*
X773000Y652608D01*
D02*
G37*
G36*
X860000Y640608D02*
X857854Y640181D01*
X856035Y638965D01*
X854819Y637146D01*
X854392Y635000D01*
X854819Y632854D01*
X856035Y631035D01*
X857854Y629819D01*
X860000Y629392D01*
X862146Y629819D01*
X863965Y631035D01*
X865181Y632854D01*
X865608Y635000D01*
X865181Y637146D01*
X863965Y638965D01*
X862146Y640181D01*
X860000Y640608D01*
D02*
G37*
G36*
X845000D02*
X842854Y640181D01*
X841035Y638965D01*
X839819Y637146D01*
X839392Y635000D01*
X839819Y632854D01*
X841035Y631035D01*
X842854Y629819D01*
X845000Y629392D01*
X847146Y629819D01*
X848965Y631035D01*
X850181Y632854D01*
X850608Y635000D01*
X850181Y637146D01*
X848965Y638965D01*
X847146Y640181D01*
X845000Y640608D01*
D02*
G37*
G36*
X830000D02*
X827854Y640181D01*
X826035Y638965D01*
X824819Y637146D01*
X824392Y635000D01*
X824819Y632854D01*
X826035Y631035D01*
X827854Y629819D01*
X830000Y629392D01*
X832146Y629819D01*
X833965Y631035D01*
X835181Y632854D01*
X835608Y635000D01*
X835181Y637146D01*
X833965Y638965D01*
X832146Y640181D01*
X830000Y640608D01*
D02*
G37*
G36*
X815000D02*
X812854Y640181D01*
X811035Y638965D01*
X809819Y637146D01*
X809392Y635000D01*
X809819Y632854D01*
X811035Y631035D01*
X812854Y629819D01*
X815000Y629392D01*
X817146Y629819D01*
X818965Y631035D01*
X820181Y632854D01*
X820608Y635000D01*
X820181Y637146D01*
X818965Y638965D01*
X817146Y640181D01*
X815000Y640608D01*
D02*
G37*
G36*
X800000D02*
X797854Y640181D01*
X796035Y638965D01*
X794819Y637146D01*
X794392Y635000D01*
X794819Y632854D01*
X796035Y631035D01*
X797854Y629819D01*
X800000Y629392D01*
X802146Y629819D01*
X803965Y631035D01*
X805181Y632854D01*
X805608Y635000D01*
X805181Y637146D01*
X803965Y638965D01*
X802146Y640181D01*
X800000Y640608D01*
D02*
G37*
G36*
X881000Y621608D02*
X878854Y621181D01*
X877035Y619965D01*
X875819Y618146D01*
X875392Y616000D01*
X875819Y613854D01*
X877035Y612035D01*
X878854Y610819D01*
X881000Y610392D01*
X883146Y610819D01*
X884965Y612035D01*
X886181Y613854D01*
X886608Y616000D01*
X886181Y618146D01*
X884965Y619965D01*
X883146Y621181D01*
X881000Y621608D01*
D02*
G37*
G36*
X822000Y605608D02*
X819854Y605181D01*
X818035Y603965D01*
X816819Y602146D01*
X816392Y600000D01*
X816819Y597854D01*
X818035Y596035D01*
X819854Y594819D01*
X822000Y594392D01*
X824146Y594819D01*
X825965Y596035D01*
X827181Y597854D01*
X827608Y600000D01*
X827181Y602146D01*
X825965Y603965D01*
X824146Y605181D01*
X822000Y605608D01*
D02*
G37*
G36*
X770000Y570608D02*
X767854Y570181D01*
X766035Y568965D01*
X764819Y567146D01*
X764392Y565000D01*
X764819Y562854D01*
X766035Y561035D01*
X767854Y559819D01*
X770000Y559392D01*
X772146Y559819D01*
X773965Y561035D01*
X775181Y562854D01*
X775608Y565000D01*
X775181Y567146D01*
X773965Y568965D01*
X772146Y570181D01*
X770000Y570608D01*
D02*
G37*
G36*
X745000D02*
X742854Y570181D01*
X741035Y568965D01*
X739819Y567146D01*
X739392Y565000D01*
X739819Y562854D01*
X741035Y561035D01*
X742854Y559819D01*
X745000Y559392D01*
X747146Y559819D01*
X748965Y561035D01*
X750181Y562854D01*
X750608Y565000D01*
X750181Y567146D01*
X748965Y568965D01*
X747146Y570181D01*
X745000Y570608D01*
D02*
G37*
G36*
X725000D02*
X722854Y570181D01*
X721035Y568965D01*
X719819Y567146D01*
X719392Y565000D01*
X719819Y562854D01*
X721035Y561035D01*
X722854Y559819D01*
X725000Y559392D01*
X727146Y559819D01*
X728965Y561035D01*
X730181Y562854D01*
X730608Y565000D01*
X730181Y567146D01*
X728965Y568965D01*
X727146Y570181D01*
X725000Y570608D01*
D02*
G37*
G36*
X380000Y586886D02*
X377389Y586543D01*
X374957Y585535D01*
X372868Y583932D01*
X371265Y581843D01*
X370257Y579411D01*
X369914Y576800D01*
X370257Y574189D01*
X371265Y571757D01*
X372868Y569668D01*
X374957Y568065D01*
X377389Y567057D01*
X380000Y566714D01*
X382611Y567057D01*
X385043Y568065D01*
X387132Y569668D01*
X388735Y571757D01*
X389743Y574189D01*
X390086Y576800D01*
X389743Y579411D01*
X388735Y581843D01*
X387132Y583932D01*
X385043Y585535D01*
X382611Y586543D01*
X380000Y586886D01*
D02*
G37*
G36*
X390000Y561400D02*
X370000D01*
Y541400D01*
X390000D01*
Y561400D01*
D02*
G37*
G36*
X354600Y561486D02*
X351990Y561143D01*
X349557Y560135D01*
X347468Y558532D01*
X345865Y556443D01*
X344857Y554011D01*
X344514Y551400D01*
X344857Y548789D01*
X345865Y546357D01*
X347468Y544268D01*
X349557Y542665D01*
X351990Y541657D01*
X354600Y541314D01*
X357211Y541657D01*
X359643Y542665D01*
X361732Y544268D01*
X363335Y546357D01*
X364343Y548789D01*
X364686Y551400D01*
X364343Y554011D01*
X363335Y556443D01*
X361732Y558532D01*
X359643Y560135D01*
X357211Y561143D01*
X354600Y561486D01*
D02*
G37*
G36*
X1050000Y452084D02*
X1045763Y451750D01*
X1041631Y450758D01*
X1037704Y449132D01*
X1034081Y446911D01*
X1030849Y444151D01*
X1028089Y440919D01*
X1025869Y437296D01*
X1024242Y433369D01*
X1023928Y432060D01*
X1007620D01*
X1005793Y431820D01*
X1005021Y431500D01*
X1001620D01*
Y428679D01*
X1001506Y428530D01*
X1000800Y426827D01*
X1000560Y425000D01*
X1000800Y423173D01*
X1001506Y421470D01*
X1001620Y421321D01*
Y418500D01*
X1005021D01*
X1005793Y418180D01*
X1007620Y417940D01*
X1023928D01*
X1024242Y416631D01*
X1025869Y412704D01*
X1028089Y409081D01*
X1030849Y405849D01*
X1034081Y403089D01*
X1037704Y400868D01*
X1041631Y399242D01*
X1045763Y398250D01*
X1050000Y397916D01*
X1054237Y398250D01*
X1058369Y399242D01*
X1062296Y400868D01*
X1065919Y403089D01*
X1069151Y405849D01*
X1071911Y409081D01*
X1074132Y412704D01*
X1075758Y416631D01*
X1076750Y420763D01*
X1077084Y425000D01*
X1076750Y429237D01*
X1075758Y433369D01*
X1074132Y437296D01*
X1071911Y440919D01*
X1069151Y444151D01*
X1065919Y446911D01*
X1062296Y449132D01*
X1058369Y450758D01*
X1054237Y451750D01*
X1050000Y452084D01*
D02*
G37*
G36*
X1015000Y536408D02*
X1011737Y535978D01*
X1008696Y534719D01*
X1006085Y532715D01*
X1004081Y530104D01*
X1002822Y527063D01*
X1002392Y523800D01*
X1002822Y520537D01*
X1004081Y517496D01*
X1006085Y514885D01*
X1008696Y512881D01*
X1011737Y511622D01*
X1015000Y511192D01*
X1018263Y511622D01*
X1021304Y512881D01*
X1023915Y514885D01*
X1025919Y517496D01*
X1027178Y520537D01*
X1027608Y523800D01*
X1027178Y527063D01*
X1025919Y530104D01*
X1023915Y532715D01*
X1021304Y534719D01*
X1018263Y535978D01*
X1015000Y536408D01*
D02*
G37*
%LPD*%
D10*
X812380Y1038000D02*
D03*
X827620D02*
D03*
X855380Y569000D02*
D03*
X870620D02*
D03*
X787620Y1038000D02*
D03*
X772380D02*
D03*
X787620Y1011000D02*
D03*
X772380D02*
D03*
X782620Y990000D02*
D03*
X767380D02*
D03*
X696380Y464000D02*
D03*
X711620D02*
D03*
X1007620Y425000D02*
D03*
X992380D02*
D03*
X452620D02*
D03*
X437380D02*
D03*
X452620Y1020000D02*
D03*
X437380D02*
D03*
X497380Y737000D02*
D03*
X512620D02*
D03*
X667380Y480000D02*
D03*
X682620D02*
D03*
X597620Y545000D02*
D03*
X582380D02*
D03*
X667380Y590000D02*
D03*
X682620D02*
D03*
X667380Y615000D02*
D03*
X682620D02*
D03*
X597620Y660000D02*
D03*
X582380D02*
D03*
X667380Y700000D02*
D03*
X682620D02*
D03*
X667380Y725000D02*
D03*
X682620D02*
D03*
X597620Y770000D02*
D03*
X582380D02*
D03*
X697380Y790000D02*
D03*
X712620D02*
D03*
X667380Y805000D02*
D03*
X682620D02*
D03*
X667380Y830000D02*
D03*
X682620D02*
D03*
X597620Y870000D02*
D03*
X582380D02*
D03*
X667380Y905000D02*
D03*
X682620D02*
D03*
X667380Y930000D02*
D03*
X682620D02*
D03*
X597620Y970000D02*
D03*
X582380D02*
D03*
X747620Y1038000D02*
D03*
X732380D02*
D03*
X747620Y1011000D02*
D03*
X732380D02*
D03*
X742620Y990000D02*
D03*
X727380D02*
D03*
X808380Y999000D02*
D03*
X823620D02*
D03*
X757000Y449000D02*
D03*
X771000D02*
D03*
X771620Y464000D02*
D03*
X756380D02*
D03*
X711000Y449000D02*
D03*
X697000D02*
D03*
D11*
X841950Y990000D02*
D03*
X854650D02*
D03*
X867350D02*
D03*
X880050D02*
D03*
X841950Y1050000D02*
D03*
X854650D02*
D03*
X867350D02*
D03*
X880050D02*
D03*
X882950Y581000D02*
D03*
X895650D02*
D03*
X908350D02*
D03*
X921050D02*
D03*
X882950Y641000D02*
D03*
X895650D02*
D03*
X908350D02*
D03*
X921050D02*
D03*
X479050Y870000D02*
D03*
X466350D02*
D03*
X453650D02*
D03*
X440950D02*
D03*
X479050Y810000D02*
D03*
X466350D02*
D03*
X453650D02*
D03*
X440950D02*
D03*
D12*
X766000Y390950D02*
D03*
Y403650D02*
D03*
Y416350D02*
D03*
Y429050D02*
D03*
X706000Y390950D02*
D03*
Y403650D02*
D03*
Y416350D02*
D03*
Y429050D02*
D03*
X590000Y519050D02*
D03*
Y506350D02*
D03*
Y493650D02*
D03*
Y480950D02*
D03*
X650000Y519050D02*
D03*
Y506350D02*
D03*
Y493650D02*
D03*
Y480950D02*
D03*
X590000Y629050D02*
D03*
Y616350D02*
D03*
Y603650D02*
D03*
Y590950D02*
D03*
X650000Y629050D02*
D03*
Y616350D02*
D03*
Y603650D02*
D03*
Y590950D02*
D03*
X590000Y739050D02*
D03*
Y726350D02*
D03*
Y713650D02*
D03*
Y700950D02*
D03*
X650000Y739050D02*
D03*
Y726350D02*
D03*
Y713650D02*
D03*
Y700950D02*
D03*
X590000Y844050D02*
D03*
Y831350D02*
D03*
Y818650D02*
D03*
Y805950D02*
D03*
X650000Y844050D02*
D03*
Y831350D02*
D03*
Y818650D02*
D03*
Y805950D02*
D03*
X590000Y944050D02*
D03*
Y931350D02*
D03*
Y918650D02*
D03*
Y905950D02*
D03*
X650000Y944050D02*
D03*
Y931350D02*
D03*
Y918650D02*
D03*
Y905950D02*
D03*
D13*
X1050000Y972620D02*
D03*
Y957380D02*
D03*
X667000Y1028620D02*
D03*
Y1013380D02*
D03*
X733000Y463620D02*
D03*
Y448380D02*
D03*
X515000Y664620D02*
D03*
Y649380D02*
D03*
Y613000D02*
D03*
Y627000D02*
D03*
Y693620D02*
D03*
Y678380D02*
D03*
X431000Y621380D02*
D03*
Y636620D02*
D03*
Y586380D02*
D03*
Y601620D02*
D03*
X647000Y1013380D02*
D03*
Y1028620D02*
D03*
X627000Y1028000D02*
D03*
Y1014000D02*
D03*
X687000Y411380D02*
D03*
Y426620D02*
D03*
D14*
X891700Y540000D02*
D03*
X828300D02*
D03*
X891700Y490000D02*
D03*
X828300D02*
D03*
D15*
X764760Y590000D02*
D03*
X795240D02*
D03*
X764760Y895000D02*
D03*
X795240D02*
D03*
X764760Y795000D02*
D03*
X795240D02*
D03*
X764760Y695000D02*
D03*
X795240D02*
D03*
X483240Y683000D02*
D03*
X452760D02*
D03*
D16*
X965000Y593000D02*
D03*
Y527000D02*
D03*
D17*
X547000Y503760D02*
D03*
Y534240D02*
D03*
X910000Y450240D02*
D03*
Y419760D02*
D03*
X875000Y450240D02*
D03*
Y419760D02*
D03*
X840000Y450240D02*
D03*
Y419760D02*
D03*
X805000Y450240D02*
D03*
Y419760D02*
D03*
D18*
X453000Y751500D02*
D03*
Y742000D02*
D03*
Y732500D02*
D03*
X477000D02*
D03*
Y751500D02*
D03*
D19*
X475950Y621250D02*
D03*
D20*
X456900Y592500D02*
D03*
X469600D02*
D03*
X482300D02*
D03*
X495000D02*
D03*
X456900Y650000D02*
D03*
X469600D02*
D03*
X482300D02*
D03*
D21*
X495000D02*
D03*
D22*
X440000Y550000D02*
D03*
Y500000D02*
D03*
D23*
X495000Y503500D02*
D03*
Y546500D02*
D03*
D24*
X651500Y545000D02*
D03*
X618500D02*
D03*
X651500Y660000D02*
D03*
X618500D02*
D03*
X651500Y770000D02*
D03*
X618500D02*
D03*
X651500Y870000D02*
D03*
X618500D02*
D03*
X651500Y970000D02*
D03*
X618500D02*
D03*
D25*
X610500Y1018000D02*
D03*
X583500D02*
D03*
D26*
X854650Y990000D02*
X867350D01*
X827620Y1032380D02*
Y1038000D01*
Y1032380D02*
X855000Y1005000D01*
X854650Y990000D02*
Y1004350D01*
X936000Y641000D02*
X940000Y645000D01*
X921050Y641000D02*
X936000D01*
X895650Y581000D02*
X908350D01*
Y595350D02*
X912000Y599000D01*
X908350Y581000D02*
Y595350D01*
X749650Y416350D02*
X766000D01*
X749650Y408350D02*
Y416350D01*
Y408350D02*
X754350Y403650D01*
X766000D01*
X733000Y433000D02*
Y448380D01*
Y433000D02*
X749650Y416350D01*
X436000Y734000D02*
X440000D01*
X393000Y691000D02*
X436000Y734000D01*
X344000Y691000D02*
X393000D01*
X332000Y679000D02*
X344000Y691000D01*
X647000Y1028620D02*
X667000D01*
X578950Y944050D02*
X590000D01*
X576000Y947000D02*
X578950Y944050D01*
X576000Y947000D02*
Y963620D01*
X582380Y970000D01*
X597620D02*
X618500D01*
X651500Y970000D02*
X659000D01*
X662000Y967000D01*
Y945000D02*
Y967000D01*
X661000Y944000D02*
X662000Y945000D01*
X597620Y870000D02*
X618500D01*
X582950Y844050D02*
X590000D01*
X575000Y852000D02*
X582950Y844050D01*
X575000Y852000D02*
Y862620D01*
X582380Y870000D01*
X651500Y870000D02*
X656000D01*
X661000Y865000D01*
Y844000D02*
Y865000D01*
X581950Y739050D02*
X590000D01*
X575000Y746000D02*
X581950Y739050D01*
X575000Y746000D02*
Y762620D01*
X582380Y770000D01*
X597620D02*
X618500D01*
X651500Y770000D02*
X657000D01*
X664000Y763000D01*
Y742000D02*
Y763000D01*
X661000Y739000D02*
X664000Y742000D01*
X581950Y629050D02*
X590000D01*
X576000Y635000D02*
X581950Y629050D01*
X576000Y635000D02*
Y653620D01*
X582380Y660000D01*
X597620D02*
X618500D01*
X651500Y660000D02*
X660000D01*
X664000Y656000D01*
Y632000D02*
Y656000D01*
X661000Y629000D02*
X664000Y632000D01*
X597620Y545000D02*
X618500D01*
X651500Y545000D02*
X660000D01*
X665000Y540000D01*
Y523000D02*
Y540000D01*
X661000Y519000D02*
X665000Y523000D01*
X580950Y519050D02*
X590000D01*
X466350Y800650D02*
Y810000D01*
Y800650D02*
X470000Y797000D01*
X475000D01*
X479050Y801050D01*
Y810000D01*
X420000Y575380D02*
X431000Y586380D01*
X420000Y538000D02*
Y575380D01*
Y538000D02*
X433000Y525000D01*
X473500D01*
X495000Y503500D01*
X431000Y601620D02*
Y621380D01*
X449500Y592500D02*
X456900D01*
X440380Y601620D02*
X449500Y592500D01*
X431000Y601620D02*
X440380D01*
X495000Y638000D02*
Y650000D01*
Y638000D02*
X506000Y627000D01*
X515000D01*
X506000Y613000D02*
X515000D01*
X495000Y602000D02*
X506000Y613000D01*
X495000Y592500D02*
Y602000D01*
X747620Y1011000D02*
X772380D01*
X747620Y1038000D02*
X772380D01*
X742620Y990000D02*
X767380D01*
X483000Y751000D02*
X496380D01*
X497380Y737000D02*
Y752000D01*
X441500Y751500D02*
X453000D01*
X440000Y750000D02*
X441500Y751500D01*
X440000Y734000D02*
X441500Y732500D01*
X453000D01*
X440000Y734000D02*
Y750000D01*
X485380Y693620D02*
X515000D01*
X483240Y695760D02*
X485380Y693620D01*
X483240Y695760D02*
Y699760D01*
X515000Y664620D02*
Y678380D01*
X577000Y523000D02*
X580950Y519050D01*
X577000Y523000D02*
Y539620D01*
X582380Y545000D01*
X610500Y1018000D02*
Y1026240D01*
X612880Y1028620D01*
X647000D01*
D27*
X854000Y1005000D02*
X855000D01*
X897000Y990000D02*
X907000Y980000D01*
X880050Y990000D02*
X897000D01*
X880050Y1050000D02*
X942000D01*
X823620Y999000D02*
X832620Y990000D01*
X841950D01*
X882950Y570950D02*
Y581000D01*
X881000Y569000D02*
X882950Y570950D01*
X870620Y569000D02*
X881000D01*
X928000Y605000D02*
Y621000D01*
X921050Y598050D02*
X928000Y605000D01*
X921050Y581000D02*
Y598050D01*
X687000Y387000D02*
Y411380D01*
Y387000D02*
X692000Y382000D01*
X741000D01*
X749950Y390950D01*
X766000D01*
X754950Y429050D02*
X766000D01*
X751000Y433000D02*
X754950Y429050D01*
X751000Y433000D02*
Y443000D01*
X757000Y449000D01*
X905000Y1003000D02*
X907000Y1005000D01*
X705000Y989000D02*
X727000Y1011000D01*
X594000Y989000D02*
X705000D01*
X582380Y977380D02*
X594000Y989000D01*
X582380Y970000D02*
Y977380D01*
X695000Y807620D02*
Y957620D01*
X727380Y990000D01*
X942000Y1050000D02*
X960000Y1032000D01*
X650000Y931350D02*
X662650D01*
X664000Y930000D02*
X669920D01*
X662650Y931350D02*
X664000Y930000D01*
X665000Y905000D02*
X669920D01*
X650000Y905950D02*
X664050D01*
X665000Y905000D01*
X650000Y831350D02*
X668570D01*
X650000Y805950D02*
X668970D01*
X650000Y726350D02*
X668570D01*
X650000Y700950D02*
X668970D01*
X650000Y616350D02*
X668570D01*
X650000Y590950D02*
X668970D01*
X650000Y480950D02*
X668970D01*
X696380Y464000D02*
Y476380D01*
X756380Y449620D02*
Y464000D01*
X854000Y1029000D02*
X856000D01*
X960000Y1026000D02*
Y1032000D01*
X985000Y425000D02*
X985000Y425000D01*
X1050000Y950000D02*
X1050000Y950000D01*
X430000Y1020000D02*
X437380D01*
X695000Y807620D02*
X712620Y790000D01*
D28*
X727000Y1024000D02*
X797000D01*
X808380Y999000D02*
Y1012620D01*
X797000Y1024000D02*
X808380Y1012620D01*
X711620Y444380D02*
Y464000D01*
X706000Y429050D02*
X716050D01*
X719000Y432000D01*
Y437000D01*
X711620Y444380D02*
X719000Y437000D01*
X371000Y916000D02*
X380000Y907000D01*
X371000Y916000D02*
Y940000D01*
X415000Y764000D02*
X461000D01*
X491000Y794000D01*
Y829000D01*
X479050Y840950D02*
X491000Y829000D01*
X460000Y849000D02*
X466350Y855350D01*
X413000Y771000D02*
X436000D01*
X460000Y795000D02*
Y849000D01*
X436000Y771000D02*
X460000Y795000D01*
X340000Y718400D02*
X354600Y703800D01*
X340000Y718400D02*
Y761000D01*
X347000Y768000D01*
X395000D01*
X404000Y777000D01*
X434000D01*
X440950Y797950D02*
Y810000D01*
X438000Y795000D02*
X440950Y797950D01*
X373000Y742000D02*
X393000D01*
X360400Y754600D02*
X373000Y742000D01*
X354600Y754600D02*
X360400D01*
X396600D02*
X413000Y771000D01*
X380000Y754600D02*
X396600D01*
X366600Y792000D02*
X387000D01*
X439000Y901000D02*
X496000D01*
X387000Y792000D02*
X395000Y800000D01*
Y857000D01*
X439000Y901000D01*
X461000Y933000D02*
X522000D01*
X585000Y996000D01*
X699000D01*
X727000Y1024000D01*
X688620Y1013380D02*
X696000Y1006000D01*
X667000Y1013380D02*
X688620D01*
X466350Y855350D02*
Y870000D01*
X479050Y840950D02*
Y870000D01*
X393000Y742000D02*
X415000Y764000D01*
X434000Y777000D02*
X453650Y796650D01*
Y810000D01*
X367400Y869000D02*
X397000D01*
X354600Y856200D02*
X367400Y869000D01*
X397000D02*
X461000Y933000D01*
X354600Y881600D02*
X367000Y894000D01*
X410000D01*
X577350Y493650D02*
X590000D01*
X570000Y501000D02*
X577350Y493650D01*
X570000Y501000D02*
Y568000D01*
X540000Y598000D02*
X570000Y568000D01*
X540000Y598000D02*
Y857000D01*
X496000Y901000D02*
X540000Y857000D01*
X354600Y780000D02*
X366600Y792000D01*
X696380Y789000D02*
X697380Y790000D01*
X671000Y789000D02*
X696380D01*
X771620Y464000D02*
X783000D01*
X783000Y464000D02*
X785000D01*
X798760Y450240D01*
X519000Y940000D02*
X581000Y1002000D01*
X594500D01*
X610500Y1018000D01*
X456000Y940000D02*
X519000D01*
X410000Y894000D02*
X456000Y940000D01*
X551337Y642000D02*
Y645332D01*
Y643666D01*
X561334D01*
Y642000D01*
Y645332D01*
X551337Y650331D02*
X561334D01*
X558002D01*
X551337Y656995D01*
X556335Y651997D01*
X561334Y656995D01*
X563000Y660327D02*
Y666992D01*
X561334Y671990D02*
X553003D01*
X556335D01*
Y670324D01*
Y673656D01*
Y671990D01*
X553003D01*
X551337Y673656D01*
X561334Y683653D02*
Y680321D01*
X559668Y678655D01*
X556335D01*
X554669Y680321D01*
Y683653D01*
X556335Y685319D01*
X558002D01*
Y678655D01*
X554669Y695316D02*
Y690318D01*
X556335Y688652D01*
X559668D01*
X561334Y690318D01*
Y695316D01*
Y698648D02*
Y701981D01*
Y700315D01*
X554669D01*
Y698648D01*
X553003Y708645D02*
X554669D01*
Y706979D01*
Y710311D01*
Y708645D01*
X559668D01*
X561334Y710311D01*
D29*
X580000Y560000D02*
X592750Y572750D01*
X661750D01*
X662000Y573000D01*
X985000Y425000D02*
X992380D01*
X1050000Y950000D02*
Y957380D01*
X425000Y425000D02*
X437380D01*
X800000Y1050000D02*
X808000Y1042000D01*
X591000Y1050000D02*
X800000D01*
X499000Y958000D02*
X591000Y1050000D01*
X367000Y958000D02*
X499000D01*
X324000Y915000D02*
X367000Y958000D01*
X808000Y1038000D02*
Y1042000D01*
X324000Y685000D02*
Y915000D01*
X324000Y685000D02*
X332000Y677000D01*
X324000Y685000D02*
X324000D01*
D30*
X380000Y627600D02*
X391600D01*
X404000Y640000D01*
Y678000D01*
X1050000Y972620D02*
Y1020000D01*
X452620Y1020000D02*
X500000D01*
X404000Y678000D02*
X431000Y705000D01*
X478000D01*
X483240Y699760D01*
Y683000D02*
Y695760D01*
X1007620Y425000D02*
X1050000D01*
X452620D02*
X500000D01*
X340200Y576800D02*
X354600D01*
X332000Y585000D02*
X340200Y576800D01*
X332000Y585000D02*
Y677000D01*
D31*
X482300Y650000D02*
Y682060D01*
D32*
X504500Y576500D02*
D03*
D33*
X458500Y547500D02*
D03*
D34*
X517000Y503500D02*
D03*
D35*
X988500Y600000D02*
D03*
D36*
X550000Y487500D02*
D03*
D37*
X960000Y407500D02*
D03*
X959000Y457500D02*
D03*
D38*
X1015000Y485700D02*
D03*
Y523800D02*
D03*
Y561900D02*
D03*
Y600000D02*
D03*
X1015000Y785700D02*
D03*
Y823800D02*
D03*
Y861900D02*
D03*
Y900000D02*
D03*
D39*
X500000Y425000D02*
D03*
X369000Y450000D02*
D03*
Y1010000D02*
D03*
X1050000Y425000D02*
D03*
Y1020000D02*
D03*
X500000D02*
D03*
D40*
X354600Y703800D02*
D03*
Y754600D02*
D03*
Y729200D02*
D03*
Y780000D02*
D03*
Y678400D02*
D03*
Y653000D02*
D03*
Y627600D02*
D03*
Y602200D02*
D03*
Y576800D02*
D03*
Y551400D02*
D03*
X380000Y576800D02*
D03*
Y602200D02*
D03*
Y627600D02*
D03*
Y653000D02*
D03*
Y678400D02*
D03*
Y703800D02*
D03*
Y729200D02*
D03*
Y754600D02*
D03*
Y780000D02*
D03*
Y907000D02*
D03*
Y881600D02*
D03*
Y856200D02*
D03*
Y830800D02*
D03*
Y805400D02*
D03*
X354600D02*
D03*
Y830800D02*
D03*
Y856200D02*
D03*
Y881600D02*
D03*
Y907000D02*
D03*
D41*
X380000Y551400D02*
D03*
D42*
X645400Y415000D02*
D03*
X620000D02*
D03*
D43*
X769000Y445000D02*
D03*
X867000Y1060000D02*
D03*
X855000D02*
D03*
X881000Y616000D02*
D03*
X912000Y599000D02*
D03*
X851000Y569000D02*
D03*
X940000Y645000D02*
D03*
X928000Y621000D02*
D03*
X731000Y394000D02*
D03*
X743000Y395000D02*
D03*
X751000Y417000D02*
D03*
X716000Y404000D02*
D03*
Y416000D02*
D03*
X409000Y555000D02*
D03*
X397000Y555000D02*
D03*
X580000Y560000D02*
D03*
X662000Y573000D02*
D03*
X917000Y615000D02*
D03*
X871000Y1026000D02*
D03*
X735000Y648000D02*
D03*
Y661000D02*
D03*
Y617000D02*
D03*
Y632000D02*
D03*
Y720000D02*
D03*
Y735000D02*
D03*
Y750000D02*
D03*
Y765000D02*
D03*
Y920000D02*
D03*
Y935000D02*
D03*
Y950000D02*
D03*
Y965000D02*
D03*
X734000Y853000D02*
D03*
Y867000D02*
D03*
Y820000D02*
D03*
Y835000D02*
D03*
X800000Y635000D02*
D03*
X815000D02*
D03*
X830000D02*
D03*
X845000D02*
D03*
X860000D02*
D03*
X810000Y758000D02*
D03*
X825000D02*
D03*
X840000D02*
D03*
X855000D02*
D03*
X871000D02*
D03*
X870000Y740000D02*
D03*
X855000D02*
D03*
X840000D02*
D03*
X825000D02*
D03*
X810000D02*
D03*
X800000Y820000D02*
D03*
X890000Y840000D02*
D03*
X875000D02*
D03*
X815000D02*
D03*
X830000D02*
D03*
X800000D02*
D03*
X845000D02*
D03*
X860000D02*
D03*
X825000Y940000D02*
D03*
X840000D02*
D03*
X810000D02*
D03*
X855000D02*
D03*
X870000D02*
D03*
X960000Y955000D02*
D03*
Y980000D02*
D03*
X1035000Y955000D02*
D03*
Y980000D02*
D03*
X1015000Y955000D02*
D03*
Y980000D02*
D03*
Y1006000D02*
D03*
Y1025000D02*
D03*
X940000Y1015000D02*
D03*
X907000Y955000D02*
D03*
Y980000D02*
D03*
Y1005000D02*
D03*
Y1025000D02*
D03*
X940000Y968000D02*
D03*
X371000Y940000D02*
D03*
X438000Y795000D02*
D03*
X724000Y990000D02*
D03*
X696000Y1006000D02*
D03*
X728000Y1038000D02*
D03*
X810000Y695000D02*
D03*
X825000D02*
D03*
X840000D02*
D03*
X855000D02*
D03*
X870000D02*
D03*
Y585000D02*
D03*
X855000D02*
D03*
X840000D02*
D03*
X825000D02*
D03*
X810000D02*
D03*
X930000Y955000D02*
D03*
Y980000D02*
D03*
Y1005000D02*
D03*
Y1025000D02*
D03*
X825000Y895000D02*
D03*
X840000D02*
D03*
X810000D02*
D03*
X855000D02*
D03*
X870000D02*
D03*
X715000Y965000D02*
D03*
Y950000D02*
D03*
Y935000D02*
D03*
Y920000D02*
D03*
Y835000D02*
D03*
Y820000D02*
D03*
Y765000D02*
D03*
Y750000D02*
D03*
Y735000D02*
D03*
Y720000D02*
D03*
X725000Y565000D02*
D03*
X745000D02*
D03*
X770000D02*
D03*
X810000Y795000D02*
D03*
X825000D02*
D03*
X840000D02*
D03*
X855000D02*
D03*
X822000Y600000D02*
D03*
X774000Y622000D02*
D03*
X822000Y706000D02*
D03*
X774000Y727000D02*
D03*
X822000Y806000D02*
D03*
X774000Y827000D02*
D03*
X822000Y905000D02*
D03*
X774000Y927000D02*
D03*
X686000Y480000D02*
D03*
X685000Y590000D02*
D03*
Y615000D02*
D03*
Y700000D02*
D03*
Y725000D02*
D03*
Y805000D02*
D03*
Y830000D02*
D03*
Y905000D02*
D03*
Y930000D02*
D03*
X783000Y565000D02*
D03*
X661000Y604000D02*
D03*
Y629000D02*
D03*
Y739000D02*
D03*
Y714000D02*
D03*
Y844000D02*
D03*
Y819000D02*
D03*
Y919000D02*
D03*
Y944000D02*
D03*
Y519000D02*
D03*
Y494000D02*
D03*
X691000Y449000D02*
D03*
X856000Y1029000D02*
D03*
X855000Y1005000D02*
D03*
X960000Y1026000D02*
D03*
X334000Y830000D02*
D03*
Y875000D02*
D03*
X601000Y507000D02*
D03*
Y493000D02*
D03*
Y617000D02*
D03*
Y604000D02*
D03*
Y727000D02*
D03*
Y713000D02*
D03*
Y832000D02*
D03*
Y818000D02*
D03*
Y918000D02*
D03*
Y931000D02*
D03*
X610000Y952000D02*
D03*
Y898000D02*
D03*
Y853000D02*
D03*
Y798000D02*
D03*
Y748000D02*
D03*
Y692000D02*
D03*
Y638000D02*
D03*
Y582000D02*
D03*
X579000Y591000D02*
D03*
X581950Y629050D02*
D03*
X580000Y701000D02*
D03*
X581950Y739050D02*
D03*
X580000Y806000D02*
D03*
X582950Y844050D02*
D03*
X580000Y906000D02*
D03*
X578950Y944050D02*
D03*
X580000Y481000D02*
D03*
X581000Y519000D02*
D03*
X610000Y528000D02*
D03*
Y472000D02*
D03*
X774000Y952000D02*
D03*
Y853000D02*
D03*
X773000Y752000D02*
D03*
Y647000D02*
D03*
X715000Y632000D02*
D03*
Y617000D02*
D03*
Y661000D02*
D03*
Y648000D02*
D03*
Y867000D02*
D03*
Y853000D02*
D03*
X441000Y880000D02*
D03*
X454000Y881000D02*
D03*
X472500Y797000D02*
D03*
X470000Y580000D02*
D03*
X483000D02*
D03*
X440000Y513000D02*
D03*
Y487000D02*
D03*
X534000Y535000D02*
D03*
X561000D02*
D03*
X457000Y661000D02*
D03*
Y675000D02*
D03*
X431000Y641000D02*
D03*
X466000Y627000D02*
D03*
X486000D02*
D03*
X466000Y615000D02*
D03*
X486000D02*
D03*
X540000Y490000D02*
D03*
X560000D02*
D03*
X540000Y465000D02*
D03*
X560000D02*
D03*
X793000Y1011000D02*
D03*
Y1038000D02*
D03*
X788000Y990000D02*
D03*
X578000Y1017000D02*
D03*
X627000Y1008000D02*
D03*
X647000Y1007000D02*
D03*
X459000Y742000D02*
D03*
Y753000D02*
D03*
X483000Y751000D02*
D03*
Y732000D02*
D03*
X489000Y719000D02*
D03*
X521000Y717000D02*
D03*
X517000Y737000D02*
D03*
X483000Y772000D02*
D03*
X496000D02*
D03*
X520000D02*
D03*
X334000Y888000D02*
D03*
X515000Y645000D02*
D03*
X470000Y661000D02*
D03*
X515000Y671000D02*
D03*
X334000Y945000D02*
D03*
X687000Y430000D02*
D03*
X808000Y1038000D02*
D03*
X718620Y790000D02*
D03*
X738000Y464000D02*
D03*
X622000Y518000D02*
D03*
X783000Y464000D02*
D03*
X671000Y789000D02*
D03*
X800000Y855000D02*
D03*
X815000D02*
D03*
X830000D02*
D03*
X845000D02*
D03*
X860000D02*
D03*
X875000D02*
D03*
X890000D02*
D03*
X905000D02*
D03*
X920000D02*
D03*
X870000Y955000D02*
D03*
X855000D02*
D03*
X810000D02*
D03*
X840000D02*
D03*
X825000D02*
D03*
X995000D02*
D03*
Y980000D02*
D03*
Y1005000D02*
D03*
Y1025000D02*
D03*
X915000Y405000D02*
D03*
X895000D02*
D03*
X935000D02*
D03*
X875000D02*
D03*
X795000D02*
D03*
X815000D02*
D03*
X835000D02*
D03*
X855000D02*
D03*
X870000Y650000D02*
D03*
X855000D02*
D03*
X840000D02*
D03*
X825000D02*
D03*
X810000D02*
D03*
X1005000Y735000D02*
D03*
Y720000D02*
D03*
Y705000D02*
D03*
Y690000D02*
D03*
Y675000D02*
D03*
Y660000D02*
D03*
X965000Y735000D02*
D03*
Y720000D02*
D03*
Y705000D02*
D03*
Y690000D02*
D03*
Y675000D02*
D03*
Y660000D02*
D03*
X815000Y450000D02*
D03*
X830000D02*
D03*
X850000D02*
D03*
X865000D02*
D03*
X885000D02*
D03*
X900000D02*
D03*
X920000D02*
D03*
X890000Y475000D02*
D03*
Y505000D02*
D03*
Y525000D02*
D03*
Y550000D02*
D03*
X945000Y490000D02*
D03*
X985000D02*
D03*
X925000D02*
D03*
X965000D02*
D03*
X985000Y425000D02*
D03*
X1050000Y950000D02*
D03*
X425000Y425000D02*
D03*
X430000Y1020000D02*
D03*
X314000Y842000D02*
D03*
M02*
