G04 Layer_Color=8388736*
%FSLAX44Y44*%
%MOMM*%
G71*
G01*
G75*
%ADD54R,1.0032X1.1032*%
%ADD55O,0.8032X2.1032*%
%ADD56O,2.1032X0.8032*%
%ADD57R,1.1032X1.0032*%
%ADD58R,2.2032X3.4032*%
%ADD59R,1.6032X2.8032*%
%ADD60R,4.0032X4.4032*%
%ADD61R,2.8032X1.6032*%
%ADD62R,1.3032X0.8532*%
%ADD63R,3.2032X2.3332*%
%ADD64O,0.7032X2.4032*%
%ADD65R,0.7032X2.4032*%
%ADD66R,1.9032X2.7032*%
%ADD67R,4.7032X2.4032*%
%ADD68R,1.1032X1.3032*%
%ADD69R,1.2032X1.2032*%
%ADD70C,2.2032*%
%ADD71C,2.3032*%
%ADD72C,5.2032*%
%ADD73C,1.8032*%
%ADD74R,1.8032X1.8032*%
%ADD75C,2.0032*%
D54*
X812380Y1038000D02*
D03*
X827620D02*
D03*
X855380Y569000D02*
D03*
X870620D02*
D03*
X787620Y1038000D02*
D03*
X772380D02*
D03*
X787620Y1011000D02*
D03*
X772380D02*
D03*
X782620Y990000D02*
D03*
X767380D02*
D03*
X696380Y464000D02*
D03*
X711620D02*
D03*
X1007620Y425000D02*
D03*
X992380D02*
D03*
X452620D02*
D03*
X437380D02*
D03*
X452620Y1020000D02*
D03*
X437380D02*
D03*
X497380Y737000D02*
D03*
X512620D02*
D03*
X667380Y480000D02*
D03*
X682620D02*
D03*
X597620Y545000D02*
D03*
X582380D02*
D03*
X667380Y590000D02*
D03*
X682620D02*
D03*
X667380Y615000D02*
D03*
X682620D02*
D03*
X597620Y660000D02*
D03*
X582380D02*
D03*
X667380Y700000D02*
D03*
X682620D02*
D03*
X667380Y725000D02*
D03*
X682620D02*
D03*
X597620Y770000D02*
D03*
X582380D02*
D03*
X697380Y790000D02*
D03*
X712620D02*
D03*
X667380Y805000D02*
D03*
X682620D02*
D03*
X667380Y830000D02*
D03*
X682620D02*
D03*
X597620Y870000D02*
D03*
X582380D02*
D03*
X667380Y905000D02*
D03*
X682620D02*
D03*
X667380Y930000D02*
D03*
X682620D02*
D03*
X597620Y970000D02*
D03*
X582380D02*
D03*
X747620Y1038000D02*
D03*
X732380D02*
D03*
X747620Y1011000D02*
D03*
X732380D02*
D03*
X742620Y990000D02*
D03*
X727380D02*
D03*
X808380Y999000D02*
D03*
X823620D02*
D03*
X757000Y449000D02*
D03*
X771000D02*
D03*
X771620Y464000D02*
D03*
X756380D02*
D03*
X711000Y449000D02*
D03*
X697000D02*
D03*
D55*
X841950Y990000D02*
D03*
X854650D02*
D03*
X867350D02*
D03*
X880050D02*
D03*
X841950Y1050000D02*
D03*
X854650D02*
D03*
X867350D02*
D03*
X880050D02*
D03*
X882950Y581000D02*
D03*
X895650D02*
D03*
X908350D02*
D03*
X921050D02*
D03*
X882950Y641000D02*
D03*
X895650D02*
D03*
X908350D02*
D03*
X921050D02*
D03*
X479050Y870000D02*
D03*
X466350D02*
D03*
X453650D02*
D03*
X440950D02*
D03*
X479050Y810000D02*
D03*
X466350D02*
D03*
X453650D02*
D03*
X440950D02*
D03*
D56*
X766000Y390950D02*
D03*
Y403650D02*
D03*
Y416350D02*
D03*
Y429050D02*
D03*
X706000Y390950D02*
D03*
Y403650D02*
D03*
Y416350D02*
D03*
Y429050D02*
D03*
X590000Y519050D02*
D03*
Y506350D02*
D03*
Y493650D02*
D03*
Y480950D02*
D03*
X650000Y519050D02*
D03*
Y506350D02*
D03*
Y493650D02*
D03*
Y480950D02*
D03*
X590000Y629050D02*
D03*
Y616350D02*
D03*
Y603650D02*
D03*
Y590950D02*
D03*
X650000Y629050D02*
D03*
Y616350D02*
D03*
Y603650D02*
D03*
Y590950D02*
D03*
X590000Y739050D02*
D03*
Y726350D02*
D03*
Y713650D02*
D03*
Y700950D02*
D03*
X650000Y739050D02*
D03*
Y726350D02*
D03*
Y713650D02*
D03*
Y700950D02*
D03*
X590000Y844050D02*
D03*
Y831350D02*
D03*
Y818650D02*
D03*
Y805950D02*
D03*
X650000Y844050D02*
D03*
Y831350D02*
D03*
Y818650D02*
D03*
Y805950D02*
D03*
X590000Y944050D02*
D03*
Y931350D02*
D03*
Y918650D02*
D03*
Y905950D02*
D03*
X650000Y944050D02*
D03*
Y931350D02*
D03*
Y918650D02*
D03*
Y905950D02*
D03*
D57*
X1050000Y972620D02*
D03*
Y957380D02*
D03*
X667000Y1028620D02*
D03*
Y1013380D02*
D03*
X733000Y463620D02*
D03*
Y448380D02*
D03*
X515000Y664620D02*
D03*
Y649380D02*
D03*
Y613000D02*
D03*
Y627000D02*
D03*
Y693620D02*
D03*
Y678380D02*
D03*
X431000Y621380D02*
D03*
Y636620D02*
D03*
Y586380D02*
D03*
Y601620D02*
D03*
X647000Y1013380D02*
D03*
Y1028620D02*
D03*
X627000Y1028000D02*
D03*
Y1014000D02*
D03*
X687000Y411380D02*
D03*
Y426620D02*
D03*
D58*
X891700Y540000D02*
D03*
X828300D02*
D03*
X891700Y490000D02*
D03*
X828300D02*
D03*
D59*
X764760Y590000D02*
D03*
X795240D02*
D03*
X764760Y895000D02*
D03*
X795240D02*
D03*
X764760Y795000D02*
D03*
X795240D02*
D03*
X764760Y695000D02*
D03*
X795240D02*
D03*
X483240Y683000D02*
D03*
X452760D02*
D03*
D60*
X965000Y593000D02*
D03*
Y527000D02*
D03*
D61*
X547000Y503760D02*
D03*
Y534240D02*
D03*
X910000Y450240D02*
D03*
Y419760D02*
D03*
X875000Y450240D02*
D03*
Y419760D02*
D03*
X840000Y450240D02*
D03*
Y419760D02*
D03*
X805000Y450240D02*
D03*
Y419760D02*
D03*
D62*
X453000Y751500D02*
D03*
Y742000D02*
D03*
Y732500D02*
D03*
X477000D02*
D03*
Y751500D02*
D03*
D63*
X475950Y621250D02*
D03*
D64*
X456900Y592500D02*
D03*
X469600D02*
D03*
X482300D02*
D03*
X495000D02*
D03*
X456900Y650000D02*
D03*
X469600D02*
D03*
X482300D02*
D03*
D65*
X495000D02*
D03*
D66*
X440000Y550000D02*
D03*
Y500000D02*
D03*
D67*
X495000Y503500D02*
D03*
Y546500D02*
D03*
D68*
X651500Y545000D02*
D03*
X618500D02*
D03*
X651500Y660000D02*
D03*
X618500D02*
D03*
X651500Y770000D02*
D03*
X618500D02*
D03*
X651500Y870000D02*
D03*
X618500D02*
D03*
X651500Y970000D02*
D03*
X618500D02*
D03*
D69*
X610500Y1018000D02*
D03*
X583500D02*
D03*
D70*
X960000Y407500D02*
D03*
X959000Y457500D02*
D03*
D71*
X1015000Y485700D02*
D03*
Y523800D02*
D03*
Y561900D02*
D03*
Y600000D02*
D03*
X1015000Y785700D02*
D03*
Y823800D02*
D03*
Y861900D02*
D03*
Y900000D02*
D03*
D72*
X500000Y425000D02*
D03*
X369000Y450000D02*
D03*
Y1010000D02*
D03*
X1050000Y425000D02*
D03*
Y1020000D02*
D03*
X500000D02*
D03*
D73*
X354600Y703800D02*
D03*
Y754600D02*
D03*
Y729200D02*
D03*
Y780000D02*
D03*
Y678400D02*
D03*
Y653000D02*
D03*
Y627600D02*
D03*
Y602200D02*
D03*
Y576800D02*
D03*
Y551400D02*
D03*
X380000Y576800D02*
D03*
Y602200D02*
D03*
Y627600D02*
D03*
Y653000D02*
D03*
Y678400D02*
D03*
Y703800D02*
D03*
Y729200D02*
D03*
Y754600D02*
D03*
Y780000D02*
D03*
Y907000D02*
D03*
Y881600D02*
D03*
Y856200D02*
D03*
Y830800D02*
D03*
Y805400D02*
D03*
X354600D02*
D03*
Y830800D02*
D03*
Y856200D02*
D03*
Y881600D02*
D03*
Y907000D02*
D03*
D74*
X380000Y551400D02*
D03*
D75*
X645400Y415000D02*
D03*
X620000D02*
D03*
M02*
