G04 Layer_Physical_Order=4*
G04 Layer_Color=16711680*
%FSLAX44Y44*%
%MOMM*%
G71*
G01*
G75*
%ADD10R,2.0000X3.2000*%
%ADD11R,0.8000X0.9000*%
%ADD12R,0.9000X0.8000*%
%ADD30C,0.7500*%
%ADD32C,0.2000*%
%ADD33C,0.5000*%
%ADD34C,0.3000*%
%ADD41C,1.8000*%
%ADD42C,1.6000*%
%ADD43R,1.6000X1.6000*%
%ADD44C,2.1000*%
%ADD45C,5.0000*%
%ADD46C,2.0000*%
%ADD47C,0.7000*%
%ADD48R,1.0000X1.0000*%
%ADD49R,1.5000X0.5000*%
%ADD50R,0.5000X1.5000*%
G36*
X1095000Y845000D02*
X1000000D01*
Y880000D01*
X1040000D01*
Y945000D01*
X950000D01*
Y1035000D01*
X1026226D01*
X1026847Y1033892D01*
X1025869Y1032296D01*
X1024242Y1028369D01*
X1023250Y1024237D01*
X1022916Y1020000D01*
X1023250Y1015763D01*
X1024242Y1011631D01*
X1025869Y1007704D01*
X1028089Y1004081D01*
X1030849Y1000849D01*
X1034081Y998089D01*
X1037704Y995868D01*
X1041631Y994242D01*
X1045763Y993250D01*
X1050000Y992916D01*
X1054237Y993250D01*
X1058369Y994242D01*
X1062296Y995868D01*
X1065919Y998089D01*
X1069151Y1000849D01*
X1071911Y1004081D01*
X1074132Y1007704D01*
X1075758Y1011631D01*
X1076750Y1015763D01*
X1077084Y1020000D01*
X1076750Y1024237D01*
X1075758Y1028369D01*
X1074132Y1032296D01*
X1073153Y1033892D01*
X1073774Y1035000D01*
X1095000D01*
Y845000D01*
D02*
G37*
G36*
X895000Y955000D02*
X910000Y940000D01*
X1035000D01*
Y885000D01*
X920000D01*
X870000Y935000D01*
X869000D01*
Y934000D01*
X813000D01*
Y935000D01*
X750000D01*
Y985000D01*
X785583D01*
X785854Y984819D01*
X788000Y984392D01*
X790146Y984819D01*
X790417Y985000D01*
X895000D01*
Y955000D01*
D02*
G37*
G36*
X745000Y930000D02*
X750500D01*
Y922400D01*
X759557D01*
X760000Y922312D01*
X771117D01*
X771854Y921819D01*
X774000Y921392D01*
X776146Y921819D01*
X776730Y922209D01*
X778000Y921871D01*
Y919500D01*
X780000D01*
Y890000D01*
X745000D01*
Y830000D01*
X750500D01*
Y822400D01*
X759557D01*
X760000Y822312D01*
X771117D01*
X771854Y821819D01*
X774000Y821392D01*
X776146Y821819D01*
X776730Y822209D01*
X778000Y821871D01*
Y819500D01*
X780000D01*
Y790000D01*
X745000D01*
Y730000D01*
X750500D01*
Y722400D01*
X759557D01*
X760000Y722312D01*
X771117D01*
X771854Y721819D01*
X774000Y721392D01*
X776146Y721819D01*
X776730Y722209D01*
X778000Y721871D01*
Y719500D01*
X780000D01*
Y685000D01*
X745000D01*
Y625000D01*
X750500D01*
Y617400D01*
X759557D01*
X760000Y617312D01*
X771117D01*
X771854Y616819D01*
X774000Y616392D01*
X776146Y616819D01*
X776730Y617209D01*
X778000Y616871D01*
Y614500D01*
X780000D01*
Y575000D01*
X690000D01*
Y587583D01*
X690181Y587854D01*
X690608Y590000D01*
X690181Y592146D01*
X690000Y592417D01*
Y612583D01*
X690181Y612854D01*
X690608Y615000D01*
X690181Y617146D01*
X690000Y617417D01*
Y697583D01*
X690181Y697854D01*
X690608Y700000D01*
X690181Y702146D01*
X690000Y702417D01*
Y722583D01*
X690181Y722854D01*
X690608Y725000D01*
X690181Y727146D01*
X690000Y727417D01*
Y802583D01*
X690181Y802854D01*
X690608Y805000D01*
X690181Y807146D01*
X690000Y807417D01*
Y827583D01*
X690181Y827854D01*
X690608Y830000D01*
X690181Y832146D01*
X690000Y832417D01*
Y902583D01*
X690181Y902854D01*
X690608Y905000D01*
X690181Y907146D01*
X690000Y907417D01*
Y927583D01*
X690181Y927854D01*
X690608Y930000D01*
X690181Y932146D01*
X690000Y932417D01*
Y985000D01*
X721583D01*
X721854Y984819D01*
X724000Y984392D01*
X726146Y984819D01*
X726417Y985000D01*
X745000D01*
Y930000D01*
D02*
G37*
G36*
X945000Y945000D02*
X910000D01*
X900000Y955000D01*
Y1035000D01*
X945000D01*
Y945000D01*
D02*
G37*
G36*
X903827Y891173D02*
X903341Y890000D01*
X785000D01*
Y919500D01*
X792000D01*
Y930000D01*
X865000Y930000D01*
X903827Y891173D01*
D02*
G37*
G36*
X920000Y880000D02*
X930000D01*
Y845000D01*
X910000D01*
X900000Y835000D01*
X894529D01*
X894122Y836270D01*
X895181Y837854D01*
X895608Y840000D01*
X895181Y842146D01*
X893965Y843965D01*
X892146Y845181D01*
X890000Y845608D01*
X887854Y845181D01*
X886035Y843965D01*
X884819Y842146D01*
X884392Y840000D01*
X884819Y837854D01*
X885878Y836270D01*
X885471Y835000D01*
X879529D01*
X879122Y836270D01*
X880181Y837854D01*
X880608Y840000D01*
X880181Y842146D01*
X878965Y843965D01*
X877146Y845181D01*
X875000Y845608D01*
X872854Y845181D01*
X871035Y843965D01*
X869819Y842146D01*
X869392Y840000D01*
X869819Y837854D01*
X870878Y836270D01*
X870471Y835000D01*
X869000D01*
Y834000D01*
X813000D01*
Y835000D01*
X750000D01*
Y885000D01*
X915000D01*
X920000Y880000D01*
D02*
G37*
G36*
X893827Y828827D02*
X855000Y790000D01*
X785000D01*
Y819500D01*
X792000D01*
Y830000D01*
X893341D01*
X893827Y828827D01*
D02*
G37*
G36*
X1095000Y805000D02*
X935000D01*
X875000Y745000D01*
Y735000D01*
X869000D01*
Y734000D01*
X813000D01*
Y735000D01*
X750000D01*
Y785000D01*
X855000D01*
X910000Y840000D01*
X1095000D01*
Y805000D01*
D02*
G37*
G36*
X875000Y685000D02*
X785000D01*
Y719500D01*
X792000D01*
Y730000D01*
X875000D01*
Y685000D01*
D02*
G37*
G36*
X1095000Y630000D02*
X935000D01*
Y800000D01*
X1095000D01*
Y630000D01*
D02*
G37*
G36*
X930000Y793341D02*
Y630000D01*
X886021D01*
X885264Y631270D01*
X885608Y633000D01*
X885181Y635146D01*
X883965Y636965D01*
X882146Y638181D01*
X880000Y638608D01*
X877854Y638181D01*
X876035Y636965D01*
X874819Y635146D01*
X874392Y633000D01*
X874736Y631270D01*
X873979Y630000D01*
X869000D01*
Y629000D01*
X813000D01*
Y630000D01*
X750000D01*
Y680000D01*
X880000D01*
Y745000D01*
X928827Y793827D01*
X930000Y793341D01*
D02*
G37*
G36*
X1030000Y545000D02*
X970000D01*
Y580000D01*
X935000D01*
Y625000D01*
X1030000D01*
Y545000D01*
D02*
G37*
G36*
X930000Y575000D02*
X965000D01*
Y545000D01*
X894529D01*
X894122Y546270D01*
X895181Y547854D01*
X895608Y550000D01*
X895181Y552146D01*
X893965Y553965D01*
X892146Y555181D01*
X890000Y555608D01*
X887854Y555181D01*
X886035Y553965D01*
X884819Y552146D01*
X884392Y550000D01*
X884819Y547854D01*
X885878Y546270D01*
X885471Y545000D01*
X788663D01*
X787600Y545500D01*
Y561985D01*
X788181Y562854D01*
X788608Y565000D01*
X788181Y567146D01*
X786965Y568965D01*
X785146Y570181D01*
X785000Y570210D01*
Y614500D01*
X792000D01*
Y625000D01*
X930000D01*
Y575000D01*
D02*
G37*
G36*
X778877Y568730D02*
X777819Y567146D01*
X777392Y565000D01*
X777819Y562854D01*
X778600Y561685D01*
Y545500D01*
X777537Y545000D01*
X720000D01*
Y570000D01*
X778471D01*
X778877Y568730D01*
D02*
G37*
G36*
X1030000Y500000D02*
X894529D01*
X894122Y501270D01*
X895181Y502854D01*
X895608Y505000D01*
X895181Y507146D01*
X893965Y508965D01*
X892146Y510181D01*
X890000Y510608D01*
X887854Y510181D01*
X886035Y508965D01*
X884819Y507146D01*
X884392Y505000D01*
X884819Y502854D01*
X885878Y501270D01*
X885471Y500000D01*
X792000D01*
Y494000D01*
X736000D01*
Y500000D01*
X720000D01*
Y540000D01*
X1030000D01*
Y500000D01*
D02*
G37*
%LPC*%
G36*
X1050000Y955608D02*
X1047854Y955181D01*
X1046035Y953965D01*
X1044819Y952146D01*
X1044392Y950000D01*
X1044819Y947854D01*
X1046035Y946035D01*
X1047854Y944819D01*
X1050000Y944392D01*
X1052146Y944819D01*
X1053965Y946035D01*
X1055181Y947854D01*
X1055608Y950000D01*
X1055181Y952146D01*
X1053965Y953965D01*
X1052146Y955181D01*
X1050000Y955608D01*
D02*
G37*
G36*
X718620Y795608D02*
X716474Y795181D01*
X714655Y793965D01*
X713439Y792146D01*
X713012Y790000D01*
X713439Y787854D01*
X714655Y786035D01*
X716474Y784819D01*
X718620Y784392D01*
X720766Y784819D01*
X722585Y786035D01*
X723801Y787854D01*
X724228Y790000D01*
X723801Y792146D01*
X722585Y793965D01*
X720766Y795181D01*
X718620Y795608D01*
D02*
G37*
G36*
X826400Y924500D02*
X817400D01*
Y908015D01*
X816819Y907146D01*
X816392Y905000D01*
X816819Y902854D01*
X818035Y901035D01*
X819854Y899819D01*
X822000Y899392D01*
X824146Y899819D01*
X825965Y901035D01*
X827181Y902854D01*
X827608Y905000D01*
X827181Y907146D01*
X826400Y908315D01*
Y924500D01*
D02*
G37*
G36*
X826400Y824500D02*
X817400D01*
Y809015D01*
X816819Y808146D01*
X816392Y806000D01*
X816819Y803854D01*
X818035Y802035D01*
X819854Y800819D01*
X822000Y800392D01*
X824146Y800819D01*
X825965Y802035D01*
X827181Y803854D01*
X827608Y806000D01*
X827181Y808146D01*
X826400Y809315D01*
Y824500D01*
D02*
G37*
G36*
X826400Y724500D02*
X817400D01*
Y709015D01*
X816819Y708146D01*
X816392Y706000D01*
X816819Y703854D01*
X818035Y702035D01*
X819854Y700819D01*
X822000Y700392D01*
X824146Y700819D01*
X825965Y702035D01*
X827181Y703854D01*
X827608Y706000D01*
X827181Y708146D01*
X826400Y709315D01*
Y724500D01*
D02*
G37*
G36*
X1015000Y574508D02*
X1011737Y574078D01*
X1008696Y572819D01*
X1006085Y570815D01*
X1004081Y568204D01*
X1002822Y565163D01*
X1002392Y561900D01*
X1002822Y558637D01*
X1004081Y555596D01*
X1006085Y552985D01*
X1008696Y550981D01*
X1011737Y549722D01*
X1015000Y549292D01*
X1018263Y549722D01*
X1021304Y550981D01*
X1023915Y552985D01*
X1025919Y555596D01*
X1027178Y558637D01*
X1027608Y561900D01*
X1027178Y565163D01*
X1025919Y568204D01*
X1023915Y570815D01*
X1021304Y572819D01*
X1018263Y574078D01*
X1015000Y574508D01*
D02*
G37*
G36*
X826400Y619500D02*
X817400D01*
Y603015D01*
X816819Y602146D01*
X816392Y600000D01*
X816819Y597854D01*
X818035Y596035D01*
X819854Y594819D01*
X822000Y594392D01*
X824146Y594819D01*
X825965Y596035D01*
X827181Y597854D01*
X827608Y600000D01*
X827181Y602146D01*
X826400Y603315D01*
Y619500D01*
D02*
G37*
G36*
X907500Y606000D02*
X906500D01*
X906500Y606000D01*
X893500D01*
Y594000D01*
X896592D01*
X896756Y593756D01*
X898611Y591900D01*
X898819Y590854D01*
X900035Y589035D01*
X901854Y587819D01*
X904000Y587392D01*
X906146Y587819D01*
X907965Y589035D01*
X909181Y590854D01*
X909545Y592684D01*
X909635Y593015D01*
X910776Y593636D01*
X912000Y593392D01*
X914146Y593819D01*
X914417Y594000D01*
X920500D01*
Y606000D01*
X907733D01*
X907500Y606000D01*
D02*
G37*
G36*
X860000Y574608D02*
X857854Y574181D01*
X856035Y572965D01*
X854819Y571146D01*
X854392Y569000D01*
X854819Y566854D01*
X856035Y565035D01*
X857854Y563819D01*
X860000Y563392D01*
X862146Y563819D01*
X863965Y565035D01*
X865181Y566854D01*
X865608Y569000D01*
X865181Y571146D01*
X863965Y572965D01*
X862146Y574181D01*
X860000Y574608D01*
D02*
G37*
G36*
X890000Y530608D02*
X887854Y530181D01*
X886035Y528965D01*
X884819Y527146D01*
X884392Y525000D01*
X884819Y522854D01*
X886035Y521035D01*
X887854Y519819D01*
X890000Y519392D01*
X892146Y519819D01*
X893965Y521035D01*
X895181Y522854D01*
X895608Y525000D01*
X895181Y527146D01*
X893965Y528965D01*
X892146Y530181D01*
X890000Y530608D01*
D02*
G37*
%LPD*%
D10*
X981700Y720000D02*
D03*
X918300D02*
D03*
X981700Y675000D02*
D03*
X918300D02*
D03*
X976700Y1015000D02*
D03*
X913300D02*
D03*
X976700Y970000D02*
D03*
X913300D02*
D03*
D11*
X468380Y600000D02*
D03*
X483620D02*
D03*
X469000Y586000D02*
D03*
X483000D02*
D03*
X334000Y842000D02*
D03*
X320000D02*
D03*
X441000Y887000D02*
D03*
X455000D02*
D03*
X725000Y420000D02*
D03*
X739000D02*
D03*
Y407000D02*
D03*
X725000D02*
D03*
D12*
X610000Y902380D02*
D03*
Y917620D02*
D03*
X661000Y719000D02*
D03*
Y733000D02*
D03*
X610000Y742620D02*
D03*
Y727380D02*
D03*
X581000Y727000D02*
D03*
Y713000D02*
D03*
X610000Y697380D02*
D03*
Y712620D02*
D03*
Y802380D02*
D03*
Y817620D02*
D03*
X900000Y600000D02*
D03*
Y614000D02*
D03*
X661000Y499000D02*
D03*
Y513000D02*
D03*
X580000Y507000D02*
D03*
Y493000D02*
D03*
X610000Y477380D02*
D03*
Y492620D02*
D03*
Y587380D02*
D03*
Y602620D02*
D03*
X579000Y617000D02*
D03*
Y603000D02*
D03*
X456000Y661000D02*
D03*
Y675000D02*
D03*
X483000Y719000D02*
D03*
Y733000D02*
D03*
X520000Y723000D02*
D03*
Y737000D02*
D03*
X496000Y767000D02*
D03*
Y753000D02*
D03*
X483000Y767000D02*
D03*
Y753000D02*
D03*
X464000Y740000D02*
D03*
Y754000D02*
D03*
X334000Y893000D02*
D03*
Y907000D02*
D03*
X400000Y881000D02*
D03*
Y895000D02*
D03*
X415000Y895620D02*
D03*
Y880380D02*
D03*
X334000Y856000D02*
D03*
Y870000D02*
D03*
Y825000D02*
D03*
Y811000D02*
D03*
Y924380D02*
D03*
Y939620D02*
D03*
X855000Y1008000D02*
D03*
Y1022000D02*
D03*
X498000Y600000D02*
D03*
Y614000D02*
D03*
X661000Y924350D02*
D03*
Y938350D02*
D03*
X610000Y522620D02*
D03*
Y507380D02*
D03*
Y947620D02*
D03*
Y932380D02*
D03*
Y847620D02*
D03*
Y832380D02*
D03*
Y632620D02*
D03*
Y617380D02*
D03*
X579000Y932000D02*
D03*
Y918000D02*
D03*
X581000Y832000D02*
D03*
Y818000D02*
D03*
X661000Y824350D02*
D03*
Y838350D02*
D03*
Y609000D02*
D03*
Y623000D02*
D03*
X914000Y600000D02*
D03*
Y614000D02*
D03*
X868000Y1008000D02*
D03*
Y1022000D02*
D03*
D30*
X575000Y555000D02*
X580000Y560000D01*
X397000Y555000D02*
X575000D01*
D32*
X639000Y563000D02*
X724000Y478000D01*
X769000D02*
X783000Y464000D01*
X724000Y478000D02*
X769000D01*
X673000Y800000D02*
X680000Y793000D01*
Y770000D02*
Y793000D01*
X639000Y729000D02*
X680000Y770000D01*
X639000Y563000D02*
Y729000D01*
X637000Y815000D02*
X663000Y789000D01*
X671000D01*
X622000Y518000D02*
X625000Y521000D01*
Y956000D01*
X618000Y963000D02*
X625000Y956000D01*
X571000Y963000D02*
X618000D01*
X427000Y819000D02*
X571000Y963000D01*
X354600Y830800D02*
X366400Y819000D01*
X620000Y415000D02*
X632000Y427000D01*
X618000Y977000D02*
X632000Y963000D01*
Y427000D02*
Y963000D01*
X622000Y982000D02*
X637000Y967000D01*
Y815000D02*
Y967000D01*
X594000Y924000D02*
X601000Y931000D01*
X354600Y678400D02*
X367000Y666000D01*
X529000Y708000D02*
X601000Y780000D01*
Y818000D01*
X610000Y832380D02*
X616620D01*
X620000Y829000D01*
Y790000D02*
Y829000D01*
X354600Y627600D02*
X367000Y640000D01*
X590000Y716000D02*
X601000Y727000D01*
X590000Y700000D02*
Y716000D01*
X580000Y690000D02*
X590000Y700000D01*
X395200Y602200D02*
X408000Y615000D01*
X380000Y602200D02*
X395200D01*
X354600D02*
X366800Y590000D01*
X582000Y684000D02*
X601000Y703000D01*
Y713000D01*
Y588000D02*
Y604000D01*
X593000Y580000D02*
X601000Y588000D01*
X561000Y580000D02*
X593000D01*
X610000Y617380D02*
X614620D01*
X621000Y611000D01*
Y578000D02*
Y611000D01*
X615000Y572000D02*
X621000Y578000D01*
X560000Y572000D02*
X615000D01*
X673000Y800000D02*
Y983000D01*
X728000Y1038000D01*
X398000Y752000D02*
X432000Y786000D01*
X398000Y696400D02*
Y752000D01*
X380000Y678400D02*
X398000Y696400D01*
X405000Y750000D02*
X436000Y781000D01*
X405000Y682000D02*
Y750000D01*
X389000Y666000D02*
X405000Y682000D01*
X367000Y666000D02*
X389000D01*
X380000Y729200D02*
X393000Y742200D01*
Y757000D01*
X431000Y795000D01*
X438000D01*
X354600Y551400D02*
X368200Y565000D01*
X553000D01*
X560000Y572000D01*
X450200Y576800D02*
X455000Y572000D01*
X553000D01*
X561000Y580000D01*
X380000Y576800D02*
X450200D01*
X531000Y701000D02*
X620000Y790000D01*
X380000Y653000D02*
X391000D01*
X446000Y708000D01*
X529000D01*
X367000Y640000D02*
X387000D01*
X448000Y701000D01*
X531000D01*
X408000Y615000D02*
Y651000D01*
X447000Y690000D01*
X580000D01*
X448000Y684000D02*
X582000D01*
X415000Y651000D02*
X448000Y684000D01*
X354600Y907000D02*
X424600Y977000D01*
X618000D01*
X418000Y982000D02*
X622000D01*
X376000Y940000D02*
X418000Y982000D01*
X371000Y940000D02*
X376000D01*
X400000Y895000D02*
Y895620D01*
X366400Y819000D02*
X427000D01*
X432000Y786000D02*
X478000D01*
X594000Y902000D01*
Y924000D01*
X436000Y781000D02*
X482000D01*
X601000Y900000D01*
Y918000D01*
X366800Y590000D02*
X391000D01*
X415000Y614000D01*
Y651000D01*
D33*
X334000Y907000D02*
Y924380D01*
Y907000D02*
X354600D01*
X485000Y753000D02*
X496000D01*
X334000Y842000D02*
X343400D01*
X354600Y830800D01*
X760000Y621900D02*
X785400D01*
X601380Y832380D02*
X610000D01*
X601380Y817620D02*
X610000D01*
X601380Y727380D02*
X610000D01*
X601380Y712620D02*
X610000D01*
X601380Y617380D02*
X610000D01*
X602380Y602620D02*
X610000D01*
X601380Y492620D02*
X610000D01*
X601380Y507380D02*
X610000D01*
X580000Y481000D02*
Y493000D01*
X580000Y507000D02*
Y518000D01*
X579000Y591000D02*
Y603000D01*
X579000Y626100D02*
X581950Y629050D01*
X579000Y617000D02*
Y626100D01*
X580000Y701000D02*
Y712000D01*
X581000Y727000D02*
Y738100D01*
X580000Y806000D02*
Y817000D01*
X581000Y842100D02*
X582950Y844050D01*
X581000Y832000D02*
Y842100D01*
X579000Y932000D02*
Y944000D01*
X580000Y906000D02*
Y917000D01*
X601000Y918000D02*
X601380Y917620D01*
X610000D01*
X601000Y931000D02*
X602380Y932380D01*
X610000D01*
X334200Y856200D02*
X354600D01*
X334000Y811000D02*
X339600Y805400D01*
X354600D01*
X760000Y726900D02*
X784600D01*
X760000Y826900D02*
X784600D01*
X760000Y926900D02*
X784600D01*
X380000Y907000D02*
X391380Y895620D01*
X400000D01*
X415000D01*
X900000Y597000D02*
X904000Y593000D01*
X900000Y597000D02*
Y600000D01*
D34*
X505000Y661000D02*
X515000Y671000D01*
X470000Y661000D02*
X505000D01*
X380000Y881600D02*
X413780D01*
X487000Y614000D02*
X498000D01*
X483620Y600000D02*
X498000D01*
X469000Y586000D02*
Y599380D01*
D41*
X620000Y415000D02*
D03*
X645400D02*
D03*
D42*
X354600Y907000D02*
D03*
Y881600D02*
D03*
Y856200D02*
D03*
Y830800D02*
D03*
Y805400D02*
D03*
X380000D02*
D03*
Y830800D02*
D03*
Y856200D02*
D03*
Y881600D02*
D03*
Y907000D02*
D03*
Y780000D02*
D03*
Y754600D02*
D03*
Y729200D02*
D03*
Y703800D02*
D03*
Y678400D02*
D03*
Y653000D02*
D03*
Y627600D02*
D03*
Y602200D02*
D03*
Y576800D02*
D03*
X354600Y551400D02*
D03*
Y576800D02*
D03*
Y602200D02*
D03*
Y627600D02*
D03*
Y653000D02*
D03*
Y678400D02*
D03*
Y780000D02*
D03*
Y729200D02*
D03*
Y754600D02*
D03*
Y703800D02*
D03*
D43*
X380000Y551400D02*
D03*
D44*
X1015000Y900000D02*
D03*
Y861900D02*
D03*
Y823800D02*
D03*
Y785700D02*
D03*
X1015000Y600000D02*
D03*
Y561900D02*
D03*
Y523800D02*
D03*
Y485700D02*
D03*
D45*
X500000Y1020000D02*
D03*
X1050000D02*
D03*
Y425000D02*
D03*
X369000Y1010000D02*
D03*
Y450000D02*
D03*
X500000Y425000D02*
D03*
D46*
X959000Y470000D02*
D03*
X960000Y395000D02*
D03*
D47*
X314000Y842000D02*
D03*
X430000Y1020000D02*
D03*
X425000Y425000D02*
D03*
X1050000Y950000D02*
D03*
X985000Y425000D02*
D03*
X965000Y490000D02*
D03*
X925000D02*
D03*
X985000D02*
D03*
X945000D02*
D03*
X890000Y550000D02*
D03*
Y525000D02*
D03*
Y505000D02*
D03*
Y475000D02*
D03*
X920000Y450000D02*
D03*
X900000D02*
D03*
X885000D02*
D03*
X865000D02*
D03*
X850000D02*
D03*
X830000D02*
D03*
X815000D02*
D03*
X965000Y660000D02*
D03*
Y675000D02*
D03*
Y690000D02*
D03*
Y705000D02*
D03*
Y720000D02*
D03*
Y735000D02*
D03*
X1005000Y660000D02*
D03*
Y675000D02*
D03*
Y690000D02*
D03*
Y705000D02*
D03*
Y720000D02*
D03*
Y735000D02*
D03*
X810000Y650000D02*
D03*
X825000D02*
D03*
X840000D02*
D03*
X855000D02*
D03*
X870000D02*
D03*
X855000Y405000D02*
D03*
X835000D02*
D03*
X815000D02*
D03*
X795000D02*
D03*
X875000D02*
D03*
X935000D02*
D03*
X895000D02*
D03*
X915000D02*
D03*
X995000Y1025000D02*
D03*
Y1005000D02*
D03*
Y980000D02*
D03*
Y955000D02*
D03*
X825000D02*
D03*
X840000D02*
D03*
X810000D02*
D03*
X855000D02*
D03*
X870000D02*
D03*
X920000Y855000D02*
D03*
X905000D02*
D03*
X890000D02*
D03*
X875000D02*
D03*
X860000D02*
D03*
X845000D02*
D03*
X830000D02*
D03*
X815000D02*
D03*
X800000D02*
D03*
X671000Y789000D02*
D03*
X783000Y464000D02*
D03*
X622000Y518000D02*
D03*
X860000Y569000D02*
D03*
X738000Y464000D02*
D03*
X718620Y790000D02*
D03*
X808000Y1038000D02*
D03*
X880000Y633000D02*
D03*
X687000Y430000D02*
D03*
X334000Y945000D02*
D03*
X515000Y671000D02*
D03*
X470000Y661000D02*
D03*
X515000Y645000D02*
D03*
X334000Y888000D02*
D03*
X520000Y772000D02*
D03*
X496000D02*
D03*
X483000D02*
D03*
X517000Y737000D02*
D03*
X521000Y717000D02*
D03*
X489000Y719000D02*
D03*
X483000Y732000D02*
D03*
Y751000D02*
D03*
X459000Y753000D02*
D03*
Y742000D02*
D03*
X647000Y1007000D02*
D03*
X627000Y1008000D02*
D03*
X578000Y1017000D02*
D03*
X788000Y990000D02*
D03*
X793000Y1038000D02*
D03*
Y1011000D02*
D03*
X560000Y465000D02*
D03*
X540000D02*
D03*
X560000Y490000D02*
D03*
X540000D02*
D03*
X486000Y615000D02*
D03*
X466000D02*
D03*
X486000Y627000D02*
D03*
X466000D02*
D03*
X431000Y641000D02*
D03*
X457000Y675000D02*
D03*
Y661000D02*
D03*
X561000Y535000D02*
D03*
X534000D02*
D03*
X440000Y487000D02*
D03*
Y513000D02*
D03*
X483000Y580000D02*
D03*
X470000D02*
D03*
X472500Y797000D02*
D03*
X454000Y881000D02*
D03*
X441000Y880000D02*
D03*
X940000Y645000D02*
D03*
X927000Y633000D02*
D03*
X904000Y593000D02*
D03*
Y620000D02*
D03*
X715000Y853000D02*
D03*
Y867000D02*
D03*
Y648000D02*
D03*
Y661000D02*
D03*
Y617000D02*
D03*
Y632000D02*
D03*
X773000Y647000D02*
D03*
Y752000D02*
D03*
X774000Y853000D02*
D03*
Y952000D02*
D03*
X610000Y472000D02*
D03*
Y528000D02*
D03*
X581000Y519000D02*
D03*
X580000Y481000D02*
D03*
X578950Y944050D02*
D03*
X580000Y906000D02*
D03*
X582950Y844050D02*
D03*
X580000Y806000D02*
D03*
X581950Y739050D02*
D03*
X580000Y701000D02*
D03*
X581950Y629050D02*
D03*
X579000Y591000D02*
D03*
X610000Y582000D02*
D03*
Y638000D02*
D03*
Y692000D02*
D03*
Y748000D02*
D03*
Y798000D02*
D03*
Y853000D02*
D03*
Y898000D02*
D03*
Y952000D02*
D03*
X601000Y931000D02*
D03*
Y918000D02*
D03*
Y818000D02*
D03*
Y832000D02*
D03*
Y713000D02*
D03*
Y727000D02*
D03*
Y604000D02*
D03*
Y617000D02*
D03*
Y493000D02*
D03*
Y507000D02*
D03*
X334000Y875000D02*
D03*
Y830000D02*
D03*
X960000Y1026000D02*
D03*
X855000Y1005000D02*
D03*
X856000Y1029000D02*
D03*
X776000Y449000D02*
D03*
X691000D02*
D03*
X661000Y494000D02*
D03*
Y519000D02*
D03*
Y944000D02*
D03*
Y919000D02*
D03*
Y819000D02*
D03*
Y844000D02*
D03*
Y714000D02*
D03*
Y739000D02*
D03*
Y629000D02*
D03*
Y604000D02*
D03*
X745000Y419000D02*
D03*
X720000D02*
D03*
X783000Y565000D02*
D03*
X685000Y930000D02*
D03*
Y905000D02*
D03*
Y830000D02*
D03*
Y805000D02*
D03*
Y725000D02*
D03*
Y700000D02*
D03*
Y615000D02*
D03*
Y590000D02*
D03*
X686000Y480000D02*
D03*
X774000Y927000D02*
D03*
X822000Y905000D02*
D03*
X774000Y827000D02*
D03*
X822000Y806000D02*
D03*
X774000Y727000D02*
D03*
X822000Y706000D02*
D03*
X774000Y622000D02*
D03*
X822000Y600000D02*
D03*
X855000Y795000D02*
D03*
X840000D02*
D03*
X825000D02*
D03*
X810000D02*
D03*
X770000Y565000D02*
D03*
X745000D02*
D03*
X725000D02*
D03*
X715000Y720000D02*
D03*
Y735000D02*
D03*
Y750000D02*
D03*
Y765000D02*
D03*
Y820000D02*
D03*
Y835000D02*
D03*
Y920000D02*
D03*
Y935000D02*
D03*
Y950000D02*
D03*
Y965000D02*
D03*
X870000Y895000D02*
D03*
X855000D02*
D03*
X810000D02*
D03*
X840000D02*
D03*
X825000D02*
D03*
X930000Y1025000D02*
D03*
Y1005000D02*
D03*
Y980000D02*
D03*
Y955000D02*
D03*
X810000Y585000D02*
D03*
X825000D02*
D03*
X840000D02*
D03*
X855000D02*
D03*
X870000D02*
D03*
Y695000D02*
D03*
X855000D02*
D03*
X840000D02*
D03*
X825000D02*
D03*
X810000D02*
D03*
X728000Y1038000D02*
D03*
X696000Y1006000D02*
D03*
X724000Y990000D02*
D03*
X438000Y795000D02*
D03*
X371000Y940000D02*
D03*
X940000Y968000D02*
D03*
X907000Y1025000D02*
D03*
Y1005000D02*
D03*
Y980000D02*
D03*
Y955000D02*
D03*
X940000Y1015000D02*
D03*
X1015000Y1025000D02*
D03*
Y1006000D02*
D03*
Y980000D02*
D03*
Y955000D02*
D03*
X1035000Y980000D02*
D03*
Y955000D02*
D03*
X960000Y980000D02*
D03*
Y955000D02*
D03*
X870000Y940000D02*
D03*
X855000D02*
D03*
X810000D02*
D03*
X840000D02*
D03*
X825000D02*
D03*
X860000Y840000D02*
D03*
X845000D02*
D03*
X800000D02*
D03*
X830000D02*
D03*
X815000D02*
D03*
X875000D02*
D03*
X890000D02*
D03*
X800000Y820000D02*
D03*
X810000Y740000D02*
D03*
X825000D02*
D03*
X840000D02*
D03*
X855000D02*
D03*
X870000D02*
D03*
X871000Y758000D02*
D03*
X855000D02*
D03*
X840000D02*
D03*
X825000D02*
D03*
X810000D02*
D03*
X860000Y635000D02*
D03*
X845000D02*
D03*
X830000D02*
D03*
X815000D02*
D03*
X800000D02*
D03*
X734000Y835000D02*
D03*
Y820000D02*
D03*
Y867000D02*
D03*
Y853000D02*
D03*
X735000Y965000D02*
D03*
Y950000D02*
D03*
Y935000D02*
D03*
Y920000D02*
D03*
Y765000D02*
D03*
Y750000D02*
D03*
Y735000D02*
D03*
Y720000D02*
D03*
Y632000D02*
D03*
Y617000D02*
D03*
Y661000D02*
D03*
Y648000D02*
D03*
X865500Y1010500D02*
D03*
X871000Y1026000D02*
D03*
X737000Y409000D02*
D03*
X724000D02*
D03*
X912000Y599000D02*
D03*
X917000Y615000D02*
D03*
X662000Y573000D02*
D03*
X580000Y560000D02*
D03*
X397000Y555000D02*
D03*
X409000Y555000D02*
D03*
D48*
X785000Y953500D02*
D03*
Y926500D02*
D03*
X785000Y853500D02*
D03*
Y826500D02*
D03*
X785000Y753500D02*
D03*
Y726500D02*
D03*
Y648500D02*
D03*
Y621500D02*
D03*
D49*
X760000Y660000D02*
D03*
Y647300D02*
D03*
Y634600D02*
D03*
Y621900D02*
D03*
X700000D02*
D03*
Y634600D02*
D03*
Y647300D02*
D03*
Y660000D02*
D03*
X760000Y965000D02*
D03*
Y952300D02*
D03*
Y939600D02*
D03*
Y926900D02*
D03*
X700000D02*
D03*
Y939600D02*
D03*
Y952300D02*
D03*
Y965000D02*
D03*
X760000Y765000D02*
D03*
Y752300D02*
D03*
Y739600D02*
D03*
Y726900D02*
D03*
X700000D02*
D03*
Y739600D02*
D03*
Y752300D02*
D03*
Y765000D02*
D03*
X760000Y865000D02*
D03*
Y852300D02*
D03*
Y839600D02*
D03*
Y826900D02*
D03*
X700000D02*
D03*
Y839600D02*
D03*
Y852300D02*
D03*
Y865000D02*
D03*
D50*
X860000Y610000D02*
D03*
X847300D02*
D03*
X834600D02*
D03*
X821900D02*
D03*
Y670000D02*
D03*
X834600D02*
D03*
X847300D02*
D03*
X860000D02*
D03*
X745000Y555000D02*
D03*
X757700D02*
D03*
X770400D02*
D03*
X783100D02*
D03*
Y495000D02*
D03*
X770400D02*
D03*
X757700D02*
D03*
X745000D02*
D03*
X860000Y915000D02*
D03*
X847300D02*
D03*
X834600D02*
D03*
X821900D02*
D03*
Y975000D02*
D03*
X834600D02*
D03*
X847300D02*
D03*
X860000D02*
D03*
X860000Y715000D02*
D03*
X847300D02*
D03*
X834600D02*
D03*
X821900D02*
D03*
Y775000D02*
D03*
X834600D02*
D03*
X847300D02*
D03*
X860000D02*
D03*
X860000Y815000D02*
D03*
X847300D02*
D03*
X834600D02*
D03*
X821900D02*
D03*
Y875000D02*
D03*
X834600D02*
D03*
X847300D02*
D03*
X860000D02*
D03*
M02*
