G04 Layer_Color=8388736*
%FSLAX44Y44*%
%MOMM*%
G71*
G01*
G75*
%ADD54R,2.2032X3.4032*%
%ADD55R,1.0032X1.1032*%
%ADD56R,1.1032X1.0032*%
%ADD57O,1.5032X0.6032*%
%ADD58R,1.5032X0.6032*%
%ADD59R,2.8032X1.6032*%
%ADD60R,1.2032X1.2032*%
%ADD61R,1.1032X1.3032*%
%ADD62O,2.1032X0.8032*%
%ADD63R,4.7032X2.4032*%
%ADD64R,1.9032X2.7032*%
%ADD65R,0.7032X2.4032*%
%ADD66O,0.7032X2.4032*%
%ADD67R,3.2032X2.3332*%
%ADD68R,1.6032X2.8032*%
%ADD69R,1.3032X0.8532*%
%ADD70O,0.8032X2.1032*%
%ADD71O,0.6032X1.5032*%
%ADD72R,0.6032X1.5032*%
%ADD73R,4.0032X4.4032*%
%ADD74C,2.0032*%
%ADD75C,1.8032*%
%ADD76R,1.8032X1.8032*%
%ADD77C,2.3032*%
%ADD78C,5.2032*%
%ADD79C,2.2032*%
D54*
X828300Y490000D02*
D03*
X891700D02*
D03*
X828300Y540000D02*
D03*
X891700D02*
D03*
D55*
X697000Y449000D02*
D03*
X711000D02*
D03*
X756380Y464000D02*
D03*
X771620D02*
D03*
X771000Y449000D02*
D03*
X757000D02*
D03*
X828620Y1009000D02*
D03*
X813380D02*
D03*
X727380Y990000D02*
D03*
X742620D02*
D03*
X732380Y1011000D02*
D03*
X747620D02*
D03*
X732380Y1038000D02*
D03*
X747620D02*
D03*
X582380Y970000D02*
D03*
X597620D02*
D03*
X682620Y930000D02*
D03*
X667380D02*
D03*
X682620Y905000D02*
D03*
X667380D02*
D03*
X582380Y870000D02*
D03*
X597620D02*
D03*
X682620Y830000D02*
D03*
X667380D02*
D03*
X682620Y805000D02*
D03*
X667380D02*
D03*
X712620Y790000D02*
D03*
X697380D02*
D03*
X582380Y770000D02*
D03*
X597620D02*
D03*
X682620Y725000D02*
D03*
X667380D02*
D03*
X682620Y700000D02*
D03*
X667380D02*
D03*
X582380Y660000D02*
D03*
X597620D02*
D03*
X682620Y615000D02*
D03*
X667380D02*
D03*
X682620Y590000D02*
D03*
X667380D02*
D03*
X582380Y545000D02*
D03*
X597620D02*
D03*
X682620Y480000D02*
D03*
X667380D02*
D03*
X512620Y737000D02*
D03*
X497380D02*
D03*
X437380Y1020000D02*
D03*
X452620D02*
D03*
X437380Y425000D02*
D03*
X452620D02*
D03*
X992380D02*
D03*
X1007620D02*
D03*
X827620Y1038000D02*
D03*
X812380D02*
D03*
X878620Y569000D02*
D03*
X863380D02*
D03*
X711620Y464000D02*
D03*
X696380D02*
D03*
X767380Y990000D02*
D03*
X782620D02*
D03*
X772380Y1011000D02*
D03*
X787620D02*
D03*
X772380Y1038000D02*
D03*
X787620D02*
D03*
D56*
X687000Y426620D02*
D03*
Y411380D02*
D03*
X880000Y612380D02*
D03*
Y627620D02*
D03*
X627000Y1014000D02*
D03*
Y1028000D02*
D03*
X647000Y1028620D02*
D03*
Y1013380D02*
D03*
X431000Y601620D02*
D03*
Y586380D02*
D03*
Y636620D02*
D03*
Y621380D02*
D03*
X515000Y678380D02*
D03*
Y693620D02*
D03*
Y627000D02*
D03*
Y613000D02*
D03*
Y649380D02*
D03*
Y664620D02*
D03*
X733000Y448380D02*
D03*
Y463620D02*
D03*
X667000Y1013380D02*
D03*
Y1028620D02*
D03*
X1050000Y957380D02*
D03*
Y972620D02*
D03*
D57*
X756000Y409500D02*
D03*
Y416000D02*
D03*
Y422500D02*
D03*
Y429000D02*
D03*
X709000Y409500D02*
D03*
Y416000D02*
D03*
Y422500D02*
D03*
D58*
Y429000D02*
D03*
D59*
X805000Y419760D02*
D03*
Y450240D02*
D03*
X840000Y419760D02*
D03*
Y450240D02*
D03*
X875000Y419760D02*
D03*
Y450240D02*
D03*
X910000Y419760D02*
D03*
Y450240D02*
D03*
X547000Y534240D02*
D03*
Y503760D02*
D03*
D60*
X583500Y1018000D02*
D03*
X610500D02*
D03*
D61*
X618500Y970000D02*
D03*
X651500D02*
D03*
X618500Y870000D02*
D03*
X651500D02*
D03*
X618500Y770000D02*
D03*
X651500D02*
D03*
X618500Y660000D02*
D03*
X651500D02*
D03*
X618500Y545000D02*
D03*
X651500D02*
D03*
D62*
X650000Y905950D02*
D03*
Y918650D02*
D03*
Y931350D02*
D03*
Y944050D02*
D03*
X590000Y905950D02*
D03*
Y918650D02*
D03*
Y931350D02*
D03*
Y944050D02*
D03*
X650000Y805950D02*
D03*
Y818650D02*
D03*
Y831350D02*
D03*
Y844050D02*
D03*
X590000Y805950D02*
D03*
Y818650D02*
D03*
Y831350D02*
D03*
Y844050D02*
D03*
X650000Y700950D02*
D03*
Y713650D02*
D03*
Y726350D02*
D03*
Y739050D02*
D03*
X590000Y700950D02*
D03*
Y713650D02*
D03*
Y726350D02*
D03*
Y739050D02*
D03*
X650000Y590950D02*
D03*
Y603650D02*
D03*
Y616350D02*
D03*
Y629050D02*
D03*
X590000Y590950D02*
D03*
Y603650D02*
D03*
Y616350D02*
D03*
Y629050D02*
D03*
X650000Y480950D02*
D03*
Y493650D02*
D03*
Y506350D02*
D03*
Y519050D02*
D03*
X590000Y480950D02*
D03*
Y493650D02*
D03*
Y506350D02*
D03*
Y519050D02*
D03*
D63*
X495000Y546500D02*
D03*
Y503500D02*
D03*
D64*
X440000Y500000D02*
D03*
Y550000D02*
D03*
D65*
X495000Y650000D02*
D03*
D66*
X482300D02*
D03*
X469600D02*
D03*
X456900D02*
D03*
X495000Y592500D02*
D03*
X482300D02*
D03*
X469600D02*
D03*
X456900D02*
D03*
D67*
X475950Y621250D02*
D03*
D68*
X452760Y683000D02*
D03*
X483240D02*
D03*
X795240Y695000D02*
D03*
X764760D02*
D03*
X795240Y795000D02*
D03*
X764760D02*
D03*
X795240Y895000D02*
D03*
X764760D02*
D03*
X795240Y590000D02*
D03*
X764760D02*
D03*
D69*
X477000Y751500D02*
D03*
Y732500D02*
D03*
X453000D02*
D03*
Y742000D02*
D03*
Y751500D02*
D03*
D70*
X440950Y810000D02*
D03*
X453650D02*
D03*
X466350D02*
D03*
X479050D02*
D03*
X440950Y870000D02*
D03*
X453650D02*
D03*
X466350D02*
D03*
X479050D02*
D03*
D71*
X845500Y993000D02*
D03*
X852000D02*
D03*
X858500D02*
D03*
X865000D02*
D03*
X845500Y1040000D02*
D03*
X852000D02*
D03*
X858500D02*
D03*
X894500Y582000D02*
D03*
X901000D02*
D03*
X907500D02*
D03*
X914000D02*
D03*
X894500Y629000D02*
D03*
X901000D02*
D03*
X907500D02*
D03*
D72*
X865000Y1040000D02*
D03*
X914000Y629000D02*
D03*
D73*
X965000Y527000D02*
D03*
Y593000D02*
D03*
D74*
X620000Y415000D02*
D03*
X645400D02*
D03*
D75*
X354600Y907000D02*
D03*
Y881600D02*
D03*
Y856200D02*
D03*
Y830800D02*
D03*
Y805400D02*
D03*
X380000D02*
D03*
Y830800D02*
D03*
Y856200D02*
D03*
Y881600D02*
D03*
Y907000D02*
D03*
Y780000D02*
D03*
Y754600D02*
D03*
Y729200D02*
D03*
Y703800D02*
D03*
Y678400D02*
D03*
Y653000D02*
D03*
Y627600D02*
D03*
Y602200D02*
D03*
Y576800D02*
D03*
X354600Y551400D02*
D03*
Y576800D02*
D03*
Y602200D02*
D03*
Y627600D02*
D03*
Y653000D02*
D03*
Y678400D02*
D03*
Y780000D02*
D03*
Y729200D02*
D03*
Y754600D02*
D03*
Y703800D02*
D03*
D76*
X380000Y551400D02*
D03*
D77*
X1015000Y900000D02*
D03*
Y861900D02*
D03*
Y823800D02*
D03*
Y785700D02*
D03*
X1015000Y600000D02*
D03*
Y561900D02*
D03*
Y523800D02*
D03*
Y485700D02*
D03*
D78*
X500000Y1020000D02*
D03*
X1050000D02*
D03*
Y425000D02*
D03*
X369000Y1010000D02*
D03*
Y450000D02*
D03*
X500000Y425000D02*
D03*
D79*
X959000Y470000D02*
D03*
X960000Y395000D02*
D03*
M02*
