M48
;Layer_Color=9474304
;FILE_FORMAT=4:4
METRIC,LZ
;TYPE=PLATED
T1F00S00C0.3000
T2F00S00C1.0000
T3F00S00C1.2000
T4F00S00C1.5000
T5F00S00C3.5000
%
T01
X00795Y00405
X00815
X00835
X00855
X00875
X00895
X00915
X00935
X0092Y0045
X009
X00885
X00865
X0085
X0083
X00815
X0089Y00475
Y00505
Y00525
Y0055
X0086Y00569
X00855Y00585
X0084
X00825
X0081
X00822Y006
X00815Y00635
X008
X0081Y0065
X00825
X0084
X00855
X0087
X0086Y00635
X00845
X0083
X0088Y00633
X00904Y0062
X00917Y00615
X00912Y00599
X00904Y00593
X0087Y00585
X00927Y00633
X0094Y00645
X00965Y0066
Y00675
Y0069
Y00705
Y0072
Y00735
X01005
Y0072
Y00705
Y0069
Y00675
Y0066
X0087Y00695
X00855
X0084
X00825
X00822Y00706
X0081Y00695
Y0074
X00825
X0084
X00855
X0087
X00871Y00758
X00855
X0084
X00825
X0081
X00925Y0049
X00945
X00965
X00985
Y00425
X00776Y00449
X00783Y00464
X00738
X00745Y00419
X00737Y00409
X00724
X0072Y00419
X00687Y0043
X00691Y00449
X00686Y0048
X00661Y00494
Y00519
X00622Y00518
X0061Y00528
X00601Y00507
Y00493
X0061Y00472
X0058Y00481
X0056Y0049
X0054
Y00465
X0056
X00561Y00535
X00534
X00581Y00519
X0058Y0056
X00579Y00591
X00601Y00604
Y00617
X0061Y00638
X0058195Y0062905
X0058Y00701
X00601Y00713
Y00727
X0061Y00748
X0058195Y0073905
X00517Y00737
X00521Y00717
X00489Y00719
X00483Y00732
Y00751
Y00772
X00496
X0052
X00459Y00753
Y00742
X00457Y00675
Y00661
X0047
X00466Y00627
Y00615
X00486
Y00627
X00515Y00645
Y00671
X00431Y00641
X0047Y0058
X00483
X00409Y00555
X00397Y00555
X0044Y00513
Y00487
X00425Y00425
X0061Y00582
X00662Y00573
X00661Y00604
Y00629
X00685Y00615
Y0059
X00715Y00617
Y00632
Y00648
Y00661
X00735
Y00648
Y00632
Y00617
X00774Y00622
X00773Y00647
X00774Y00727
X00773Y00752
X00735Y0075
Y00765
X00715
Y0075
Y00735
Y0072
X00735
Y00735
X00685Y00725
Y007
X00661Y00714
Y00739
X00671Y00789
X0071862Y0079
X0061Y00692
X00725Y00565
X00745
X0077
X00783
X00334Y0083
X00314Y00842
X00334Y00875
Y00888
Y00945
X00371Y0094
X00441Y0088
X00454Y00881
X00438Y00795
X004725Y00797
X0058Y00806
X00601Y00818
Y00832
X0061Y00853
X0058295Y0084405
X0058Y00906
X00601Y00918
Y00931
X0061Y00952
X0057895Y0094405
X00578Y01017
X00627Y01008
X00647Y01007
X00696Y01006
X00724Y0099
X00715Y00965
Y0095
Y00935
Y0092
X00735
Y00935
Y0095
Y00965
X00774Y00952
Y00927
Y00853
Y00827
X00734Y0082
Y00835
Y00853
Y00867
X00715
Y00853
Y00835
Y0082
X00685Y0083
Y00805
X00661Y00819
Y00844
Y00919
Y00944
X00685Y0093
Y00905
X0061Y00898
Y00798
X00728Y01038
X00793
Y01011
X00788Y0099
X0043Y0102
X00808Y01038
X00856Y01029
X00871Y01026
X008655Y010105
X00855Y01005
Y00955
X0084
X00825
X0081
Y0094
X00825
X0084
X00855
X0087
Y00955
X00907
X0093
X0094Y00968
X0093Y0098
X00907
Y01005
Y01025
X0093
Y01005
X0094Y01015
X0096Y01026
X00995Y01025
Y01005
X01015Y01006
Y01025
Y0098
X00995
Y00955
X01015
X01035
X0105Y0095
X01035Y0098
X0096
Y00955
X0092Y00855
X00905
X0089
X00875
X0086
X00845
X0083
X00815
X008
Y0084
X00815
X0083
X00845
X0086
X00875
X0089
X0087Y00895
X00855
X0084
X00825
X00822Y00905
X0081Y00895
X008Y0082
X0081Y00795
X00825
X00822Y00806
X0084Y00795
X00855
T02
X003546Y005514
X0038
Y005768
Y006022
Y006276
Y00653
Y006784
Y007038
Y007292
Y007546
Y0078
X003546
Y007546
Y007292
Y007038
Y006784
Y00653
Y006276
Y006022
Y005768
Y008054
Y008308
Y008562
Y008816
Y00907
X0038
Y008816
Y008562
Y008308
Y008054
T03
X0062Y00415
X006454
T04
X0096Y00395
X00959Y0047
X01015Y004857
Y005238
Y005619
Y006
X01015Y007857
Y008238
Y008619
Y009
T05
X0105Y00425
X005
X00369Y0045
Y0101
X005Y0102
X0105
M30
