G04 Layer_Color=16711935*
%FSLAX44Y44*%
%MOMM*%
G71*
G01*
G75*
%ADD108R,1.0032X1.1032*%
%ADD109R,1.1032X1.0032*%
%ADD129R,2.8032X1.6032*%
%ADD134R,1.6032X2.8032*%
%ADD143R,1.7032X2.4032*%
%ADD160C,1.8032*%
%ADD161C,2.3032*%
%ADD162O,1.7032X1.9032*%
%ADD163O,1.6032X1.7032*%
%ADD164C,3.5032*%
%ADD165C,2.4032*%
%ADD166O,1.9032X1.7032*%
%ADD167C,1.6032*%
%ADD168R,1.8032X1.8032*%
%ADD169C,1.9032*%
%ADD170C,5.2032*%
%ADD171C,0.7032*%
%ADD172R,1.3000X0.7000*%
%ADD173R,0.8532X1.3032*%
%ADD174R,2.7032X1.9032*%
%ADD175R,2.7032X3.5032*%
%ADD176R,1.3032X0.8532*%
%ADD177R,3.0032X1.8032*%
%ADD178R,1.3032X1.6032*%
%ADD179R,1.9032X1.4532*%
D108*
X629000Y965000D02*
D03*
X643000D02*
D03*
X629000Y953000D02*
D03*
X643000D02*
D03*
X813380Y1109000D02*
D03*
X828620D02*
D03*
Y1096000D02*
D03*
X813380D02*
D03*
X1143000Y761000D02*
D03*
X1129000D02*
D03*
X1143000Y773000D02*
D03*
X1129000D02*
D03*
X1143000Y785000D02*
D03*
X1129000D02*
D03*
X1145500Y797500D02*
D03*
X1131500D02*
D03*
X1145500Y809500D02*
D03*
X1131500D02*
D03*
X1170620Y786000D02*
D03*
X1155380D02*
D03*
X1170620Y773000D02*
D03*
X1155380D02*
D03*
X983620Y697000D02*
D03*
X968380D02*
D03*
X1068000Y779000D02*
D03*
X1082000D02*
D03*
X1068000Y808000D02*
D03*
X1082000D02*
D03*
X1069000Y825000D02*
D03*
X1083000D02*
D03*
X1045000Y1061000D02*
D03*
X1059000D02*
D03*
X1136000Y1382000D02*
D03*
X1122000D02*
D03*
X1136000Y1394000D02*
D03*
X1122000D02*
D03*
X1136000Y1406000D02*
D03*
X1122000D02*
D03*
X1136000Y1418000D02*
D03*
X1122000D02*
D03*
X1136000Y1430000D02*
D03*
X1122000D02*
D03*
X1163620Y1406000D02*
D03*
X1148380D02*
D03*
X1163620Y1394000D02*
D03*
X1148380D02*
D03*
X1063000Y1397000D02*
D03*
X1077000D02*
D03*
X1062000Y1434000D02*
D03*
X1076000D02*
D03*
X1062000Y1446000D02*
D03*
X1076000D02*
D03*
X1066000Y1482000D02*
D03*
X1052000D02*
D03*
X795620Y1649500D02*
D03*
X780380D02*
D03*
X795620Y1675500D02*
D03*
X780380D02*
D03*
Y1700500D02*
D03*
X795620D02*
D03*
Y1751500D02*
D03*
X780380D02*
D03*
X795620Y1776500D02*
D03*
X780380D02*
D03*
X603380Y1677000D02*
D03*
X618620D02*
D03*
X580620Y1676000D02*
D03*
X565380D02*
D03*
X636000Y1703000D02*
D03*
X622000D02*
D03*
X575380Y1608000D02*
D03*
X590620D02*
D03*
X601380Y1589000D02*
D03*
X616620D02*
D03*
X628000Y1589000D02*
D03*
X642000D02*
D03*
X559380Y1580000D02*
D03*
X574620D02*
D03*
X568000Y1557000D02*
D03*
X582000D02*
D03*
X569000Y1544000D02*
D03*
X583000D02*
D03*
X569000Y1531000D02*
D03*
X583000D02*
D03*
X637620Y1509000D02*
D03*
X622380D02*
D03*
X615620Y1490000D02*
D03*
X600380D02*
D03*
X548000Y723000D02*
D03*
X562000D02*
D03*
X430000Y714000D02*
D03*
X416000D02*
D03*
X415380Y701000D02*
D03*
X430620D02*
D03*
X430000Y688000D02*
D03*
X416000D02*
D03*
X616000Y421000D02*
D03*
X602000D02*
D03*
X629000Y1011000D02*
D03*
X643000D02*
D03*
X993000Y801000D02*
D03*
X1007000D02*
D03*
X1208000Y1621000D02*
D03*
X1194000D02*
D03*
X1208000Y881000D02*
D03*
X1194000D02*
D03*
X488000Y1524000D02*
D03*
X474000D02*
D03*
X489000Y1265000D02*
D03*
X475000D02*
D03*
X730000Y1302000D02*
D03*
X716000D02*
D03*
X854000Y1014000D02*
D03*
X840000D02*
D03*
X854000Y1066000D02*
D03*
X840000D02*
D03*
X629000Y1126000D02*
D03*
X643000D02*
D03*
X629000Y1061000D02*
D03*
X643000D02*
D03*
D109*
X967000Y740000D02*
D03*
Y754000D02*
D03*
X1079000Y748000D02*
D03*
Y762000D02*
D03*
X1088000Y867000D02*
D03*
Y853000D02*
D03*
X1108000Y882000D02*
D03*
Y896000D02*
D03*
X1120000Y867000D02*
D03*
Y853000D02*
D03*
X1037000Y868380D02*
D03*
Y883620D02*
D03*
X1021000Y868380D02*
D03*
Y883620D02*
D03*
X994000Y1005000D02*
D03*
Y991000D02*
D03*
X1079000Y1371000D02*
D03*
Y1385000D02*
D03*
X1085000Y1485000D02*
D03*
Y1471000D02*
D03*
X1113000Y1488000D02*
D03*
Y1474000D02*
D03*
X1101000Y1505000D02*
D03*
Y1519000D02*
D03*
X631000Y1674000D02*
D03*
Y1688000D02*
D03*
X640000Y1648380D02*
D03*
Y1663620D02*
D03*
X655000Y1640000D02*
D03*
Y1654000D02*
D03*
X651000Y1623620D02*
D03*
Y1608380D02*
D03*
X605000Y1569000D02*
D03*
Y1555000D02*
D03*
X597000Y1519000D02*
D03*
Y1533000D02*
D03*
X513000Y1336620D02*
D03*
Y1321380D02*
D03*
X440000Y1299000D02*
D03*
Y1313000D02*
D03*
X434000Y860000D02*
D03*
Y846000D02*
D03*
X489000Y1625620D02*
D03*
Y1610380D02*
D03*
X435000Y1492380D02*
D03*
Y1507620D02*
D03*
X833000Y719000D02*
D03*
Y705000D02*
D03*
X709000Y1158000D02*
D03*
Y1144000D02*
D03*
X1075000Y1760000D02*
D03*
Y1774000D02*
D03*
X811000Y933000D02*
D03*
Y947000D02*
D03*
X958000Y1154000D02*
D03*
Y1140000D02*
D03*
X932000Y1145000D02*
D03*
Y1131000D02*
D03*
X706000Y933000D02*
D03*
Y947000D02*
D03*
X761000Y933000D02*
D03*
Y947000D02*
D03*
X831000Y934000D02*
D03*
Y948000D02*
D03*
X861000Y1130000D02*
D03*
Y1116000D02*
D03*
X751000Y1158000D02*
D03*
Y1144000D02*
D03*
X676000Y1158000D02*
D03*
Y1144000D02*
D03*
D129*
X939000Y741760D02*
D03*
Y772240D02*
D03*
X584000Y814240D02*
D03*
Y783760D02*
D03*
X586000Y634760D02*
D03*
Y665240D02*
D03*
D134*
X511240Y716000D02*
D03*
X480760D02*
D03*
D143*
X1082000Y630000D02*
D03*
X1038000D02*
D03*
X967000D02*
D03*
X923000D02*
D03*
X842000Y635000D02*
D03*
X798000D02*
D03*
D160*
X738600Y1751300D02*
D03*
Y1802100D02*
D03*
Y1776700D02*
D03*
Y1827500D02*
D03*
Y1725900D02*
D03*
Y1700500D02*
D03*
Y1675100D02*
D03*
Y1649700D02*
D03*
Y1624300D02*
D03*
Y1598900D02*
D03*
X764000D02*
D03*
Y1624300D02*
D03*
Y1649700D02*
D03*
Y1675100D02*
D03*
Y1700500D02*
D03*
Y1725900D02*
D03*
Y1751300D02*
D03*
Y1776700D02*
D03*
Y1802100D02*
D03*
Y1827500D02*
D03*
X535400Y1608000D02*
D03*
X510000D02*
D03*
X606600D02*
D03*
X632000D02*
D03*
X1224600Y1647000D02*
D03*
Y1621600D02*
D03*
Y1596200D02*
D03*
Y1570800D02*
D03*
Y1545400D02*
D03*
X1250000D02*
D03*
Y1570800D02*
D03*
Y1596200D02*
D03*
Y1621600D02*
D03*
Y1647000D02*
D03*
Y1520000D02*
D03*
Y1494600D02*
D03*
Y1469200D02*
D03*
Y1443800D02*
D03*
Y1418400D02*
D03*
Y1393000D02*
D03*
Y1367600D02*
D03*
Y1342200D02*
D03*
Y1316800D02*
D03*
X1224600Y1291400D02*
D03*
Y1316800D02*
D03*
Y1342200D02*
D03*
Y1367600D02*
D03*
Y1393000D02*
D03*
Y1418400D02*
D03*
Y1520000D02*
D03*
Y1469200D02*
D03*
Y1494600D02*
D03*
Y1443800D02*
D03*
Y907000D02*
D03*
Y881600D02*
D03*
Y856200D02*
D03*
Y830800D02*
D03*
Y805400D02*
D03*
X1250000D02*
D03*
Y830800D02*
D03*
Y856200D02*
D03*
Y881600D02*
D03*
Y907000D02*
D03*
Y780000D02*
D03*
Y754600D02*
D03*
Y729200D02*
D03*
Y703800D02*
D03*
Y678400D02*
D03*
Y653000D02*
D03*
Y627600D02*
D03*
Y602200D02*
D03*
Y576800D02*
D03*
X1224600Y551400D02*
D03*
Y576800D02*
D03*
Y602200D02*
D03*
Y627600D02*
D03*
Y653000D02*
D03*
Y678400D02*
D03*
Y780000D02*
D03*
Y729200D02*
D03*
Y754600D02*
D03*
Y703800D02*
D03*
D161*
X907500Y1440000D02*
D03*
Y1240000D02*
D03*
D162*
X684200Y339600D02*
D03*
X658800D02*
D03*
X633400D02*
D03*
X608000D02*
D03*
X582600D02*
D03*
X557200D02*
D03*
X531800D02*
D03*
X506400D02*
D03*
X481000D02*
D03*
X455600D02*
D03*
Y390400D02*
D03*
X481000D02*
D03*
X506400D02*
D03*
X531800D02*
D03*
X557200D02*
D03*
X582600D02*
D03*
X608000D02*
D03*
X633400D02*
D03*
X658800D02*
D03*
X684200D02*
D03*
X709600Y339600D02*
D03*
X735000D02*
D03*
X709600Y390400D02*
D03*
X735000D02*
D03*
X928000D02*
D03*
X902600D02*
D03*
X928000Y339600D02*
D03*
X902600D02*
D03*
X877200Y390400D02*
D03*
X851800D02*
D03*
X826400D02*
D03*
X801000D02*
D03*
Y339600D02*
D03*
X826400D02*
D03*
X851800D02*
D03*
X877200D02*
D03*
X1122000Y390400D02*
D03*
X1096600D02*
D03*
X1122000Y339600D02*
D03*
X1096600D02*
D03*
X1071200Y390400D02*
D03*
X1045800D02*
D03*
X1020400D02*
D03*
X995000D02*
D03*
Y339600D02*
D03*
X1020400D02*
D03*
X1045800D02*
D03*
X1071200D02*
D03*
D163*
X510100Y1633500D02*
D03*
X530400D02*
D03*
X550700D02*
D03*
X591300D02*
D03*
X611600D02*
D03*
X631900D02*
D03*
X621750Y1658900D02*
D03*
X601450D02*
D03*
X581150D02*
D03*
X560850D02*
D03*
X540550D02*
D03*
X520250D02*
D03*
D164*
X634500Y1811200D02*
D03*
X507500D02*
D03*
D165*
X651650Y1843000D02*
D03*
X490350D02*
D03*
D166*
X390400Y1415000D02*
D03*
Y1440400D02*
D03*
X339600Y1415000D02*
D03*
Y1440400D02*
D03*
X390400Y1465800D02*
D03*
Y1491200D02*
D03*
Y1516600D02*
D03*
Y1542000D02*
D03*
X339600D02*
D03*
Y1516600D02*
D03*
Y1491200D02*
D03*
Y1465800D02*
D03*
X390400Y1220000D02*
D03*
Y1245400D02*
D03*
X339600Y1220000D02*
D03*
Y1245400D02*
D03*
X390400Y1270800D02*
D03*
Y1296200D02*
D03*
Y1321600D02*
D03*
Y1347000D02*
D03*
X339600D02*
D03*
Y1321600D02*
D03*
Y1296200D02*
D03*
Y1270800D02*
D03*
X390400Y1610000D02*
D03*
Y1635400D02*
D03*
X339600Y1610000D02*
D03*
Y1635400D02*
D03*
X390400Y1660800D02*
D03*
Y1686200D02*
D03*
Y1711600D02*
D03*
Y1737000D02*
D03*
X339600D02*
D03*
Y1711600D02*
D03*
Y1686200D02*
D03*
Y1660800D02*
D03*
X390400Y845000D02*
D03*
Y870400D02*
D03*
X339600Y845000D02*
D03*
Y870400D02*
D03*
X390400Y895800D02*
D03*
Y921200D02*
D03*
Y946600D02*
D03*
Y972000D02*
D03*
X339600D02*
D03*
Y946600D02*
D03*
Y921200D02*
D03*
Y895800D02*
D03*
D167*
X860000Y1656700D02*
D03*
X885400D02*
D03*
X860000Y1631300D02*
D03*
X885400D02*
D03*
X872700Y1644000D02*
D03*
D168*
X1250000Y1291400D02*
D03*
Y551400D02*
D03*
D169*
X324200Y610800D02*
D03*
Y560000D02*
D03*
X400400Y610800D02*
D03*
Y560000D02*
D03*
D170*
X1250000Y350000D02*
D03*
X1240000Y450000D02*
D03*
Y1010000D02*
D03*
Y1750000D02*
D03*
X1250000Y1850000D02*
D03*
X350000Y350000D02*
D03*
Y1850000D02*
D03*
X1240000Y1190000D02*
D03*
X1250000Y1100000D02*
D03*
X350000D02*
D03*
D171*
X592000Y1546000D02*
D03*
X602000D02*
D03*
X582000D02*
D03*
X592000Y1556000D02*
D03*
Y1536000D02*
D03*
D172*
X581500Y1693500D02*
D03*
Y1703000D02*
D03*
Y1712500D02*
D03*
X604500D02*
D03*
Y1703000D02*
D03*
Y1693500D02*
D03*
D173*
X465500Y910000D02*
D03*
X484500D02*
D03*
Y934000D02*
D03*
X475000D02*
D03*
X465500D02*
D03*
X475000Y910000D02*
D03*
X484500Y890000D02*
D03*
X465500D02*
D03*
Y866000D02*
D03*
X475000D02*
D03*
X484500D02*
D03*
X475000Y890000D02*
D03*
X465500Y1323000D02*
D03*
X484500D02*
D03*
Y1347000D02*
D03*
X475000D02*
D03*
X465500D02*
D03*
X475000Y1323000D02*
D03*
X482500Y1482000D02*
D03*
X463500D02*
D03*
Y1458000D02*
D03*
X473000D02*
D03*
X482500D02*
D03*
X473000Y1482000D02*
D03*
D174*
X512000Y749000D02*
D03*
X462000D02*
D03*
D175*
X394500Y510000D02*
D03*
X325500D02*
D03*
D176*
X694000Y464500D02*
D03*
Y483500D02*
D03*
X670000D02*
D03*
Y474000D02*
D03*
Y464500D02*
D03*
X694000Y474000D02*
D03*
X573000Y474500D02*
D03*
Y455500D02*
D03*
X597000D02*
D03*
Y465000D02*
D03*
Y474500D02*
D03*
X573000Y465000D02*
D03*
X530000Y473500D02*
D03*
Y454500D02*
D03*
X554000D02*
D03*
Y464000D02*
D03*
Y473500D02*
D03*
X530000Y464000D02*
D03*
X742000Y464500D02*
D03*
Y483500D02*
D03*
X718000D02*
D03*
Y474000D02*
D03*
Y464500D02*
D03*
X742000Y474000D02*
D03*
D177*
X490000Y510000D02*
D03*
Y453000D02*
D03*
X440000Y510000D02*
D03*
Y453000D02*
D03*
D178*
X351110Y726300D02*
D03*
X368890D02*
D03*
D179*
X681998Y1052000D02*
D03*
Y1084000D02*
D03*
M02*
