M48
;Layer_Color=9474304
;FILE_FORMAT=4:4
METRIC,TZ
;TYPE=PLATED
T1F00S00C0.2000
T2F00S00C0.3000
T3F00S00C0.9000
T4F00S00C1.0000
T5F00S00C1.2000
T6F00S00C1.3000
T7F00S00C1.5000
T8F00S00C1.7000
T9F00S00C3.5000
;TYPE=NON_PLATED
T10F00S00C3.3000
%
T01
X582000Y1546000
X592000
X602000
X592000Y1556000
Y1536000
T02
X396000Y370000
X1185000Y350000
X1165000Y515000
Y540000
Y565000
Y590000
Y615000
Y640000
Y665000
Y690000
X1171000Y724000
X1165000Y746000
X1164000Y760000
X1173000Y754000
X1145000Y757000
X1137000Y751000
X1132000Y735000
X1145000
X1154880Y769500
X1155000Y786000
X1122500Y770000
X1090000
X1100000Y784000
X1064000Y779000
Y769000
X1079000Y745000
X1090000
Y680000
X1030000Y679000
X975000
X970000Y699000
X987000Y697000
X1007000Y726000
X956000
X948000Y740000
X930000
Y726000
X931000Y764000
X948000
X967000Y757000
Y740000
X892000Y725000
X915000Y684000
X916000Y626000
X964000
X1041000Y627000
X1080000
X1055000Y470000
X935000
X820000
X821000Y639000
X800000Y632000
X849000Y634000
X833000Y700000
X828000Y719000
X790000Y718000
Y685000
X714000Y735000
X698000
X616000Y731000
X575000Y734000
X561000
Y719000
X575000
X538500Y723500
X511000Y722000
Y709000
X484000Y707000
X483000Y725000
X468000Y745000
X455000Y740000
X429000Y726000
Y714000
X415000Y682000
X435000Y658000
Y642000
X466000Y650000
X457000Y685000
X503000Y758000
X517000
X537000Y763000
X524000Y793000
X550000
X633000Y784000
X625000Y692000
X634620Y642380
X596000Y635000
X576000
X586000Y661000
X542000Y640000
X549000Y599000
X500000Y605000
X600000
Y581000
X555000Y545000
X550000Y490000
X554000Y473000
Y464000
Y454000
X573000Y455000
Y465000
Y474000
X597000Y475000
Y465000
Y455000
X603500Y425500
X614000Y425000
X678000Y434000
X675000Y464000
X689000
X712500Y461500
X712000Y474000
X724000Y483000
X737000Y484000
X748000Y474000
X728000Y452000
X741000Y434000
X700000Y484000
X676000Y483000
X663000Y474000
X673000Y513000
X686500Y511500
X612000Y505000
X531000Y474000
X530000Y464000
X544000Y437000
X499000Y425000
X485000
X470000
X455000
X439000
X431000Y514000
X450000
X468000
X434000Y537000
Y551000
X383000Y519000
Y501000
X350000Y500000
Y515000
Y460000
X351000Y445000
X342000Y685000
X349000Y726000
X325000
X389000Y730000
Y710000
X381000Y775000
X434000Y842000
X437000Y861000
Y886000
X436000Y911000
Y937000
X438000Y950000
X481000Y956000
X513000Y950000
X491000Y924000
X485000Y910000
X465000
X470000Y922000
Y878000
X465000Y853000
X555000Y857000
Y838000
X571000Y814000
X597000
X585000Y795000
X628000Y824000
X623000Y834000
X630000Y853000
X644000Y849000
X658000Y865000
X651000Y872000
Y887000
X644000Y880000
X640000Y895000
X653000Y902000
X665000Y910000
X693000Y904000
X699000Y912000
X708000Y915000
X708250Y928250
X692000Y926000
X690000Y893000
X699000Y857000
X692000Y850000
X685000Y842000
X678000Y834000
X671000Y826000
X664000Y818000
X706000Y864000
X714000Y872000
X745000Y920000
X762250Y927250
X767000Y908000
X790000Y910000
X760250Y953250
X735000Y969000
X705250Y953250
X649250Y965250
X642250Y947250
X623250Y953250
Y963250
Y1010250
X649250Y1012250
X654000Y1043000
X648250Y1062250
X622250Y1059250
X595000Y1056000
X588000Y1063000
Y1093000
X623250Y1125250
X624000Y1142000
X616000Y1151000
X649250Y1128250
X667000Y1123000
X674000Y1116000
X695000Y1120000
X705000Y1113000
X713000Y1104000
X725000Y1105000
X735000Y1100000
X751000Y1138000
Y1165000
X708500Y1163500
X711000Y1187000
X709000Y1137000
X678000Y1138000
X671000Y1164000
X651000Y1107000
X682000Y1087000
Y1051000
X740000Y1033500
X774000Y1040000
X770000Y1052000
X782000Y1091000
X790000Y1085000
X787000Y1115000
X558000Y1147000
X561000Y1164000
X532000Y1134000
X513350Y1189350
X460000Y1176000
X554000Y1002000
X570000Y1005000
X578000Y1015000
X585000Y1023000
X603000Y1035000
X565000Y991000
X542000Y899000
X605000Y865000
X617000Y860000
X770000Y841000
X778000Y833000
X770000Y823000
X771000Y812000
X790000Y798000
X804000Y811000
X816000Y799000
X797000Y828000
X805000Y840000
X803000Y850000
Y859000
X806000Y890000
X794343
X795000Y901000
X820000Y897000
X815250Y927250
X833250Y929250
X824000Y954000
X823000Y964000
X817000Y972000
X810000Y979000
X804000Y990000
X805000Y1023000
X815000Y1025000
X809999Y1032999
X812000Y1052000
X833000Y1065000
X860000Y1068000
X877500Y1069772
X888000Y1080000
X885000Y1090000
X888000Y1115000
X907000Y1104000
X933000Y1125000
X932000Y1150000
X947000Y1159000
X958000Y1161000
X962000Y1134000
X978000Y1146000
X966000Y1066000
X957000Y1059000
X954000Y1033000
X914000Y1025000
X919000Y1005000
X905000Y1000000
X894000Y992000
X879000Y986000
X876000Y965000
X870000Y957000
X860000Y953000
X850000Y949000
X810000Y954000
X833250Y1014250
X826000Y1027000
X859250Y1018250
X868000Y1032000
X861000Y1040000
X900000Y1049000
X910000Y1047000
X927000Y1070000
X934000Y1077000
X940000Y1084000
X941000Y989000
X932000Y982000
X925000Y990000
X983000Y982000
X1006000Y1015000
X1000000Y1042000
X1008000Y1050000
X1017000Y1059000
X1040000
X1064000Y1061000
X1038000Y1094000
X1054000Y1175000
X894000Y1169000
X874000Y1176000
X840000Y1169000
X854000Y1151000
X859000Y1131000
X861000Y1111000
X828500Y1103500
X808000Y1109000
Y1096000
X796500Y1077500
X816000Y1123000
X905000Y933000
X883500Y910000
X929000
X935000Y895000
X945000Y888000
X932000Y879000
X922000Y872000
X913000Y866000
X865000Y850000
X892000Y806000
X905000
X918000
X943000
X956000Y807000
X982000Y806000
X993000
X1007000Y807000
X1064000Y809000
X1061000Y821000
X1090000Y820000
Y845000
X1122500
Y820000
Y795000
X1149000Y803000
X1170000Y804000
X1165000Y822000
Y838000
X1169000Y850000
X1177000Y842000
X1155000Y854000
X1150000Y907000
X1163000Y911000
X1190000Y881000
X1120000Y878000
X1110500Y876000
X1084000Y874500
X1070000Y867000
X1057000Y861000
X1064000Y852000
X1051000Y872000
X1052000Y883000
X1060000Y894000
X1067000Y907000
X1040000Y921000
X1024000Y930000
X1011000Y914000
X1017000Y907000
X1028000Y889000
X1022000Y871000
X1032000Y864000
X982000Y924000
X1053000Y965000
X1130000Y953000
X1108000Y907000
X1199000Y1556000
X1140000
X1129000Y1551000
X1128000Y1579000
X1160000Y1578000
X1154000Y1476000
X1143000Y1475000
X1170000Y1470000
Y1450000
Y1430000
X1151000Y1426000
X1142000Y1424000
X1149000Y1407000
Y1392000
X1138000Y1379000
X1130000Y1372000
X1124000Y1351000
X1138000Y1352000
X1170000Y1350000
Y1330500
Y1311000
Y1291000
Y1271000
Y1251000
Y1231000
Y1211034
Y1370000
X1176000Y1401000
X1115000Y1390000
Y1415000
Y1440000
Y1465000
X1082500
Y1440000
X1083000Y1411000
X1082500Y1390000
X1077000Y1367000
X1054000Y1382000
X1057000Y1397000
X1056500Y1434500
X1053000Y1443000
X1057000Y1473000
X1066000Y1483000
X1076000Y1495000
X1101000Y1500000
X1107500Y1493500
X1101000Y1526000
X1046000Y1508000
Y1495000
X1015000Y1452000
Y1439000
X1019000Y1427000
X965000Y1336000
X904000Y1352000
X909000Y1362000
X900000Y1369000
X820000Y1340000
X804000Y1329000
X819000Y1253000
X833000Y1245000
X846000Y1230000
X857000Y1249000
X880000Y1266000
X926999Y1260998
X935000Y1255000
X930000Y1235000
X944000Y1239000
X818000Y1199000
X767000
X706000Y1200000
X687000Y1206000
X709000Y1258000
X718000Y1264000
X728250Y1264250
X745000Y1255000
X741000Y1245000
X738000Y1236000
X753000Y1262000
X740000Y1293000
X712000Y1302000
X700000Y1315000
X532000Y1314000
X513250Y1338250
X490000Y1326000
Y1312000
Y1351000
X491000Y1364000
X475000Y1363000
Y1349000
X432350Y1351350
X432900Y1389800
X458000Y1435000
X460250Y1460250
X473250Y1458250
X483250
X491250Y1473250
X483250Y1482250
X473250
X463250Y1481250
X437000Y1487000
X429000Y1481000
Y1469000
X428000Y1506000
X474250Y1523250
X492250Y1524250
X523000Y1534000
X539000Y1557000
X569000Y1564000
X577000Y1574000
X553000Y1580000
X602000Y1586000
X607000Y1573000
X589500Y1517500
X565000Y1529000
X555000Y1507000
X550000Y1471000
X588000Y1472000
X612000
X600000Y1488000
X627000Y1502000
X648620Y1520000
X684000Y1548000
Y1575000
X517900Y1389800
X492250Y1265250
X475250
X437000Y1253000
Y1240000
X436350Y1215350
X460350Y1202350
X513350
X515000Y1228000
X513350Y1240350
X588000Y1209000
X585000Y1198000
X614000Y1212000
X612000Y1232000
X433250Y1300250
Y1313250
X408000Y1334000
X489000Y1630000
X560000Y1618000
X569000Y1604000
X622310Y1589000
X648000Y1589000
X656000Y1624000
X655000Y1659000
X637000Y1688000
X639000Y1703000
X605000
X573000
X561000Y1676000
X410000Y1851000
X796000Y1764000
X800000Y1700000
X796000Y1662000
X885000Y1677000
X916000Y1610000
X937000Y1609000
X975000Y1633000
X974000Y1655000
X1079000Y1633000
X1128000Y1596000
X1161000Y1597000
X1189000Y1621000
X1140000Y1730000
X1114000Y1730000
X1079000Y1762000
Y1773000
X1184000Y1850000
T03
X860000Y1631300
Y1656700
X885400
Y1631300
X872700Y1644000
T04
X455600Y339600
X481000
X506400
X531800
X557200
X582600
X608000
X633400
X658800
X684200
X709600
X735000
Y390400
X709600
X684200
X658800
X633400
X608000
X582600
X557200
X531800
X506400
X481000
X455600
X801000
X826400
X851800
X877200
X902600
X928000
Y339600
X902600
X877200
X851800
X826400
X801000
X995000
X1020400
X1045800
X1071200
X1096600
X1122000
Y390400
X1096600
X1071200
X1045800
X1020400
X995000
X1224600Y551400
X1250000
Y576800
Y602200
Y627600
Y653000
Y678400
Y703800
Y729200
Y754600
Y780000
X1224600
Y754600
Y729200
Y703800
Y678400
Y653000
Y627600
Y602200
Y576800
X390400Y845000
Y870400
Y895800
Y921200
Y946600
Y972000
X339600
Y946600
Y921200
Y895800
Y870400
Y845000
X1224600Y856200
Y881600
Y907000
X1250000
Y881600
Y856200
Y830800
X1224600
Y805400
X1250000
Y1291400
Y1316800
Y1342200
Y1367600
Y1393000
Y1418400
Y1443800
Y1469200
Y1494600
Y1520000
Y1545400
X1224600
Y1570800
X1250000
X1224600Y1520000
Y1494600
Y1469200
Y1443800
Y1418400
Y1393000
Y1367600
Y1342200
Y1316800
Y1291400
X390400Y1296200
Y1270800
Y1245400
Y1220000
X339600
Y1245400
Y1270800
Y1296200
Y1321600
Y1347000
X390400
Y1321600
Y1415000
Y1440400
Y1465800
Y1491200
Y1516600
Y1542000
X339600
Y1516600
Y1491200
Y1465800
Y1440400
Y1415000
Y1610000
Y1635400
Y1660800
Y1686200
Y1711600
Y1737000
X390400
Y1711600
Y1686200
Y1660800
Y1635400
Y1610000
X510100Y1633500
X530400
X550700
X540550Y1658900
X520250
X560850
X581150
X601450
X621750
X611600Y1633500
X591300
X631900
X738600Y1624300
Y1649700
Y1675100
Y1700500
Y1725900
Y1751300
Y1776700
Y1802100
Y1827500
X764000
Y1802100
Y1776700
Y1751300
Y1725900
Y1700500
Y1675100
Y1649700
Y1624300
Y1598900
X738600
X1224600Y1596200
Y1621600
Y1647000
X1250000
Y1621600
Y1596200
T05
X400400Y560000
Y610800
X324200
Y560000
T06
X510000Y1608000
X535400
X606600
X632000
T07
X907500Y1240000
Y1440000
T08
X490350Y1843000
X651650
T09
X350000Y350000
X1250000
X1240000Y450000
X350000Y1100000
X1250000
X1240000Y1010000
Y1190000
X350000Y1850000
X1250000
X1240000Y1750000
T10
X507500Y1811200
X634500
M30
