G04 Layer_Physical_Order=4*
G04 Layer_Color=16711680*
%FSLAX44Y44*%
%MOMM*%
G71*
G01*
G75*
%ADD10R,0.8000X0.9000*%
%ADD15R,1.4000X2.6000*%
%ADD30R,0.9000X0.8000*%
%ADD36R,2.6000X1.4000*%
%ADD37R,1.7000X1.2500*%
%ADD40R,1.5000X2.2000*%
%ADD65C,0.2000*%
%ADD66C,1.0000*%
%ADD67C,0.5000*%
%ADD68C,2.0000*%
%ADD69C,0.3000*%
%ADD70C,0.7500*%
%ADD82C,1.7000*%
%ADD83O,1.5000X1.7000*%
%ADD84C,5.0000*%
%ADD85O,1.7000X1.5000*%
%ADD86C,1.6000*%
%ADD87R,1.6000X1.6000*%
%ADD88C,1.4000*%
%ADD89C,2.2000*%
%ADD90C,3.3000*%
%ADD91O,1.4000X1.5000*%
%ADD92C,2.1000*%
%ADD93C,0.7000*%
%ADD94C,0.5000*%
%ADD95R,1.4000X1.1000*%
%ADD96R,1.7000X2.5000*%
%ADD97R,0.6500X1.1000*%
%ADD98R,1.1000X1.4000*%
%ADD99R,2.8000X1.6000*%
%ADD100R,1.1000X0.6500*%
%ADD101R,2.5000X3.3000*%
%ADD102R,2.5000X1.7000*%
%ADD103R,1.2000X0.6000*%
%ADD104C,0.4000*%
%ADD105R,2.1000X2.5000*%
%ADD106R,7.8000X1.9000*%
%ADD107R,7.3000X4.2000*%
%ADD108R,3.3000X2.7000*%
%ADD109R,1.6000X5.5000*%
%ADD110R,2.2000X5.6000*%
%ADD111R,3.6000X3.4000*%
%ADD112R,6.8000X2.8000*%
G36*
X415000Y540000D02*
X360000D01*
Y485000D01*
X310000D01*
Y575000D01*
X415000D01*
Y540000D01*
D02*
G37*
%LPC*%
G36*
X350000Y520608D02*
X347854Y520181D01*
X346035Y518965D01*
X344819Y517146D01*
X344392Y515000D01*
X344819Y512854D01*
X346035Y511035D01*
X347854Y509819D01*
X350000Y509392D01*
X352146Y509819D01*
X353965Y511035D01*
X355181Y512854D01*
X355608Y515000D01*
X355181Y517146D01*
X353965Y518965D01*
X352146Y520181D01*
X350000Y520608D01*
D02*
G37*
G36*
Y505608D02*
X347854Y505181D01*
X346035Y503965D01*
X344819Y502146D01*
X344392Y500000D01*
X344819Y497854D01*
X346035Y496035D01*
X347854Y494819D01*
X350000Y494392D01*
X352146Y494819D01*
X353965Y496035D01*
X355181Y497854D01*
X355608Y500000D01*
X355181Y502146D01*
X353965Y503965D01*
X352146Y505181D01*
X350000Y505608D01*
D02*
G37*
%LPD*%
D10*
X1091000Y1815000D02*
D03*
X1077000D02*
D03*
X1063000Y1833000D02*
D03*
X1049000D02*
D03*
X1077000Y1850000D02*
D03*
X1091000D02*
D03*
X1077380Y1831000D02*
D03*
X1092620D02*
D03*
X643000Y1061000D02*
D03*
X629000D02*
D03*
X643000Y1126000D02*
D03*
X629000D02*
D03*
X840000Y1066000D02*
D03*
X854000D02*
D03*
X840000Y1014000D02*
D03*
X854000D02*
D03*
X716000Y1302000D02*
D03*
X730000D02*
D03*
X475000Y1265000D02*
D03*
X489000D02*
D03*
X474000Y1524000D02*
D03*
X488000D02*
D03*
X1194000Y881000D02*
D03*
X1208000D02*
D03*
X1194000Y1621000D02*
D03*
X1208000D02*
D03*
X1007000Y801000D02*
D03*
X993000D02*
D03*
X643000Y1011000D02*
D03*
X629000D02*
D03*
X602000Y421000D02*
D03*
X616000D02*
D03*
X416000Y688000D02*
D03*
X430000D02*
D03*
X430620Y701000D02*
D03*
X415380D02*
D03*
X416000Y714000D02*
D03*
X430000D02*
D03*
X562000Y723000D02*
D03*
X548000D02*
D03*
X600380Y1490000D02*
D03*
X615620D02*
D03*
X622380Y1509000D02*
D03*
X637620D02*
D03*
X583000Y1531000D02*
D03*
X569000D02*
D03*
X583000Y1544000D02*
D03*
X569000D02*
D03*
X582000Y1557000D02*
D03*
X568000D02*
D03*
X574620Y1580000D02*
D03*
X559380D02*
D03*
X642000Y1589000D02*
D03*
X628000D02*
D03*
X616620Y1589000D02*
D03*
X601380D02*
D03*
X590620Y1608000D02*
D03*
X575380D02*
D03*
X622000Y1703000D02*
D03*
X636000D02*
D03*
X565380Y1676000D02*
D03*
X580620D02*
D03*
X618620Y1677000D02*
D03*
X603380D02*
D03*
X780380Y1776500D02*
D03*
X795620D02*
D03*
X780380Y1751500D02*
D03*
X795620D02*
D03*
Y1700500D02*
D03*
X780380D02*
D03*
Y1675500D02*
D03*
X795620D02*
D03*
X780380Y1649500D02*
D03*
X795620D02*
D03*
X1052000Y1482000D02*
D03*
X1066000D02*
D03*
X1076000Y1446000D02*
D03*
X1062000D02*
D03*
X1076000Y1434000D02*
D03*
X1062000D02*
D03*
X1077000Y1397000D02*
D03*
X1063000D02*
D03*
X1148380Y1394000D02*
D03*
X1163620D02*
D03*
X1148380Y1406000D02*
D03*
X1163620D02*
D03*
X1122000Y1430000D02*
D03*
X1136000D02*
D03*
X1122000Y1418000D02*
D03*
X1136000D02*
D03*
X1122000Y1406000D02*
D03*
X1136000D02*
D03*
X1122000Y1394000D02*
D03*
X1136000D02*
D03*
X1122000Y1382000D02*
D03*
X1136000D02*
D03*
X1059000Y1061000D02*
D03*
X1045000D02*
D03*
X1083000Y825000D02*
D03*
X1069000D02*
D03*
X1082000Y808000D02*
D03*
X1068000D02*
D03*
X1082000Y779000D02*
D03*
X1068000D02*
D03*
X968380Y697000D02*
D03*
X983620D02*
D03*
X1155380Y773000D02*
D03*
X1170620D02*
D03*
X1155380Y786000D02*
D03*
X1170620D02*
D03*
X1131500Y809500D02*
D03*
X1145500D02*
D03*
X1131500Y797500D02*
D03*
X1145500D02*
D03*
X1129000Y785000D02*
D03*
X1143000D02*
D03*
X1129000Y773000D02*
D03*
X1143000D02*
D03*
X1129000Y761000D02*
D03*
X1143000D02*
D03*
X813380Y1096000D02*
D03*
X828620D02*
D03*
Y1109000D02*
D03*
X813380D02*
D03*
X643000Y953000D02*
D03*
X629000D02*
D03*
X643000Y965000D02*
D03*
X629000D02*
D03*
D15*
X480760Y716000D02*
D03*
X511240D02*
D03*
D30*
X834000Y1722000D02*
D03*
Y1736000D02*
D03*
Y1667000D02*
D03*
Y1681000D02*
D03*
X676000Y1144000D02*
D03*
Y1158000D02*
D03*
X751000Y1144000D02*
D03*
Y1158000D02*
D03*
X861000Y1116000D02*
D03*
Y1130000D02*
D03*
X831000Y948000D02*
D03*
Y934000D02*
D03*
X761000Y947000D02*
D03*
Y933000D02*
D03*
X706000Y947000D02*
D03*
Y933000D02*
D03*
X932000Y1131000D02*
D03*
Y1145000D02*
D03*
X958000Y1140000D02*
D03*
Y1154000D02*
D03*
X811000Y947000D02*
D03*
Y933000D02*
D03*
X1117000Y1730000D02*
D03*
Y1716000D02*
D03*
X709000Y1144000D02*
D03*
Y1158000D02*
D03*
X833000Y705000D02*
D03*
Y719000D02*
D03*
X435000Y1507620D02*
D03*
Y1492380D02*
D03*
X489000Y1610380D02*
D03*
Y1625620D02*
D03*
X434000Y846000D02*
D03*
Y860000D02*
D03*
X440000Y1313000D02*
D03*
Y1299000D02*
D03*
X513000Y1321380D02*
D03*
Y1336620D02*
D03*
X597000Y1533000D02*
D03*
Y1519000D02*
D03*
X605000Y1555000D02*
D03*
Y1569000D02*
D03*
X651000Y1608380D02*
D03*
Y1623620D02*
D03*
X655000Y1654000D02*
D03*
Y1640000D02*
D03*
X640000Y1663620D02*
D03*
Y1648380D02*
D03*
X631000Y1688000D02*
D03*
Y1674000D02*
D03*
X1101000Y1519000D02*
D03*
Y1505000D02*
D03*
X1113000Y1474000D02*
D03*
Y1488000D02*
D03*
X1085000Y1471000D02*
D03*
Y1485000D02*
D03*
X1079000Y1385000D02*
D03*
Y1371000D02*
D03*
X994000Y991000D02*
D03*
Y1005000D02*
D03*
X1021000Y883620D02*
D03*
Y868380D02*
D03*
X1037000Y883620D02*
D03*
Y868380D02*
D03*
X1120000Y853000D02*
D03*
Y867000D02*
D03*
X1108000Y896000D02*
D03*
Y882000D02*
D03*
X1088000Y853000D02*
D03*
Y867000D02*
D03*
X1079000Y762000D02*
D03*
Y748000D02*
D03*
X967000Y754000D02*
D03*
Y740000D02*
D03*
D36*
X586000Y665240D02*
D03*
Y634760D02*
D03*
X584000Y783760D02*
D03*
Y814240D02*
D03*
X939000Y772240D02*
D03*
Y741760D02*
D03*
D37*
X681998Y1084000D02*
D03*
Y1052000D02*
D03*
D40*
X798000Y635000D02*
D03*
X842000D02*
D03*
X923000Y630000D02*
D03*
X967000D02*
D03*
X1038000D02*
D03*
X1082000D02*
D03*
D65*
X991000Y1822000D02*
X993000Y1824000D01*
X991000Y1792000D02*
Y1822000D01*
X978000Y1779000D02*
X991000Y1792000D01*
X978000Y1722000D02*
Y1779000D01*
X890000Y1634000D02*
X978000Y1722000D01*
X890000Y1576000D02*
Y1634000D01*
Y1576000D02*
X900000Y1566000D01*
X895000Y1409000D02*
X916000Y1388000D01*
Y1283000D02*
Y1388000D01*
X884000Y1251000D02*
X916000Y1283000D01*
X884000Y1169000D02*
Y1251000D01*
X873000Y1158000D02*
X884000Y1169000D01*
X873000Y1130000D02*
Y1158000D01*
X824000Y1235000D02*
Y1262314D01*
X790000Y1296314D02*
X824000Y1262314D01*
X790000Y1321000D02*
X796000Y1327000D01*
X774000Y1185000D02*
X824000Y1235000D01*
X790000Y1296314D02*
Y1321000D01*
X820000Y1236657D02*
Y1260314D01*
X789000Y1330000D02*
Y1334000D01*
X785757Y1294556D02*
Y1326757D01*
Y1294556D02*
X820000Y1260314D01*
X785757Y1326757D02*
X789000Y1330000D01*
X778672Y1195328D02*
X820000Y1236657D01*
X772521Y1195328D02*
X778672D01*
X765192Y1188000D02*
X772521Y1195328D01*
X764000Y1188000D02*
X765192D01*
X816000Y1238314D02*
Y1258657D01*
X781757Y1292899D02*
X816000Y1258657D01*
X785686Y1208000D02*
X816000Y1238314D01*
X781757Y1338757D02*
X786000Y1343000D01*
X781757Y1292899D02*
Y1338757D01*
X764000Y1208000D02*
X785686D01*
X750500Y1194500D02*
X764000Y1208000D01*
X750500Y1174000D02*
Y1194500D01*
X812000Y1240000D02*
Y1257000D01*
X777757Y1291243D02*
X812000Y1257000D01*
X806985Y1234985D02*
X812000Y1240000D01*
X777000Y1346000D02*
X777757Y1345243D01*
Y1291243D02*
Y1345243D01*
X747000Y1246000D02*
X758015Y1234985D01*
X806985D01*
X727000Y1239000D02*
X734000Y1246000D01*
X747000D01*
X727000Y1210000D02*
Y1239000D01*
X797000Y1300000D02*
X840000Y1257000D01*
X797000Y1300000D02*
Y1313000D01*
X761002Y1244998D02*
X800999D01*
X742000Y1264000D02*
X761002Y1244998D01*
X728000Y1108000D02*
Y1175657D01*
X720000Y1183657D02*
X728000Y1175657D01*
X720000Y1183657D02*
Y1243000D01*
X712000Y1246000D02*
X730000Y1264000D01*
X712000Y1236343D02*
Y1246000D01*
X708000Y1238000D02*
Y1264000D01*
X704000Y1239657D02*
Y1255000D01*
X675000Y1210657D02*
X704000Y1239657D01*
X730000Y1264000D02*
X742000D01*
X699000Y1223343D02*
X712000Y1236343D01*
X699000Y1181000D02*
Y1223343D01*
X697000Y1262000D02*
X704000Y1255000D01*
X831000Y1354000D02*
X880000Y1305000D01*
X618172Y1201828D02*
X625672Y1209328D01*
X720971Y1354000D02*
X831000D01*
X628000Y1261030D02*
X720971Y1354000D01*
X628000Y1222686D02*
Y1261030D01*
X625672Y1220358D02*
X628000Y1222686D01*
X625672Y1209328D02*
Y1220358D01*
X898000Y1358000D02*
X904000Y1352000D01*
X614000Y1212000D02*
X620000Y1218000D01*
X719314Y1358000D02*
X898000D01*
X624000Y1262686D02*
X719314Y1358000D01*
X624000Y1224343D02*
Y1262686D01*
X620000Y1220343D02*
X624000Y1224343D01*
X620000Y1218000D02*
Y1220343D01*
X613828Y1219828D02*
X620000Y1226000D01*
Y1264343D01*
X717657Y1362000D01*
X612000Y1262000D02*
X719000Y1369000D01*
X612000Y1232000D02*
Y1262000D01*
X679000Y1209000D02*
X708000Y1238000D01*
X586000Y1164000D02*
X674000Y1252000D01*
X697000D01*
X579000Y1147000D02*
X674000Y1242000D01*
X695000D01*
X675000Y1178000D02*
Y1210657D01*
X1224600Y825143D02*
Y830800D01*
Y825143D02*
X1237000Y812743D01*
X1143000Y868000D02*
Y940000D01*
X554000Y1002000D02*
X558000Y1006000D01*
Y1063000D01*
X588000Y1093000D01*
X616000Y1134000D02*
X624000Y1142000D01*
X616000Y1109000D02*
Y1134000D01*
X563500Y1056500D02*
X616000Y1109000D01*
X563500Y1000808D02*
Y1056500D01*
X622000Y1107000D02*
X651000D01*
X570000Y1005000D02*
Y1055000D01*
X622000Y1107000D01*
X558000Y1147000D02*
X579000D01*
X561000Y1164000D02*
X586000D01*
X965000Y1336000D02*
X1031500Y1269500D01*
X816000Y1585657D02*
X944000Y1457657D01*
X816000Y1585657D02*
Y1715880D01*
X936000Y1256000D02*
Y1460000D01*
X807000Y1589000D02*
X936000Y1460000D01*
X807000Y1589000D02*
Y1680000D01*
X944000Y1239000D02*
Y1457657D01*
X892657Y1425000D02*
X908000D01*
X790000Y1527657D02*
X892657Y1425000D01*
X790000Y1527657D02*
Y1639880D01*
X893000Y1419000D02*
X902000D01*
X785000Y1527000D02*
X893000Y1419000D01*
X785000Y1527000D02*
Y1603300D01*
X780380Y1751500D02*
X816000Y1715880D01*
X790880Y1690000D02*
X797000D01*
X807000Y1680000D01*
X780380Y1649500D02*
X790000Y1639880D01*
X764000Y1624300D02*
X785000Y1603300D01*
X840000Y1169000D02*
X857000Y1186000D01*
Y1249000D01*
X854000Y1156000D02*
X874000Y1176000D01*
X854000Y1151000D02*
Y1156000D01*
X974000Y924000D02*
X982000D01*
X960000Y910000D02*
X974000Y924000D01*
X929000Y910000D02*
X960000D01*
X894000D02*
X917000Y933000D01*
X883500Y910000D02*
X894000D01*
X619000Y1621000D02*
X632000Y1608000D01*
X632380Y1608380D02*
X651000D01*
X950000Y1037000D02*
Y1086343D01*
X1181000Y746000D02*
X1202000Y767000D01*
X1165000Y746000D02*
X1181000D01*
X1148000Y836000D02*
X1154000Y830000D01*
X1143000Y868000D02*
X1148000Y863000D01*
Y836000D02*
Y863000D01*
X465500Y1353500D02*
X475000Y1363000D01*
X465500Y1347000D02*
Y1353500D01*
X476000Y1364000D02*
X491000D01*
X922343Y1114000D02*
X950000Y1086343D01*
X816000Y1123000D02*
X924657D01*
X966000Y1081657D01*
X957000Y1059000D02*
Y1085000D01*
X923000Y1119000D02*
X957000Y1085000D01*
X904000Y1119000D02*
X923000D01*
X904657Y1114000D02*
X922343D01*
X887657Y1097000D02*
X904657Y1114000D01*
X851000Y1097000D02*
X887657D01*
X812000Y1058000D02*
X851000Y1097000D01*
X812000Y1052000D02*
Y1058000D01*
X888000Y1115000D02*
X900000D01*
X904000Y1119000D01*
X759000Y1041000D02*
X770000Y1052000D01*
X656000Y1041000D02*
X759000D01*
X654000Y1043000D02*
X656000Y1041000D01*
X1154000Y830000D02*
X1170000D01*
X1194600Y805400D01*
X1224600D01*
X1174000Y833000D02*
X1207000D01*
X1169000Y838000D02*
X1174000Y833000D01*
X1165000Y838000D02*
X1169000D01*
X1212000Y780000D02*
X1224600D01*
X1170000Y822000D02*
X1212000Y780000D01*
X1165000Y822000D02*
X1170000D01*
X1207000Y833000D02*
X1218000Y844000D01*
X1044000Y1493000D02*
X1046000Y1495000D01*
X1044000Y1392000D02*
Y1493000D01*
Y1392000D02*
X1054000Y1382000D01*
Y1110000D02*
Y1175000D01*
X1023000Y1427000D02*
X1033000Y1437000D01*
X1115000Y1541000D02*
X1119000Y1545000D01*
X1060000Y1541000D02*
X1115000D01*
X1033000Y1514000D02*
X1060000Y1541000D01*
X1033000Y1437000D02*
Y1514000D01*
X1057000Y897000D02*
Y944000D01*
Y897000D02*
X1060000Y894000D01*
X1143000Y773000D02*
X1155380D01*
X1155000Y786000D02*
X1155500Y786500D01*
X1144000Y786000D02*
X1155000D01*
X1208000Y873000D02*
Y881000D01*
X1177000Y842000D02*
X1208000Y873000D01*
X1218000Y844000D02*
X1233000D01*
X465000Y853000D02*
X479000D01*
X484500Y858500D01*
Y866000D01*
X644000Y836000D02*
X663000Y817000D01*
X633000Y784000D02*
X634000D01*
X641000Y791000D01*
X1208000Y1590000D02*
Y1621000D01*
X1188000Y1570000D02*
X1208000Y1590000D01*
X1135000Y1570000D02*
X1188000D01*
X1119000Y1554000D02*
X1135000Y1570000D01*
X1119000Y1545000D02*
Y1554000D01*
Y1545000D02*
X1131000Y1533000D01*
Y1457000D02*
Y1533000D01*
X692000Y926000D02*
X693000Y927000D01*
X678000Y912000D02*
X692000Y926000D01*
X678000Y893000D02*
Y912000D01*
Y893000D02*
X689000Y882000D01*
X749686D01*
X788000Y843686D01*
Y824000D02*
Y843686D01*
Y824000D02*
X794000Y818000D01*
X802000D01*
X820000Y836000D01*
Y897000D01*
X794000Y920000D02*
X804000Y910000D01*
X822686D01*
X840000Y892686D01*
X798000Y924000D02*
X805000Y917000D01*
X805343D01*
X807343Y915000D01*
X823343D01*
X845000Y893343D01*
Y842000D02*
Y893343D01*
X802000Y926000D02*
X809000Y919000D01*
X825000D01*
X849000Y895000D01*
X840000Y847000D02*
Y892686D01*
X805000Y812000D02*
X840000Y847000D01*
X801000Y798000D02*
X845000Y842000D01*
X849000Y832000D02*
Y895000D01*
X816000Y799000D02*
X849000Y832000D01*
X854000Y926000D02*
X894000Y966000D01*
X854000Y827808D02*
Y926000D01*
X816192Y790000D02*
X854000Y827808D01*
X865000Y833000D02*
Y850000D01*
X818000Y786000D02*
X865000Y833000D01*
X690000Y893000D02*
X693000Y896000D01*
X741343D01*
X708000Y915000D02*
X710000Y913000D01*
X703000Y908000D02*
X746998D01*
X693000Y904000D02*
X739000D01*
X699000Y912000D02*
X703000Y908000D01*
X688657Y872000D02*
X714000D01*
X665000Y895657D02*
X688657Y872000D01*
X665000Y895657D02*
Y910000D01*
X691000Y864000D02*
X706000D01*
X653000Y902000D02*
X691000Y864000D01*
X640000Y895000D02*
X652657D01*
X690657Y857000D01*
X699000D01*
X741343Y896000D02*
X797000Y840343D01*
Y828000D02*
Y840343D01*
X968500Y865500D02*
X977000Y857000D01*
X913500Y865500D02*
X968500D01*
X913000Y866000D02*
X913500Y865500D01*
X977000Y857000D02*
X1037000D01*
X1041000Y861000D01*
X1057000D01*
X591450Y1653650D02*
X611600Y1633500D01*
X591450Y1653650D02*
Y1663542D01*
X594500Y1666592D01*
Y1690000D01*
X598000Y1693500D01*
X604500D01*
X585000Y1680000D02*
X590500Y1685500D01*
Y1708500D01*
X586500Y1712500D02*
X590500Y1708500D01*
X581500Y1712500D02*
X586500D01*
X604500D02*
X611500D01*
X614000Y1710000D01*
Y1687620D02*
Y1710000D01*
X603380Y1677000D02*
X614000Y1687620D01*
X577500Y1693500D02*
X581500D01*
X573000Y1689000D02*
X577500Y1693500D01*
X573000Y1667242D02*
Y1689000D01*
X571150Y1665392D02*
X573000Y1667242D01*
X571150Y1654258D02*
Y1665392D01*
Y1654258D02*
X591300Y1634108D01*
Y1633500D02*
Y1634108D01*
X638400Y1640000D02*
X655000D01*
X631900Y1633500D02*
X638400Y1640000D01*
X611600Y1633500D02*
X626480Y1648380D01*
X640000D01*
X601450Y1658900D02*
Y1675070D01*
X581150Y1658900D02*
Y1675470D01*
X590620Y1608000D02*
X606600D01*
X563000Y1621000D02*
X619000D01*
X560000Y1618000D02*
X563000Y1621000D01*
X880000Y1266000D02*
Y1305000D01*
X1019000Y1427000D02*
X1023000D01*
X1131000Y1457000D02*
X1151000Y1437000D01*
Y1426000D02*
Y1437000D01*
X699000Y1181000D02*
X708500Y1171500D01*
Y1163500D02*
Y1171500D01*
X704500Y1183500D02*
Y1198500D01*
X706000Y1200000D01*
X760343Y786000D02*
X818000D01*
X755343Y791000D02*
X760343Y786000D01*
X641000Y791000D02*
X755343D01*
X643151Y824000D02*
X659651Y807500D01*
X628000Y824000D02*
X643151D01*
X638808Y834000D02*
X661308Y811500D01*
X623000Y834000D02*
X638808D01*
X616000Y839000D02*
X630000Y853000D01*
X616000Y825000D02*
Y839000D01*
X609000Y852000D02*
X617000Y860000D01*
X609000Y826343D02*
Y852000D01*
X565000Y991000D02*
Y999308D01*
X563500Y1000808D02*
X565000Y999308D01*
X532000Y1134000D02*
X578000D01*
X595000Y1151000D02*
X616000D01*
X578000Y1134000D02*
X595000Y1151000D01*
X894000Y966000D02*
Y992000D01*
X762000Y790000D02*
X816192D01*
X757000Y795000D02*
X762000Y790000D01*
X634686Y795000D02*
X757000D01*
X605000Y824686D02*
X634686Y795000D01*
X605000Y824686D02*
Y865000D01*
X592000Y1053000D02*
X595000Y1056000D01*
X592000Y1020808D02*
Y1053000D01*
X586192Y1015000D02*
X592000Y1020808D01*
X578000Y1015000D02*
X586192D01*
X585000Y1060000D02*
X588000Y1063000D01*
X585000Y1023000D02*
Y1060000D01*
X609000Y826343D02*
X636343Y799000D01*
X747000D01*
X760000Y812000D01*
X771000D01*
X616000Y825000D02*
X638000Y803000D01*
X745000D01*
X765000Y823000D01*
X770000D01*
X767000Y898000D02*
X803000Y862000D01*
Y859000D02*
Y862000D01*
X710000Y913000D02*
X749000D01*
X753000Y917000D01*
X768000D01*
X775000Y910000D01*
Y899000D02*
Y910000D01*
Y899000D02*
X791000Y883000D01*
X799000D01*
X806000Y890000D01*
X767000Y898000D02*
Y908000D01*
X922000Y872000D02*
X966657D01*
X989657Y895000D01*
X1020657D01*
X1040000Y914343D01*
Y921000D01*
X932000Y879000D02*
X968000D01*
X988000Y899000D01*
X1019000D01*
X972000Y914000D02*
X1011000D01*
X953000Y895000D02*
X972000Y914000D01*
X988000Y907000D02*
X1017000D01*
X969000Y888000D02*
X988000Y907000D01*
X704500Y1183500D02*
X720000Y1168000D01*
X687000Y1185000D02*
X695000Y1177000D01*
X711000Y1187000D02*
X724000Y1174000D01*
X720000Y1134000D02*
Y1168000D01*
X687000Y1185000D02*
Y1206000D01*
X651000Y887000D02*
X655000D01*
X692000Y850000D01*
X644000Y880000D02*
X653000D01*
X665000Y868000D01*
Y862000D02*
Y868000D01*
Y862000D02*
X685000Y842000D01*
X657000Y855000D02*
Y863000D01*
Y855000D02*
X678000Y834000D01*
X465500Y1316500D02*
Y1323000D01*
Y1316500D02*
X470000Y1312000D01*
X490000D01*
X1136000Y1406000D02*
X1148000D01*
X1053000Y1443000D02*
X1059000D01*
X1076000Y1494000D02*
X1085000Y1485000D01*
X1088000Y867000D02*
Y870500D01*
X417000Y701000D02*
X430000Y714000D01*
X429000Y1403000D02*
Y1469000D01*
X425850Y1399850D02*
X429000Y1403000D01*
X425850Y1264150D02*
Y1399850D01*
Y1264150D02*
X437000Y1253000D01*
X421000Y1473000D02*
X429000Y1481000D01*
X421000Y1256000D02*
Y1473000D01*
Y1256000D02*
X437000Y1240000D01*
X440000Y1299000D02*
X500000D01*
X513000Y1312000D01*
Y1321380D01*
X1211400Y551400D02*
X1224600D01*
X1175000Y515000D02*
X1211400Y551400D01*
X1165000Y515000D02*
X1175000D01*
X1237200Y564000D02*
X1250000Y576800D01*
X1206000Y564000D02*
X1237200D01*
X1182000Y540000D02*
X1206000Y564000D01*
X1165000Y540000D02*
X1182000D01*
X1237800Y590000D02*
X1250000Y602200D01*
X1210000Y590000D02*
X1237800D01*
X1185000Y565000D02*
X1210000Y590000D01*
X1165000Y565000D02*
X1185000D01*
X1190200Y602200D02*
X1224600D01*
X1178000Y590000D02*
X1190200Y602200D01*
X1165000Y590000D02*
X1178000D01*
X1212000Y615000D02*
X1224600Y627600D01*
X1165000Y615000D02*
X1212000D01*
X1238000Y641000D02*
X1250000Y653000D01*
X1166000Y641000D02*
X1238000D01*
X1236600Y665000D02*
X1250000Y678400D01*
X1165000Y665000D02*
X1236600D01*
X1176600Y678400D02*
X1224600D01*
X1165000Y690000D02*
X1176600Y678400D01*
X876000Y965000D02*
Y983000D01*
X879000Y986000D01*
X783000Y907000D02*
Y925000D01*
X786000Y928000D01*
Y1081000D02*
X790000Y1085000D01*
X786000Y928000D02*
Y1059686D01*
Y1066314D02*
Y1081000D01*
X790000Y910000D02*
Y1061343D01*
X786000Y1059686D02*
X786000Y1059686D01*
X786000Y1059686D02*
Y1066314D01*
X786000Y1066314D01*
X790000Y1061343D02*
X790000Y1061343D01*
X790000Y1061343D02*
Y1064657D01*
X790000Y1064657D01*
Y1071000D01*
X796500Y1077500D01*
X779000Y931000D02*
X782000Y934000D01*
Y1091000D01*
X782000Y1091000D02*
X782000Y1091000D01*
X779000Y905343D02*
Y931000D01*
X789000Y901000D02*
X795000D01*
X783000Y907000D02*
X789000Y901000D01*
X774000Y1040000D02*
X778000Y1036000D01*
Y991000D02*
Y1036000D01*
X745000Y958000D02*
X778000Y991000D01*
X745000Y920000D02*
Y958000D01*
X827657Y1027000D02*
X840657Y1040000D01*
X861000D01*
X815000Y1025000D02*
X819904Y1020096D01*
X829096D01*
X841000Y1032000D01*
X868000D01*
X905000Y1000000D02*
Y1029000D01*
X919000Y1043000D01*
Y1087000D01*
X695000Y1120000D02*
Y1177000D01*
X724000Y1128808D02*
Y1174000D01*
X713000Y1104000D02*
Y1117808D01*
X724000Y1128808D01*
X705000Y1119000D02*
X720000Y1134000D01*
X705000Y1113000D02*
Y1119000D01*
X861500Y1005814D02*
X878000Y1022314D01*
X861500Y970657D02*
Y1005814D01*
X850000Y959157D02*
X861500Y970657D01*
X850000Y949000D02*
Y959157D01*
X905000Y933000D02*
X912000Y940000D01*
Y1022000D01*
X925000Y990000D02*
X927000Y992000D01*
Y1070000D01*
X932000Y982000D02*
X934000Y984000D01*
Y1077000D01*
X940000Y1084000D02*
X940500Y1083500D01*
Y989500D02*
X941000Y989000D01*
X940500Y989500D02*
Y1083500D01*
X794000Y920000D02*
Y964000D01*
X809000Y979000D01*
X810000D01*
X798000Y924000D02*
Y959000D01*
X811000Y972000D01*
X817000D01*
X802000Y926000D02*
Y957000D01*
X809000Y964000D01*
X823000D01*
X790000Y798000D02*
X801000D01*
X863000Y1047000D02*
X871000Y1055000D01*
X842000Y1047000D02*
X863000D01*
X828500Y1033500D02*
X842000Y1047000D01*
X809999Y1032999D02*
X810500Y1033500D01*
X828500D01*
X803499Y1024501D02*
X805000Y1023000D01*
X803499Y1024501D02*
Y1035691D01*
X807307Y1039499D01*
X828842D01*
X840343Y1051000D01*
X861343D01*
X867000Y1056657D01*
X779000Y905343D02*
X794343Y890000D01*
X1171000Y724000D02*
X1194000D01*
X1224600Y754600D01*
X1233000Y844000D02*
X1238000Y839000D01*
Y817400D02*
Y839000D01*
Y817400D02*
X1250000Y805400D01*
X1202000Y767000D02*
X1231000D01*
X1237000Y773000D01*
Y812743D01*
X907000Y1099000D02*
Y1104000D01*
Y1099000D02*
X919000Y1087000D01*
X871843Y1081500D02*
X877843D01*
X871000Y1075000D02*
X873500Y1077500D01*
X867000Y1076657D02*
X871843Y1081500D01*
X867000Y1056657D02*
Y1076657D01*
X871000Y1055000D02*
Y1075000D01*
X877500Y1022814D02*
X878000Y1022314D01*
X877500Y1022814D02*
Y1069772D01*
X885000Y1088657D02*
Y1090000D01*
X877843Y1081500D02*
X885000Y1088657D01*
X873500Y1077500D02*
X882500D01*
X885000Y1080000D01*
X888000D01*
X794000Y1000000D02*
X804000Y990000D01*
X794000Y1000000D02*
Y1062000D01*
X803000Y1071000D01*
Y1091808D01*
X801500Y1093308D02*
X803000Y1091808D01*
X801500Y1093308D02*
Y1149500D01*
X603000Y1035000D02*
X604500Y1033500D01*
X740000D01*
X725000Y1105000D02*
X728000Y1108000D01*
X674000Y1116000D02*
X690000Y1132000D01*
Y1171000D01*
X679000Y1182000D02*
X690000Y1171000D01*
X679000Y1182000D02*
Y1209000D01*
X667000Y1123000D02*
X674000D01*
X685000Y1134000D01*
Y1168000D01*
X675000Y1178000D02*
X685000Y1168000D01*
X846000Y1230000D02*
Y1260000D01*
X820000Y1286000D02*
X846000Y1260000D01*
X820000Y1286000D02*
Y1340000D01*
X735000Y1100000D02*
Y1233000D01*
X738000Y1236000D01*
X917000Y1003000D02*
X919000Y1005000D01*
X917000Y933000D02*
Y1003000D01*
X805000Y809000D02*
Y812000D01*
X804000Y811000D02*
X805000Y812000D01*
X787000Y1115000D02*
X796000Y1124000D01*
Y1153000D01*
X830000Y1187000D01*
X801500Y1149500D02*
X839500Y1187500D01*
Y1233192D01*
X840000Y1233692D01*
Y1257000D01*
X830000Y1187000D02*
Y1241000D01*
X834000Y1245000D01*
X869500Y957500D02*
Y1002500D01*
Y957500D02*
X870000Y957000D01*
X869500Y1002500D02*
X910000Y1043000D01*
Y1047000D01*
X860000Y953000D02*
Y963500D01*
X865500Y969000D01*
Y1004157D02*
X900000Y1038657D01*
X865500Y969000D02*
Y1004157D01*
X900000Y1038657D02*
Y1049000D01*
X930000Y1235000D02*
Y1242000D01*
X932000Y1273000D02*
Y1401000D01*
X920000Y1252000D02*
X930000Y1242000D01*
X926999Y1260998D02*
Y1267999D01*
X932000Y1273000D01*
X935000Y1255000D02*
X936000Y1256000D01*
X764200Y1751500D02*
X780380D01*
X764000Y1751300D02*
X769700D01*
X764000Y1700500D02*
X780380D01*
X764000Y1649700D02*
X780180D01*
X780380Y1700500D02*
X790880Y1690000D01*
X764400Y1675500D02*
X780380D01*
X764200Y1776500D02*
X780380D01*
X390400Y870400D02*
X421400D01*
X437000Y886000D01*
X1155000Y854000D02*
Y902000D01*
X1150000Y907000D02*
X1155000Y902000D01*
X1169000Y850000D02*
Y905000D01*
X1163000Y911000D02*
X1169000Y905000D01*
X935000Y895000D02*
X953000D01*
X945000Y888000D02*
X969000D01*
X803000Y840000D02*
X805000D01*
X739000Y904000D02*
X803000Y840000D01*
X798657Y850000D02*
X803000D01*
X778999Y869658D02*
X798657Y850000D01*
X778999Y869658D02*
Y875999D01*
X746998Y908000D02*
X778999Y875999D01*
X651000Y846000D02*
X671000Y826000D01*
X651000Y846000D02*
Y872000D01*
X644000Y836000D02*
Y849000D01*
X661308Y811500D02*
X740500D01*
X770000Y841000D01*
X659651Y807500D02*
X742157D01*
X767657Y833000D01*
X778000D01*
X1170000Y1211034D02*
X1224600Y1265634D01*
Y1291400D01*
X1170000Y1231000D02*
X1210000Y1271000D01*
Y1298000D01*
X1217000Y1305000D01*
X1238200D01*
X1250000Y1316800D01*
X1170000Y1251000D02*
X1203000Y1284000D01*
Y1314000D01*
X1219000Y1330000D01*
X1237800D01*
X1250000Y1342200D01*
X1170000Y1271000D02*
X1197000Y1298000D01*
Y1314600D01*
X1224600Y1342200D01*
X1170000Y1291000D02*
X1193000Y1314000D01*
Y1326156D01*
X1224600Y1357756D01*
Y1367600D01*
X1170000Y1311000D02*
X1208000Y1349000D01*
Y1369000D01*
X1219000Y1380000D01*
X1237000D01*
X1250000Y1393000D01*
X1170000Y1330500D02*
X1204000Y1364500D01*
Y1390000D01*
X1219000Y1405000D01*
X1236600D01*
X1250000Y1418400D01*
X1170000Y1350000D02*
X1200000Y1380000D01*
Y1396000D01*
X1222400Y1418400D01*
X1224600D01*
X1143000Y1475000D02*
Y1537000D01*
X1129000Y1551000D02*
X1143000Y1537000D01*
X1154000Y1476000D02*
Y1542000D01*
X1140000Y1556000D02*
X1154000Y1542000D01*
X740500Y464500D02*
X742000D01*
X728000Y452000D02*
X740500Y464500D01*
X1170000Y1470000D02*
X1203000Y1503000D01*
Y1522000D01*
X1213000Y1532000D01*
X1236600D01*
X1250000Y1545400D01*
X1170000Y1450000D02*
X1178000Y1458000D01*
Y1470000D01*
X1224600Y1516600D01*
Y1520000D01*
X1160500Y1439500D02*
Y1532100D01*
X1224600Y1596200D01*
X1160500Y1439500D02*
X1170000Y1430000D01*
Y1370000D02*
X1196000Y1396000D01*
Y1466000D01*
X1210200Y1480200D01*
X1255200D01*
X1264000Y1489000D01*
Y1550000D01*
X1256000Y1558000D02*
X1264000Y1550000D01*
X1237400Y1558000D02*
X1256000D01*
X1224600Y1570800D02*
X1237400Y1558000D01*
X1136000Y1394000D02*
X1149000D01*
X555000Y838000D02*
Y857000D01*
X588000Y1209000D02*
X595172Y1201828D01*
X618172D01*
X908000Y1425000D02*
X932000Y1401000D01*
X920000Y1252000D02*
Y1401000D01*
X902000Y1419000D02*
X920000Y1401000D01*
X581000Y1202000D02*
X585000Y1198000D01*
X581000Y1202000D02*
Y1212000D01*
X588828Y1219828D01*
X613828D01*
X717657Y1362000D02*
X909000D01*
X719000Y1369000D02*
X900000D01*
X1209600Y1545400D02*
X1224600D01*
X1199000Y1556000D02*
X1209600Y1545400D01*
X1051000Y884000D02*
X1052000Y883000D01*
X1051000Y884000D02*
X1053000Y886000D01*
Y965000D01*
X1024000Y904000D02*
Y930000D01*
X1019000Y899000D02*
X1024000Y904000D01*
X1038000Y1094000D02*
X1054000Y1110000D01*
X1130000Y953000D02*
X1143000Y940000D01*
X950000Y1037000D02*
X954000Y1033000D01*
X966000Y1066000D02*
Y1081657D01*
X1057000Y944000D02*
X1061000Y948000D01*
Y1009000D01*
X1033000Y1037000D02*
X1061000Y1009000D01*
X1033000Y1037000D02*
Y1085500D01*
X1031500Y1087000D02*
X1033000Y1085500D01*
X1031500Y1087000D02*
Y1269500D01*
X860000Y1736000D02*
X867500D01*
X892500Y1761000D01*
D66*
X1022700Y1760300D02*
X1040000D01*
X1011000Y1772000D02*
X1022700Y1760300D01*
X1011000Y1772000D02*
Y1849000D01*
X1020000Y1858000D01*
X1027000D01*
X1275000Y1284000D02*
Y1359000D01*
Y638000D02*
Y910000D01*
X612000Y1472000D02*
X615620Y1475620D01*
Y1490000D01*
X637620Y1509000D02*
X648620Y1520000D01*
X955000Y952000D02*
Y997000D01*
X882000Y838000D02*
Y879000D01*
X807000Y763000D02*
X882000Y838000D01*
X537000Y763000D02*
X807000D01*
X864000Y792000D02*
X983600D01*
X814000Y742000D02*
X864000Y792000D01*
X756000Y742000D02*
X814000D01*
X882000Y879000D02*
X955000Y952000D01*
X318000Y1588400D02*
X339600Y1610000D01*
X318000Y1430000D02*
Y1588400D01*
Y1430000D02*
X333000Y1415000D01*
X339600D01*
X521000Y779000D02*
X537000Y763000D01*
X456400Y779000D02*
X521000D01*
X390400Y845000D02*
X456400Y779000D01*
X466000Y650000D02*
X475000D01*
X565000Y560000D01*
X609000D01*
X655000Y606000D01*
Y641000D01*
X756000Y742000D01*
X983600Y792000D02*
X1055601Y720000D01*
X1125000D01*
X1138000Y707000D01*
Y500000D02*
Y707000D01*
Y500000D02*
X1149000Y489000D01*
X1236000D01*
X1275000Y528000D01*
Y617200D01*
X1264600Y627600D02*
X1275000Y617200D01*
X1250000Y1367600D02*
X1266400D01*
X1275000Y1359000D01*
X1264600Y627600D02*
X1275000Y638000D01*
X1250000Y627600D02*
X1264600D01*
X339600Y1415000D02*
X390400D01*
X955000Y997000D02*
X1017000Y1059000D01*
X1246500Y1270500D02*
X1261500D01*
X1275000Y1284000D01*
X1187000Y998000D02*
X1275000Y910000D01*
X1187000Y998000D02*
Y1211000D01*
X1246500Y1270500D01*
X1027000Y1858000D02*
X1038890D01*
X848000Y1813600D02*
Y1864400D01*
X873400Y1813600D02*
Y1864400D01*
X898800Y1813600D02*
Y1864400D01*
X924200Y1813600D02*
Y1864400D01*
X949600Y1813600D02*
Y1864400D01*
X975000Y1813600D02*
Y1864400D01*
X1040000Y1785700D02*
X1071000D01*
X318000Y1588400D02*
Y1749000D01*
X334000Y1765000D01*
X656000D01*
X702000Y1811000D01*
Y1835000D01*
X720000Y1853000D01*
X791000D01*
X817000Y1827000D01*
Y1753000D02*
Y1827000D01*
Y1753000D02*
X834000Y1736000D01*
D67*
X1134000Y833000D02*
Y907000D01*
Y833000D02*
X1145500Y821500D01*
Y809500D02*
Y821500D01*
X569000Y1531000D02*
Y1544000D01*
X569000Y1531000D02*
X569000Y1531000D01*
X1031620Y889000D02*
X1037000Y883620D01*
X1028000Y889000D02*
X1031620D01*
X1026380D02*
X1028000D01*
X1021000Y883620D02*
X1026380Y889000D01*
X584000Y794000D02*
X585000Y795000D01*
X584000Y783760D02*
Y794000D01*
X1164000Y760000D02*
X1167000D01*
X1170380Y763380D01*
X1170620D01*
X555000Y545000D02*
X599000D01*
X554000D02*
X555000D01*
X599000D02*
X652000Y492000D01*
X1095000Y793314D02*
Y794000D01*
X1092000Y790314D02*
X1095000Y793314D01*
X1092000Y780686D02*
Y790314D01*
Y780686D02*
X1101000Y771686D01*
Y751000D02*
Y771686D01*
Y751000D02*
X1109000Y743000D01*
X1142000D01*
X1145000Y746000D01*
Y757000D01*
X1079000Y770000D02*
Y776000D01*
Y762000D02*
Y770000D01*
X1090000D01*
X1079000Y776000D02*
X1082000Y779000D01*
X339600Y1220000D02*
X390000D01*
X339200D02*
X339600D01*
X1164000Y1401000D02*
X1176380D01*
X1163620Y1394000D02*
Y1401000D01*
X1170620Y773000D02*
Y786000D01*
Y763380D02*
Y773000D01*
X1061000Y821000D02*
X1065000Y825000D01*
X1069000D01*
X1090000Y816000D02*
Y820000D01*
X1082000Y808000D02*
X1090000Y816000D01*
X1085000Y825000D02*
X1090000Y820000D01*
X1083000Y825000D02*
X1085000D01*
X1120000Y847500D02*
X1122500Y845000D01*
X1120000Y847500D02*
Y853000D01*
X1088000Y847000D02*
X1090000Y845000D01*
X1088000Y847000D02*
Y853000D01*
X1108000Y896000D02*
Y907000D01*
X734600Y339800D02*
Y390600D01*
X652000Y492000D02*
X673000Y513000D01*
X652000Y459000D02*
Y492000D01*
Y459000D02*
X663000Y448000D01*
X677400D01*
X735000Y390400D01*
X1136000Y1418000D02*
Y1430000D01*
X1121600Y339800D02*
Y390600D01*
X1096200Y339800D02*
Y390600D01*
X1070800Y339800D02*
Y390600D01*
X1045800Y339600D02*
Y390400D01*
X1020000Y339800D02*
Y390600D01*
X994600Y339800D02*
Y390600D01*
X927600Y339800D02*
Y390600D01*
X902200Y339800D02*
Y390600D01*
X876800Y339800D02*
Y390600D01*
X851400Y339800D02*
Y390600D01*
X826000Y339800D02*
Y390600D01*
X800600Y337200D02*
Y388000D01*
X709200Y339800D02*
Y390600D01*
X683800Y339800D02*
Y390600D01*
X658400Y339800D02*
Y390600D01*
X633000Y339800D02*
Y390600D01*
X607600Y339800D02*
Y390600D01*
X582200Y339800D02*
Y390600D01*
X557200Y339600D02*
Y390400D01*
X531400Y339800D02*
Y390600D01*
X506000Y339800D02*
Y390600D01*
X480600Y339800D02*
Y390600D01*
X455600Y339200D02*
Y390000D01*
X339200Y1245400D02*
X390000D01*
X339200Y1270800D02*
X390000D01*
X339200Y1296200D02*
X390000D01*
X339200Y1321600D02*
X390000D01*
X339200Y1347000D02*
X390000D01*
X622310Y1589000D02*
X628000D01*
X616620D02*
X622310D01*
X622000Y1687000D02*
Y1703000D01*
X618620Y1683620D02*
X622000Y1687000D01*
X618620Y1677000D02*
Y1683620D01*
Y1677000D02*
X621620Y1674000D01*
X631000D01*
X640000Y1665000D01*
Y1663620D02*
Y1665000D01*
X618620Y1662030D02*
Y1677000D01*
Y1662030D02*
X621750Y1658900D01*
X491380Y1608000D02*
X510000D01*
X396000Y714000D02*
X416000D01*
X430000Y688000D02*
Y700380D01*
X475000Y866000D02*
Y890000D01*
Y910000D02*
Y934000D01*
X730000Y1302000D02*
X739000Y1293000D01*
X795620Y1649500D02*
Y1675500D01*
Y1751500D02*
Y1776500D01*
X992000Y991000D02*
X994000D01*
X983000Y982000D02*
X992000Y991000D01*
X994000Y1005000D02*
X996000D01*
X1006000Y1015000D01*
X670000Y474000D02*
X694000D01*
X339600Y1737000D02*
X390400D01*
X339600Y1711600D02*
X390400D01*
X339600Y1686200D02*
X390400D01*
X339600Y1660800D02*
X390400D01*
X339600Y1635400D02*
X390400D01*
X339600Y1610000D02*
X390400D01*
X339600Y1542000D02*
X390400D01*
X339600Y1516600D02*
X390400D01*
X339600Y1491200D02*
X390400D01*
X339600Y1465800D02*
X390400D01*
X339600Y1440400D02*
X390400D01*
X1085000Y956000D02*
X1134000Y907000D01*
X1085000Y956000D02*
Y1015000D01*
X1045000Y1055000D02*
X1085000Y1015000D01*
X1045000Y1055000D02*
Y1061000D01*
X1077000Y1815000D02*
Y1830620D01*
X1092000Y1846000D02*
X1109000D01*
X1091000Y1832620D02*
Y1850000D01*
X1091000Y1805000D02*
Y1815000D01*
X1026000Y1833000D02*
X1049000D01*
X1063000Y1833000D02*
Y1841000D01*
X1062000Y1842000D02*
X1063000Y1841000D01*
X1077000Y1845000D02*
Y1850000D01*
X1074000Y1842000D02*
X1077000Y1845000D01*
X846000Y1784000D02*
X873400Y1811400D01*
X883000Y1785000D02*
Y1797800D01*
X898800Y1813600D01*
D68*
X332000Y648000D02*
X365000Y615000D01*
X332000Y648000D02*
Y741000D01*
X365000Y774000D01*
Y1003000D01*
X741000Y1438000D02*
X843000D01*
X556000Y1253000D02*
X741000Y1438000D01*
X556000Y1194000D02*
Y1253000D01*
X365000Y1003000D02*
X556000Y1194000D01*
X365000Y590000D02*
Y615000D01*
D69*
X569000Y1564000D02*
X571000Y1566000D01*
X1113000Y1467000D02*
Y1474000D01*
X475000Y1347000D02*
Y1349000D01*
Y1323000D02*
Y1347000D01*
X1084000Y874500D02*
X1088000Y870500D01*
X1120000Y867000D02*
X1120000Y867000D01*
Y878000D01*
X1052000Y1482000D02*
X1058000Y1476000D01*
X1057000Y1475000D02*
X1058000Y1476000D01*
X1057000Y1473000D02*
Y1475000D01*
X1208000Y881000D02*
X1224000D01*
X1208000Y1621000D02*
X1224000D01*
X538500Y723500D02*
X547500D01*
X465500Y934000D02*
Y944500D01*
X477000Y956000D01*
X481000D01*
X484500Y934000D02*
X491000Y927500D01*
Y924000D02*
Y927500D01*
X484500Y890000D02*
Y895500D01*
X480000Y900000D02*
X484500Y895500D01*
X459000Y900000D02*
X480000D01*
X452000Y907000D02*
X459000Y900000D01*
X452000Y907000D02*
Y935000D01*
X437000Y950000D02*
X452000Y935000D01*
X456000Y890000D02*
X465500D01*
X446000Y900000D02*
X456000Y890000D01*
X446000Y900000D02*
Y927000D01*
X436000Y937000D02*
X446000Y927000D01*
X461000Y866000D02*
X465500D01*
X441000Y886000D02*
X461000Y866000D01*
X437000Y886000D02*
X441000D01*
D70*
X1095000Y794000D02*
X1101000Y800000D01*
X1072000Y794000D02*
X1095000D01*
X1068000Y798000D02*
X1072000Y794000D01*
X1068000Y798000D02*
Y808000D01*
X1105000Y879000D02*
X1108000Y882000D01*
X1105000Y823000D02*
Y879000D01*
X1101000Y800000D02*
Y819000D01*
X1105000Y823000D01*
X725000Y979000D02*
X735000Y969000D01*
X632000Y979000D02*
X725000D01*
X629000Y976000D02*
X632000Y979000D01*
X629000Y965000D02*
Y976000D01*
X1136000Y1382000D02*
X1141000Y1377000D01*
Y1367000D02*
Y1377000D01*
X1135000Y1361000D02*
X1141000Y1367000D01*
X1109000Y1361000D02*
X1135000D01*
X1099000Y1371000D02*
X1109000Y1361000D01*
X1099000Y1371000D02*
Y1422000D01*
X1095000Y1499000D02*
X1101000Y1505000D01*
X1095000Y1491632D02*
Y1499000D01*
Y1491632D02*
X1099000Y1487632D01*
Y1422000D02*
Y1487632D01*
X1068000Y1422000D02*
X1099000D01*
X1062000Y1428000D02*
X1068000Y1422000D01*
X1062000Y1428000D02*
Y1434000D01*
D82*
X1071000Y1785700D02*
D03*
Y1760300D02*
D03*
X1040000Y1785700D02*
D03*
Y1760300D02*
D03*
X400400Y560000D02*
D03*
Y610800D02*
D03*
X324200Y560000D02*
D03*
Y610800D02*
D03*
D83*
X898800Y1864400D02*
D03*
X924200D02*
D03*
X949600D02*
D03*
X975000D02*
D03*
Y1813600D02*
D03*
X949600D02*
D03*
X924200D02*
D03*
X898800D02*
D03*
X873400Y1864400D02*
D03*
X848000D02*
D03*
X873400Y1813600D02*
D03*
X848000D02*
D03*
X1071200Y339600D02*
D03*
X1045800D02*
D03*
X1020400D02*
D03*
X995000D02*
D03*
Y390400D02*
D03*
X1020400D02*
D03*
X1045800D02*
D03*
X1071200D02*
D03*
X1096600Y339600D02*
D03*
X1122000D02*
D03*
X1096600Y390400D02*
D03*
X1122000D02*
D03*
X877200Y339600D02*
D03*
X851800D02*
D03*
X826400D02*
D03*
X801000D02*
D03*
Y390400D02*
D03*
X826400D02*
D03*
X851800D02*
D03*
X877200D02*
D03*
X902600Y339600D02*
D03*
X928000D02*
D03*
X902600Y390400D02*
D03*
X928000D02*
D03*
X735000D02*
D03*
X709600D02*
D03*
X735000Y339600D02*
D03*
X709600D02*
D03*
X684200Y390400D02*
D03*
X658800D02*
D03*
X633400D02*
D03*
X608000D02*
D03*
X582600D02*
D03*
X557200D02*
D03*
X531800D02*
D03*
X506400D02*
D03*
X481000D02*
D03*
X455600D02*
D03*
Y339600D02*
D03*
X481000D02*
D03*
X506400D02*
D03*
X531800D02*
D03*
X557200D02*
D03*
X582600D02*
D03*
X608000D02*
D03*
X633400D02*
D03*
X658800D02*
D03*
X684200D02*
D03*
D84*
X350000Y1100000D02*
D03*
X1250000D02*
D03*
X1240000Y1190000D02*
D03*
X350000Y1850000D02*
D03*
Y350000D02*
D03*
X1250000Y1850000D02*
D03*
X1240000Y1750000D02*
D03*
Y1010000D02*
D03*
Y450000D02*
D03*
X1250000Y350000D02*
D03*
D85*
X339600Y895800D02*
D03*
Y921200D02*
D03*
Y946600D02*
D03*
Y972000D02*
D03*
X390400D02*
D03*
Y946600D02*
D03*
Y921200D02*
D03*
Y895800D02*
D03*
X339600Y870400D02*
D03*
Y845000D02*
D03*
X390400Y870400D02*
D03*
Y845000D02*
D03*
X339600Y1660800D02*
D03*
Y1686200D02*
D03*
Y1711600D02*
D03*
Y1737000D02*
D03*
X390400D02*
D03*
Y1711600D02*
D03*
Y1686200D02*
D03*
Y1660800D02*
D03*
X339600Y1635400D02*
D03*
Y1610000D02*
D03*
X390400Y1635400D02*
D03*
Y1610000D02*
D03*
X339600Y1270800D02*
D03*
Y1296200D02*
D03*
Y1321600D02*
D03*
Y1347000D02*
D03*
X390400D02*
D03*
Y1321600D02*
D03*
Y1296200D02*
D03*
Y1270800D02*
D03*
X339600Y1245400D02*
D03*
Y1220000D02*
D03*
X390400Y1245400D02*
D03*
Y1220000D02*
D03*
X339600Y1465800D02*
D03*
Y1491200D02*
D03*
Y1516600D02*
D03*
Y1542000D02*
D03*
X390400D02*
D03*
Y1516600D02*
D03*
Y1491200D02*
D03*
Y1465800D02*
D03*
X339600Y1440400D02*
D03*
Y1415000D02*
D03*
X390400Y1440400D02*
D03*
Y1415000D02*
D03*
D86*
X1224600Y703800D02*
D03*
Y754600D02*
D03*
Y729200D02*
D03*
Y780000D02*
D03*
Y678400D02*
D03*
Y653000D02*
D03*
Y627600D02*
D03*
Y602200D02*
D03*
Y576800D02*
D03*
Y551400D02*
D03*
X1250000Y576800D02*
D03*
Y602200D02*
D03*
Y627600D02*
D03*
Y653000D02*
D03*
Y678400D02*
D03*
Y703800D02*
D03*
Y729200D02*
D03*
Y754600D02*
D03*
Y780000D02*
D03*
Y907000D02*
D03*
Y881600D02*
D03*
Y856200D02*
D03*
Y830800D02*
D03*
Y805400D02*
D03*
X1224600D02*
D03*
Y830800D02*
D03*
Y856200D02*
D03*
Y881600D02*
D03*
Y907000D02*
D03*
Y1443800D02*
D03*
Y1494600D02*
D03*
Y1469200D02*
D03*
Y1520000D02*
D03*
Y1418400D02*
D03*
Y1393000D02*
D03*
Y1367600D02*
D03*
Y1342200D02*
D03*
Y1316800D02*
D03*
Y1291400D02*
D03*
X1250000Y1316800D02*
D03*
Y1342200D02*
D03*
Y1367600D02*
D03*
Y1393000D02*
D03*
Y1418400D02*
D03*
Y1443800D02*
D03*
Y1469200D02*
D03*
Y1494600D02*
D03*
Y1520000D02*
D03*
Y1647000D02*
D03*
Y1621600D02*
D03*
Y1596200D02*
D03*
Y1570800D02*
D03*
Y1545400D02*
D03*
X1224600D02*
D03*
Y1570800D02*
D03*
Y1596200D02*
D03*
Y1621600D02*
D03*
Y1647000D02*
D03*
X632000Y1608000D02*
D03*
X606600D02*
D03*
X510000D02*
D03*
X535400D02*
D03*
X764000Y1827500D02*
D03*
Y1802100D02*
D03*
Y1776700D02*
D03*
Y1751300D02*
D03*
Y1725900D02*
D03*
Y1700500D02*
D03*
Y1675100D02*
D03*
Y1649700D02*
D03*
Y1624300D02*
D03*
Y1598900D02*
D03*
X738600D02*
D03*
Y1624300D02*
D03*
Y1649700D02*
D03*
Y1675100D02*
D03*
Y1700500D02*
D03*
Y1725900D02*
D03*
Y1827500D02*
D03*
Y1776700D02*
D03*
Y1802100D02*
D03*
Y1751300D02*
D03*
D87*
X1250000Y551400D02*
D03*
Y1291400D02*
D03*
D88*
X914700Y1600000D02*
D03*
X927400Y1587300D02*
D03*
X902000D02*
D03*
X927400Y1612700D02*
D03*
X902000D02*
D03*
D89*
X490350Y1843000D02*
D03*
X651650D02*
D03*
D90*
X507500Y1811200D02*
D03*
X634500D02*
D03*
D91*
X520250Y1658900D02*
D03*
X540550D02*
D03*
X560850D02*
D03*
X581150D02*
D03*
X601450D02*
D03*
X621750D02*
D03*
X631900Y1633500D02*
D03*
X611600D02*
D03*
X591300D02*
D03*
X550700D02*
D03*
X530400D02*
D03*
X510100D02*
D03*
D92*
X907500Y1240000D02*
D03*
Y1440000D02*
D03*
D93*
X1013000Y1855000D02*
D03*
X993000Y1824000D02*
D03*
X900000Y1566000D02*
D03*
X895000Y1409000D02*
D03*
X873000Y1130000D02*
D03*
X796000Y1327000D02*
D03*
X774000Y1185000D02*
D03*
X789000Y1334000D02*
D03*
X764000Y1188000D02*
D03*
X786000Y1343000D02*
D03*
X750500Y1174000D02*
D03*
X777000Y1346000D02*
D03*
X727000Y1210000D02*
D03*
X797000Y1313000D02*
D03*
X800999Y1244998D02*
D03*
X720000Y1243000D02*
D03*
X708000Y1264000D02*
D03*
X742000D02*
D03*
X697000Y1262000D02*
D03*
Y1252000D02*
D03*
X695000Y1242000D02*
D03*
X824000Y1438000D02*
D03*
X365000Y609000D02*
D03*
X349000Y679000D02*
D03*
X844000Y1438000D02*
D03*
X365000Y590000D02*
D03*
X554000Y1002000D02*
D03*
X588000Y1093000D02*
D03*
X558000Y1147000D02*
D03*
X561000Y1164000D02*
D03*
X532000Y1134000D02*
D03*
X1054000Y1382000D02*
D03*
Y1175000D02*
D03*
X965000Y1336000D02*
D03*
X648620Y1520000D02*
D03*
X627000Y1502000D02*
D03*
X1070000Y867000D02*
D03*
X857000Y1249000D02*
D03*
X840000Y1169000D02*
D03*
X854000Y1151000D02*
D03*
X982000Y924000D02*
D03*
X929000Y910000D02*
D03*
X1028000Y889000D02*
D03*
X883500Y910000D02*
D03*
X605000Y1703000D02*
D03*
X585000Y795000D02*
D03*
X429000Y714000D02*
D03*
X458000Y1435000D02*
D03*
X428000Y1506000D02*
D03*
X550000Y1471000D02*
D03*
X555000Y1507000D02*
D03*
X1173000Y754000D02*
D03*
X1164000Y760000D02*
D03*
X1165000Y746000D02*
D03*
X555000Y545000D02*
D03*
X612000Y505000D02*
D03*
X537000Y763000D02*
D03*
X634620Y642380D02*
D03*
X466000Y650000D02*
D03*
X1132000Y735000D02*
D03*
X408000Y1334000D02*
D03*
X888000Y1115000D02*
D03*
X812000Y1052000D02*
D03*
X770000D02*
D03*
X1038000Y1094000D02*
D03*
X1046000Y1495000D02*
D03*
X1060000Y894000D02*
D03*
X1067000Y907000D02*
D03*
X1124000Y1351000D02*
D03*
X1138000Y1352000D02*
D03*
X1176000Y1401000D02*
D03*
X943000Y806000D02*
D03*
X1145000Y735000D02*
D03*
X1100000Y784000D02*
D03*
X1108000Y907000D02*
D03*
X1177000Y842000D02*
D03*
X597000Y814000D02*
D03*
X571000D02*
D03*
X550000Y793000D02*
D03*
X524000D02*
D03*
X549000Y599000D02*
D03*
X673000Y513000D02*
D03*
X686500Y511500D02*
D03*
X633000Y784000D02*
D03*
X735000Y969000D02*
D03*
X861000Y1111000D02*
D03*
X894000Y1169000D02*
D03*
X1142000Y1424000D02*
D03*
X1101000Y1526000D02*
D03*
X1083000Y1411000D02*
D03*
X714000Y735000D02*
D03*
X698000D02*
D03*
X833000Y700000D02*
D03*
X1046000Y1508000D02*
D03*
X1182000Y1686000D02*
D03*
X1156000Y1686000D02*
D03*
X1167000Y1627000D02*
D03*
X1148000Y1628000D02*
D03*
X1166000Y1595000D02*
D03*
X1148000D02*
D03*
X796000Y1764000D02*
D03*
Y1662000D02*
D03*
X656000Y1624000D02*
D03*
X684000Y1548000D02*
D03*
Y1575000D02*
D03*
X682000Y1051000D02*
D03*
Y1087000D02*
D03*
X625000Y692000D02*
D03*
X586000Y661000D02*
D03*
X596000Y635000D02*
D03*
X576000D02*
D03*
X542000Y640000D02*
D03*
X692000Y926000D02*
D03*
X820000Y897000D02*
D03*
X865000Y850000D02*
D03*
X690000Y893000D02*
D03*
X708000Y915000D02*
D03*
X797000Y828000D02*
D03*
X913000Y866000D02*
D03*
X1057000Y861000D02*
D03*
X1051000Y872000D02*
D03*
X561000Y1676000D02*
D03*
X639000Y1703000D02*
D03*
X573000D02*
D03*
X637000Y1688000D02*
D03*
X655000Y1659000D02*
D03*
X489000Y1630000D02*
D03*
X648000Y1589000D02*
D03*
X622310Y1589000D02*
D03*
X602000Y1586000D02*
D03*
X569000Y1604000D02*
D03*
X560000Y1618000D02*
D03*
X553000Y1580000D02*
D03*
X539000Y1557000D02*
D03*
X523000Y1534000D02*
D03*
X550000Y490000D02*
D03*
X614000Y425000D02*
D03*
X993000Y806000D02*
D03*
X982000D02*
D03*
X1052000Y883000D02*
D03*
X816000Y1123000D02*
D03*
X880000Y1266000D02*
D03*
X1019000Y1427000D02*
D03*
X1151000Y1426000D02*
D03*
X706000Y1200000D02*
D03*
X628000Y824000D02*
D03*
X623000Y834000D02*
D03*
X565000Y991000D02*
D03*
X624000Y1142000D02*
D03*
X616000Y1151000D02*
D03*
X623250Y1125250D02*
D03*
X605000Y865000D02*
D03*
X570000Y1005000D02*
D03*
X651000Y1107000D02*
D03*
X585000Y1023000D02*
D03*
X578000Y1015000D02*
D03*
X617000Y860000D02*
D03*
X630000Y853000D02*
D03*
X771000Y812000D02*
D03*
X803000Y859000D02*
D03*
X770000Y823000D02*
D03*
X922000Y872000D02*
D03*
X932000Y879000D02*
D03*
X1040000Y921000D02*
D03*
X1011000Y914000D02*
D03*
X1017000Y907000D02*
D03*
X711000Y1187000D02*
D03*
X687000Y1206000D02*
D03*
X600000Y1488000D02*
D03*
X612000Y1472000D02*
D03*
X588000D02*
D03*
X665000Y910000D02*
D03*
X653000Y902000D02*
D03*
X640000Y895000D02*
D03*
X714000Y872000D02*
D03*
X706000Y864000D02*
D03*
X699000Y857000D02*
D03*
X651000Y887000D02*
D03*
X644000Y880000D02*
D03*
X651000Y872000D02*
D03*
X658000Y865000D02*
D03*
X692000Y850000D02*
D03*
X685000Y842000D02*
D03*
X678000Y834000D02*
D03*
X671000Y826000D02*
D03*
X664000Y818000D02*
D03*
X745000Y920000D02*
D03*
X490000Y1312000D02*
D03*
Y1326000D02*
D03*
Y1351000D02*
D03*
X475000Y1349000D02*
D03*
X433250Y1313250D02*
D03*
X432350Y1351350D02*
D03*
X491000Y1364000D02*
D03*
X475000Y1363000D02*
D03*
X554000Y454000D02*
D03*
Y464000D02*
D03*
X530000D02*
D03*
X554000Y473000D02*
D03*
X531000Y474000D02*
D03*
X603500Y425500D02*
D03*
X544000Y437000D02*
D03*
X597000Y475000D02*
D03*
Y455000D02*
D03*
X573000Y474000D02*
D03*
Y455000D02*
D03*
X597000Y465000D02*
D03*
X573000D02*
D03*
X435000Y642000D02*
D03*
Y658000D02*
D03*
X500000Y605000D02*
D03*
X468000Y514000D02*
D03*
X450000D02*
D03*
X431000D02*
D03*
X499000Y425000D02*
D03*
X485000D02*
D03*
X470000D02*
D03*
X455000D02*
D03*
X439000D02*
D03*
X434000Y537000D02*
D03*
Y551000D02*
D03*
X383000Y501000D02*
D03*
Y519000D02*
D03*
X351000Y445000D02*
D03*
X350000Y460000D02*
D03*
Y500000D02*
D03*
Y515000D02*
D03*
X1149000Y803000D02*
D03*
X1145000Y757000D02*
D03*
X1064000Y852000D02*
D03*
X1061000Y821000D02*
D03*
X1064000Y809000D02*
D03*
Y779000D02*
D03*
Y769000D02*
D03*
X1137000Y751000D02*
D03*
X1090000Y745000D02*
D03*
X1079000D02*
D03*
X607000Y1573000D02*
D03*
X577000Y1574000D02*
D03*
X589500Y1517500D02*
D03*
X565000Y1529000D02*
D03*
X569000Y1564000D02*
D03*
X1084000Y874500D02*
D03*
X1120000Y878000D02*
D03*
X1110500Y876000D02*
D03*
X1154880Y769500D02*
D03*
X1155000Y786000D02*
D03*
X1066000Y1483000D02*
D03*
X1076000Y1495000D02*
D03*
X1101000Y1500000D02*
D03*
X1107500Y1493500D02*
D03*
X1090000Y845000D02*
D03*
X1122500D02*
D03*
X1090000Y770000D02*
D03*
X1122500D02*
D03*
X1090000Y820000D02*
D03*
X1122500D02*
D03*
Y795000D02*
D03*
X1115000Y1415000D02*
D03*
Y1440000D02*
D03*
X1082500D02*
D03*
X1115000Y1390000D02*
D03*
X1082500D02*
D03*
X1115000Y1465000D02*
D03*
X1082500D02*
D03*
X1077000Y1367000D02*
D03*
X1130000Y1372000D02*
D03*
X1149000Y1407000D02*
D03*
X1057000Y1397000D02*
D03*
X1056500Y1434500D02*
D03*
X1053000Y1443000D02*
D03*
X1057000Y1473000D02*
D03*
X1138000Y1379000D02*
D03*
X1189000Y1621000D02*
D03*
X1190000Y881000D02*
D03*
X381000Y775000D02*
D03*
X349000Y726000D02*
D03*
X389000Y730000D02*
D03*
Y710000D02*
D03*
X429000Y726000D02*
D03*
X415000Y682000D02*
D03*
X457000Y685000D02*
D03*
X483000Y725000D02*
D03*
X484000Y707000D02*
D03*
X455000Y740000D02*
D03*
X468000Y745000D02*
D03*
X511000Y722000D02*
D03*
Y709000D02*
D03*
X503000Y758000D02*
D03*
X517000D02*
D03*
X538500Y723500D02*
D03*
X616000Y731000D02*
D03*
X561000Y734000D02*
D03*
X575000D02*
D03*
X561000Y719000D02*
D03*
X575000D02*
D03*
X432900Y1389800D02*
D03*
X517900D02*
D03*
X436350Y1215350D02*
D03*
X513350Y1189350D02*
D03*
Y1202350D02*
D03*
Y1240350D02*
D03*
X460000Y1176000D02*
D03*
X460350Y1202350D02*
D03*
X429000Y1469000D02*
D03*
Y1481000D02*
D03*
X437000Y1253000D02*
D03*
Y1240000D02*
D03*
X433250Y1300250D02*
D03*
X513250Y1338250D02*
D03*
X460250Y1460250D02*
D03*
X473250Y1458250D02*
D03*
X483250D02*
D03*
X491250Y1473250D02*
D03*
X463250Y1481250D02*
D03*
X473250Y1482250D02*
D03*
X483250D02*
D03*
X492250Y1524250D02*
D03*
X474250Y1523250D02*
D03*
X492250Y1265250D02*
D03*
X475250D02*
D03*
X649250Y1128250D02*
D03*
X648250Y1062250D02*
D03*
X622250Y1059250D02*
D03*
X649250Y1012250D02*
D03*
X623250Y1010250D02*
D03*
Y963250D02*
D03*
Y953250D02*
D03*
X649250Y965250D02*
D03*
X642250Y947250D02*
D03*
X708250Y928250D02*
D03*
X705250Y953250D02*
D03*
X760250D02*
D03*
X762250Y927250D02*
D03*
X833250Y929250D02*
D03*
X815250Y927250D02*
D03*
X810000Y954000D02*
D03*
X859250Y1018250D02*
D03*
X833250Y1014250D02*
D03*
X833000Y1065000D02*
D03*
X859000Y1131000D02*
D03*
X751000Y1165000D02*
D03*
Y1138000D02*
D03*
X708500Y1163500D02*
D03*
X709000Y1137000D02*
D03*
X671000Y1164000D02*
D03*
X678000Y1138000D02*
D03*
X1055000Y470000D02*
D03*
X935000D02*
D03*
X820000D02*
D03*
X790000Y685000D02*
D03*
Y718000D02*
D03*
X800000Y632000D02*
D03*
X821000Y639000D02*
D03*
X849000Y634000D02*
D03*
X892000Y725000D02*
D03*
X930000Y726000D02*
D03*
X956000D02*
D03*
X1007000D02*
D03*
X916000Y626000D02*
D03*
X964000D02*
D03*
X915000Y684000D02*
D03*
X975000Y679000D02*
D03*
X1030000D02*
D03*
X1090000Y680000D02*
D03*
X930000Y740000D02*
D03*
X948000D02*
D03*
X931000Y764000D02*
D03*
X948000D02*
D03*
X987000Y697000D02*
D03*
X970000Y699000D02*
D03*
X967000Y757000D02*
D03*
Y740000D02*
D03*
X892000Y806000D02*
D03*
X905000D02*
D03*
X1007000Y807000D02*
D03*
X956000D02*
D03*
X1041000Y627000D02*
D03*
X1080000D02*
D03*
X1165000Y515000D02*
D03*
Y540000D02*
D03*
Y565000D02*
D03*
Y590000D02*
D03*
Y615000D02*
D03*
Y640000D02*
D03*
Y665000D02*
D03*
Y690000D02*
D03*
X436000Y911000D02*
D03*
X470000Y878000D02*
D03*
X513000Y950000D02*
D03*
X491000Y924000D02*
D03*
X481000Y956000D02*
D03*
X465000Y910000D02*
D03*
X485000D02*
D03*
X470000Y922000D02*
D03*
X438000Y950000D02*
D03*
X436000Y937000D02*
D03*
X437000Y861000D02*
D03*
X434000Y842000D02*
D03*
X437000Y886000D02*
D03*
X542000Y899000D02*
D03*
X532000Y1314000D02*
D03*
X515000Y1228000D02*
D03*
X603000Y1035000D02*
D03*
X767000Y1199000D02*
D03*
X818000D02*
D03*
X824000Y954000D02*
D03*
X876000Y965000D02*
D03*
X879000Y986000D02*
D03*
X894000Y992000D02*
D03*
X905000Y1000000D02*
D03*
X958000Y1161000D02*
D03*
X933000Y1125000D02*
D03*
X978000Y1146000D02*
D03*
X932000Y1150000D02*
D03*
X947000Y1159000D02*
D03*
X874000Y1176000D02*
D03*
X828500Y1103500D02*
D03*
X808000Y1096000D02*
D03*
Y1109000D02*
D03*
X790000Y910000D02*
D03*
Y1085000D02*
D03*
X796500Y1077500D02*
D03*
X782000Y1091000D02*
D03*
X795000Y901000D02*
D03*
X774000Y1040000D02*
D03*
X826000Y1027000D02*
D03*
X861000Y1040000D02*
D03*
X815000Y1025000D02*
D03*
X868000Y1032000D02*
D03*
X804000Y990000D02*
D03*
X695000Y1120000D02*
D03*
X713000Y1104000D02*
D03*
X705000Y1113000D02*
D03*
X962000Y1134000D02*
D03*
X850000Y949000D02*
D03*
X905000Y933000D02*
D03*
X914000Y1025000D02*
D03*
X925000Y990000D02*
D03*
X927000Y1070000D02*
D03*
X932000Y982000D02*
D03*
X934000Y1077000D02*
D03*
X941000Y989000D02*
D03*
X940000Y1084000D02*
D03*
X1032000Y864000D02*
D03*
X1022000Y871000D02*
D03*
X693000Y904000D02*
D03*
X699000Y912000D02*
D03*
X918000Y806000D02*
D03*
X810000Y979000D02*
D03*
X817000Y972000D02*
D03*
X823000Y964000D02*
D03*
X816000Y799000D02*
D03*
X790000Y798000D02*
D03*
X804000Y811000D02*
D03*
X828000Y719000D02*
D03*
X809999Y1032999D02*
D03*
X805000Y1023000D02*
D03*
X767000Y908000D02*
D03*
X794343Y890000D02*
D03*
X1171000Y724000D02*
D03*
X1165000Y822000D02*
D03*
Y838000D02*
D03*
X907000Y1104000D02*
D03*
X860000Y1068000D02*
D03*
X877500Y1069772D02*
D03*
X885000Y1090000D02*
D03*
X888000Y1080000D02*
D03*
X957000Y1059000D02*
D03*
X966000Y1066000D02*
D03*
X740000Y1033500D02*
D03*
X725000Y1105000D02*
D03*
X735000Y1100000D02*
D03*
X1017000Y1589000D02*
D03*
X1016000Y1611000D02*
D03*
X1121000Y1729000D02*
D03*
Y1718000D02*
D03*
Y1589000D02*
D03*
X927000Y1633000D02*
D03*
X667000Y1123000D02*
D03*
X674000Y1116000D02*
D03*
X846000Y1230000D02*
D03*
X820000Y1340000D02*
D03*
X738000Y1236000D02*
D03*
X700000Y1315000D02*
D03*
X740000Y1293000D02*
D03*
X712000Y1302000D02*
D03*
X919000Y1005000D02*
D03*
X806000Y890000D02*
D03*
X787000Y1115000D02*
D03*
X833000Y1245000D02*
D03*
X870000Y957000D02*
D03*
X910000Y1047000D02*
D03*
X860000Y953000D02*
D03*
X900000Y1049000D02*
D03*
X935000Y1255000D02*
D03*
X930000Y1235000D02*
D03*
X926999Y1260998D02*
D03*
X437000Y1487000D02*
D03*
X800000Y1700000D02*
D03*
X1169000Y850000D02*
D03*
X1155000Y854000D02*
D03*
X465000Y853000D02*
D03*
X1150000Y907000D02*
D03*
X1163000Y911000D02*
D03*
X935000Y895000D02*
D03*
X945000Y888000D02*
D03*
X805000Y840000D02*
D03*
X803000Y850000D02*
D03*
X644000Y849000D02*
D03*
X770000Y841000D02*
D03*
X778000Y833000D02*
D03*
X1170000Y1470000D02*
D03*
Y1450000D02*
D03*
Y1430000D02*
D03*
Y1370000D02*
D03*
Y1350000D02*
D03*
Y1330500D02*
D03*
Y1311000D02*
D03*
Y1291000D02*
D03*
Y1271000D02*
D03*
Y1251000D02*
D03*
Y1231000D02*
D03*
Y1211034D02*
D03*
X1143000Y1475000D02*
D03*
X1154000Y1476000D02*
D03*
X1129000Y1551000D02*
D03*
X1140000Y1556000D02*
D03*
X600000Y605000D02*
D03*
Y581000D02*
D03*
X1006000Y1015000D02*
D03*
X983000Y982000D02*
D03*
X678000Y434000D02*
D03*
X741000D02*
D03*
X737000Y484000D02*
D03*
X712500Y461500D02*
D03*
X724000Y483000D02*
D03*
X728000Y452000D02*
D03*
X712000Y474000D02*
D03*
X748000D02*
D03*
X675000Y464000D02*
D03*
X676000Y483000D02*
D03*
X689000Y464000D02*
D03*
X700000Y484000D02*
D03*
X663000Y474000D02*
D03*
X1149000Y1392000D02*
D03*
X1170000Y804000D02*
D03*
X614000Y1212000D02*
D03*
X588000Y1209000D02*
D03*
X1015000Y1452000D02*
D03*
Y1439000D02*
D03*
X585000Y1198000D02*
D03*
X555000Y857000D02*
D03*
Y838000D02*
D03*
X944000Y1239000D02*
D03*
X909000Y1362000D02*
D03*
X904000Y1352000D02*
D03*
X612000Y1232000D02*
D03*
X900000Y1369000D02*
D03*
X1199000Y1556000D02*
D03*
X588000Y1063000D02*
D03*
X595000Y1056000D02*
D03*
X654000Y1043000D02*
D03*
X1185000Y350000D02*
D03*
X1184000Y1850000D02*
D03*
X396000Y370000D02*
D03*
X410000Y1851000D02*
D03*
X1053000Y965000D02*
D03*
X1024000Y930000D02*
D03*
X1017000Y1059000D02*
D03*
X1040000D02*
D03*
X1130000Y953000D02*
D03*
X954000Y1033000D02*
D03*
X1000000Y1042000D02*
D03*
X1008000Y1050000D02*
D03*
X1064000Y1061000D02*
D03*
X958000Y1566000D02*
D03*
X979000D02*
D03*
X1062000Y1862000D02*
D03*
X1073000D02*
D03*
X1062000Y1842000D02*
D03*
X1074000D02*
D03*
X1109000Y1846000D02*
D03*
X1039000Y1883000D02*
D03*
X1109000Y1858000D02*
D03*
X1052000Y1814000D02*
D03*
X1133000Y1878000D02*
D03*
X1153000D02*
D03*
X1188000Y1800000D02*
D03*
X1177000Y1834000D02*
D03*
X1198000D02*
D03*
X1177000Y1813000D02*
D03*
X1198000D02*
D03*
X1091000Y1803000D02*
D03*
X1027000Y1858000D02*
D03*
X1026000Y1833000D02*
D03*
X1182000Y1775000D02*
D03*
X834000Y1740000D02*
D03*
Y1685000D02*
D03*
X839000Y1722000D02*
D03*
X840000Y1667000D02*
D03*
X924000Y1759000D02*
D03*
X923000Y1683000D02*
D03*
X836000Y1768000D02*
D03*
X873000Y1769000D02*
D03*
X855000Y1766000D02*
D03*
X860000Y1736000D02*
D03*
D94*
X592000Y1536000D02*
D03*
Y1556000D02*
D03*
X582000Y1546000D02*
D03*
X602000D02*
D03*
X592000D02*
D03*
D95*
X1039000Y1875890D02*
D03*
Y1858110D02*
D03*
D96*
X1143000Y1824000D02*
D03*
Y1874000D02*
D03*
D97*
X883000Y1785000D02*
D03*
X892500Y1761000D02*
D03*
X873500D02*
D03*
X846000Y1784000D02*
D03*
X855500Y1760000D02*
D03*
X836500D02*
D03*
X473000Y1482000D02*
D03*
X482500Y1458000D02*
D03*
X473000D02*
D03*
X463500D02*
D03*
Y1482000D02*
D03*
X482500D02*
D03*
X475000Y1323000D02*
D03*
X465500Y1347000D02*
D03*
X475000D02*
D03*
X484500D02*
D03*
Y1323000D02*
D03*
X465500D02*
D03*
X475000Y890000D02*
D03*
X484500Y866000D02*
D03*
X475000D02*
D03*
X465500D02*
D03*
Y890000D02*
D03*
X484500D02*
D03*
X475000Y910000D02*
D03*
X465500Y934000D02*
D03*
X475000D02*
D03*
X484500D02*
D03*
Y910000D02*
D03*
X465500D02*
D03*
D98*
X368890Y726300D02*
D03*
X351110D02*
D03*
D99*
X440000Y453000D02*
D03*
Y510000D02*
D03*
X490000Y453000D02*
D03*
Y510000D02*
D03*
D100*
X742000Y474000D02*
D03*
X718000Y464500D02*
D03*
Y474000D02*
D03*
Y483500D02*
D03*
X742000D02*
D03*
Y464500D02*
D03*
X530000Y464000D02*
D03*
X554000Y473500D02*
D03*
Y464000D02*
D03*
Y454500D02*
D03*
X530000D02*
D03*
Y473500D02*
D03*
X573000Y465000D02*
D03*
X597000Y474500D02*
D03*
Y465000D02*
D03*
Y455500D02*
D03*
X573000D02*
D03*
Y474500D02*
D03*
X694000Y474000D02*
D03*
X670000Y464500D02*
D03*
Y474000D02*
D03*
Y483500D02*
D03*
X694000D02*
D03*
Y464500D02*
D03*
D101*
X325500Y510000D02*
D03*
X394500D02*
D03*
D102*
X462000Y749000D02*
D03*
X512000D02*
D03*
D103*
X604500Y1693500D02*
D03*
Y1703000D02*
D03*
Y1712500D02*
D03*
X581500D02*
D03*
Y1703000D02*
D03*
Y1693500D02*
D03*
D104*
X595000Y1566000D02*
X598000Y1569000D01*
X571000Y1566000D02*
X595000D01*
X598000Y1569000D02*
X605000D01*
D105*
X592500Y1544500D02*
D03*
D106*
X465000Y509500D02*
D03*
D107*
X466500Y438000D02*
D03*
D108*
X380500Y719500D02*
D03*
D109*
X1116000Y1406500D02*
D03*
D110*
X1121000Y785000D02*
D03*
D111*
X1011000Y1055000D02*
D03*
D112*
X1168000Y1824000D02*
D03*
M02*
