G04 Layer_Color=65535*
%FSLAX44Y44*%
%MOMM*%
G71*
G01*
G75*
%ADD62C,0.2000*%
%ADD65C,0.2540*%
%ADD66C,0.3000*%
%ADD103C,0.2500*%
%ADD104C,0.6000*%
%ADD105C,0.1500*%
%ADD106C,0.1200*%
%ADD107C,0.1778*%
D62*
X936000Y1158000D02*
G03*
X936000Y1158000I-1000J0D01*
G01*
X543000Y612000D02*
G03*
X543000Y612000I-1000J0D01*
G01*
Y589000D02*
G03*
X543000Y589000I-1000J0D01*
G01*
X699000Y788000D02*
G03*
X699000Y788000I-1000J0D01*
G01*
X715000D02*
G03*
X715000Y788000I-1000J0D01*
G01*
X731000D02*
G03*
X731000Y788000I-1000J0D01*
G01*
X676750Y469875D02*
G03*
X676750Y473125I0J1625D01*
G01*
X613250Y470125D02*
G03*
X613250Y466875I0J-1625D01*
G01*
X1013300Y767675D02*
G03*
X1013300Y761325I0J-3175D01*
G01*
X790000Y1597500D02*
X797000Y1604500D01*
X790000Y1597500D02*
X797000Y1590500D01*
X705600Y1548100D02*
X797000D01*
X705600Y1878300D02*
X797000D01*
X705600Y1548100D02*
Y1878300D01*
X797000Y1548100D02*
Y1878300D01*
X569750Y1568250D02*
X574000D01*
X569750Y1564000D02*
Y1568250D01*
X614250Y1523750D02*
Y1528000D01*
X610000Y1523750D02*
X614250D01*
X610000Y1568250D02*
X614250D01*
Y1564000D02*
Y1568250D01*
X966000Y1155000D02*
X973000D01*
Y1153000D02*
Y1155000D01*
X939000Y1121000D02*
X946000D01*
X939000D02*
Y1123000D01*
X966000Y1121000D02*
X973000D01*
Y1123000D01*
X939000Y1153000D02*
Y1155000D01*
X946000D01*
X553000Y659000D02*
Y667000D01*
X529000Y659000D02*
Y667000D01*
X446000Y638000D02*
X454000D01*
X446000Y662000D02*
X454000D01*
X446000Y533000D02*
X454000D01*
X446000Y557000D02*
X454000D01*
X370000Y488000D02*
Y532000D01*
X316000D02*
X320000D01*
X316000Y488000D02*
Y532000D01*
Y488000D02*
X320000D01*
X393000D02*
X397000D01*
Y532000D01*
X393000D02*
X397000D01*
X320000Y488000D02*
X393000D01*
X320000Y532000D02*
X393000D01*
X370000Y428000D02*
Y472000D01*
X316000D02*
X320000D01*
X316000Y428000D02*
Y472000D01*
Y428000D02*
X320000D01*
X393000D02*
X397000D01*
Y472000D01*
X393000D02*
X397000D01*
X320000Y428000D02*
X393000D01*
X320000Y472000D02*
X393000D01*
X466000Y1430000D02*
Y1530000D01*
X484000Y1430000D02*
Y1530000D01*
X466000D02*
X484000D01*
X466000Y1430000D02*
X484000D01*
Y1295000D02*
Y1395000D01*
X466000Y1295000D02*
Y1395000D01*
Y1295000D02*
X484000D01*
X466000Y1395000D02*
X484000D01*
X466000Y1171000D02*
Y1271000D01*
X484000Y1171000D02*
Y1271000D01*
X466000D02*
X484000D01*
X466000Y1171000D02*
X484000D01*
X525000Y774000D02*
Y782000D01*
X549000Y774000D02*
Y782000D01*
X647500Y1139500D02*
X834500D01*
X647500Y952500D02*
X834500D01*
Y1139500D01*
X647500Y952500D02*
Y1139500D01*
X784000Y749000D02*
Y769000D01*
X834000Y749000D02*
Y769000D01*
X784000Y749000D02*
X834000D01*
X784000Y769000D02*
X834000D01*
X850000Y1666000D02*
X895000D01*
X850000Y1622000D02*
Y1666000D01*
Y1622000D02*
X895000D01*
Y1666000D01*
X1283000Y1240600D02*
Y1697800D01*
X1191600Y1240600D02*
Y1697800D01*
X1283000D01*
X1191600Y1240600D02*
X1283000D01*
X1276000Y1290000D02*
X1283000Y1283000D01*
X1276000Y1290000D02*
X1283000Y1297000D01*
Y500600D02*
Y957800D01*
X1191600Y500600D02*
Y957800D01*
X1283000D01*
X1191600Y500600D02*
X1283000D01*
X1276000Y550000D02*
X1283000Y543000D01*
X1276000Y550000D02*
X1283000Y557000D01*
X484000Y855000D02*
Y955000D01*
X466000Y855000D02*
Y955000D01*
Y855000D02*
X484000D01*
X466000Y955000D02*
X484000D01*
X676750Y453350D02*
X742000D01*
X676750Y489650D02*
X742000D01*
X676750Y473125D02*
Y489650D01*
Y453350D02*
Y469875D01*
X742000Y453350D02*
Y489650D01*
X548000Y486650D02*
X613250D01*
X548000Y450350D02*
X613250D01*
Y466875D01*
Y470125D02*
Y486650D01*
X548000Y450350D02*
Y486650D01*
X1013300Y767675D02*
Y798150D01*
Y734000D02*
Y761325D01*
X885000Y734000D02*
X1013300D01*
X885000D02*
Y798150D01*
X1013300D01*
X428003Y1551000D02*
X438000Y1557664D01*
X428003D02*
X438000Y1551000D01*
Y1560997D02*
Y1564329D01*
Y1562663D01*
X428003D01*
X429669Y1560997D01*
Y1569327D02*
X428003Y1570994D01*
Y1574326D01*
X429669Y1575992D01*
X436334D01*
X438000Y1574326D01*
Y1570994D01*
X436334Y1569327D01*
X429669D01*
X886665Y1694331D02*
X884998Y1695997D01*
X881666D01*
X880000Y1694331D01*
Y1687666D01*
X881666Y1686000D01*
X884998D01*
X886665Y1687666D01*
X894995Y1686000D02*
Y1695997D01*
X889997Y1690998D01*
X896661D01*
X944000Y1657000D02*
X934003D01*
Y1661998D01*
X935669Y1663665D01*
X939002D01*
X940668Y1661998D01*
Y1657000D01*
Y1660332D02*
X944000Y1663665D01*
X934003Y1666997D02*
Y1673661D01*
X935669D01*
X942334Y1666997D01*
X944000D01*
X934003Y1683658D02*
X935669Y1680326D01*
X939002Y1676994D01*
X942334D01*
X944000Y1678660D01*
Y1681992D01*
X942334Y1683658D01*
X940668D01*
X939002Y1681992D01*
Y1676994D01*
X939665Y1600331D02*
X937998Y1601997D01*
X934666D01*
X933000Y1600331D01*
Y1593666D01*
X934666Y1592000D01*
X937998D01*
X939665Y1593666D01*
X949661Y1601997D02*
X946329Y1600331D01*
X942997Y1596998D01*
Y1593666D01*
X944663Y1592000D01*
X947995D01*
X949661Y1593666D01*
Y1595332D01*
X947995Y1596998D01*
X942997D01*
X952994Y1600331D02*
X954660Y1601997D01*
X957992D01*
X959658Y1600331D01*
Y1598665D01*
X957992Y1596998D01*
X959658Y1595332D01*
Y1593666D01*
X957992Y1592000D01*
X954660D01*
X952994Y1593666D01*
Y1595332D01*
X954660Y1596998D01*
X952994Y1598665D01*
Y1600331D01*
X954660Y1596998D02*
X957992D01*
X896665Y1601331D02*
X894998Y1602997D01*
X891666D01*
X890000Y1601331D01*
Y1594666D01*
X891666Y1593000D01*
X894998D01*
X896665Y1594666D01*
X906661Y1602997D02*
X903329Y1601331D01*
X899997Y1597998D01*
Y1594666D01*
X901663Y1593000D01*
X904995D01*
X906661Y1594666D01*
Y1596332D01*
X904995Y1597998D01*
X899997D01*
X909994Y1594666D02*
X911660Y1593000D01*
X914992D01*
X916658Y1594666D01*
Y1601331D01*
X914992Y1602997D01*
X911660D01*
X909994Y1601331D01*
Y1599664D01*
X911660Y1597998D01*
X916658D01*
X1183000Y364000D02*
Y373997D01*
X1187998D01*
X1189665Y372331D01*
Y368998D01*
X1187998Y367332D01*
X1183000D01*
X1186332D02*
X1189665Y364000D01*
X1192997Y373997D02*
X1199661D01*
Y372331D01*
X1192997Y365666D01*
Y364000D01*
X1209658Y373997D02*
X1202994D01*
Y368998D01*
X1206326Y370664D01*
X1207992D01*
X1209658Y368998D01*
Y365666D01*
X1207992Y364000D01*
X1204660D01*
X1202994Y365666D01*
X1178000Y1861000D02*
Y1870997D01*
X1182998D01*
X1184665Y1869331D01*
Y1865998D01*
X1182998Y1864332D01*
X1178000D01*
X1181332D02*
X1184665Y1861000D01*
X1187997Y1870997D02*
X1194661D01*
Y1869331D01*
X1187997Y1862666D01*
Y1861000D01*
X1202992D02*
Y1870997D01*
X1197994Y1865998D01*
X1204658D01*
X383000Y380000D02*
Y389997D01*
X387998D01*
X389664Y388331D01*
Y384998D01*
X387998Y383332D01*
X383000D01*
X386332D02*
X389664Y380000D01*
X392997Y389997D02*
X399661D01*
Y388331D01*
X392997Y381666D01*
Y380000D01*
X402994Y388331D02*
X404660Y389997D01*
X407992D01*
X409658Y388331D01*
Y386665D01*
X407992Y384998D01*
X406326D01*
X407992D01*
X409658Y383332D01*
Y381666D01*
X407992Y380000D01*
X404660D01*
X402994Y381666D01*
X387350Y1862582D02*
Y1872579D01*
X392348D01*
X394015Y1870913D01*
Y1867580D01*
X392348Y1865914D01*
X387350D01*
X390682D02*
X394015Y1862582D01*
X397347Y1872579D02*
X404011D01*
Y1870913D01*
X397347Y1864248D01*
Y1862582D01*
X414008D02*
X407344D01*
X414008Y1869247D01*
Y1870913D01*
X412342Y1872579D01*
X409010D01*
X407344Y1870913D01*
X1151000Y1489997D02*
X1157664D01*
X1154332D01*
Y1480000D01*
X1160997D02*
Y1489997D01*
X1165995D01*
X1167661Y1488331D01*
Y1484998D01*
X1165995Y1483332D01*
X1160997D01*
X1177658Y1480000D02*
X1170994D01*
X1177658Y1486664D01*
Y1488331D01*
X1175992Y1489997D01*
X1172660D01*
X1170994Y1488331D01*
X1185989Y1480000D02*
Y1489997D01*
X1180990Y1484998D01*
X1187655D01*
X1178003Y1335000D02*
Y1341664D01*
Y1338332D01*
X1188000D01*
Y1344997D02*
X1178003D01*
Y1349995D01*
X1179669Y1351661D01*
X1183002D01*
X1184668Y1349995D01*
Y1344997D01*
X1188000Y1361658D02*
Y1354994D01*
X1181336Y1361658D01*
X1179669D01*
X1178003Y1359992D01*
Y1356660D01*
X1179669Y1354994D01*
Y1364990D02*
X1178003Y1366656D01*
Y1369989D01*
X1179669Y1371655D01*
X1181336D01*
X1183002Y1369989D01*
Y1368323D01*
Y1369989D01*
X1184668Y1371655D01*
X1186334D01*
X1188000Y1369989D01*
Y1366656D01*
X1186334Y1364990D01*
X1151000Y1506997D02*
X1157664D01*
X1154332D01*
Y1497000D01*
X1160997D02*
Y1506997D01*
X1165995D01*
X1167661Y1505331D01*
Y1501998D01*
X1165995Y1500332D01*
X1160997D01*
X1177658Y1497000D02*
X1170994D01*
X1177658Y1503665D01*
Y1505331D01*
X1175992Y1506997D01*
X1172660D01*
X1170994Y1505331D01*
X1187655Y1497000D02*
X1180990D01*
X1187655Y1503665D01*
Y1505331D01*
X1185989Y1506997D01*
X1182656D01*
X1180990Y1505331D01*
X1150000Y880997D02*
X1156665D01*
X1153332D01*
Y871000D01*
X1159997D02*
Y880997D01*
X1164995D01*
X1166661Y879331D01*
Y875998D01*
X1164995Y874332D01*
X1159997D01*
X1176658Y871000D02*
X1169994D01*
X1176658Y877664D01*
Y879331D01*
X1174992Y880997D01*
X1171660D01*
X1169994Y879331D01*
X1179990Y871000D02*
X1183323D01*
X1181656D01*
Y880997D01*
X1179990Y879331D01*
X889665Y1464331D02*
X887998Y1465997D01*
X884666D01*
X883000Y1464331D01*
Y1457666D01*
X884666Y1456000D01*
X887998D01*
X889665Y1457666D01*
X892997Y1464331D02*
X894663Y1465997D01*
X897995D01*
X899661Y1464331D01*
Y1462664D01*
X897995Y1460998D01*
X896329D01*
X897995D01*
X899661Y1459332D01*
Y1457666D01*
X897995Y1456000D01*
X894663D01*
X892997Y1457666D01*
X803717Y1219911D02*
X802050Y1221577D01*
X798718D01*
X797052Y1219911D01*
Y1213246D01*
X798718Y1211580D01*
X802050D01*
X803717Y1213246D01*
X807049Y1221577D02*
X813713D01*
Y1219911D01*
X807049Y1213246D01*
Y1211580D01*
X774761Y1219911D02*
X773094Y1221577D01*
X769762D01*
X768096Y1219911D01*
Y1213246D01*
X769762Y1211580D01*
X773094D01*
X774761Y1213246D01*
X778093Y1219911D02*
X779759Y1221577D01*
X783091D01*
X784757Y1219911D01*
Y1218244D01*
X783091Y1216578D01*
X784757Y1214912D01*
Y1213246D01*
X783091Y1211580D01*
X779759D01*
X778093Y1213246D01*
Y1214912D01*
X779759Y1216578D01*
X778093Y1218244D01*
Y1219911D01*
X779759Y1216578D02*
X783091D01*
X497669Y1557664D02*
X496003Y1555998D01*
Y1552666D01*
X497669Y1551000D01*
X504334D01*
X506000Y1552666D01*
Y1555998D01*
X504334Y1557664D01*
X497669Y1560997D02*
X496003Y1562663D01*
Y1565995D01*
X497669Y1567661D01*
X499336D01*
X501002Y1565995D01*
Y1564329D01*
Y1565995D01*
X502668Y1567661D01*
X504334D01*
X506000Y1565995D01*
Y1562663D01*
X504334Y1560997D01*
X506000Y1575992D02*
X496003D01*
X501002Y1570994D01*
Y1577658D01*
X554664Y1520331D02*
X552998Y1521997D01*
X549666D01*
X548000Y1520331D01*
Y1513666D01*
X549666Y1512000D01*
X552998D01*
X554664Y1513666D01*
X557997Y1520331D02*
X559663Y1521997D01*
X562995D01*
X564661Y1520331D01*
Y1518665D01*
X562995Y1516998D01*
X561329D01*
X562995D01*
X564661Y1515332D01*
Y1513666D01*
X562995Y1512000D01*
X559663D01*
X557997Y1513666D01*
X574658Y1521997D02*
X567994D01*
Y1516998D01*
X571326Y1518665D01*
X572992D01*
X574658Y1516998D01*
Y1513666D01*
X572992Y1512000D01*
X569660D01*
X567994Y1513666D01*
X1125665Y730331D02*
X1123998Y731997D01*
X1120666D01*
X1119000Y730331D01*
Y723666D01*
X1120666Y722000D01*
X1123998D01*
X1125665Y723666D01*
X1133995Y722000D02*
Y731997D01*
X1128997Y726998D01*
X1135661D01*
X1138994Y730331D02*
X1140660Y731997D01*
X1143992D01*
X1145658Y730331D01*
Y728664D01*
X1143992Y726998D01*
X1145658Y725332D01*
Y723666D01*
X1143992Y722000D01*
X1140660D01*
X1138994Y723666D01*
Y725332D01*
X1140660Y726998D01*
X1138994Y728664D01*
Y730331D01*
X1140660Y726998D02*
X1143992D01*
X1025661Y874723D02*
X1023995Y876389D01*
X1020662D01*
X1018996Y874723D01*
Y868058D01*
X1020662Y866392D01*
X1023995D01*
X1025661Y868058D01*
X1035658Y876389D02*
X1028993D01*
Y871391D01*
X1032325Y873057D01*
X1033991D01*
X1035658Y871391D01*
Y868058D01*
X1033991Y866392D01*
X1030659D01*
X1028993Y868058D01*
X1038990Y874723D02*
X1040656Y876389D01*
X1043988D01*
X1045654Y874723D01*
Y868058D01*
X1043988Y866392D01*
X1040656D01*
X1038990Y868058D01*
Y874723D01*
X1129344Y1612087D02*
X1127678Y1613753D01*
X1124346D01*
X1122680Y1612087D01*
Y1605422D01*
X1124346Y1603756D01*
X1127678D01*
X1129344Y1605422D01*
X1139341Y1613753D02*
X1132677D01*
Y1608754D01*
X1136009Y1610421D01*
X1137675D01*
X1139341Y1608754D01*
Y1605422D01*
X1137675Y1603756D01*
X1134343D01*
X1132677Y1605422D01*
X1142674Y1603756D02*
X1146006D01*
X1144340D01*
Y1613753D01*
X1142674Y1612087D01*
X1089665Y1361331D02*
X1087998Y1362997D01*
X1084666D01*
X1083000Y1361331D01*
Y1354666D01*
X1084666Y1353000D01*
X1087998D01*
X1089665Y1354666D01*
X1099661Y1362997D02*
X1092997D01*
Y1357998D01*
X1096329Y1359664D01*
X1097995D01*
X1099661Y1357998D01*
Y1354666D01*
X1097995Y1353000D01*
X1094663D01*
X1092997Y1354666D01*
X1109658Y1362997D02*
X1106326Y1361331D01*
X1102994Y1357998D01*
Y1354666D01*
X1104660Y1353000D01*
X1107992D01*
X1109658Y1354666D01*
Y1356332D01*
X1107992Y1357998D01*
X1102994D01*
X329664Y483331D02*
X327998Y484997D01*
X324666D01*
X323000Y483331D01*
Y476666D01*
X324666Y475000D01*
X327998D01*
X329664Y476666D01*
X332997Y484997D02*
X339661D01*
Y483331D01*
X332997Y476666D01*
Y475000D01*
X349658D02*
X342994D01*
X349658Y481665D01*
Y483331D01*
X347992Y484997D01*
X344660D01*
X342994Y483331D01*
X323665Y418331D02*
X321998Y419997D01*
X318666D01*
X317000Y418331D01*
Y411666D01*
X318666Y410000D01*
X321998D01*
X323665Y411666D01*
X326997Y419997D02*
X333661D01*
Y418331D01*
X326997Y411666D01*
Y410000D01*
X336994Y418331D02*
X338660Y419997D01*
X341992D01*
X343658Y418331D01*
Y416665D01*
X341992Y414998D01*
X340326D01*
X341992D01*
X343658Y413332D01*
Y411666D01*
X341992Y410000D01*
X338660D01*
X336994Y411666D01*
X426665Y571331D02*
X424998Y572997D01*
X421666D01*
X420000Y571331D01*
Y564666D01*
X421666Y563000D01*
X424998D01*
X426665Y564666D01*
X429997Y572997D02*
X436661D01*
Y571331D01*
X429997Y564666D01*
Y563000D01*
X444992D02*
Y572997D01*
X439994Y567998D01*
X446658D01*
X444664Y674331D02*
X442998Y675997D01*
X439666D01*
X438000Y674331D01*
Y667666D01*
X439666Y666000D01*
X442998D01*
X444664Y667666D01*
X447997Y675997D02*
X454661D01*
Y674331D01*
X447997Y667666D01*
Y666000D01*
X464658Y675997D02*
X457994D01*
Y670998D01*
X461326Y672664D01*
X462992D01*
X464658Y670998D01*
Y667666D01*
X462992Y666000D01*
X459660D01*
X457994Y667666D01*
X487664Y657331D02*
X485998Y658997D01*
X482666D01*
X481000Y657331D01*
Y650666D01*
X482666Y649000D01*
X485998D01*
X487664Y650666D01*
X490997Y658997D02*
X497661D01*
Y657331D01*
X490997Y650666D01*
Y649000D01*
X507658Y658997D02*
X504326Y657331D01*
X500994Y653998D01*
Y650666D01*
X502660Y649000D01*
X505992D01*
X507658Y650666D01*
Y652332D01*
X505992Y653998D01*
X500994D01*
X531683Y816559D02*
X530016Y818225D01*
X526684D01*
X525018Y816559D01*
Y809894D01*
X526684Y808228D01*
X530016D01*
X531683Y809894D01*
X535015Y818225D02*
X541679D01*
Y816559D01*
X535015Y809894D01*
Y808228D01*
X545012Y818225D02*
X551676D01*
Y816559D01*
X545012Y809894D01*
Y808228D01*
X516669Y648664D02*
X515003Y646998D01*
Y643666D01*
X516669Y642000D01*
X523334D01*
X525000Y643666D01*
Y646998D01*
X523334Y648664D01*
X516669Y651997D02*
X515003Y653663D01*
Y656995D01*
X516669Y658661D01*
X518335D01*
X520002Y656995D01*
X521668Y658661D01*
X523334D01*
X525000Y656995D01*
Y653663D01*
X523334Y651997D01*
X521668D01*
X520002Y653663D01*
X518335Y651997D01*
X516669D01*
X520002Y653663D02*
Y656995D01*
X525000Y666992D02*
X515003D01*
X520002Y661994D01*
Y668658D01*
X396665Y775331D02*
X394998Y776997D01*
X391666D01*
X390000Y775331D01*
Y768666D01*
X391666Y767000D01*
X394998D01*
X396665Y768666D01*
X399997Y775331D02*
X401663Y776997D01*
X404995D01*
X406661Y775331D01*
Y773664D01*
X404995Y771998D01*
X406661Y770332D01*
Y768666D01*
X404995Y767000D01*
X401663D01*
X399997Y768666D01*
Y770332D01*
X401663Y771998D01*
X399997Y773664D01*
Y775331D01*
X401663Y771998D02*
X404995D01*
X416658Y776997D02*
X413326Y775331D01*
X409994Y771998D01*
Y768666D01*
X411660Y767000D01*
X414992D01*
X416658Y768666D01*
Y770332D01*
X414992Y771998D01*
X409994D01*
X378665Y679331D02*
X376998Y680997D01*
X373666D01*
X372000Y679331D01*
Y672666D01*
X373666Y671000D01*
X376998D01*
X378665Y672666D01*
X381997D02*
X383663Y671000D01*
X386995D01*
X388661Y672666D01*
Y679331D01*
X386995Y680997D01*
X383663D01*
X381997Y679331D01*
Y677664D01*
X383663Y675998D01*
X388661D01*
X391994Y671000D02*
X395326D01*
X393660D01*
Y680997D01*
X391994Y679331D01*
X628650Y1177381D02*
Y1167384D01*
X633648D01*
X635314Y1169050D01*
Y1175715D01*
X633648Y1177381D01*
X628650D01*
X638647D02*
Y1167384D01*
X643645D01*
X645311Y1169050D01*
Y1175715D01*
X643645Y1177381D01*
X638647D01*
X648644Y1167384D02*
X651976D01*
X650310D01*
Y1177381D01*
X648644Y1175715D01*
X690880Y1359753D02*
Y1349756D01*
X695878D01*
X697544Y1351422D01*
Y1358087D01*
X695878Y1359753D01*
X690880D01*
X700877D02*
Y1349756D01*
X705875D01*
X707541Y1351422D01*
Y1358087D01*
X705875Y1359753D01*
X700877D01*
X715872Y1349756D02*
Y1359753D01*
X710874Y1354754D01*
X717538D01*
X957326Y1058763D02*
Y1048766D01*
X962324D01*
X963990Y1050432D01*
Y1057097D01*
X962324Y1058763D01*
X957326D01*
X967323D02*
Y1048766D01*
X972321D01*
X973987Y1050432D01*
Y1057097D01*
X972321Y1058763D01*
X967323D01*
X983984D02*
X977320D01*
Y1053764D01*
X980652Y1055431D01*
X982318D01*
X983984Y1053764D01*
Y1050432D01*
X982318Y1048766D01*
X978986D01*
X977320Y1050432D01*
X563000Y1585997D02*
Y1576000D01*
X567998D01*
X569664Y1577666D01*
Y1584331D01*
X567998Y1585997D01*
X563000D01*
X572997D02*
Y1576000D01*
X577995D01*
X579661Y1577666D01*
Y1584331D01*
X577995Y1585997D01*
X572997D01*
X589658D02*
X586326Y1584331D01*
X582994Y1580998D01*
Y1577666D01*
X584660Y1576000D01*
X587992D01*
X589658Y1577666D01*
Y1579332D01*
X587992Y1580998D01*
X582994D01*
X784606Y816701D02*
Y806704D01*
X789604D01*
X791271Y808370D01*
Y815035D01*
X789604Y816701D01*
X784606D01*
X794603D02*
Y806704D01*
X799601D01*
X801267Y808370D01*
Y815035D01*
X799601Y816701D01*
X794603D01*
X804600Y806704D02*
X807932D01*
X806266D01*
Y816701D01*
X804600Y815035D01*
X812930D02*
X814596Y816701D01*
X817929D01*
X819595Y815035D01*
Y808370D01*
X817929Y806704D01*
X814596D01*
X812930Y808370D01*
Y815035D01*
X684003Y794000D02*
X694000D01*
X689002D01*
Y800665D01*
X684003D01*
X694000D01*
X684003Y803997D02*
X694000D01*
Y810661D01*
Y813994D02*
Y817326D01*
Y815660D01*
X684003D01*
X685669Y813994D01*
X701003Y794000D02*
X711000D01*
X706002D01*
Y800665D01*
X701003D01*
X711000D01*
X701003Y803997D02*
X711000D01*
Y810661D01*
Y820658D02*
Y813994D01*
X704335Y820658D01*
X702669D01*
X701003Y818992D01*
Y815660D01*
X702669Y813994D01*
X721003Y794000D02*
X731000D01*
X726002D01*
Y800665D01*
X721003D01*
X731000D01*
X721003Y803997D02*
X731000D01*
Y810661D01*
X722669Y813994D02*
X721003Y815660D01*
Y818992D01*
X722669Y820658D01*
X724335D01*
X726002Y818992D01*
Y817326D01*
Y818992D01*
X727668Y820658D01*
X729334D01*
X731000Y818992D01*
Y815660D01*
X729334Y813994D01*
X546000Y624997D02*
Y615000D01*
Y619998D01*
X552664D01*
Y624997D01*
Y615000D01*
X555997Y624997D02*
Y615000D01*
X562661D01*
X570992D02*
Y624997D01*
X565994Y619998D01*
X572658D01*
X545000Y572997D02*
Y563000D01*
Y567998D01*
X551665D01*
Y572997D01*
Y563000D01*
X554997Y572997D02*
Y563000D01*
X561661D01*
X571658Y572997D02*
X564994D01*
Y567998D01*
X568326Y569664D01*
X569992D01*
X571658Y567998D01*
Y564666D01*
X569992Y563000D01*
X566660D01*
X564994Y564666D01*
X914003Y1684000D02*
X924000D01*
Y1690665D01*
Y1700661D02*
Y1693997D01*
X917336Y1700661D01*
X915669D01*
X914003Y1698995D01*
Y1695663D01*
X915669Y1693997D01*
X1017270Y1081623D02*
Y1071626D01*
X1023934D01*
X1033931Y1081623D02*
X1027267D01*
Y1076624D01*
X1030599Y1078290D01*
X1032265D01*
X1033931Y1076624D01*
Y1073292D01*
X1032265Y1071626D01*
X1028933D01*
X1027267Y1073292D01*
X532664Y1561666D02*
Y1568331D01*
X530998Y1569997D01*
X527666D01*
X526000Y1568331D01*
Y1561666D01*
X527666Y1560000D01*
X530998D01*
X529332Y1563332D02*
X532664Y1560000D01*
X530998D02*
X532664Y1561666D01*
X535997Y1560000D02*
X539329D01*
X537663D01*
Y1569997D01*
X535997Y1568331D01*
X695000Y708000D02*
X685003D01*
Y712998D01*
X686669Y714665D01*
X690002D01*
X691668Y712998D01*
Y708000D01*
Y711332D02*
X695000Y714665D01*
X685003Y724661D02*
Y717997D01*
X690002D01*
X688335Y721329D01*
Y722995D01*
X690002Y724661D01*
X693334D01*
X695000Y722995D01*
Y719663D01*
X693334Y717997D01*
X711000Y708000D02*
X701003D01*
Y712998D01*
X702669Y714665D01*
X706002D01*
X707668Y712998D01*
Y708000D01*
Y711332D02*
X711000Y714665D01*
X701003Y724661D02*
X702669Y721329D01*
X706002Y717997D01*
X709334D01*
X711000Y719663D01*
Y722995D01*
X709334Y724661D01*
X707668D01*
X706002Y722995D01*
Y717997D01*
X729000Y708000D02*
X719003D01*
Y712998D01*
X720669Y714665D01*
X724002D01*
X725668Y712998D01*
Y708000D01*
Y711332D02*
X729000Y714665D01*
X719003Y717997D02*
Y724661D01*
X720669D01*
X727334Y717997D01*
X729000D01*
X335000Y784000D02*
Y793997D01*
X339998D01*
X341665Y792331D01*
Y788998D01*
X339998Y787332D01*
X335000D01*
X338332D02*
X341665Y784000D01*
X344997Y785666D02*
X346663Y784000D01*
X349995D01*
X351661Y785666D01*
Y792331D01*
X349995Y793997D01*
X346663D01*
X344997Y792331D01*
Y790665D01*
X346663Y788998D01*
X351661D01*
X361000Y783000D02*
Y792997D01*
X365998D01*
X367664Y791331D01*
Y787998D01*
X365998Y786332D01*
X361000D01*
X364332D02*
X367664Y783000D01*
X370997D02*
X374329D01*
X372663D01*
Y792997D01*
X370997Y791331D01*
X379327D02*
X380994Y792997D01*
X384326D01*
X385992Y791331D01*
Y784666D01*
X384326Y783000D01*
X380994D01*
X379327Y784666D01*
Y791331D01*
X687000Y1232000D02*
X677003D01*
Y1236998D01*
X678669Y1238664D01*
X682002D01*
X683668Y1236998D01*
Y1232000D01*
Y1235332D02*
X687000Y1238664D01*
Y1241997D02*
Y1245329D01*
Y1243663D01*
X677003D01*
X678669Y1241997D01*
Y1250327D02*
X677003Y1251994D01*
Y1255326D01*
X678669Y1256992D01*
X680335D01*
X682002Y1255326D01*
Y1253660D01*
Y1255326D01*
X683668Y1256992D01*
X685334D01*
X687000Y1255326D01*
Y1251994D01*
X685334Y1250327D01*
X1041496Y999790D02*
Y1009787D01*
X1046494D01*
X1048160Y1008121D01*
Y1004788D01*
X1046494Y1003122D01*
X1041496D01*
X1044828D02*
X1048160Y999790D01*
X1051493D02*
X1054825D01*
X1053159D01*
Y1009787D01*
X1051493Y1008121D01*
X1064822Y999790D02*
Y1009787D01*
X1059823Y1004788D01*
X1066488D01*
X1015000Y1488000D02*
Y1497997D01*
X1019998D01*
X1021665Y1496331D01*
Y1492998D01*
X1019998Y1491332D01*
X1015000D01*
X1018332D02*
X1021665Y1488000D01*
X1024997D02*
X1028329D01*
X1026663D01*
Y1497997D01*
X1024997Y1496331D01*
X1039992Y1497997D02*
X1033327D01*
Y1492998D01*
X1036660Y1494664D01*
X1038326D01*
X1039992Y1492998D01*
Y1489666D01*
X1038326Y1488000D01*
X1034994D01*
X1033327Y1489666D01*
X523000Y1499000D02*
Y1508997D01*
X527998D01*
X529664Y1507331D01*
Y1503998D01*
X527998Y1502332D01*
X523000D01*
X526332D02*
X529664Y1499000D01*
X539661D02*
X532997D01*
X539661Y1505665D01*
Y1507331D01*
X537995Y1508997D01*
X534663D01*
X532997Y1507331D01*
X542994Y1499000D02*
X546326D01*
X544660D01*
Y1508997D01*
X542994Y1507331D01*
X551000Y1436000D02*
X541003D01*
Y1440998D01*
X542669Y1442664D01*
X546002D01*
X547668Y1440998D01*
Y1436000D01*
Y1439332D02*
X551000Y1442664D01*
Y1452661D02*
Y1445997D01*
X544336Y1452661D01*
X542669D01*
X541003Y1450995D01*
Y1447663D01*
X542669Y1445997D01*
X551000Y1462658D02*
Y1455994D01*
X544336Y1462658D01*
X542669D01*
X541003Y1460992D01*
Y1457660D01*
X542669Y1455994D01*
X626000Y1436000D02*
X616003D01*
Y1440998D01*
X617669Y1442664D01*
X621002D01*
X622668Y1440998D01*
Y1436000D01*
Y1439332D02*
X626000Y1442664D01*
Y1452661D02*
Y1445997D01*
X619336Y1452661D01*
X617669D01*
X616003Y1450995D01*
Y1447663D01*
X617669Y1445997D01*
X626000Y1460992D02*
X616003D01*
X621002Y1455994D01*
Y1462658D01*
X583000Y1436000D02*
X573003D01*
Y1440998D01*
X574669Y1442664D01*
X578002D01*
X579668Y1440998D01*
Y1436000D01*
Y1439332D02*
X583000Y1442664D01*
Y1452661D02*
Y1445997D01*
X576335Y1452661D01*
X574669D01*
X573003Y1450995D01*
Y1447663D01*
X574669Y1445997D01*
X573003Y1462658D02*
Y1455994D01*
X578002D01*
X576335Y1459326D01*
Y1460992D01*
X578002Y1462658D01*
X581334D01*
X583000Y1460992D01*
Y1457660D01*
X581334Y1455994D01*
X568000Y1436000D02*
X558003D01*
Y1440998D01*
X559669Y1442664D01*
X563002D01*
X564668Y1440998D01*
Y1436000D01*
Y1439332D02*
X568000Y1442664D01*
Y1452661D02*
Y1445997D01*
X561335Y1452661D01*
X559669D01*
X558003Y1450995D01*
Y1447663D01*
X559669Y1445997D01*
X558003Y1462658D02*
X559669Y1459326D01*
X563002Y1455994D01*
X566334D01*
X568000Y1457660D01*
Y1460992D01*
X566334Y1462658D01*
X564668D01*
X563002Y1460992D01*
Y1455994D01*
X612000Y1436000D02*
X602003D01*
Y1440998D01*
X603669Y1442664D01*
X607002D01*
X608668Y1440998D01*
Y1436000D01*
Y1439332D02*
X612000Y1442664D01*
Y1452661D02*
Y1445997D01*
X605336Y1452661D01*
X603669D01*
X602003Y1450995D01*
Y1447663D01*
X603669Y1445997D01*
X602003Y1455994D02*
Y1462658D01*
X603669D01*
X610334Y1455994D01*
X612000D01*
X527000Y1575000D02*
Y1584997D01*
X531998D01*
X533665Y1583331D01*
Y1579998D01*
X531998Y1578332D01*
X527000D01*
X530332D02*
X533665Y1575000D01*
X543661D02*
X536997D01*
X543661Y1581664D01*
Y1583331D01*
X541995Y1584997D01*
X538663D01*
X536997Y1583331D01*
X546994D02*
X548660Y1584997D01*
X551992D01*
X553658Y1583331D01*
Y1581664D01*
X551992Y1579998D01*
X553658Y1578332D01*
Y1576666D01*
X551992Y1575000D01*
X548660D01*
X546994Y1576666D01*
Y1578332D01*
X548660Y1579998D01*
X546994Y1581664D01*
Y1583331D01*
X548660Y1579998D02*
X551992D01*
X598000Y1436000D02*
X588003D01*
Y1440998D01*
X589669Y1442664D01*
X593002D01*
X594668Y1440998D01*
Y1436000D01*
Y1439332D02*
X598000Y1442664D01*
X589669Y1445997D02*
X588003Y1447663D01*
Y1450995D01*
X589669Y1452661D01*
X591335D01*
X593002Y1450995D01*
Y1449329D01*
Y1450995D01*
X594668Y1452661D01*
X596334D01*
X598000Y1450995D01*
Y1447663D01*
X596334Y1445997D01*
X589669Y1455994D02*
X588003Y1457660D01*
Y1460992D01*
X589669Y1462658D01*
X596334D01*
X598000Y1460992D01*
Y1457660D01*
X596334Y1455994D01*
X589669D01*
X639000Y1436000D02*
X629003D01*
Y1440998D01*
X630669Y1442664D01*
X634002D01*
X635668Y1440998D01*
Y1436000D01*
Y1439332D02*
X639000Y1442664D01*
X630669Y1445997D02*
X629003Y1447663D01*
Y1450995D01*
X630669Y1452661D01*
X632336D01*
X634002Y1450995D01*
Y1449329D01*
Y1450995D01*
X635668Y1452661D01*
X637334D01*
X639000Y1450995D01*
Y1447663D01*
X637334Y1445997D01*
X639000Y1460992D02*
X629003D01*
X634002Y1455994D01*
Y1462658D01*
X795181Y687146D02*
Y697143D01*
X800179D01*
X801845Y695477D01*
Y692144D01*
X800179Y690478D01*
X795181D01*
X798513D02*
X801845Y687146D01*
X805178Y695477D02*
X806844Y697143D01*
X810176D01*
X811842Y695477D01*
Y693811D01*
X810176Y692144D01*
X808510D01*
X810176D01*
X811842Y690478D01*
Y688812D01*
X810176Y687146D01*
X806844D01*
X805178Y688812D01*
X821839Y697143D02*
X818507Y695477D01*
X815174Y692144D01*
Y688812D01*
X816841Y687146D01*
X820173D01*
X821839Y688812D01*
Y690478D01*
X820173Y692144D01*
X815174D01*
X981000Y1450000D02*
Y1459997D01*
X985998D01*
X987664Y1458331D01*
Y1454998D01*
X985998Y1453332D01*
X981000D01*
X984332D02*
X987664Y1450000D01*
X990997Y1458331D02*
X992663Y1459997D01*
X995995D01*
X997661Y1458331D01*
Y1456664D01*
X995995Y1454998D01*
X994329D01*
X995995D01*
X997661Y1453332D01*
Y1451666D01*
X995995Y1450000D01*
X992663D01*
X990997Y1451666D01*
X1000994Y1458331D02*
X1002660Y1459997D01*
X1005992D01*
X1007658Y1458331D01*
Y1456664D01*
X1005992Y1454998D01*
X1007658Y1453332D01*
Y1451666D01*
X1005992Y1450000D01*
X1002660D01*
X1000994Y1451666D01*
Y1453332D01*
X1002660Y1454998D01*
X1000994Y1456664D01*
Y1458331D01*
X1002660Y1454998D02*
X1005992D01*
X981000Y1435000D02*
Y1444997D01*
X985998D01*
X987664Y1443331D01*
Y1439998D01*
X985998Y1438332D01*
X981000D01*
X984332D02*
X987664Y1435000D01*
X995995D02*
Y1444997D01*
X990997Y1439998D01*
X997661D01*
X1000994Y1443331D02*
X1002660Y1444997D01*
X1005992D01*
X1007658Y1443331D01*
Y1436666D01*
X1005992Y1435000D01*
X1002660D01*
X1000994Y1436666D01*
Y1443331D01*
X1033000Y903000D02*
Y912997D01*
X1037998D01*
X1039665Y911331D01*
Y907998D01*
X1037998Y906332D01*
X1033000D01*
X1036332D02*
X1039665Y903000D01*
X1047995D02*
Y912997D01*
X1042997Y907998D01*
X1049661D01*
X1052994Y903000D02*
X1056326D01*
X1054660D01*
Y912997D01*
X1052994Y911331D01*
X1012000Y1505000D02*
Y1514997D01*
X1016998D01*
X1018664Y1513331D01*
Y1509998D01*
X1016998Y1508332D01*
X1012000D01*
X1015332D02*
X1018664Y1505000D01*
X1026995D02*
Y1514997D01*
X1021997Y1509998D01*
X1028661D01*
X1038658Y1505000D02*
X1031994D01*
X1038658Y1511664D01*
Y1513331D01*
X1036992Y1514997D01*
X1033660D01*
X1031994Y1513331D01*
X1026000Y888000D02*
Y897997D01*
X1030998D01*
X1032664Y896331D01*
Y892998D01*
X1030998Y891332D01*
X1026000D01*
X1029332D02*
X1032664Y888000D01*
X1040995D02*
Y897997D01*
X1035997Y892998D01*
X1042661D01*
X1045994Y896331D02*
X1047660Y897997D01*
X1050992D01*
X1052658Y896331D01*
Y894665D01*
X1050992Y892998D01*
X1049326D01*
X1050992D01*
X1052658Y891332D01*
Y889666D01*
X1050992Y888000D01*
X1047660D01*
X1045994Y889666D01*
X1012000Y1522000D02*
Y1531997D01*
X1016998D01*
X1018664Y1530331D01*
Y1526998D01*
X1016998Y1525332D01*
X1012000D01*
X1015332D02*
X1018664Y1522000D01*
X1026995D02*
Y1531997D01*
X1021997Y1526998D01*
X1028661D01*
X1036992Y1522000D02*
Y1531997D01*
X1031994Y1526998D01*
X1038658D01*
X1189000Y746000D02*
X1179003D01*
Y750998D01*
X1180669Y752664D01*
X1184002D01*
X1185668Y750998D01*
Y746000D01*
Y749332D02*
X1189000Y752664D01*
Y760995D02*
X1179003D01*
X1184002Y755997D01*
Y762661D01*
X1179003Y772658D02*
Y765994D01*
X1184002D01*
X1182336Y769326D01*
Y770992D01*
X1184002Y772658D01*
X1187334D01*
X1189000Y770992D01*
Y767660D01*
X1187334Y765994D01*
X1189000Y777000D02*
X1179003D01*
Y781998D01*
X1180669Y783664D01*
X1184002D01*
X1185668Y781998D01*
Y777000D01*
Y780332D02*
X1189000Y783664D01*
Y791995D02*
X1179003D01*
X1184002Y786997D01*
Y793661D01*
X1179003Y803658D02*
X1180669Y800326D01*
X1184002Y796994D01*
X1187334D01*
X1189000Y798660D01*
Y801992D01*
X1187334Y803658D01*
X1185668D01*
X1184002Y801992D01*
Y796994D01*
X1187000Y1376000D02*
X1177003D01*
Y1380998D01*
X1178669Y1382664D01*
X1182002D01*
X1183668Y1380998D01*
Y1376000D01*
Y1379332D02*
X1187000Y1382664D01*
Y1390995D02*
X1177003D01*
X1182002Y1385997D01*
Y1392661D01*
X1177003Y1395994D02*
Y1402658D01*
X1178669D01*
X1185334Y1395994D01*
X1187000D01*
Y1406000D02*
X1177003D01*
Y1410998D01*
X1178669Y1412664D01*
X1182002D01*
X1183668Y1410998D01*
Y1406000D01*
Y1409332D02*
X1187000Y1412664D01*
Y1420995D02*
X1177003D01*
X1182002Y1415997D01*
Y1422661D01*
X1178669Y1425994D02*
X1177003Y1427660D01*
Y1430992D01*
X1178669Y1432658D01*
X1180335D01*
X1182002Y1430992D01*
X1183668Y1432658D01*
X1185334D01*
X1187000Y1430992D01*
Y1427660D01*
X1185334Y1425994D01*
X1183668D01*
X1182002Y1427660D01*
X1180335Y1425994D01*
X1178669D01*
X1182002Y1427660D02*
Y1430992D01*
X502000Y524000D02*
X492003D01*
Y528998D01*
X493669Y530664D01*
X497002D01*
X498668Y528998D01*
Y524000D01*
Y527332D02*
X502000Y530664D01*
X492003Y540661D02*
Y533997D01*
X497002D01*
X495336Y537329D01*
Y538995D01*
X497002Y540661D01*
X500334D01*
X502000Y538995D01*
Y535663D01*
X500334Y533997D01*
X493669Y543994D02*
X492003Y545660D01*
Y548992D01*
X493669Y550658D01*
X495336D01*
X497002Y548992D01*
Y547326D01*
Y548992D01*
X498668Y550658D01*
X500334D01*
X502000Y548992D01*
Y545660D01*
X500334Y543994D01*
X523000Y532000D02*
X513003D01*
Y536998D01*
X514669Y538665D01*
X518002D01*
X519668Y536998D01*
Y532000D01*
Y535332D02*
X523000Y538665D01*
X513003Y548661D02*
Y541997D01*
X518002D01*
X516335Y545329D01*
Y546995D01*
X518002Y548661D01*
X521334D01*
X523000Y546995D01*
Y543663D01*
X521334Y541997D01*
X523000Y556992D02*
X513003D01*
X518002Y551994D01*
Y558658D01*
X538000Y556000D02*
X528003D01*
Y560998D01*
X529669Y562664D01*
X533002D01*
X534668Y560998D01*
Y556000D01*
Y559332D02*
X538000Y562664D01*
X528003Y572661D02*
Y565997D01*
X533002D01*
X531335Y569329D01*
Y570995D01*
X533002Y572661D01*
X536334D01*
X538000Y570995D01*
Y567663D01*
X536334Y565997D01*
X528003Y582658D02*
X529669Y579326D01*
X533002Y575994D01*
X536334D01*
X538000Y577660D01*
Y580992D01*
X536334Y582658D01*
X534668D01*
X533002Y580992D01*
Y575994D01*
X504000Y625000D02*
Y634997D01*
X508998D01*
X510664Y633331D01*
Y629998D01*
X508998Y628332D01*
X504000D01*
X507332D02*
X510664Y625000D01*
X520661Y634997D02*
X513997D01*
Y629998D01*
X517329Y631665D01*
X518995D01*
X520661Y629998D01*
Y626666D01*
X518995Y625000D01*
X515663D01*
X513997Y626666D01*
X523994Y634997D02*
X530658D01*
Y633331D01*
X523994Y626666D01*
Y625000D01*
X527000Y698000D02*
Y707997D01*
X531998D01*
X533665Y706331D01*
Y702998D01*
X531998Y701332D01*
X527000D01*
X530332D02*
X533665Y698000D01*
X543661Y707997D02*
X536997D01*
Y702998D01*
X540329Y704665D01*
X541995D01*
X543661Y702998D01*
Y699666D01*
X541995Y698000D01*
X538663D01*
X536997Y699666D01*
X546994Y706331D02*
X548660Y707997D01*
X551992D01*
X553658Y706331D01*
Y704665D01*
X551992Y702998D01*
X553658Y701332D01*
Y699666D01*
X551992Y698000D01*
X548660D01*
X546994Y699666D01*
Y701332D01*
X548660Y702998D01*
X546994Y704665D01*
Y706331D01*
X548660Y702998D02*
X551992D01*
X644000Y632000D02*
X634003D01*
Y636998D01*
X635669Y638665D01*
X639002D01*
X640668Y636998D01*
Y632000D01*
Y635332D02*
X644000Y638665D01*
X634003Y648661D02*
Y641997D01*
X639002D01*
X637336Y645329D01*
Y646995D01*
X639002Y648661D01*
X642334D01*
X644000Y646995D01*
Y643663D01*
X642334Y641997D01*
Y651994D02*
X644000Y653660D01*
Y656992D01*
X642334Y658658D01*
X635669D01*
X634003Y656992D01*
Y653660D01*
X635669Y651994D01*
X637336D01*
X639002Y653660D01*
Y658658D01*
X644000Y668000D02*
X634003D01*
Y672998D01*
X635669Y674665D01*
X639002D01*
X640668Y672998D01*
Y668000D01*
Y671332D02*
X644000Y674665D01*
X634003Y684661D02*
X635669Y681329D01*
X639002Y677997D01*
X642334D01*
X644000Y679663D01*
Y682995D01*
X642334Y684661D01*
X640668D01*
X639002Y682995D01*
Y677997D01*
X635669Y687994D02*
X634003Y689660D01*
Y692992D01*
X635669Y694658D01*
X642334D01*
X644000Y692992D01*
Y689660D01*
X642334Y687994D01*
X635669D01*
X635000Y760000D02*
X625003D01*
Y764998D01*
X626669Y766665D01*
X630002D01*
X631668Y764998D01*
Y760000D01*
Y763332D02*
X635000Y766665D01*
X625003Y776661D02*
X626669Y773329D01*
X630002Y769997D01*
X633334D01*
X635000Y771663D01*
Y774995D01*
X633334Y776661D01*
X631668D01*
X630002Y774995D01*
Y769997D01*
X635000Y786658D02*
Y779994D01*
X628335Y786658D01*
X626669D01*
X625003Y784992D01*
Y781660D01*
X626669Y779994D01*
X636000Y728000D02*
X626003D01*
Y732998D01*
X627669Y734665D01*
X631002D01*
X632668Y732998D01*
Y728000D01*
Y731332D02*
X636000Y734665D01*
X626003Y744661D02*
X627669Y741329D01*
X631002Y737997D01*
X634334D01*
X636000Y739663D01*
Y742995D01*
X634334Y744661D01*
X632668D01*
X631002Y742995D01*
Y737997D01*
X627669Y747994D02*
X626003Y749660D01*
Y752992D01*
X627669Y754658D01*
X629336D01*
X631002Y752992D01*
Y751326D01*
Y752992D01*
X632668Y754658D01*
X634334D01*
X636000Y752992D01*
Y749660D01*
X634334Y747994D01*
X519430Y911606D02*
Y921603D01*
X524428D01*
X526095Y919937D01*
Y916604D01*
X524428Y914938D01*
X519430D01*
X522762D02*
X526095Y911606D01*
X536091Y921603D02*
X532759Y919937D01*
X529427Y916604D01*
Y913272D01*
X531093Y911606D01*
X534425D01*
X536091Y913272D01*
Y914938D01*
X534425Y916604D01*
X529427D01*
X544422Y911606D02*
Y921603D01*
X539424Y916604D01*
X546088D01*
X579000Y613000D02*
Y622997D01*
X583998D01*
X585664Y621331D01*
Y617998D01*
X583998Y616332D01*
X579000D01*
X582332D02*
X585664Y613000D01*
X595661Y622997D02*
X592329Y621331D01*
X588997Y617998D01*
Y614666D01*
X590663Y613000D01*
X593995D01*
X595661Y614666D01*
Y616332D01*
X593995Y617998D01*
X588997D01*
X605658Y622997D02*
X598994D01*
Y617998D01*
X602326Y619664D01*
X603992D01*
X605658Y617998D01*
Y614666D01*
X603992Y613000D01*
X600660D01*
X598994Y614666D01*
X587741Y562741D02*
Y572738D01*
X592739D01*
X594406Y571072D01*
Y567739D01*
X592739Y566073D01*
X587741D01*
X591073D02*
X594406Y562741D01*
X604402Y572738D02*
X601070Y571072D01*
X597738Y567739D01*
Y564407D01*
X599404Y562741D01*
X602736D01*
X604402Y564407D01*
Y566073D01*
X602736Y567739D01*
X597738D01*
X614399Y572738D02*
X611067Y571072D01*
X607735Y567739D01*
Y564407D01*
X609401Y562741D01*
X612733D01*
X614399Y564407D01*
Y566073D01*
X612733Y567739D01*
X607735D01*
X327000Y718000D02*
X317003D01*
Y722998D01*
X318669Y724665D01*
X322002D01*
X323668Y722998D01*
Y718000D01*
Y721332D02*
X327000Y724665D01*
X317003Y734661D02*
X318669Y731329D01*
X322002Y727997D01*
X325334D01*
X327000Y729663D01*
Y732995D01*
X325334Y734661D01*
X323668D01*
X322002Y732995D01*
Y727997D01*
X317003Y737994D02*
Y744658D01*
X318669D01*
X325334Y737994D01*
X327000D01*
X483000Y667000D02*
Y676997D01*
X487998D01*
X489664Y675331D01*
Y671998D01*
X487998Y670332D01*
X483000D01*
X486332D02*
X489664Y667000D01*
X499661Y676997D02*
X496329Y675331D01*
X492997Y671998D01*
Y668666D01*
X494663Y667000D01*
X497995D01*
X499661Y668666D01*
Y670332D01*
X497995Y671998D01*
X492997D01*
X502994Y668666D02*
X504660Y667000D01*
X507992D01*
X509658Y668666D01*
Y675331D01*
X507992Y676997D01*
X504660D01*
X502994Y675331D01*
Y673664D01*
X504660Y671998D01*
X509658D01*
X325000Y685000D02*
X315003D01*
Y689998D01*
X316669Y691665D01*
X320002D01*
X321668Y689998D01*
Y685000D01*
Y688332D02*
X325000Y691665D01*
X315003Y694997D02*
Y701661D01*
X316669D01*
X323334Y694997D01*
X325000D01*
X316669Y704994D02*
X315003Y706660D01*
Y709992D01*
X316669Y711658D01*
X323334D01*
X325000Y709992D01*
Y706660D01*
X323334Y704994D01*
X316669D01*
X429000Y681000D02*
Y690997D01*
X433998D01*
X435664Y689331D01*
Y685998D01*
X433998Y684332D01*
X429000D01*
X432332D02*
X435664Y681000D01*
X438997Y690997D02*
X445661D01*
Y689331D01*
X438997Y682666D01*
Y681000D01*
X448994D02*
X452326D01*
X450660D01*
Y690997D01*
X448994Y689331D01*
X707000Y1893997D02*
X713664Y1884000D01*
Y1893997D02*
X707000Y1884000D01*
X716997D02*
X720329D01*
X718663D01*
Y1893997D01*
X716997Y1892331D01*
X850966Y1684143D02*
X857630Y1674146D01*
Y1684143D02*
X850966Y1674146D01*
X867627D02*
X860963D01*
X867627Y1680811D01*
Y1682477D01*
X865961Y1684143D01*
X862629D01*
X860963Y1682477D01*
X1144000Y329997D02*
X1150665Y320000D01*
Y329997D02*
X1144000Y320000D01*
X1158995D02*
Y329997D01*
X1153997Y324998D01*
X1160661D01*
X418000Y431997D02*
X424664Y422000D01*
Y431997D02*
X418000Y422000D01*
X434661Y431997D02*
X427997D01*
Y426998D01*
X431329Y428665D01*
X432995D01*
X434661Y426998D01*
Y423666D01*
X432995Y422000D01*
X429663D01*
X427997Y423666D01*
X1192530Y1715861D02*
X1199194Y1705864D01*
Y1715861D02*
X1192530Y1705864D01*
X1209191Y1715861D02*
X1205859Y1714195D01*
X1202527Y1710862D01*
Y1707530D01*
X1204193Y1705864D01*
X1207525D01*
X1209191Y1707530D01*
Y1709196D01*
X1207525Y1710862D01*
X1202527D01*
X1192530Y975959D02*
X1199194Y965962D01*
Y975959D02*
X1192530Y965962D01*
X1202527Y975959D02*
X1209191D01*
Y974293D01*
X1202527Y967628D01*
Y965962D01*
X310642Y680049D02*
X317306Y670052D01*
Y680049D02*
X310642Y670052D01*
X320639Y678383D02*
X322305Y680049D01*
X325637D01*
X327303Y678383D01*
Y676717D01*
X325637Y675050D01*
X327303Y673384D01*
Y671718D01*
X325637Y670052D01*
X322305D01*
X320639Y671718D01*
Y673384D01*
X322305Y675050D01*
X320639Y676717D01*
Y678383D01*
X322305Y675050D02*
X325637D01*
X314960Y1793331D02*
X321624Y1783334D01*
Y1793331D02*
X314960Y1783334D01*
X324957Y1785000D02*
X326623Y1783334D01*
X329955D01*
X331621Y1785000D01*
Y1791665D01*
X329955Y1793331D01*
X326623D01*
X324957Y1791665D01*
Y1789998D01*
X326623Y1788332D01*
X331621D01*
X317000Y1200997D02*
X323665Y1191000D01*
Y1200997D02*
X317000Y1191000D01*
X326997D02*
X330329D01*
X328663D01*
Y1200997D01*
X326997Y1199331D01*
X335327Y1191000D02*
X338660D01*
X336994D01*
Y1200997D01*
X335327Y1199331D01*
X314960Y1028537D02*
X321624Y1018540D01*
Y1028537D02*
X314960Y1018540D01*
X324957D02*
X328289D01*
X326623D01*
Y1028537D01*
X324957Y1026871D01*
X339952Y1018540D02*
X333287D01*
X339952Y1025204D01*
Y1026871D01*
X338286Y1028537D01*
X334954D01*
X333287Y1026871D01*
X970000Y1171997D02*
Y1162000D01*
X974998D01*
X976665Y1163666D01*
Y1170331D01*
X974998Y1171997D01*
X970000D01*
X979997D02*
Y1162000D01*
X984995D01*
X986661Y1163666D01*
Y1170331D01*
X984995Y1171997D01*
X979997D01*
X989994Y1170331D02*
X991660Y1171997D01*
X994992D01*
X996658Y1170331D01*
Y1168664D01*
X994992Y1166998D01*
X993326D01*
X994992D01*
X996658Y1165332D01*
Y1163666D01*
X994992Y1162000D01*
X991660D01*
X989994Y1163666D01*
X457000Y1410997D02*
Y1401000D01*
X461998D01*
X463665Y1402666D01*
Y1409331D01*
X461998Y1410997D01*
X457000D01*
X466997D02*
Y1401000D01*
X471995D01*
X473661Y1402666D01*
Y1409331D01*
X471995Y1410997D01*
X466997D01*
X476994Y1401000D02*
X480326D01*
X478660D01*
Y1410997D01*
X476994Y1409331D01*
X491989Y1410997D02*
X485324D01*
Y1405998D01*
X488657Y1407664D01*
X490323D01*
X491989Y1405998D01*
Y1402666D01*
X490323Y1401000D01*
X486990D01*
X485324Y1402666D01*
X455000Y1548997D02*
Y1539000D01*
X459998D01*
X461665Y1540666D01*
Y1547331D01*
X459998Y1548997D01*
X455000D01*
X464997D02*
Y1539000D01*
X469995D01*
X471661Y1540666D01*
Y1547331D01*
X469995Y1548997D01*
X464997D01*
X474994Y1539000D02*
X478326D01*
X476660D01*
Y1548997D01*
X474994Y1547331D01*
X483324Y1548997D02*
X489989D01*
Y1547331D01*
X483324Y1540666D01*
Y1539000D01*
X437896Y973165D02*
Y963168D01*
X442894D01*
X444561Y964834D01*
Y971499D01*
X442894Y973165D01*
X437896D01*
X447893D02*
Y963168D01*
X452891D01*
X454557Y964834D01*
Y971499D01*
X452891Y973165D01*
X447893D01*
X457890Y963168D02*
X461222D01*
X459556D01*
Y973165D01*
X457890Y971499D01*
X466220D02*
X467886Y973165D01*
X471219D01*
X472885Y971499D01*
Y969833D01*
X471219Y968166D01*
X472885Y966500D01*
Y964834D01*
X471219Y963168D01*
X467886D01*
X466220Y964834D01*
Y966500D01*
X467886Y968166D01*
X466220Y969833D01*
Y971499D01*
X467886Y968166D02*
X471219D01*
X456000Y1285997D02*
Y1276000D01*
X460998D01*
X462664Y1277666D01*
Y1284331D01*
X460998Y1285997D01*
X456000D01*
X465997D02*
Y1276000D01*
X470995D01*
X472661Y1277666D01*
Y1284331D01*
X470995Y1285997D01*
X465997D01*
X475994Y1276000D02*
X479326D01*
X477660D01*
Y1285997D01*
X475994Y1284331D01*
X484324Y1277666D02*
X485990Y1276000D01*
X489323D01*
X490989Y1277666D01*
Y1284331D01*
X489323Y1285997D01*
X485990D01*
X484324Y1284331D01*
Y1282664D01*
X485990Y1280998D01*
X490989D01*
X460003Y1628000D02*
X470000Y1634664D01*
X460003D02*
X470000Y1628000D01*
X461669Y1637997D02*
X460003Y1639663D01*
Y1642995D01*
X461669Y1644661D01*
X463335D01*
X465002Y1642995D01*
Y1641329D01*
Y1642995D01*
X466668Y1644661D01*
X468334D01*
X470000Y1642995D01*
Y1639663D01*
X468334Y1637997D01*
X1105000Y879997D02*
Y870000D01*
X1109998D01*
X1111665Y871666D01*
Y878331D01*
X1109998Y879997D01*
X1105000D01*
X1114997D02*
Y870000D01*
X1119995D01*
X1121661Y871666D01*
Y878331D01*
X1119995Y879997D01*
X1114997D01*
X1124994Y870000D02*
X1128326D01*
X1126660D01*
Y879997D01*
X1124994Y878331D01*
X1133324Y870000D02*
X1136656D01*
X1134990D01*
Y879997D01*
X1133324Y878331D01*
X1112000Y1501997D02*
Y1492000D01*
X1116998D01*
X1118664Y1493666D01*
Y1500331D01*
X1116998Y1501997D01*
X1112000D01*
X1121997D02*
Y1492000D01*
X1126995D01*
X1128661Y1493666D01*
Y1500331D01*
X1126995Y1501997D01*
X1121997D01*
X1131994Y1492000D02*
X1135326D01*
X1133660D01*
Y1501997D01*
X1131994Y1500331D01*
X1146989Y1492000D02*
X1140324D01*
X1146989Y1498665D01*
Y1500331D01*
X1145323Y1501997D01*
X1141990D01*
X1140324Y1500331D01*
X677672Y526125D02*
Y516128D01*
X682670D01*
X684336Y517794D01*
Y524459D01*
X682670Y526125D01*
X677672D01*
X687669D02*
Y516128D01*
X692667D01*
X694333Y517794D01*
Y524459D01*
X692667Y526125D01*
X687669D01*
X697666D02*
X704330D01*
Y524459D01*
X697666Y517794D01*
Y516128D01*
X548894Y523077D02*
Y513080D01*
X553892D01*
X555559Y514746D01*
Y521411D01*
X553892Y523077D01*
X548894D01*
X558891D02*
Y513080D01*
X563889D01*
X565555Y514746D01*
Y521411D01*
X563889Y523077D01*
X558891D01*
X568888Y514746D02*
X570554Y513080D01*
X573886D01*
X575552Y514746D01*
Y521411D01*
X573886Y523077D01*
X570554D01*
X568888Y521411D01*
Y519744D01*
X570554Y518078D01*
X575552D01*
X949960Y1802983D02*
Y1792986D01*
X954958D01*
X956625Y1794652D01*
Y1801317D01*
X954958Y1802983D01*
X949960D01*
X959957D02*
Y1792986D01*
X964955D01*
X966621Y1794652D01*
Y1801317D01*
X964955Y1802983D01*
X959957D01*
X976618Y1792986D02*
X969954D01*
X976618Y1799651D01*
Y1801317D01*
X974952Y1802983D01*
X971620D01*
X969954Y1801317D01*
X1111665Y621997D02*
X1105000D01*
Y616998D01*
X1108332D01*
X1105000D01*
Y612000D01*
X1114997D02*
X1118329D01*
X1116663D01*
Y621997D01*
X1114997Y620331D01*
X1053664Y621997D02*
X1047000D01*
Y616998D01*
X1050332D01*
X1047000D01*
Y612000D01*
X1063661D02*
X1056997D01*
X1063661Y618665D01*
Y620331D01*
X1061995Y621997D01*
X1058663D01*
X1056997Y620331D01*
X990665Y621997D02*
X984000D01*
Y616998D01*
X987332D01*
X984000D01*
Y612000D01*
X993997Y620331D02*
X995663Y621997D01*
X998995D01*
X1000661Y620331D01*
Y618665D01*
X998995Y616998D01*
X997329D01*
X998995D01*
X1000661Y615332D01*
Y613666D01*
X998995Y612000D01*
X995663D01*
X993997Y613666D01*
X934665Y621997D02*
X928000D01*
Y616998D01*
X931332D01*
X928000D01*
Y612000D01*
X942995D02*
Y621997D01*
X937997Y616998D01*
X944661D01*
X879665Y620997D02*
X873000D01*
Y615998D01*
X876332D01*
X873000D01*
Y611000D01*
X889661Y620997D02*
X882997D01*
Y615998D01*
X886329Y617664D01*
X887995D01*
X889661Y615998D01*
Y612666D01*
X887995Y611000D01*
X884663D01*
X882997Y612666D01*
X811665Y621997D02*
X805000D01*
Y616998D01*
X808332D01*
X805000D01*
Y612000D01*
X821661Y621997D02*
X818329Y620331D01*
X814997Y616998D01*
Y613666D01*
X816663Y612000D01*
X819995D01*
X821661Y613666D01*
Y615332D01*
X819995Y616998D01*
X814997D01*
X885952Y843625D02*
Y833628D01*
X890950D01*
X892617Y835294D01*
Y841959D01*
X890950Y843625D01*
X885952D01*
X895949D02*
Y833628D01*
X900947D01*
X902613Y835294D01*
Y841959D01*
X900947Y843625D01*
X895949D01*
X905946Y841959D02*
X907612Y843625D01*
X910944D01*
X912610Y841959D01*
Y840293D01*
X910944Y838626D01*
X912610Y836960D01*
Y835294D01*
X910944Y833628D01*
X907612D01*
X905946Y835294D01*
Y836960D01*
X907612Y838626D01*
X905946Y840293D01*
Y841959D01*
X907612Y838626D02*
X910944D01*
X1108003Y463665D02*
Y457000D01*
X1113002D01*
Y460332D01*
Y457000D01*
X1118000D01*
X1108003Y466997D02*
X1114668D01*
X1118000Y470329D01*
X1114668Y473661D01*
X1108003D01*
X1118000Y476994D02*
Y480326D01*
Y478660D01*
X1108003D01*
X1109669Y476994D01*
X987003Y469664D02*
Y463000D01*
X992002D01*
Y466332D01*
Y463000D01*
X997000D01*
X987003Y472997D02*
X993668D01*
X997000Y476329D01*
X993668Y479661D01*
X987003D01*
X997000Y489658D02*
Y482994D01*
X990335Y489658D01*
X988669D01*
X987003Y487992D01*
Y484660D01*
X988669Y482994D01*
X758003Y466665D02*
Y460000D01*
X763002D01*
Y463332D01*
Y460000D01*
X768000D01*
X758003Y469997D02*
X764668D01*
X768000Y473329D01*
X764668Y476661D01*
X758003D01*
X759669Y479994D02*
X758003Y481660D01*
Y484992D01*
X759669Y486658D01*
X761336D01*
X763002Y484992D01*
Y483326D01*
Y484992D01*
X764668Y486658D01*
X766334D01*
X768000Y484992D01*
Y481660D01*
X766334Y479994D01*
X1078000Y699997D02*
Y693332D01*
X1081332Y690000D01*
X1084665Y693332D01*
Y699997D01*
X1087997D02*
Y690000D01*
X1092995D01*
X1094661Y691666D01*
Y698331D01*
X1092995Y699997D01*
X1087997D01*
X1097994Y690000D02*
X1101326D01*
X1099660D01*
Y699997D01*
X1097994Y698331D01*
X1010666Y697575D02*
Y690910D01*
X1013998Y687578D01*
X1017330Y690910D01*
Y697575D01*
X1020663D02*
Y687578D01*
X1025661D01*
X1027327Y689244D01*
Y695909D01*
X1025661Y697575D01*
X1020663D01*
X1030660Y695909D02*
X1032326Y697575D01*
X1035658D01*
X1037324Y695909D01*
Y694242D01*
X1035658Y692576D01*
X1033992D01*
X1035658D01*
X1037324Y690910D01*
Y689244D01*
X1035658Y687578D01*
X1032326D01*
X1030660Y689244D01*
X949706Y703417D02*
Y696752D01*
X953038Y693420D01*
X956370Y696752D01*
Y703417D01*
X959703D02*
Y693420D01*
X964701D01*
X966367Y695086D01*
Y701751D01*
X964701Y703417D01*
X959703D01*
X974698Y693420D02*
Y703417D01*
X969700Y698418D01*
X976364D01*
X890000Y697997D02*
Y691332D01*
X893332Y688000D01*
X896665Y691332D01*
Y697997D01*
X899997D02*
Y688000D01*
X904995D01*
X906661Y689666D01*
Y696331D01*
X904995Y697997D01*
X899997D01*
X916658D02*
X913326Y696331D01*
X909994Y692998D01*
Y689666D01*
X911660Y688000D01*
X914992D01*
X916658Y689666D01*
Y691332D01*
X914992Y692998D01*
X909994D01*
X833000Y675997D02*
Y669332D01*
X836332Y666000D01*
X839665Y669332D01*
Y675997D01*
X842997D02*
Y666000D01*
X847995D01*
X849661Y667666D01*
Y674331D01*
X847995Y675997D01*
X842997D01*
X852994D02*
X859658D01*
Y674331D01*
X852994Y667666D01*
Y666000D01*
X753003Y645000D02*
X759668D01*
X763000Y648332D01*
X759668Y651665D01*
X753003D01*
Y654997D02*
X763000D01*
Y659995D01*
X761334Y661661D01*
X754669D01*
X753003Y659995D01*
Y654997D01*
X761334Y664994D02*
X763000Y666660D01*
Y669992D01*
X761334Y671658D01*
X754669D01*
X753003Y669992D01*
Y666660D01*
X754669Y664994D01*
X756336D01*
X758002Y666660D01*
Y671658D01*
X807000Y1184997D02*
X813664D01*
Y1183331D01*
X807000Y1176666D01*
Y1175000D01*
X813664D01*
X816997D02*
X820329D01*
X818663D01*
Y1184997D01*
X816997Y1183331D01*
X429003Y586000D02*
X439000D01*
Y590998D01*
X437334Y592664D01*
X430669D01*
X429003Y590998D01*
Y586000D01*
Y595997D02*
X439000D01*
Y600995D01*
X437334Y602661D01*
X430669D01*
X429003Y600995D01*
Y595997D01*
X439000Y605994D02*
Y609326D01*
Y607660D01*
X429003D01*
X430669Y605994D01*
X439000Y619323D02*
X429003D01*
X434002Y614324D01*
Y620989D01*
X595000Y721997D02*
Y712000D01*
X599998D01*
X601665Y713666D01*
Y720331D01*
X599998Y721997D01*
X595000D01*
X604997D02*
Y712000D01*
X609995D01*
X611661Y713666D01*
Y720331D01*
X609995Y721997D01*
X604997D01*
X614994Y712000D02*
X618326D01*
X616660D01*
Y721997D01*
X614994Y720331D01*
X629989Y721997D02*
X626656Y720331D01*
X623324Y716998D01*
Y713666D01*
X624990Y712000D01*
X628323D01*
X629989Y713666D01*
Y715332D01*
X628323Y716998D01*
X623324D01*
X405000Y759997D02*
Y750000D01*
X409998D01*
X411665Y751666D01*
Y758331D01*
X409998Y759997D01*
X405000D01*
X414997D02*
Y750000D01*
X419995D01*
X421661Y751666D01*
Y758331D01*
X419995Y759997D01*
X414997D01*
X431658Y750000D02*
X424994D01*
X431658Y756665D01*
Y758331D01*
X429992Y759997D01*
X426660D01*
X424994Y758331D01*
X434990D02*
X436656Y759997D01*
X439989D01*
X441655Y758331D01*
Y751666D01*
X439989Y750000D01*
X436656D01*
X434990Y751666D01*
Y758331D01*
X1114044Y1785203D02*
Y1775206D01*
X1120708D01*
X1124041D02*
X1127373D01*
X1125707D01*
Y1785203D01*
X1124041Y1783537D01*
X894080Y1211163D02*
Y1201166D01*
X900744D01*
X904077Y1209497D02*
X905743Y1211163D01*
X909075D01*
X910741Y1209497D01*
Y1207831D01*
X909075Y1206164D01*
X907409D01*
X909075D01*
X910741Y1204498D01*
Y1202832D01*
X909075Y1201166D01*
X905743D01*
X904077Y1202832D01*
X668000Y1591997D02*
Y1582000D01*
X674665D01*
X682995D02*
Y1591997D01*
X677997Y1586998D01*
X684661D01*
X487003Y470000D02*
X497000D01*
Y476665D01*
X487003Y486661D02*
X488669Y483329D01*
X492002Y479997D01*
X495334D01*
X497000Y481663D01*
Y484995D01*
X495334Y486661D01*
X493668D01*
X492002Y484995D01*
Y479997D01*
X596000Y707997D02*
Y698000D01*
X602664D01*
X605997Y707997D02*
X612661D01*
Y706331D01*
X605997Y699666D01*
Y698000D01*
X558800Y844387D02*
Y834390D01*
X565465D01*
X568797Y842721D02*
X570463Y844387D01*
X573795D01*
X575461Y842721D01*
Y841055D01*
X573795Y839388D01*
X575461Y837722D01*
Y836056D01*
X573795Y834390D01*
X570463D01*
X568797Y836056D01*
Y837722D01*
X570463Y839388D01*
X568797Y841055D01*
Y842721D01*
X570463Y839388D02*
X573795D01*
X446786Y775299D02*
Y765302D01*
X453451D01*
X456783Y766968D02*
X458449Y765302D01*
X461781D01*
X463447Y766968D01*
Y773633D01*
X461781Y775299D01*
X458449D01*
X456783Y773633D01*
Y771966D01*
X458449Y770300D01*
X463447D01*
X1132000Y518997D02*
X1138664D01*
X1135332D01*
Y509000D01*
X1141997D02*
Y518997D01*
X1146995D01*
X1148661Y517331D01*
Y513998D01*
X1146995Y512332D01*
X1141997D01*
X1151994Y509000D02*
X1155326D01*
X1153660D01*
Y518997D01*
X1151994Y517331D01*
X1135000Y1213997D02*
X1141665D01*
X1138332D01*
Y1204000D01*
X1144997D02*
Y1213997D01*
X1149995D01*
X1151661Y1212331D01*
Y1208998D01*
X1149995Y1207332D01*
X1144997D01*
X1161658Y1204000D02*
X1154994D01*
X1161658Y1210665D01*
Y1212331D01*
X1159992Y1213997D01*
X1156660D01*
X1154994Y1212331D01*
X1128000Y544997D02*
X1134665D01*
X1131332D01*
Y535000D01*
X1137997D02*
Y544997D01*
X1142995D01*
X1144661Y543331D01*
Y539998D01*
X1142995Y538332D01*
X1137997D01*
X1147994Y543331D02*
X1149660Y544997D01*
X1152992D01*
X1154658Y543331D01*
Y541665D01*
X1152992Y539998D01*
X1151326D01*
X1152992D01*
X1154658Y538332D01*
Y536666D01*
X1152992Y535000D01*
X1149660D01*
X1147994Y536666D01*
X1135000Y1235997D02*
X1141665D01*
X1138332D01*
Y1226000D01*
X1144997D02*
Y1235997D01*
X1149995D01*
X1151661Y1234331D01*
Y1230998D01*
X1149995Y1229332D01*
X1144997D01*
X1159992Y1226000D02*
Y1235997D01*
X1154994Y1230998D01*
X1161658D01*
X1129000Y569997D02*
X1135665D01*
X1132332D01*
Y560000D01*
X1138997D02*
Y569997D01*
X1143995D01*
X1145661Y568331D01*
Y564998D01*
X1143995Y563332D01*
X1138997D01*
X1155658Y569997D02*
X1148994D01*
Y564998D01*
X1152326Y566665D01*
X1153992D01*
X1155658Y564998D01*
Y561666D01*
X1153992Y560000D01*
X1150660D01*
X1148994Y561666D01*
X1135000Y1256997D02*
X1141665D01*
X1138332D01*
Y1247000D01*
X1144997D02*
Y1256997D01*
X1149995D01*
X1151661Y1255331D01*
Y1251998D01*
X1149995Y1250332D01*
X1144997D01*
X1161658Y1256997D02*
X1158326Y1255331D01*
X1154994Y1251998D01*
Y1248666D01*
X1156660Y1247000D01*
X1159992D01*
X1161658Y1248666D01*
Y1250332D01*
X1159992Y1251998D01*
X1154994D01*
X1130000Y594997D02*
X1136665D01*
X1133332D01*
Y585000D01*
X1139997D02*
Y594997D01*
X1144995D01*
X1146661Y593331D01*
Y589998D01*
X1144995Y588332D01*
X1139997D01*
X1149994Y594997D02*
X1156658D01*
Y593331D01*
X1149994Y586666D01*
Y585000D01*
X1134000Y1274997D02*
X1140665D01*
X1137332D01*
Y1265000D01*
X1143997D02*
Y1274997D01*
X1148995D01*
X1150661Y1273331D01*
Y1269998D01*
X1148995Y1268332D01*
X1143997D01*
X1153994Y1273331D02*
X1155660Y1274997D01*
X1158992D01*
X1160658Y1273331D01*
Y1271665D01*
X1158992Y1269998D01*
X1160658Y1268332D01*
Y1266666D01*
X1158992Y1265000D01*
X1155660D01*
X1153994Y1266666D01*
Y1268332D01*
X1155660Y1269998D01*
X1153994Y1271665D01*
Y1273331D01*
X1155660Y1269998D02*
X1158992D01*
X1129000Y621997D02*
X1135665D01*
X1132332D01*
Y612000D01*
X1138997D02*
Y621997D01*
X1143995D01*
X1145661Y620331D01*
Y616998D01*
X1143995Y615332D01*
X1138997D01*
X1148994Y613666D02*
X1150660Y612000D01*
X1153992D01*
X1155658Y613666D01*
Y620331D01*
X1153992Y621997D01*
X1150660D01*
X1148994Y620331D01*
Y618665D01*
X1150660Y616998D01*
X1155658D01*
X1126000Y1296997D02*
X1132664D01*
X1129332D01*
Y1287000D01*
X1135997D02*
Y1296997D01*
X1140995D01*
X1142661Y1295331D01*
Y1291998D01*
X1140995Y1290332D01*
X1135997D01*
X1145994Y1287000D02*
X1149326D01*
X1147660D01*
Y1296997D01*
X1145994Y1295331D01*
X1154324D02*
X1155990Y1296997D01*
X1159323D01*
X1160989Y1295331D01*
Y1288666D01*
X1159323Y1287000D01*
X1155990D01*
X1154324Y1288666D01*
Y1295331D01*
X1124000Y642997D02*
X1130665D01*
X1127332D01*
Y633000D01*
X1133997D02*
Y642997D01*
X1138995D01*
X1140661Y641331D01*
Y637998D01*
X1138995Y636332D01*
X1133997D01*
X1143994Y633000D02*
X1147326D01*
X1145660D01*
Y642997D01*
X1143994Y641331D01*
X1152324Y633000D02*
X1155657D01*
X1153990D01*
Y642997D01*
X1152324Y641331D01*
X1125000Y1314997D02*
X1131665D01*
X1128332D01*
Y1305000D01*
X1134997D02*
Y1314997D01*
X1139995D01*
X1141661Y1313331D01*
Y1309998D01*
X1139995Y1308332D01*
X1134997D01*
X1144994Y1305000D02*
X1148326D01*
X1146660D01*
Y1314997D01*
X1144994Y1313331D01*
X1159989Y1305000D02*
X1153324D01*
X1159989Y1311664D01*
Y1313331D01*
X1158323Y1314997D01*
X1154990D01*
X1153324Y1313331D01*
X1121000Y668997D02*
X1127664D01*
X1124332D01*
Y659000D01*
X1130997D02*
Y668997D01*
X1135995D01*
X1137661Y667331D01*
Y663998D01*
X1135995Y662332D01*
X1130997D01*
X1140994Y659000D02*
X1144326D01*
X1142660D01*
Y668997D01*
X1140994Y667331D01*
X1149324D02*
X1150990Y668997D01*
X1154323D01*
X1155989Y667331D01*
Y665665D01*
X1154323Y663998D01*
X1152656D01*
X1154323D01*
X1155989Y662332D01*
Y660666D01*
X1154323Y659000D01*
X1150990D01*
X1149324Y660666D01*
X1124000Y1334997D02*
X1130665D01*
X1127332D01*
Y1325000D01*
X1133997D02*
Y1334997D01*
X1138995D01*
X1140661Y1333331D01*
Y1329998D01*
X1138995Y1328332D01*
X1133997D01*
X1143994Y1325000D02*
X1147326D01*
X1145660D01*
Y1334997D01*
X1143994Y1333331D01*
X1157323Y1325000D02*
Y1334997D01*
X1152324Y1329998D01*
X1158989D01*
X1120000Y695997D02*
X1126665D01*
X1123332D01*
Y686000D01*
X1129997D02*
Y695997D01*
X1134995D01*
X1136661Y694331D01*
Y690998D01*
X1134995Y689332D01*
X1129997D01*
X1139994Y686000D02*
X1143326D01*
X1141660D01*
Y695997D01*
X1139994Y694331D01*
X1154989Y695997D02*
X1148324D01*
Y690998D01*
X1151656Y692664D01*
X1153323D01*
X1154989Y690998D01*
Y687666D01*
X1153323Y686000D01*
X1149990D01*
X1148324Y687666D01*
X1124000Y1350997D02*
X1130665D01*
X1127332D01*
Y1341000D01*
X1133997D02*
Y1350997D01*
X1138995D01*
X1140661Y1349331D01*
Y1345998D01*
X1138995Y1344332D01*
X1133997D01*
X1143994Y1341000D02*
X1147326D01*
X1145660D01*
Y1350997D01*
X1143994Y1349331D01*
X1158989Y1350997D02*
X1155657Y1349331D01*
X1152324Y1345998D01*
Y1342666D01*
X1153990Y1341000D01*
X1157323D01*
X1158989Y1342666D01*
Y1344332D01*
X1157323Y1345998D01*
X1152324D01*
X1147000Y895997D02*
X1153664D01*
X1150332D01*
Y886000D01*
X1156997D02*
Y895997D01*
X1161995D01*
X1163661Y894331D01*
Y890998D01*
X1161995Y889332D01*
X1156997D01*
X1166994Y886000D02*
X1170326D01*
X1168660D01*
Y895997D01*
X1166994Y894331D01*
X1175324Y895997D02*
X1181989D01*
Y894331D01*
X1175324Y887666D01*
Y886000D01*
X1152000Y1522997D02*
X1158664D01*
X1155332D01*
Y1513000D01*
X1161997D02*
Y1522997D01*
X1166995D01*
X1168661Y1521331D01*
Y1517998D01*
X1166995Y1516332D01*
X1161997D01*
X1171994Y1513000D02*
X1175326D01*
X1173660D01*
Y1522997D01*
X1171994Y1521331D01*
X1180324D02*
X1181990Y1522997D01*
X1185323D01*
X1186989Y1521331D01*
Y1519664D01*
X1185323Y1517998D01*
X1186989Y1516332D01*
Y1514666D01*
X1185323Y1513000D01*
X1181990D01*
X1180324Y1514666D01*
Y1516332D01*
X1181990Y1517998D01*
X1180324Y1519664D01*
Y1521331D01*
X1181990Y1517998D02*
X1185323D01*
X1153000Y736997D02*
X1159665D01*
X1156332D01*
Y727000D01*
X1162997D02*
Y736997D01*
X1167995D01*
X1169661Y735331D01*
Y731998D01*
X1167995Y730332D01*
X1162997D01*
X1172994Y727000D02*
X1176326D01*
X1174660D01*
Y736997D01*
X1172994Y735331D01*
X1181324Y728666D02*
X1182990Y727000D01*
X1186323D01*
X1187989Y728666D01*
Y735331D01*
X1186323Y736997D01*
X1182990D01*
X1181324Y735331D01*
Y733664D01*
X1182990Y731998D01*
X1187989D01*
X1146000Y864997D02*
X1152664D01*
X1149332D01*
Y855000D01*
X1155997D02*
Y864997D01*
X1160995D01*
X1162661Y863331D01*
Y859998D01*
X1160995Y858332D01*
X1155997D01*
X1172658Y855000D02*
X1165994D01*
X1172658Y861665D01*
Y863331D01*
X1170992Y864997D01*
X1167660D01*
X1165994Y863331D01*
X1175990D02*
X1177656Y864997D01*
X1180989D01*
X1182655Y863331D01*
Y856666D01*
X1180989Y855000D01*
X1177656D01*
X1175990Y856666D01*
Y863331D01*
X763000Y430997D02*
X769665Y421000D01*
Y430997D02*
X763000Y421000D01*
X772997D02*
X776329D01*
X774663D01*
Y430997D01*
X772997Y429331D01*
X781327D02*
X782994Y430997D01*
X786326D01*
X787992Y429331D01*
Y427664D01*
X786326Y425998D01*
X784660D01*
X786326D01*
X787992Y424332D01*
Y422666D01*
X786326Y421000D01*
X782994D01*
X781327Y422666D01*
X903664Y1877331D02*
X901998Y1878997D01*
X898666D01*
X897000Y1877331D01*
Y1875665D01*
X898666Y1873998D01*
X901998D01*
X903664Y1872332D01*
Y1870666D01*
X901998Y1869000D01*
X898666D01*
X897000Y1870666D01*
X908663Y1877331D02*
Y1875665D01*
X906997D01*
X910329D01*
X908663D01*
Y1870666D01*
X910329Y1869000D01*
X915327Y1878997D02*
Y1869000D01*
X920326D01*
X921992Y1870666D01*
Y1877331D01*
X920326Y1878997D01*
X915327D01*
X925324Y1875665D02*
Y1869000D01*
Y1872332D01*
X926990Y1873998D01*
X928656Y1875665D01*
X930323D01*
X941985Y1877331D02*
X940319Y1878997D01*
X936987D01*
X935321Y1877331D01*
Y1870666D01*
X936987Y1869000D01*
X940319D01*
X941985Y1870666D01*
X945318Y1869000D02*
Y1875665D01*
X950316D01*
X951982Y1873998D01*
Y1869000D01*
X956981Y1877331D02*
Y1875665D01*
X955314D01*
X958647D01*
X956981D01*
Y1870666D01*
X958647Y1869000D01*
X963645Y1875665D02*
Y1869000D01*
Y1872332D01*
X965311Y1873998D01*
X966977Y1875665D01*
X968644D01*
X973642Y1867334D02*
X980306D01*
X983639Y1869000D02*
X986971D01*
X985305D01*
Y1878997D01*
X983639Y1877331D01*
X991969Y1869000D02*
Y1870666D01*
X993635D01*
Y1869000D01*
X991969D01*
X1000300Y1877331D02*
X1001966Y1878997D01*
X1005298D01*
X1006964Y1877331D01*
Y1870666D01*
X1005298Y1869000D01*
X1001966D01*
X1000300Y1870666D01*
Y1877331D01*
X904498Y1220000D02*
Y1213335D01*
X907831Y1216668D02*
X901166D01*
D65*
X891853Y1438768D02*
G03*
X890670Y1241426I15647J-98768D01*
G01*
X923147Y1241232D02*
G03*
X924330Y1438574I-15647J98768D01*
G01*
X765414Y1340000D02*
G03*
X765414Y1340000I-1414J0D01*
G01*
X959414Y1039000D02*
G03*
X959414Y1039000I-1414J0D01*
G01*
X409000Y442000D02*
X427000D01*
X481000D01*
Y528000D01*
X409000D02*
X481000D01*
X409000Y519000D02*
Y528000D01*
Y442000D02*
Y519000D01*
X614000Y630000D02*
Y693000D01*
X565000Y630000D02*
X614000D01*
X565000D02*
Y693000D01*
X614000D01*
X810000Y635000D02*
Y675000D01*
X770000Y635000D02*
Y675000D01*
X780000Y620000D02*
X800000D01*
X1115000Y522000D02*
Y608000D01*
X1065000Y522000D02*
X1115000D01*
X1065000D02*
Y535000D01*
Y608000D01*
X1115000D01*
X1060000Y522000D02*
Y608000D01*
X1010000Y522000D02*
X1060000D01*
X1010000D02*
Y535000D01*
Y608000D01*
X1060000D01*
X1000000Y522000D02*
Y608000D01*
X950000Y522000D02*
X1000000D01*
X950000D02*
Y535000D01*
Y608000D01*
X1000000D01*
X940000Y522000D02*
Y608000D01*
X890000Y522000D02*
X940000D01*
X890000D02*
Y535000D01*
Y608000D01*
X940000D01*
X935000Y635000D02*
Y675000D01*
X895000Y635000D02*
Y675000D01*
X905000Y620000D02*
X925000D01*
X875000Y522000D02*
Y608000D01*
X825000Y522000D02*
X875000D01*
X825000D02*
Y535000D01*
Y608000D01*
X875000D01*
X815000Y522000D02*
Y608000D01*
X765000Y522000D02*
X815000D01*
X765000D02*
Y535000D01*
Y608000D01*
X815000D01*
X830000Y620000D02*
X870000D01*
X830000Y660000D02*
X870000D01*
X815000Y630000D02*
Y650000D01*
X888000Y435000D02*
Y505000D01*
Y435000D02*
X982000D01*
Y505000D01*
X888000D02*
X982000D01*
X773000Y435000D02*
Y505000D01*
Y435000D02*
X867000D01*
Y505000D01*
X773000D02*
X867000D01*
X417500Y314200D02*
Y415800D01*
X747700D01*
Y314200D02*
Y415800D01*
X417500Y314200D02*
X747700D01*
X940700D02*
Y415800D01*
X762900Y314200D02*
X940700D01*
X762900D02*
Y415800D01*
X940700D01*
X1134700Y314200D02*
Y415800D01*
X956900Y314200D02*
X1134700D01*
X956900D02*
Y415800D01*
X1134700D01*
X1008000Y435000D02*
Y505000D01*
Y435000D02*
X1102000D01*
Y505000D01*
X1008000D02*
X1102000D01*
X1070000Y630000D02*
Y670000D01*
X1110000Y630000D02*
Y670000D01*
X1080000Y685000D02*
X1100000D01*
X652500Y1590500D02*
Y1798000D01*
X489500Y1590500D02*
Y1798000D01*
Y1590500D02*
X652500D01*
X314200Y1402300D02*
X415800D01*
X314200D02*
Y1580100D01*
X415800D01*
Y1402300D02*
Y1580100D01*
X314200Y1207300D02*
X415800D01*
X314200D02*
Y1385100D01*
X415800D01*
Y1207300D02*
Y1385100D01*
X699000Y1299000D02*
Y1310000D01*
X714000Y1282000D02*
X734000D01*
X714000Y1325000D02*
X734000D01*
X749000Y1299000D02*
Y1310000D01*
X988000Y974000D02*
X999000D01*
X1016000Y989000D02*
Y1009000D01*
X973000Y989000D02*
Y1009000D01*
X988000Y1024000D02*
X999000D01*
X310000Y635000D02*
X415000D01*
X310000Y661600D02*
X415000D01*
X310000Y534600D02*
Y661600D01*
Y534600D02*
X415000D01*
Y661600D01*
X314200Y1597300D02*
X415800D01*
X314200D02*
Y1775100D01*
X415800D01*
Y1597300D02*
Y1775100D01*
X314200Y832300D02*
X415800D01*
X314200D02*
Y1010100D01*
X415800D01*
Y832300D02*
Y1010100D01*
X966000Y1783000D02*
X1088000D01*
X966000Y1623000D02*
X1088000D01*
X1050000Y630000D02*
Y670000D01*
X1010000Y630000D02*
Y670000D01*
X1020000Y615000D02*
X1040000D01*
X949000Y630000D02*
Y670000D01*
X989000Y630000D02*
Y670000D01*
X959000Y685000D02*
X979000D01*
X558000Y763000D02*
Y826000D01*
X607000D01*
Y763000D02*
Y826000D01*
X558000Y763000D02*
X607000D01*
X446000Y757000D02*
X520000D01*
Y696000D02*
Y757000D01*
X446000Y696000D02*
X520000D01*
X446000D02*
Y757000D01*
D66*
X1061500Y1369000D02*
G03*
X1061500Y1369000I-1500J0D01*
G01*
X1068500Y748000D02*
G03*
X1068500Y748000I-1500J0D01*
G01*
X361500Y749000D02*
G03*
X361500Y749000I-1500J0D01*
G01*
X1072500Y615000D02*
G03*
X1072500Y615000I-1500J0D01*
G01*
X1017500D02*
G03*
X1017500Y615000I-1500J0D01*
G01*
X957500D02*
G03*
X957500Y615000I-1500J0D01*
G01*
X897500D02*
G03*
X897500Y615000I-1500J0D01*
G01*
X832500D02*
G03*
X832500Y615000I-1500J0D01*
G01*
X772500D02*
G03*
X772500Y615000I-1500J0D01*
G01*
X952500Y1783000D02*
G03*
X952500Y1783000I-1500J0D01*
G01*
D103*
X565500Y1565500D02*
G03*
X565500Y1565500I-1250J0D01*
G01*
X452250Y1532950D02*
G03*
X452250Y1532950I-1250J0D01*
G01*
X500250Y1292050D02*
G03*
X500250Y1292050I-1250J0D01*
G01*
X452250Y1273950D02*
G03*
X452250Y1273950I-1250J0D01*
G01*
X836500Y1151250D02*
G03*
X836500Y1151250I-1250J0D01*
G01*
X837800Y782500D02*
G03*
X837800Y782500I-1250J0D01*
G01*
X500250Y852050D02*
G03*
X500250Y852050I-1250J0D01*
G01*
D104*
X827500Y1129500D02*
G03*
X827500Y1129500I-3000J0D01*
G01*
D105*
X897000Y1673000D02*
Y1681000D01*
X926000Y1640190D02*
Y1647810D01*
X933000Y1622000D02*
X941000D01*
X912000D02*
X920000D01*
X1197000Y1846190D02*
Y1853810D01*
X392190Y358000D02*
X399810D01*
X1197000Y346190D02*
Y353810D01*
X398000Y1846190D02*
Y1853810D01*
X1158000Y1404190D02*
Y1411810D01*
Y1386190D02*
Y1393810D01*
X546190Y1551000D02*
X553810D01*
X510000D02*
X518000D01*
X534000Y1518000D02*
Y1526000D01*
X568000Y1501190D02*
Y1508810D01*
X630190Y1482000D02*
X637810D01*
X608190Y1484000D02*
X615810D01*
X596190D02*
X603810D01*
X584190D02*
X591810D01*
X572190D02*
X579810D01*
X560190D02*
X567810D01*
X546190D02*
X553810D01*
X1131000Y1356000D02*
Y1364000D01*
X1058000Y1517190D02*
Y1524810D01*
Y1504190D02*
Y1511810D01*
Y1491190D02*
Y1498810D01*
X1027000Y1449190D02*
Y1456810D01*
Y1436190D02*
Y1443810D01*
X913750Y1667000D02*
X924250D01*
X693190Y1242000D02*
X700810D01*
X1165000Y782190D02*
Y789810D01*
Y766190D02*
Y773810D01*
X1138000Y737000D02*
Y745000D01*
X1063000Y868000D02*
Y876000D01*
X1073000Y890190D02*
Y897810D01*
Y903190D02*
Y910810D01*
X612190Y769000D02*
X619810D01*
X612190Y742000D02*
X619810D01*
X530190Y729000D02*
X537810D01*
X497000Y682190D02*
Y689810D01*
X469000Y682190D02*
Y689810D01*
X587000Y601190D02*
Y608810D01*
X557000Y600190D02*
Y607810D01*
Y577190D02*
Y584810D01*
X587000Y577190D02*
Y584810D01*
X621190Y679000D02*
X628810D01*
X620190Y650000D02*
X627810D01*
X342000Y771190D02*
Y778810D01*
X369000Y771190D02*
Y778810D01*
X389000Y754000D02*
Y762000D01*
X331190Y720000D02*
X338810D01*
X331190Y693000D02*
X338810D01*
X355000Y681000D02*
Y689000D01*
X490000Y636000D02*
Y644000D01*
X511000Y613190D02*
Y620810D01*
X516190Y580000D02*
X523810D01*
X501190Y565000D02*
X508810D01*
X481190Y550000D02*
X488810D01*
X686190Y743000D02*
X693810D01*
X702190D02*
X709810D01*
X718190D02*
X725810D01*
X686190Y773000D02*
X693810D01*
X702190D02*
X709810D01*
X718190D02*
X725810D01*
X809000Y703190D02*
Y710810D01*
X807000Y1195000D02*
Y1203000D01*
X778000Y1195000D02*
Y1203000D01*
X1028000Y1055190D02*
Y1062810D01*
X1041190Y980000D02*
X1048810D01*
X530000Y895190D02*
Y902810D01*
D106*
X522750Y1553250D02*
Y1557250D01*
X526750D01*
X532750Y1554000D02*
X533250D01*
X532750Y1555500D02*
X533250D01*
X526000Y1543750D02*
Y1546250D01*
X524500Y1543750D02*
Y1546250D01*
X532750Y1536000D02*
X533250D01*
X532750Y1534500D02*
X533250D01*
X540000Y1543750D02*
Y1546250D01*
X541500Y1543750D02*
Y1546250D01*
D107*
X1136380Y1595890D02*
X1151620D01*
X1136380Y1578110D02*
X1151620D01*
M02*
