G04 Layer_Physical_Order=2*
G04 Layer_Color=36540*
%FSLAX44Y44*%
%MOMM*%
G71*
G01*
G75*
%ADD42C,1.6000*%
%ADD43R,1.6000X1.6000*%
%ADD44C,2.1000*%
%ADD46C,2.0000*%
%ADD47C,0.7000*%
G36*
X1095000Y380000D02*
X305000D01*
Y1065000D01*
X1095000D01*
Y380000D01*
D02*
G37*
%LPC*%
G36*
X728000Y1043608D02*
X725854Y1043181D01*
X724035Y1041965D01*
X722819Y1040146D01*
X722392Y1038000D01*
X722819Y1035854D01*
X724035Y1034035D01*
X725854Y1032819D01*
X728000Y1032392D01*
X730146Y1032819D01*
X731965Y1034035D01*
X733181Y1035854D01*
X733608Y1038000D01*
X733181Y1040146D01*
X731965Y1041965D01*
X730146Y1043181D01*
X728000Y1043608D01*
D02*
G37*
G36*
X808000Y1043608D02*
X805854Y1043181D01*
X804035Y1041965D01*
X802819Y1040146D01*
X802392Y1038000D01*
X802819Y1035854D01*
X804035Y1034035D01*
X805854Y1032819D01*
X808000Y1032392D01*
X810146Y1032819D01*
X811965Y1034035D01*
X813181Y1035854D01*
X813608Y1038000D01*
X813181Y1040146D01*
X811965Y1041965D01*
X810146Y1043181D01*
X808000Y1043608D01*
D02*
G37*
G36*
X960000Y1031608D02*
X957854Y1031181D01*
X956035Y1029965D01*
X954819Y1028146D01*
X954392Y1026000D01*
X954819Y1023854D01*
X956035Y1022035D01*
X957854Y1020819D01*
X960000Y1020392D01*
X962146Y1020819D01*
X963965Y1022035D01*
X965181Y1023854D01*
X965608Y1026000D01*
X965181Y1028146D01*
X963965Y1029965D01*
X962146Y1031181D01*
X960000Y1031608D01*
D02*
G37*
G36*
X1015000Y1030608D02*
X1012854Y1030181D01*
X1011035Y1028965D01*
X1009819Y1027146D01*
X1009392Y1025000D01*
X1009819Y1022854D01*
X1011035Y1021035D01*
X1012854Y1019819D01*
X1015000Y1019392D01*
X1017146Y1019819D01*
X1018965Y1021035D01*
X1020181Y1022854D01*
X1020608Y1025000D01*
X1020181Y1027146D01*
X1018965Y1028965D01*
X1017146Y1030181D01*
X1015000Y1030608D01*
D02*
G37*
G36*
X995000D02*
X992854Y1030181D01*
X991035Y1028965D01*
X989819Y1027146D01*
X989392Y1025000D01*
X989819Y1022854D01*
X991035Y1021035D01*
X992854Y1019819D01*
X995000Y1019392D01*
X997146Y1019819D01*
X998965Y1021035D01*
X1000181Y1022854D01*
X1000608Y1025000D01*
X1000181Y1027146D01*
X998965Y1028965D01*
X997146Y1030181D01*
X995000Y1030608D01*
D02*
G37*
G36*
X930000D02*
X927854Y1030181D01*
X926035Y1028965D01*
X924819Y1027146D01*
X924392Y1025000D01*
X924819Y1022854D01*
X926035Y1021035D01*
X927854Y1019819D01*
X930000Y1019392D01*
X932146Y1019819D01*
X933965Y1021035D01*
X935181Y1022854D01*
X935608Y1025000D01*
X935181Y1027146D01*
X933965Y1028965D01*
X932146Y1030181D01*
X930000Y1030608D01*
D02*
G37*
G36*
X907000D02*
X904854Y1030181D01*
X903035Y1028965D01*
X901819Y1027146D01*
X901392Y1025000D01*
X901819Y1022854D01*
X903035Y1021035D01*
X904854Y1019819D01*
X907000Y1019392D01*
X909146Y1019819D01*
X910965Y1021035D01*
X912181Y1022854D01*
X912608Y1025000D01*
X912181Y1027146D01*
X910965Y1028965D01*
X909146Y1030181D01*
X907000Y1030608D01*
D02*
G37*
G36*
X940000Y1020608D02*
X937854Y1020181D01*
X936035Y1018965D01*
X934819Y1017146D01*
X934392Y1015000D01*
X934819Y1012854D01*
X936035Y1011035D01*
X937854Y1009819D01*
X940000Y1009392D01*
X942146Y1009819D01*
X943965Y1011035D01*
X945181Y1012854D01*
X945608Y1015000D01*
X945181Y1017146D01*
X943965Y1018965D01*
X942146Y1020181D01*
X940000Y1020608D01*
D02*
G37*
G36*
X865500Y1016108D02*
X863354Y1015681D01*
X861535Y1014465D01*
X860319Y1012646D01*
X859892Y1010500D01*
X860072Y1009594D01*
X859193Y1009095D01*
X858893Y1009014D01*
X857146Y1010181D01*
X855000Y1010608D01*
X852854Y1010181D01*
X851035Y1008965D01*
X849819Y1007146D01*
X849392Y1005000D01*
X849819Y1002854D01*
X851035Y1001035D01*
X852854Y999819D01*
X855000Y999392D01*
X857146Y999819D01*
X858965Y1001035D01*
X860181Y1002854D01*
X860608Y1005000D01*
X860428Y1005906D01*
X861307Y1006405D01*
X861607Y1006487D01*
X863354Y1005319D01*
X865500Y1004892D01*
X867646Y1005319D01*
X869465Y1006535D01*
X870681Y1008354D01*
X871108Y1010500D01*
X870681Y1012646D01*
X869465Y1014465D01*
X867646Y1015681D01*
X865500Y1016108D01*
D02*
G37*
G36*
X1015000Y1011608D02*
X1012854Y1011181D01*
X1011035Y1009965D01*
X1009819Y1008146D01*
X1009392Y1006000D01*
X1009819Y1003854D01*
X1011035Y1002035D01*
X1012854Y1000819D01*
X1015000Y1000392D01*
X1017146Y1000819D01*
X1018965Y1002035D01*
X1020181Y1003854D01*
X1020608Y1006000D01*
X1020181Y1008146D01*
X1018965Y1009965D01*
X1017146Y1011181D01*
X1015000Y1011608D01*
D02*
G37*
G36*
X696000D02*
X693854Y1011181D01*
X692035Y1009965D01*
X690819Y1008146D01*
X690392Y1006000D01*
X690819Y1003854D01*
X692035Y1002035D01*
X693854Y1000819D01*
X696000Y1000392D01*
X698146Y1000819D01*
X699965Y1002035D01*
X701181Y1003854D01*
X701608Y1006000D01*
X701181Y1008146D01*
X699965Y1009965D01*
X698146Y1011181D01*
X696000Y1011608D01*
D02*
G37*
G36*
X995000Y1010608D02*
X992854Y1010181D01*
X991035Y1008965D01*
X989819Y1007146D01*
X989392Y1005000D01*
X989819Y1002854D01*
X991035Y1001035D01*
X992854Y999819D01*
X995000Y999392D01*
X997146Y999819D01*
X998965Y1001035D01*
X1000181Y1002854D01*
X1000608Y1005000D01*
X1000181Y1007146D01*
X998965Y1008965D01*
X997146Y1010181D01*
X995000Y1010608D01*
D02*
G37*
G36*
X930000D02*
X927854Y1010181D01*
X926035Y1008965D01*
X924819Y1007146D01*
X924392Y1005000D01*
X924819Y1002854D01*
X926035Y1001035D01*
X927854Y999819D01*
X930000Y999392D01*
X932146Y999819D01*
X933965Y1001035D01*
X935181Y1002854D01*
X935608Y1005000D01*
X935181Y1007146D01*
X933965Y1008965D01*
X932146Y1010181D01*
X930000Y1010608D01*
D02*
G37*
G36*
X907000D02*
X904854Y1010181D01*
X903035Y1008965D01*
X901819Y1007146D01*
X901392Y1005000D01*
X901819Y1002854D01*
X903035Y1001035D01*
X904854Y999819D01*
X907000Y999392D01*
X909146Y999819D01*
X910965Y1001035D01*
X912181Y1002854D01*
X912608Y1005000D01*
X912181Y1007146D01*
X910965Y1008965D01*
X909146Y1010181D01*
X907000Y1010608D01*
D02*
G37*
G36*
X1050000Y1047084D02*
X1045763Y1046750D01*
X1041631Y1045758D01*
X1037704Y1044132D01*
X1034081Y1041911D01*
X1030849Y1039151D01*
X1028089Y1035919D01*
X1025869Y1032296D01*
X1024242Y1028369D01*
X1023250Y1024237D01*
X1022916Y1020000D01*
X1023250Y1015763D01*
X1024242Y1011631D01*
X1025869Y1007704D01*
X1028089Y1004081D01*
X1030849Y1000849D01*
X1034081Y998089D01*
X1037704Y995868D01*
X1041631Y994242D01*
X1045763Y993250D01*
X1050000Y992916D01*
X1054237Y993250D01*
X1058369Y994242D01*
X1062296Y995868D01*
X1065919Y998089D01*
X1069151Y1000849D01*
X1071911Y1004081D01*
X1074132Y1007704D01*
X1075758Y1011631D01*
X1076750Y1015763D01*
X1077084Y1020000D01*
X1076750Y1024237D01*
X1075758Y1028369D01*
X1074132Y1032296D01*
X1071911Y1035919D01*
X1069151Y1039151D01*
X1065919Y1041911D01*
X1062296Y1044132D01*
X1058369Y1045758D01*
X1054237Y1046750D01*
X1050000Y1047084D01*
D02*
G37*
G36*
X500000D02*
X495763Y1046750D01*
X491631Y1045758D01*
X487704Y1044132D01*
X484081Y1041911D01*
X480849Y1039151D01*
X478089Y1035919D01*
X475868Y1032296D01*
X474242Y1028369D01*
X473250Y1024237D01*
X472916Y1020000D01*
X473250Y1015763D01*
X474242Y1011631D01*
X475868Y1007704D01*
X478089Y1004081D01*
X480849Y1000849D01*
X484081Y998089D01*
X487704Y995868D01*
X491631Y994242D01*
X495763Y993250D01*
X500000Y992916D01*
X504237Y993250D01*
X508369Y994242D01*
X512296Y995868D01*
X515919Y998089D01*
X519151Y1000849D01*
X521911Y1004081D01*
X524132Y1007704D01*
X525758Y1011631D01*
X526750Y1015763D01*
X527084Y1020000D01*
X526750Y1024237D01*
X525758Y1028369D01*
X524132Y1032296D01*
X521911Y1035919D01*
X519151Y1039151D01*
X515919Y1041911D01*
X512296Y1044132D01*
X508369Y1045758D01*
X504237Y1046750D01*
X500000Y1047084D01*
D02*
G37*
G36*
X724000Y995608D02*
X721854Y995181D01*
X720035Y993965D01*
X718819Y992146D01*
X718392Y990000D01*
X718819Y987854D01*
X720035Y986035D01*
X721854Y984819D01*
X724000Y984392D01*
X726146Y984819D01*
X727965Y986035D01*
X729181Y987854D01*
X729608Y990000D01*
X729181Y992146D01*
X727965Y993965D01*
X726146Y995181D01*
X724000Y995608D01*
D02*
G37*
G36*
X369000Y1037084D02*
X364763Y1036750D01*
X360631Y1035758D01*
X356704Y1034132D01*
X353081Y1031911D01*
X349849Y1029151D01*
X347089Y1025919D01*
X344868Y1022296D01*
X343242Y1018369D01*
X342250Y1014237D01*
X341917Y1010000D01*
X342250Y1005763D01*
X343242Y1001631D01*
X344868Y997704D01*
X347089Y994081D01*
X349849Y990849D01*
X353081Y988089D01*
X356704Y985868D01*
X360631Y984242D01*
X364763Y983250D01*
X369000Y982916D01*
X373237Y983250D01*
X377369Y984242D01*
X381296Y985868D01*
X384919Y988089D01*
X388151Y990849D01*
X390911Y994081D01*
X393132Y997704D01*
X394758Y1001631D01*
X395750Y1005763D01*
X396083Y1010000D01*
X395750Y1014237D01*
X394758Y1018369D01*
X393132Y1022296D01*
X390911Y1025919D01*
X388151Y1029151D01*
X384919Y1031911D01*
X381296Y1034132D01*
X377369Y1035758D01*
X373237Y1036750D01*
X369000Y1037084D01*
D02*
G37*
G36*
X1035000Y985608D02*
X1032854Y985181D01*
X1031035Y983965D01*
X1029819Y982146D01*
X1029392Y980000D01*
X1029819Y977854D01*
X1031035Y976035D01*
X1032854Y974819D01*
X1035000Y974392D01*
X1037146Y974819D01*
X1038965Y976035D01*
X1040181Y977854D01*
X1040608Y980000D01*
X1040181Y982146D01*
X1038965Y983965D01*
X1037146Y985181D01*
X1035000Y985608D01*
D02*
G37*
G36*
X1015000D02*
X1012854Y985181D01*
X1011035Y983965D01*
X1009819Y982146D01*
X1009392Y980000D01*
X1009819Y977854D01*
X1011035Y976035D01*
X1012854Y974819D01*
X1015000Y974392D01*
X1017146Y974819D01*
X1018965Y976035D01*
X1020181Y977854D01*
X1020608Y980000D01*
X1020181Y982146D01*
X1018965Y983965D01*
X1017146Y985181D01*
X1015000Y985608D01*
D02*
G37*
G36*
X995000D02*
X992854Y985181D01*
X991035Y983965D01*
X989819Y982146D01*
X989392Y980000D01*
X989819Y977854D01*
X991035Y976035D01*
X992854Y974819D01*
X995000Y974392D01*
X997146Y974819D01*
X998965Y976035D01*
X1000181Y977854D01*
X1000608Y980000D01*
X1000181Y982146D01*
X998965Y983965D01*
X997146Y985181D01*
X995000Y985608D01*
D02*
G37*
G36*
X960000D02*
X957854Y985181D01*
X956035Y983965D01*
X954819Y982146D01*
X954392Y980000D01*
X954819Y977854D01*
X956035Y976035D01*
X957854Y974819D01*
X960000Y974392D01*
X962146Y974819D01*
X963965Y976035D01*
X965181Y977854D01*
X965608Y980000D01*
X965181Y982146D01*
X963965Y983965D01*
X962146Y985181D01*
X960000Y985608D01*
D02*
G37*
G36*
X930000D02*
X927854Y985181D01*
X926035Y983965D01*
X924819Y982146D01*
X924392Y980000D01*
X924819Y977854D01*
X926035Y976035D01*
X927854Y974819D01*
X930000Y974392D01*
X932146Y974819D01*
X933965Y976035D01*
X935181Y977854D01*
X935608Y980000D01*
X935181Y982146D01*
X933965Y983965D01*
X932146Y985181D01*
X930000Y985608D01*
D02*
G37*
G36*
X907000D02*
X904854Y985181D01*
X903035Y983965D01*
X901819Y982146D01*
X901392Y980000D01*
X901819Y977854D01*
X903035Y976035D01*
X904854Y974819D01*
X907000Y974392D01*
X909146Y974819D01*
X910965Y976035D01*
X912181Y977854D01*
X912608Y980000D01*
X912181Y982146D01*
X910965Y983965D01*
X909146Y985181D01*
X907000Y985608D01*
D02*
G37*
G36*
X940000Y973608D02*
X937854Y973181D01*
X936035Y971965D01*
X934819Y970146D01*
X934392Y968000D01*
X934819Y965854D01*
X936035Y964035D01*
X937854Y962819D01*
X940000Y962392D01*
X942146Y962819D01*
X943965Y964035D01*
X945181Y965854D01*
X945608Y968000D01*
X945181Y970146D01*
X943965Y971965D01*
X942146Y973181D01*
X940000Y973608D01*
D02*
G37*
G36*
X735000Y970608D02*
X732854Y970181D01*
X731035Y968965D01*
X729819Y967146D01*
X729392Y965000D01*
X729819Y962854D01*
X731035Y961035D01*
X732854Y959819D01*
X735000Y959392D01*
X737146Y959819D01*
X738965Y961035D01*
X740181Y962854D01*
X740608Y965000D01*
X740181Y967146D01*
X738965Y968965D01*
X737146Y970181D01*
X735000Y970608D01*
D02*
G37*
G36*
X715000D02*
X712854Y970181D01*
X711035Y968965D01*
X709819Y967146D01*
X709392Y965000D01*
X709819Y962854D01*
X711035Y961035D01*
X712854Y959819D01*
X715000Y959392D01*
X717146Y959819D01*
X718965Y961035D01*
X720181Y962854D01*
X720608Y965000D01*
X720181Y967146D01*
X718965Y968965D01*
X717146Y970181D01*
X715000Y970608D01*
D02*
G37*
G36*
X1035000Y960608D02*
X1032854Y960181D01*
X1031035Y958965D01*
X1029819Y957146D01*
X1029392Y955000D01*
X1029819Y952854D01*
X1031035Y951035D01*
X1032854Y949819D01*
X1035000Y949392D01*
X1037146Y949819D01*
X1038965Y951035D01*
X1040181Y952854D01*
X1040608Y955000D01*
X1040181Y957146D01*
X1038965Y958965D01*
X1037146Y960181D01*
X1035000Y960608D01*
D02*
G37*
G36*
X1015000D02*
X1012854Y960181D01*
X1011035Y958965D01*
X1009819Y957146D01*
X1009392Y955000D01*
X1009819Y952854D01*
X1011035Y951035D01*
X1012854Y949819D01*
X1015000Y949392D01*
X1017146Y949819D01*
X1018965Y951035D01*
X1020181Y952854D01*
X1020608Y955000D01*
X1020181Y957146D01*
X1018965Y958965D01*
X1017146Y960181D01*
X1015000Y960608D01*
D02*
G37*
G36*
X995000D02*
X992854Y960181D01*
X991035Y958965D01*
X989819Y957146D01*
X989392Y955000D01*
X989819Y952854D01*
X991035Y951035D01*
X992854Y949819D01*
X995000Y949392D01*
X997146Y949819D01*
X998965Y951035D01*
X1000181Y952854D01*
X1000608Y955000D01*
X1000181Y957146D01*
X998965Y958965D01*
X997146Y960181D01*
X995000Y960608D01*
D02*
G37*
G36*
X960000D02*
X957854Y960181D01*
X956035Y958965D01*
X954819Y957146D01*
X954392Y955000D01*
X954819Y952854D01*
X956035Y951035D01*
X957854Y949819D01*
X960000Y949392D01*
X962146Y949819D01*
X963965Y951035D01*
X965181Y952854D01*
X965608Y955000D01*
X965181Y957146D01*
X963965Y958965D01*
X962146Y960181D01*
X960000Y960608D01*
D02*
G37*
G36*
X930000D02*
X927854Y960181D01*
X926035Y958965D01*
X924819Y957146D01*
X924392Y955000D01*
X924819Y952854D01*
X926035Y951035D01*
X927854Y949819D01*
X930000Y949392D01*
X932146Y949819D01*
X933965Y951035D01*
X935181Y952854D01*
X935608Y955000D01*
X935181Y957146D01*
X933965Y958965D01*
X932146Y960181D01*
X930000Y960608D01*
D02*
G37*
G36*
X907000D02*
X904854Y960181D01*
X903035Y958965D01*
X901819Y957146D01*
X901392Y955000D01*
X901819Y952854D01*
X903035Y951035D01*
X904854Y949819D01*
X907000Y949392D01*
X909146Y949819D01*
X910965Y951035D01*
X912181Y952854D01*
X912608Y955000D01*
X912181Y957146D01*
X910965Y958965D01*
X909146Y960181D01*
X907000Y960608D01*
D02*
G37*
G36*
X870000D02*
X867854Y960181D01*
X866035Y958965D01*
X864819Y957146D01*
X864392Y955000D01*
X864819Y952854D01*
X866035Y951035D01*
X867854Y949819D01*
X870000Y949392D01*
X872146Y949819D01*
X873965Y951035D01*
X875181Y952854D01*
X875608Y955000D01*
X875181Y957146D01*
X873965Y958965D01*
X872146Y960181D01*
X870000Y960608D01*
D02*
G37*
G36*
X855000D02*
X852854Y960181D01*
X851035Y958965D01*
X849819Y957146D01*
X849392Y955000D01*
X849819Y952854D01*
X851035Y951035D01*
X852854Y949819D01*
X855000Y949392D01*
X857146Y949819D01*
X858965Y951035D01*
X860181Y952854D01*
X860608Y955000D01*
X860181Y957146D01*
X858965Y958965D01*
X857146Y960181D01*
X855000Y960608D01*
D02*
G37*
G36*
X840000D02*
X837854Y960181D01*
X836035Y958965D01*
X834819Y957146D01*
X834392Y955000D01*
X834819Y952854D01*
X836035Y951035D01*
X837854Y949819D01*
X840000Y949392D01*
X842146Y949819D01*
X843965Y951035D01*
X845181Y952854D01*
X845608Y955000D01*
X845181Y957146D01*
X843965Y958965D01*
X842146Y960181D01*
X840000Y960608D01*
D02*
G37*
G36*
X825000D02*
X822854Y960181D01*
X821035Y958965D01*
X819819Y957146D01*
X819392Y955000D01*
X819819Y952854D01*
X821035Y951035D01*
X822854Y949819D01*
X825000Y949392D01*
X827146Y949819D01*
X828965Y951035D01*
X830181Y952854D01*
X830608Y955000D01*
X830181Y957146D01*
X828965Y958965D01*
X827146Y960181D01*
X825000Y960608D01*
D02*
G37*
G36*
X810000D02*
X807854Y960181D01*
X806035Y958965D01*
X804819Y957146D01*
X804392Y955000D01*
X804819Y952854D01*
X806035Y951035D01*
X807854Y949819D01*
X810000Y949392D01*
X812146Y949819D01*
X813965Y951035D01*
X815181Y952854D01*
X815608Y955000D01*
X815181Y957146D01*
X813965Y958965D01*
X812146Y960181D01*
X810000Y960608D01*
D02*
G37*
G36*
X774000Y957608D02*
X771854Y957181D01*
X770035Y955965D01*
X768819Y954146D01*
X768392Y952000D01*
X768819Y949854D01*
X770035Y948035D01*
X771854Y946819D01*
X774000Y946392D01*
X776146Y946819D01*
X777965Y948035D01*
X779181Y949854D01*
X779608Y952000D01*
X779181Y954146D01*
X777965Y955965D01*
X776146Y957181D01*
X774000Y957608D01*
D02*
G37*
G36*
X735000Y955608D02*
X732854Y955181D01*
X731035Y953965D01*
X729819Y952146D01*
X729392Y950000D01*
X729819Y947854D01*
X731035Y946035D01*
X732854Y944819D01*
X735000Y944392D01*
X737146Y944819D01*
X738965Y946035D01*
X740181Y947854D01*
X740608Y950000D01*
X740181Y952146D01*
X738965Y953965D01*
X737146Y955181D01*
X735000Y955608D01*
D02*
G37*
G36*
X715000D02*
X712854Y955181D01*
X711035Y953965D01*
X709819Y952146D01*
X709392Y950000D01*
X709819Y947854D01*
X711035Y946035D01*
X712854Y944819D01*
X715000Y944392D01*
X717146Y944819D01*
X718965Y946035D01*
X720181Y947854D01*
X720608Y950000D01*
X720181Y952146D01*
X718965Y953965D01*
X717146Y955181D01*
X715000Y955608D01*
D02*
G37*
G36*
X578950Y949658D02*
X576804Y949231D01*
X574985Y948015D01*
X573769Y946196D01*
X573342Y944050D01*
X573769Y941904D01*
X574985Y940085D01*
X576804Y938869D01*
X578950Y938442D01*
X581096Y938869D01*
X582915Y940085D01*
X584131Y941904D01*
X584558Y944050D01*
X584131Y946196D01*
X582915Y948015D01*
X581096Y949231D01*
X578950Y949658D01*
D02*
G37*
G36*
X661000Y949608D02*
X658854Y949181D01*
X657035Y947965D01*
X655819Y946146D01*
X655392Y944000D01*
X655819Y941854D01*
X657035Y940035D01*
X658854Y938819D01*
X661000Y938392D01*
X663146Y938819D01*
X664965Y940035D01*
X666181Y941854D01*
X666608Y944000D01*
X666181Y946146D01*
X664965Y947965D01*
X663146Y949181D01*
X661000Y949608D01*
D02*
G37*
G36*
X870000Y945608D02*
X867854Y945181D01*
X866035Y943965D01*
X864819Y942146D01*
X864392Y940000D01*
X864819Y937854D01*
X866035Y936035D01*
X867854Y934819D01*
X870000Y934392D01*
X872146Y934819D01*
X873965Y936035D01*
X875181Y937854D01*
X875608Y940000D01*
X875181Y942146D01*
X873965Y943965D01*
X872146Y945181D01*
X870000Y945608D01*
D02*
G37*
G36*
X855000D02*
X852854Y945181D01*
X851035Y943965D01*
X849819Y942146D01*
X849392Y940000D01*
X849819Y937854D01*
X851035Y936035D01*
X852854Y934819D01*
X855000Y934392D01*
X857146Y934819D01*
X858965Y936035D01*
X860181Y937854D01*
X860608Y940000D01*
X860181Y942146D01*
X858965Y943965D01*
X857146Y945181D01*
X855000Y945608D01*
D02*
G37*
G36*
X840000D02*
X837854Y945181D01*
X836035Y943965D01*
X834819Y942146D01*
X834392Y940000D01*
X834819Y937854D01*
X836035Y936035D01*
X837854Y934819D01*
X840000Y934392D01*
X842146Y934819D01*
X843965Y936035D01*
X845181Y937854D01*
X845608Y940000D01*
X845181Y942146D01*
X843965Y943965D01*
X842146Y945181D01*
X840000Y945608D01*
D02*
G37*
G36*
X825000D02*
X822854Y945181D01*
X821035Y943965D01*
X819819Y942146D01*
X819392Y940000D01*
X819819Y937854D01*
X821035Y936035D01*
X822854Y934819D01*
X825000Y934392D01*
X827146Y934819D01*
X828965Y936035D01*
X830181Y937854D01*
X830608Y940000D01*
X830181Y942146D01*
X828965Y943965D01*
X827146Y945181D01*
X825000Y945608D01*
D02*
G37*
G36*
X810000D02*
X807854Y945181D01*
X806035Y943965D01*
X804819Y942146D01*
X804392Y940000D01*
X804819Y937854D01*
X806035Y936035D01*
X807854Y934819D01*
X810000Y934392D01*
X812146Y934819D01*
X813965Y936035D01*
X815181Y937854D01*
X815608Y940000D01*
X815181Y942146D01*
X813965Y943965D01*
X812146Y945181D01*
X810000Y945608D01*
D02*
G37*
G36*
X371000D02*
X368854Y945181D01*
X367035Y943965D01*
X365819Y942146D01*
X365392Y940000D01*
X365819Y937854D01*
X367035Y936035D01*
X368854Y934819D01*
X371000Y934392D01*
X373146Y934819D01*
X374965Y936035D01*
X376181Y937854D01*
X376608Y940000D01*
X376181Y942146D01*
X374965Y943965D01*
X373146Y945181D01*
X371000Y945608D01*
D02*
G37*
G36*
X735000Y940608D02*
X732854Y940181D01*
X731035Y938965D01*
X729819Y937146D01*
X729392Y935000D01*
X729819Y932854D01*
X731035Y931035D01*
X732854Y929819D01*
X735000Y929392D01*
X737146Y929819D01*
X738965Y931035D01*
X740181Y932854D01*
X740608Y935000D01*
X740181Y937146D01*
X738965Y938965D01*
X737146Y940181D01*
X735000Y940608D01*
D02*
G37*
G36*
X715000D02*
X712854Y940181D01*
X711035Y938965D01*
X709819Y937146D01*
X709392Y935000D01*
X709819Y932854D01*
X711035Y931035D01*
X712854Y929819D01*
X715000Y929392D01*
X717146Y929819D01*
X718965Y931035D01*
X720181Y932854D01*
X720608Y935000D01*
X720181Y937146D01*
X718965Y938965D01*
X717146Y940181D01*
X715000Y940608D01*
D02*
G37*
G36*
X601000Y936608D02*
X598854Y936181D01*
X597035Y934965D01*
X595819Y933146D01*
X595392Y931000D01*
X595819Y928854D01*
X597035Y927035D01*
X598854Y925819D01*
X601000Y925392D01*
X603146Y925819D01*
X604965Y927035D01*
X606181Y928854D01*
X606608Y931000D01*
X606181Y933146D01*
X604965Y934965D01*
X603146Y936181D01*
X601000Y936608D01*
D02*
G37*
G36*
X685000Y935608D02*
X682854Y935181D01*
X681035Y933965D01*
X679819Y932146D01*
X679392Y930000D01*
X679819Y927854D01*
X681035Y926035D01*
X682854Y924819D01*
X685000Y924392D01*
X687146Y924819D01*
X688965Y926035D01*
X690181Y927854D01*
X690608Y930000D01*
X690181Y932146D01*
X688965Y933965D01*
X687146Y935181D01*
X685000Y935608D01*
D02*
G37*
G36*
X774000Y932608D02*
X771854Y932181D01*
X770035Y930965D01*
X768819Y929146D01*
X768392Y927000D01*
X768819Y924854D01*
X770035Y923035D01*
X771854Y921819D01*
X774000Y921392D01*
X776146Y921819D01*
X777965Y923035D01*
X779181Y924854D01*
X779608Y927000D01*
X779181Y929146D01*
X777965Y930965D01*
X776146Y932181D01*
X774000Y932608D01*
D02*
G37*
G36*
X735000Y925608D02*
X732854Y925181D01*
X731035Y923965D01*
X729819Y922146D01*
X729392Y920000D01*
X729819Y917854D01*
X731035Y916035D01*
X732854Y914819D01*
X735000Y914392D01*
X737146Y914819D01*
X738965Y916035D01*
X740181Y917854D01*
X740608Y920000D01*
X740181Y922146D01*
X738965Y923965D01*
X737146Y925181D01*
X735000Y925608D01*
D02*
G37*
G36*
X715000D02*
X712854Y925181D01*
X711035Y923965D01*
X709819Y922146D01*
X709392Y920000D01*
X709819Y917854D01*
X711035Y916035D01*
X712854Y914819D01*
X715000Y914392D01*
X717146Y914819D01*
X718965Y916035D01*
X720181Y917854D01*
X720608Y920000D01*
X720181Y922146D01*
X718965Y923965D01*
X717146Y925181D01*
X715000Y925608D01*
D02*
G37*
G36*
X661000Y924608D02*
X658854Y924181D01*
X657035Y922965D01*
X655819Y921146D01*
X655392Y919000D01*
X655819Y916854D01*
X657035Y915035D01*
X658854Y913819D01*
X661000Y913392D01*
X663146Y913819D01*
X664965Y915035D01*
X666181Y916854D01*
X666608Y919000D01*
X666181Y921146D01*
X664965Y922965D01*
X663146Y924181D01*
X661000Y924608D01*
D02*
G37*
G36*
X601000Y923608D02*
X598854Y923181D01*
X597035Y921965D01*
X595819Y920146D01*
X595392Y918000D01*
X595819Y915854D01*
X597035Y914035D01*
X598854Y912819D01*
X601000Y912392D01*
X603146Y912819D01*
X604965Y914035D01*
X606181Y915854D01*
X606608Y918000D01*
X606181Y920146D01*
X604965Y921965D01*
X603146Y923181D01*
X601000Y923608D01*
D02*
G37*
G36*
X822000Y910608D02*
X819854Y910181D01*
X818035Y908965D01*
X816819Y907146D01*
X816392Y905000D01*
X816819Y902854D01*
X818035Y901035D01*
X819854Y899819D01*
X822000Y899392D01*
X824146Y899819D01*
X825965Y901035D01*
X827181Y902854D01*
X827608Y905000D01*
X827181Y907146D01*
X825965Y908965D01*
X824146Y910181D01*
X822000Y910608D01*
D02*
G37*
G36*
X685000D02*
X682854Y910181D01*
X681035Y908965D01*
X679819Y907146D01*
X679392Y905000D01*
X679819Y902854D01*
X681035Y901035D01*
X682854Y899819D01*
X685000Y899392D01*
X687146Y899819D01*
X688965Y901035D01*
X690181Y902854D01*
X690608Y905000D01*
X690181Y907146D01*
X688965Y908965D01*
X687146Y910181D01*
X685000Y910608D01*
D02*
G37*
G36*
X380000Y917086D02*
X377389Y916743D01*
X374957Y915735D01*
X372868Y914132D01*
X371265Y912043D01*
X370257Y909611D01*
X369914Y907000D01*
X370257Y904389D01*
X371265Y901957D01*
X372868Y899868D01*
X374957Y898265D01*
X377389Y897257D01*
X380000Y896914D01*
X382611Y897257D01*
X385043Y898265D01*
X387132Y899868D01*
X388735Y901957D01*
X389743Y904389D01*
X390086Y907000D01*
X389743Y909611D01*
X388735Y912043D01*
X387132Y914132D01*
X385043Y915735D01*
X382611Y916743D01*
X380000Y917086D01*
D02*
G37*
G36*
X354600D02*
X351990Y916743D01*
X349557Y915735D01*
X347468Y914132D01*
X345865Y912043D01*
X344857Y909611D01*
X344514Y907000D01*
X344857Y904389D01*
X345865Y901957D01*
X347468Y899868D01*
X349557Y898265D01*
X351990Y897257D01*
X354600Y896914D01*
X357211Y897257D01*
X359643Y898265D01*
X361732Y899868D01*
X363335Y901957D01*
X364343Y904389D01*
X364686Y907000D01*
X364343Y909611D01*
X363335Y912043D01*
X361732Y914132D01*
X359643Y915735D01*
X357211Y916743D01*
X354600Y917086D01*
D02*
G37*
G36*
X1015000Y912608D02*
X1011737Y912178D01*
X1008696Y910919D01*
X1006085Y908915D01*
X1004081Y906304D01*
X1002822Y903263D01*
X1002392Y900000D01*
X1002822Y896737D01*
X1004081Y893696D01*
X1006085Y891085D01*
X1008696Y889081D01*
X1011737Y887822D01*
X1015000Y887392D01*
X1018263Y887822D01*
X1021304Y889081D01*
X1023915Y891085D01*
X1025919Y893696D01*
X1027178Y896737D01*
X1027608Y900000D01*
X1027178Y903263D01*
X1025919Y906304D01*
X1023915Y908915D01*
X1021304Y910919D01*
X1018263Y912178D01*
X1015000Y912608D01*
D02*
G37*
G36*
X454000Y886608D02*
X451854Y886181D01*
X450035Y884965D01*
X448819Y883146D01*
X448392Y881000D01*
X448819Y878854D01*
X450035Y877035D01*
X451854Y875819D01*
X454000Y875392D01*
X456146Y875819D01*
X457965Y877035D01*
X459181Y878854D01*
X459608Y881000D01*
X459181Y883146D01*
X457965Y884965D01*
X456146Y886181D01*
X454000Y886608D01*
D02*
G37*
G36*
X354600Y891686D02*
X351990Y891343D01*
X349557Y890335D01*
X347468Y888732D01*
X345865Y886643D01*
X344857Y884211D01*
X344514Y881600D01*
X344857Y878989D01*
X345865Y876557D01*
X347468Y874468D01*
X349557Y872865D01*
X351990Y871857D01*
X354600Y871514D01*
X357211Y871857D01*
X359643Y872865D01*
X361732Y874468D01*
X363335Y876557D01*
X364343Y878989D01*
X364686Y881600D01*
X364343Y884211D01*
X363335Y886643D01*
X361732Y888732D01*
X359643Y890335D01*
X357211Y891343D01*
X354600Y891686D01*
D02*
G37*
G36*
X734000Y872608D02*
X731854Y872181D01*
X730035Y870965D01*
X728819Y869146D01*
X728392Y867000D01*
X728819Y864854D01*
X730035Y863035D01*
X731854Y861819D01*
X734000Y861392D01*
X736146Y861819D01*
X737965Y863035D01*
X739181Y864854D01*
X739608Y867000D01*
X739181Y869146D01*
X737965Y870965D01*
X736146Y872181D01*
X734000Y872608D01*
D02*
G37*
G36*
X715000D02*
X712854Y872181D01*
X711035Y870965D01*
X709819Y869146D01*
X709392Y867000D01*
X709819Y864854D01*
X711035Y863035D01*
X712854Y861819D01*
X715000Y861392D01*
X717146Y861819D01*
X718965Y863035D01*
X720181Y864854D01*
X720608Y867000D01*
X720181Y869146D01*
X718965Y870965D01*
X717146Y872181D01*
X715000Y872608D01*
D02*
G37*
G36*
X920000Y860608D02*
X917854Y860181D01*
X916035Y858965D01*
X914819Y857146D01*
X914392Y855000D01*
X914819Y852854D01*
X916035Y851035D01*
X917854Y849819D01*
X920000Y849392D01*
X922146Y849819D01*
X923965Y851035D01*
X925181Y852854D01*
X925608Y855000D01*
X925181Y857146D01*
X923965Y858965D01*
X922146Y860181D01*
X920000Y860608D01*
D02*
G37*
G36*
X905000D02*
X902854Y860181D01*
X901035Y858965D01*
X899819Y857146D01*
X899392Y855000D01*
X899819Y852854D01*
X901035Y851035D01*
X902854Y849819D01*
X905000Y849392D01*
X907146Y849819D01*
X908965Y851035D01*
X910181Y852854D01*
X910608Y855000D01*
X910181Y857146D01*
X908965Y858965D01*
X907146Y860181D01*
X905000Y860608D01*
D02*
G37*
G36*
X890000D02*
X887854Y860181D01*
X886035Y858965D01*
X884819Y857146D01*
X884392Y855000D01*
X884819Y852854D01*
X886035Y851035D01*
X887854Y849819D01*
X890000Y849392D01*
X892146Y849819D01*
X893965Y851035D01*
X895181Y852854D01*
X895608Y855000D01*
X895181Y857146D01*
X893965Y858965D01*
X892146Y860181D01*
X890000Y860608D01*
D02*
G37*
G36*
X875000D02*
X872854Y860181D01*
X871035Y858965D01*
X869819Y857146D01*
X869392Y855000D01*
X869819Y852854D01*
X871035Y851035D01*
X872854Y849819D01*
X875000Y849392D01*
X877146Y849819D01*
X878965Y851035D01*
X880181Y852854D01*
X880608Y855000D01*
X880181Y857146D01*
X878965Y858965D01*
X877146Y860181D01*
X875000Y860608D01*
D02*
G37*
G36*
X860000D02*
X857854Y860181D01*
X856035Y858965D01*
X854819Y857146D01*
X854392Y855000D01*
X854819Y852854D01*
X856035Y851035D01*
X857854Y849819D01*
X860000Y849392D01*
X862146Y849819D01*
X863965Y851035D01*
X865181Y852854D01*
X865608Y855000D01*
X865181Y857146D01*
X863965Y858965D01*
X862146Y860181D01*
X860000Y860608D01*
D02*
G37*
G36*
X845000D02*
X842854Y860181D01*
X841035Y858965D01*
X839819Y857146D01*
X839392Y855000D01*
X839819Y852854D01*
X841035Y851035D01*
X842854Y849819D01*
X845000Y849392D01*
X847146Y849819D01*
X848965Y851035D01*
X850181Y852854D01*
X850608Y855000D01*
X850181Y857146D01*
X848965Y858965D01*
X847146Y860181D01*
X845000Y860608D01*
D02*
G37*
G36*
X830000D02*
X827854Y860181D01*
X826035Y858965D01*
X824819Y857146D01*
X824392Y855000D01*
X824819Y852854D01*
X826035Y851035D01*
X827854Y849819D01*
X830000Y849392D01*
X832146Y849819D01*
X833965Y851035D01*
X835181Y852854D01*
X835608Y855000D01*
X835181Y857146D01*
X833965Y858965D01*
X832146Y860181D01*
X830000Y860608D01*
D02*
G37*
G36*
X815000D02*
X812854Y860181D01*
X811035Y858965D01*
X809819Y857146D01*
X809392Y855000D01*
X809819Y852854D01*
X811035Y851035D01*
X812854Y849819D01*
X815000Y849392D01*
X817146Y849819D01*
X818965Y851035D01*
X820181Y852854D01*
X820608Y855000D01*
X820181Y857146D01*
X818965Y858965D01*
X817146Y860181D01*
X815000Y860608D01*
D02*
G37*
G36*
X800000D02*
X797854Y860181D01*
X796035Y858965D01*
X794819Y857146D01*
X794392Y855000D01*
X794819Y852854D01*
X796035Y851035D01*
X797854Y849819D01*
X800000Y849392D01*
X802146Y849819D01*
X803965Y851035D01*
X805181Y852854D01*
X805608Y855000D01*
X805181Y857146D01*
X803965Y858965D01*
X802146Y860181D01*
X800000Y860608D01*
D02*
G37*
G36*
X1015000Y874508D02*
X1011737Y874078D01*
X1008696Y872819D01*
X1006085Y870815D01*
X1004081Y868204D01*
X1002822Y865163D01*
X1002392Y861900D01*
X1002822Y858637D01*
X1004081Y855596D01*
X1006085Y852985D01*
X1008696Y850981D01*
X1011737Y849722D01*
X1015000Y849292D01*
X1018263Y849722D01*
X1021304Y850981D01*
X1023915Y852985D01*
X1025919Y855596D01*
X1027178Y858637D01*
X1027608Y861900D01*
X1027178Y865163D01*
X1025919Y868204D01*
X1023915Y870815D01*
X1021304Y872819D01*
X1018263Y874078D01*
X1015000Y874508D01*
D02*
G37*
G36*
X774000Y858608D02*
X771854Y858181D01*
X770035Y856965D01*
X768819Y855146D01*
X768392Y853000D01*
X768819Y850854D01*
X770035Y849035D01*
X771854Y847819D01*
X774000Y847392D01*
X776146Y847819D01*
X777965Y849035D01*
X779181Y850854D01*
X779608Y853000D01*
X779181Y855146D01*
X777965Y856965D01*
X776146Y858181D01*
X774000Y858608D01*
D02*
G37*
G36*
X734000D02*
X731854Y858181D01*
X730035Y856965D01*
X728819Y855146D01*
X728392Y853000D01*
X728819Y850854D01*
X730035Y849035D01*
X731854Y847819D01*
X734000Y847392D01*
X736146Y847819D01*
X737965Y849035D01*
X739181Y850854D01*
X739608Y853000D01*
X739181Y855146D01*
X737965Y856965D01*
X736146Y858181D01*
X734000Y858608D01*
D02*
G37*
G36*
X715000D02*
X712854Y858181D01*
X711035Y856965D01*
X709819Y855146D01*
X709392Y853000D01*
X709819Y850854D01*
X711035Y849035D01*
X712854Y847819D01*
X715000Y847392D01*
X717146Y847819D01*
X718965Y849035D01*
X720181Y850854D01*
X720608Y853000D01*
X720181Y855146D01*
X718965Y856965D01*
X717146Y858181D01*
X715000Y858608D01*
D02*
G37*
G36*
X354600Y866286D02*
X351990Y865943D01*
X349557Y864935D01*
X347468Y863332D01*
X345865Y861243D01*
X344857Y858811D01*
X344514Y856200D01*
X344857Y853589D01*
X345865Y851157D01*
X347468Y849068D01*
X349557Y847465D01*
X351990Y846457D01*
X354600Y846114D01*
X357211Y846457D01*
X359643Y847465D01*
X361732Y849068D01*
X363335Y851157D01*
X364343Y853589D01*
X364686Y856200D01*
X364343Y858811D01*
X363335Y861243D01*
X361732Y863332D01*
X359643Y864935D01*
X357211Y865943D01*
X354600Y866286D01*
D02*
G37*
G36*
X582950Y849658D02*
X580804Y849231D01*
X578985Y848015D01*
X577769Y846196D01*
X577342Y844050D01*
X577769Y841904D01*
X578985Y840085D01*
X580804Y838869D01*
X582950Y838442D01*
X585096Y838869D01*
X586915Y840085D01*
X588131Y841904D01*
X588558Y844050D01*
X588131Y846196D01*
X586915Y848015D01*
X585096Y849231D01*
X582950Y849658D01*
D02*
G37*
G36*
X661000Y849608D02*
X658854Y849181D01*
X657035Y847965D01*
X655819Y846146D01*
X655392Y844000D01*
X655819Y841854D01*
X657035Y840035D01*
X658854Y838819D01*
X661000Y838392D01*
X663146Y838819D01*
X664965Y840035D01*
X666181Y841854D01*
X666608Y844000D01*
X666181Y846146D01*
X664965Y847965D01*
X663146Y849181D01*
X661000Y849608D01*
D02*
G37*
G36*
X890000Y845608D02*
X887854Y845181D01*
X886035Y843965D01*
X884819Y842146D01*
X884392Y840000D01*
X884819Y837854D01*
X886035Y836035D01*
X887854Y834819D01*
X890000Y834392D01*
X892146Y834819D01*
X893965Y836035D01*
X895181Y837854D01*
X895608Y840000D01*
X895181Y842146D01*
X893965Y843965D01*
X892146Y845181D01*
X890000Y845608D01*
D02*
G37*
G36*
X875000D02*
X872854Y845181D01*
X871035Y843965D01*
X869819Y842146D01*
X869392Y840000D01*
X869819Y837854D01*
X871035Y836035D01*
X872854Y834819D01*
X875000Y834392D01*
X877146Y834819D01*
X878965Y836035D01*
X880181Y837854D01*
X880608Y840000D01*
X880181Y842146D01*
X878965Y843965D01*
X877146Y845181D01*
X875000Y845608D01*
D02*
G37*
G36*
X860000D02*
X857854Y845181D01*
X856035Y843965D01*
X854819Y842146D01*
X854392Y840000D01*
X854819Y837854D01*
X856035Y836035D01*
X857854Y834819D01*
X860000Y834392D01*
X862146Y834819D01*
X863965Y836035D01*
X865181Y837854D01*
X865608Y840000D01*
X865181Y842146D01*
X863965Y843965D01*
X862146Y845181D01*
X860000Y845608D01*
D02*
G37*
G36*
X845000D02*
X842854Y845181D01*
X841035Y843965D01*
X839819Y842146D01*
X839392Y840000D01*
X839819Y837854D01*
X841035Y836035D01*
X842854Y834819D01*
X845000Y834392D01*
X847146Y834819D01*
X848965Y836035D01*
X850181Y837854D01*
X850608Y840000D01*
X850181Y842146D01*
X848965Y843965D01*
X847146Y845181D01*
X845000Y845608D01*
D02*
G37*
G36*
X830000D02*
X827854Y845181D01*
X826035Y843965D01*
X824819Y842146D01*
X824392Y840000D01*
X824819Y837854D01*
X826035Y836035D01*
X827854Y834819D01*
X830000Y834392D01*
X832146Y834819D01*
X833965Y836035D01*
X835181Y837854D01*
X835608Y840000D01*
X835181Y842146D01*
X833965Y843965D01*
X832146Y845181D01*
X830000Y845608D01*
D02*
G37*
G36*
X815000D02*
X812854Y845181D01*
X811035Y843965D01*
X809819Y842146D01*
X809392Y840000D01*
X809819Y837854D01*
X811035Y836035D01*
X812854Y834819D01*
X815000Y834392D01*
X817146Y834819D01*
X818965Y836035D01*
X820181Y837854D01*
X820608Y840000D01*
X820181Y842146D01*
X818965Y843965D01*
X817146Y845181D01*
X815000Y845608D01*
D02*
G37*
G36*
X800000D02*
X797854Y845181D01*
X796035Y843965D01*
X794819Y842146D01*
X794392Y840000D01*
X794819Y837854D01*
X796035Y836035D01*
X797854Y834819D01*
X800000Y834392D01*
X802146Y834819D01*
X803965Y836035D01*
X805181Y837854D01*
X805608Y840000D01*
X805181Y842146D01*
X803965Y843965D01*
X802146Y845181D01*
X800000Y845608D01*
D02*
G37*
G36*
X734000Y840608D02*
X731854Y840181D01*
X730035Y838965D01*
X728819Y837146D01*
X728392Y835000D01*
X728819Y832854D01*
X730035Y831035D01*
X731854Y829819D01*
X734000Y829392D01*
X736146Y829819D01*
X737965Y831035D01*
X739181Y832854D01*
X739608Y835000D01*
X739181Y837146D01*
X737965Y838965D01*
X736146Y840181D01*
X734000Y840608D01*
D02*
G37*
G36*
X715000D02*
X712854Y840181D01*
X711035Y838965D01*
X709819Y837146D01*
X709392Y835000D01*
X709819Y832854D01*
X711035Y831035D01*
X712854Y829819D01*
X715000Y829392D01*
X717146Y829819D01*
X718965Y831035D01*
X720181Y832854D01*
X720608Y835000D01*
X720181Y837146D01*
X718965Y838965D01*
X717146Y840181D01*
X715000Y840608D01*
D02*
G37*
G36*
X601000Y837608D02*
X598854Y837181D01*
X597035Y835965D01*
X595819Y834146D01*
X595392Y832000D01*
X595819Y829854D01*
X597035Y828035D01*
X598854Y826819D01*
X601000Y826392D01*
X603146Y826819D01*
X604965Y828035D01*
X606181Y829854D01*
X606608Y832000D01*
X606181Y834146D01*
X604965Y835965D01*
X603146Y837181D01*
X601000Y837608D01*
D02*
G37*
G36*
X685000Y835608D02*
X682854Y835181D01*
X681035Y833965D01*
X679819Y832146D01*
X679392Y830000D01*
X679819Y827854D01*
X681035Y826035D01*
X682854Y824819D01*
X685000Y824392D01*
X687146Y824819D01*
X688965Y826035D01*
X690181Y827854D01*
X690608Y830000D01*
X690181Y832146D01*
X688965Y833965D01*
X687146Y835181D01*
X685000Y835608D01*
D02*
G37*
G36*
X774000Y832608D02*
X771854Y832181D01*
X770035Y830965D01*
X768819Y829146D01*
X768392Y827000D01*
X768819Y824854D01*
X770035Y823035D01*
X771854Y821819D01*
X774000Y821392D01*
X776146Y821819D01*
X777965Y823035D01*
X779181Y824854D01*
X779608Y827000D01*
X779181Y829146D01*
X777965Y830965D01*
X776146Y832181D01*
X774000Y832608D01*
D02*
G37*
G36*
X354600Y840886D02*
X351990Y840543D01*
X349557Y839535D01*
X347468Y837932D01*
X345865Y835843D01*
X344857Y833410D01*
X344514Y830800D01*
X344857Y828189D01*
X345865Y825757D01*
X347468Y823668D01*
X349557Y822065D01*
X351990Y821057D01*
X354600Y820714D01*
X357211Y821057D01*
X359643Y822065D01*
X361732Y823668D01*
X363335Y825757D01*
X364343Y828189D01*
X364686Y830800D01*
X364343Y833410D01*
X363335Y835843D01*
X361732Y837932D01*
X359643Y839535D01*
X357211Y840543D01*
X354600Y840886D01*
D02*
G37*
G36*
X734000Y825608D02*
X731854Y825181D01*
X730035Y823965D01*
X728819Y822146D01*
X728392Y820000D01*
X728819Y817854D01*
X730035Y816035D01*
X731854Y814819D01*
X734000Y814392D01*
X736146Y814819D01*
X737965Y816035D01*
X739181Y817854D01*
X739608Y820000D01*
X739181Y822146D01*
X737965Y823965D01*
X736146Y825181D01*
X734000Y825608D01*
D02*
G37*
G36*
X715000D02*
X712854Y825181D01*
X711035Y823965D01*
X709819Y822146D01*
X709392Y820000D01*
X709819Y817854D01*
X711035Y816035D01*
X712854Y814819D01*
X715000Y814392D01*
X717146Y814819D01*
X718965Y816035D01*
X720181Y817854D01*
X720608Y820000D01*
X720181Y822146D01*
X718965Y823965D01*
X717146Y825181D01*
X715000Y825608D01*
D02*
G37*
G36*
X661000Y824608D02*
X658854Y824181D01*
X657035Y822965D01*
X655819Y821146D01*
X655392Y819000D01*
X655819Y816854D01*
X657035Y815035D01*
X658854Y813819D01*
X661000Y813392D01*
X663146Y813819D01*
X664965Y815035D01*
X666181Y816854D01*
X666608Y819000D01*
X666181Y821146D01*
X664965Y822965D01*
X663146Y824181D01*
X661000Y824608D01*
D02*
G37*
G36*
X601000Y823608D02*
X598854Y823181D01*
X597035Y821965D01*
X595819Y820146D01*
X595392Y818000D01*
X595819Y815854D01*
X597035Y814035D01*
X598854Y812819D01*
X601000Y812392D01*
X603146Y812819D01*
X604965Y814035D01*
X606181Y815854D01*
X606608Y818000D01*
X606181Y820146D01*
X604965Y821965D01*
X603146Y823181D01*
X601000Y823608D01*
D02*
G37*
G36*
X1015000Y836408D02*
X1011737Y835978D01*
X1008696Y834719D01*
X1006085Y832715D01*
X1004081Y830104D01*
X1002822Y827063D01*
X1002392Y823800D01*
X1002822Y820537D01*
X1004081Y817496D01*
X1006085Y814885D01*
X1008696Y812881D01*
X1011737Y811622D01*
X1015000Y811192D01*
X1018263Y811622D01*
X1021304Y812881D01*
X1023915Y814885D01*
X1025919Y817496D01*
X1027178Y820537D01*
X1027608Y823800D01*
X1027178Y827063D01*
X1025919Y830104D01*
X1023915Y832715D01*
X1021304Y834719D01*
X1018263Y835978D01*
X1015000Y836408D01*
D02*
G37*
G36*
X822000Y811608D02*
X819854Y811181D01*
X818035Y809965D01*
X816819Y808146D01*
X816392Y806000D01*
X816819Y803854D01*
X818035Y802035D01*
X819854Y800819D01*
X822000Y800392D01*
X824146Y800819D01*
X825965Y802035D01*
X827181Y803854D01*
X827608Y806000D01*
X827181Y808146D01*
X825965Y809965D01*
X824146Y811181D01*
X822000Y811608D01*
D02*
G37*
G36*
X685000Y810608D02*
X682854Y810181D01*
X681035Y808965D01*
X679819Y807146D01*
X679392Y805000D01*
X679819Y802854D01*
X681035Y801035D01*
X682854Y799819D01*
X685000Y799392D01*
X687146Y799819D01*
X688965Y801035D01*
X690181Y802854D01*
X690608Y805000D01*
X690181Y807146D01*
X688965Y808965D01*
X687146Y810181D01*
X685000Y810608D01*
D02*
G37*
G36*
X380000Y815486D02*
X377389Y815143D01*
X374957Y814135D01*
X372868Y812532D01*
X371265Y810443D01*
X370257Y808010D01*
X369914Y805400D01*
X370257Y802790D01*
X371265Y800357D01*
X372868Y798268D01*
X374957Y796665D01*
X377389Y795657D01*
X380000Y795314D01*
X382611Y795657D01*
X385043Y796665D01*
X387132Y798268D01*
X388735Y800357D01*
X389743Y802790D01*
X390086Y805400D01*
X389743Y808010D01*
X388735Y810443D01*
X387132Y812532D01*
X385043Y814135D01*
X382611Y815143D01*
X380000Y815486D01*
D02*
G37*
G36*
X354600D02*
X351990Y815143D01*
X349557Y814135D01*
X347468Y812532D01*
X345865Y810443D01*
X344857Y808010D01*
X344514Y805400D01*
X344857Y802790D01*
X345865Y800357D01*
X347468Y798268D01*
X349557Y796665D01*
X351990Y795657D01*
X354600Y795314D01*
X357211Y795657D01*
X359643Y796665D01*
X361732Y798268D01*
X363335Y800357D01*
X364343Y802790D01*
X364686Y805400D01*
X364343Y808010D01*
X363335Y810443D01*
X361732Y812532D01*
X359643Y814135D01*
X357211Y815143D01*
X354600Y815486D01*
D02*
G37*
G36*
X472500Y802608D02*
X470354Y802181D01*
X468535Y800965D01*
X467319Y799146D01*
X466892Y797000D01*
X467319Y794854D01*
X468535Y793035D01*
X470354Y791819D01*
X472500Y791392D01*
X474646Y791819D01*
X476465Y793035D01*
X477681Y794854D01*
X478108Y797000D01*
X477681Y799146D01*
X476465Y800965D01*
X474646Y802181D01*
X472500Y802608D01*
D02*
G37*
G36*
X438000Y800608D02*
X435854Y800181D01*
X434035Y798965D01*
X432819Y797146D01*
X432392Y795000D01*
X432819Y792854D01*
X434035Y791035D01*
X435854Y789819D01*
X438000Y789392D01*
X440146Y789819D01*
X441965Y791035D01*
X443181Y792854D01*
X443608Y795000D01*
X443181Y797146D01*
X441965Y798965D01*
X440146Y800181D01*
X438000Y800608D01*
D02*
G37*
G36*
X718620Y795608D02*
X716474Y795181D01*
X714655Y793965D01*
X713439Y792146D01*
X713012Y790000D01*
X713439Y787854D01*
X714655Y786035D01*
X716474Y784819D01*
X718620Y784392D01*
X720766Y784819D01*
X722585Y786035D01*
X723801Y787854D01*
X724228Y790000D01*
X723801Y792146D01*
X722585Y793965D01*
X720766Y795181D01*
X718620Y795608D01*
D02*
G37*
G36*
X671000Y794608D02*
X668854Y794181D01*
X667035Y792965D01*
X665819Y791146D01*
X665392Y789000D01*
X665819Y786854D01*
X667035Y785035D01*
X668854Y783819D01*
X671000Y783392D01*
X673146Y783819D01*
X674965Y785035D01*
X676181Y786854D01*
X676608Y789000D01*
X676181Y791146D01*
X674965Y792965D01*
X673146Y794181D01*
X671000Y794608D01*
D02*
G37*
G36*
X1015000Y798308D02*
X1011737Y797878D01*
X1008696Y796619D01*
X1006085Y794615D01*
X1004081Y792004D01*
X1002822Y788963D01*
X1002392Y785700D01*
X1002822Y782437D01*
X1004081Y779396D01*
X1006085Y776785D01*
X1008696Y774781D01*
X1011737Y773522D01*
X1015000Y773092D01*
X1018263Y773522D01*
X1021304Y774781D01*
X1023915Y776785D01*
X1025919Y779396D01*
X1027178Y782437D01*
X1027608Y785700D01*
X1027178Y788963D01*
X1025919Y792004D01*
X1023915Y794615D01*
X1021304Y796619D01*
X1018263Y797878D01*
X1015000Y798308D01*
D02*
G37*
G36*
X354600Y790086D02*
X351990Y789743D01*
X349557Y788735D01*
X347468Y787132D01*
X345865Y785043D01*
X344857Y782610D01*
X344514Y780000D01*
X344857Y777390D01*
X345865Y774957D01*
X347468Y772868D01*
X349557Y771265D01*
X351990Y770257D01*
X354600Y769914D01*
X357211Y770257D01*
X359643Y771265D01*
X361732Y772868D01*
X363335Y774957D01*
X364343Y777390D01*
X364686Y780000D01*
X364343Y782610D01*
X363335Y785043D01*
X361732Y787132D01*
X359643Y788735D01*
X357211Y789743D01*
X354600Y790086D01*
D02*
G37*
G36*
X520000Y777608D02*
X517854Y777181D01*
X516035Y775965D01*
X514819Y774146D01*
X514392Y772000D01*
X514819Y769854D01*
X516035Y768035D01*
X517854Y766819D01*
X520000Y766392D01*
X522146Y766819D01*
X523965Y768035D01*
X525181Y769854D01*
X525608Y772000D01*
X525181Y774146D01*
X523965Y775965D01*
X522146Y777181D01*
X520000Y777608D01*
D02*
G37*
G36*
X735000Y770608D02*
X732854Y770181D01*
X731035Y768965D01*
X729819Y767146D01*
X729392Y765000D01*
X729819Y762854D01*
X731035Y761035D01*
X732854Y759819D01*
X735000Y759392D01*
X737146Y759819D01*
X738965Y761035D01*
X740181Y762854D01*
X740608Y765000D01*
X740181Y767146D01*
X738965Y768965D01*
X737146Y770181D01*
X735000Y770608D01*
D02*
G37*
G36*
X715000D02*
X712854Y770181D01*
X711035Y768965D01*
X709819Y767146D01*
X709392Y765000D01*
X709819Y762854D01*
X711035Y761035D01*
X712854Y759819D01*
X715000Y759392D01*
X717146Y759819D01*
X718965Y761035D01*
X720181Y762854D01*
X720608Y765000D01*
X720181Y767146D01*
X718965Y768965D01*
X717146Y770181D01*
X715000Y770608D01*
D02*
G37*
G36*
X871000Y763608D02*
X868854Y763181D01*
X867035Y761965D01*
X865819Y760146D01*
X865392Y758000D01*
X865819Y755854D01*
X867035Y754035D01*
X868854Y752819D01*
X871000Y752392D01*
X873146Y752819D01*
X874965Y754035D01*
X876181Y755854D01*
X876608Y758000D01*
X876181Y760146D01*
X874965Y761965D01*
X873146Y763181D01*
X871000Y763608D01*
D02*
G37*
G36*
X855000D02*
X852854Y763181D01*
X851035Y761965D01*
X849819Y760146D01*
X849392Y758000D01*
X849819Y755854D01*
X851035Y754035D01*
X852854Y752819D01*
X855000Y752392D01*
X857146Y752819D01*
X858965Y754035D01*
X860181Y755854D01*
X860608Y758000D01*
X860181Y760146D01*
X858965Y761965D01*
X857146Y763181D01*
X855000Y763608D01*
D02*
G37*
G36*
X840000D02*
X837854Y763181D01*
X836035Y761965D01*
X834819Y760146D01*
X834392Y758000D01*
X834819Y755854D01*
X836035Y754035D01*
X837854Y752819D01*
X840000Y752392D01*
X842146Y752819D01*
X843965Y754035D01*
X845181Y755854D01*
X845608Y758000D01*
X845181Y760146D01*
X843965Y761965D01*
X842146Y763181D01*
X840000Y763608D01*
D02*
G37*
G36*
X825000D02*
X822854Y763181D01*
X821035Y761965D01*
X819819Y760146D01*
X819392Y758000D01*
X819819Y755854D01*
X821035Y754035D01*
X822854Y752819D01*
X825000Y752392D01*
X827146Y752819D01*
X828965Y754035D01*
X830181Y755854D01*
X830608Y758000D01*
X830181Y760146D01*
X828965Y761965D01*
X827146Y763181D01*
X825000Y763608D01*
D02*
G37*
G36*
X810000D02*
X807854Y763181D01*
X806035Y761965D01*
X804819Y760146D01*
X804392Y758000D01*
X804819Y755854D01*
X806035Y754035D01*
X807854Y752819D01*
X810000Y752392D01*
X812146Y752819D01*
X813965Y754035D01*
X815181Y755854D01*
X815608Y758000D01*
X815181Y760146D01*
X813965Y761965D01*
X812146Y763181D01*
X810000Y763608D01*
D02*
G37*
G36*
X459000Y758608D02*
X456854Y758181D01*
X455035Y756965D01*
X453819Y755146D01*
X453392Y753000D01*
X453819Y750854D01*
X455035Y749035D01*
X456854Y747819D01*
X459000Y747392D01*
X461146Y747819D01*
X462965Y749035D01*
X464181Y750854D01*
X464608Y753000D01*
X464181Y755146D01*
X462965Y756965D01*
X461146Y758181D01*
X459000Y758608D01*
D02*
G37*
G36*
X773000Y757608D02*
X770854Y757181D01*
X769035Y755965D01*
X767819Y754146D01*
X767392Y752000D01*
X767819Y749854D01*
X769035Y748035D01*
X770854Y746819D01*
X773000Y746392D01*
X775146Y746819D01*
X776965Y748035D01*
X778181Y749854D01*
X778608Y752000D01*
X778181Y754146D01*
X776965Y755965D01*
X775146Y757181D01*
X773000Y757608D01*
D02*
G37*
G36*
X483000Y756608D02*
X480854Y756181D01*
X479035Y754965D01*
X477819Y753146D01*
X477392Y751000D01*
X477819Y748854D01*
X479035Y747035D01*
X480854Y745819D01*
X483000Y745392D01*
X485146Y745819D01*
X486965Y747035D01*
X488181Y748854D01*
X488608Y751000D01*
X488181Y753146D01*
X486965Y754965D01*
X485146Y756181D01*
X483000Y756608D01*
D02*
G37*
G36*
X380000Y764686D02*
X377389Y764343D01*
X374957Y763335D01*
X372868Y761732D01*
X371265Y759643D01*
X370257Y757210D01*
X369914Y754600D01*
X370257Y751990D01*
X371265Y749557D01*
X372868Y747468D01*
X374957Y745865D01*
X377389Y744857D01*
X380000Y744514D01*
X382611Y744857D01*
X385043Y745865D01*
X387132Y747468D01*
X388735Y749557D01*
X389743Y751990D01*
X390086Y754600D01*
X389743Y757210D01*
X388735Y759643D01*
X387132Y761732D01*
X385043Y763335D01*
X382611Y764343D01*
X380000Y764686D01*
D02*
G37*
G36*
X354600D02*
X351990Y764343D01*
X349557Y763335D01*
X347468Y761732D01*
X345865Y759643D01*
X344857Y757210D01*
X344514Y754600D01*
X344857Y751990D01*
X345865Y749557D01*
X347468Y747468D01*
X349557Y745865D01*
X351990Y744857D01*
X354600Y744514D01*
X357211Y744857D01*
X359643Y745865D01*
X361732Y747468D01*
X363335Y749557D01*
X364343Y751990D01*
X364686Y754600D01*
X364343Y757210D01*
X363335Y759643D01*
X361732Y761732D01*
X359643Y763335D01*
X357211Y764343D01*
X354600Y764686D01*
D02*
G37*
G36*
X735000Y755608D02*
X732854Y755181D01*
X731035Y753965D01*
X729819Y752146D01*
X729392Y750000D01*
X729819Y747854D01*
X731035Y746035D01*
X732854Y744819D01*
X735000Y744392D01*
X737146Y744819D01*
X738965Y746035D01*
X740181Y747854D01*
X740608Y750000D01*
X740181Y752146D01*
X738965Y753965D01*
X737146Y755181D01*
X735000Y755608D01*
D02*
G37*
G36*
X715000D02*
X712854Y755181D01*
X711035Y753965D01*
X709819Y752146D01*
X709392Y750000D01*
X709819Y747854D01*
X711035Y746035D01*
X712854Y744819D01*
X715000Y744392D01*
X717146Y744819D01*
X718965Y746035D01*
X720181Y747854D01*
X720608Y750000D01*
X720181Y752146D01*
X718965Y753965D01*
X717146Y755181D01*
X715000Y755608D01*
D02*
G37*
G36*
X870000Y745608D02*
X867854Y745181D01*
X866035Y743965D01*
X864819Y742146D01*
X864392Y740000D01*
X864819Y737854D01*
X866035Y736035D01*
X867854Y734819D01*
X870000Y734392D01*
X872146Y734819D01*
X873965Y736035D01*
X875181Y737854D01*
X875608Y740000D01*
X875181Y742146D01*
X873965Y743965D01*
X872146Y745181D01*
X870000Y745608D01*
D02*
G37*
G36*
X855000D02*
X852854Y745181D01*
X851035Y743965D01*
X849819Y742146D01*
X849392Y740000D01*
X849819Y737854D01*
X851035Y736035D01*
X852854Y734819D01*
X855000Y734392D01*
X857146Y734819D01*
X858965Y736035D01*
X860181Y737854D01*
X860608Y740000D01*
X860181Y742146D01*
X858965Y743965D01*
X857146Y745181D01*
X855000Y745608D01*
D02*
G37*
G36*
X840000D02*
X837854Y745181D01*
X836035Y743965D01*
X834819Y742146D01*
X834392Y740000D01*
X834819Y737854D01*
X836035Y736035D01*
X837854Y734819D01*
X840000Y734392D01*
X842146Y734819D01*
X843965Y736035D01*
X845181Y737854D01*
X845608Y740000D01*
X845181Y742146D01*
X843965Y743965D01*
X842146Y745181D01*
X840000Y745608D01*
D02*
G37*
G36*
X825000D02*
X822854Y745181D01*
X821035Y743965D01*
X819819Y742146D01*
X819392Y740000D01*
X819819Y737854D01*
X821035Y736035D01*
X822854Y734819D01*
X825000Y734392D01*
X827146Y734819D01*
X828965Y736035D01*
X830181Y737854D01*
X830608Y740000D01*
X830181Y742146D01*
X828965Y743965D01*
X827146Y745181D01*
X825000Y745608D01*
D02*
G37*
G36*
X810000D02*
X807854Y745181D01*
X806035Y743965D01*
X804819Y742146D01*
X804392Y740000D01*
X804819Y737854D01*
X806035Y736035D01*
X807854Y734819D01*
X810000Y734392D01*
X812146Y734819D01*
X813965Y736035D01*
X815181Y737854D01*
X815608Y740000D01*
X815181Y742146D01*
X813965Y743965D01*
X812146Y745181D01*
X810000Y745608D01*
D02*
G37*
G36*
X581950Y744658D02*
X579804Y744231D01*
X577985Y743015D01*
X576769Y741196D01*
X576342Y739050D01*
X576769Y736904D01*
X577985Y735085D01*
X579804Y733869D01*
X581950Y733442D01*
X584096Y733869D01*
X585915Y735085D01*
X587131Y736904D01*
X587558Y739050D01*
X587131Y741196D01*
X585915Y743015D01*
X584096Y744231D01*
X581950Y744658D01*
D02*
G37*
G36*
X661000Y744608D02*
X658854Y744181D01*
X657035Y742965D01*
X655819Y741146D01*
X655392Y739000D01*
X655819Y736854D01*
X657035Y735035D01*
X658854Y733819D01*
X661000Y733392D01*
X663146Y733819D01*
X664965Y735035D01*
X666181Y736854D01*
X666608Y739000D01*
X666181Y741146D01*
X664965Y742965D01*
X663146Y744181D01*
X661000Y744608D01*
D02*
G37*
G36*
X517000Y742608D02*
X514854Y742181D01*
X513035Y740965D01*
X511819Y739146D01*
X511392Y737000D01*
X511819Y734854D01*
X513035Y733035D01*
X514854Y731819D01*
X517000Y731392D01*
X519146Y731819D01*
X520965Y733035D01*
X522181Y734854D01*
X522608Y737000D01*
X522181Y739146D01*
X520965Y740965D01*
X519146Y742181D01*
X517000Y742608D01*
D02*
G37*
G36*
X1005000Y740608D02*
X1002854Y740181D01*
X1001035Y738965D01*
X999819Y737146D01*
X999392Y735000D01*
X999819Y732854D01*
X1001035Y731035D01*
X1002854Y729819D01*
X1005000Y729392D01*
X1007146Y729819D01*
X1008965Y731035D01*
X1010181Y732854D01*
X1010608Y735000D01*
X1010181Y737146D01*
X1008965Y738965D01*
X1007146Y740181D01*
X1005000Y740608D01*
D02*
G37*
G36*
X965000D02*
X962854Y740181D01*
X961035Y738965D01*
X959819Y737146D01*
X959392Y735000D01*
X959819Y732854D01*
X961035Y731035D01*
X962854Y729819D01*
X965000Y729392D01*
X967146Y729819D01*
X968965Y731035D01*
X970181Y732854D01*
X970608Y735000D01*
X970181Y737146D01*
X968965Y738965D01*
X967146Y740181D01*
X965000Y740608D01*
D02*
G37*
G36*
X735000D02*
X732854Y740181D01*
X731035Y738965D01*
X729819Y737146D01*
X729392Y735000D01*
X729819Y732854D01*
X731035Y731035D01*
X732854Y729819D01*
X735000Y729392D01*
X737146Y729819D01*
X738965Y731035D01*
X740181Y732854D01*
X740608Y735000D01*
X740181Y737146D01*
X738965Y738965D01*
X737146Y740181D01*
X735000Y740608D01*
D02*
G37*
G36*
X715000D02*
X712854Y740181D01*
X711035Y738965D01*
X709819Y737146D01*
X709392Y735000D01*
X709819Y732854D01*
X711035Y731035D01*
X712854Y729819D01*
X715000Y729392D01*
X717146Y729819D01*
X718965Y731035D01*
X720181Y732854D01*
X720608Y735000D01*
X720181Y737146D01*
X718965Y738965D01*
X717146Y740181D01*
X715000Y740608D01*
D02*
G37*
G36*
X483000Y737608D02*
X480854Y737181D01*
X479035Y735965D01*
X477819Y734146D01*
X477392Y732000D01*
X477819Y729854D01*
X479035Y728035D01*
X480854Y726819D01*
X483000Y726392D01*
X485146Y726819D01*
X486965Y728035D01*
X488181Y729854D01*
X488608Y732000D01*
X488181Y734146D01*
X486965Y735965D01*
X485146Y737181D01*
X483000Y737608D01*
D02*
G37*
G36*
X774000Y732608D02*
X771854Y732181D01*
X770035Y730965D01*
X768819Y729146D01*
X768392Y727000D01*
X768819Y724854D01*
X770035Y723035D01*
X771854Y721819D01*
X774000Y721392D01*
X776146Y721819D01*
X777965Y723035D01*
X779181Y724854D01*
X779608Y727000D01*
X779181Y729146D01*
X777965Y730965D01*
X776146Y732181D01*
X774000Y732608D01*
D02*
G37*
G36*
X601000D02*
X598854Y732181D01*
X597035Y730965D01*
X595819Y729146D01*
X595392Y727000D01*
X595819Y724854D01*
X597035Y723035D01*
X598854Y721819D01*
X601000Y721392D01*
X603146Y721819D01*
X604965Y723035D01*
X606181Y724854D01*
X606608Y727000D01*
X606181Y729146D01*
X604965Y730965D01*
X603146Y732181D01*
X601000Y732608D01*
D02*
G37*
G36*
X685000Y730608D02*
X682854Y730181D01*
X681035Y728965D01*
X679819Y727146D01*
X679392Y725000D01*
X679819Y722854D01*
X681035Y721035D01*
X682854Y719819D01*
X685000Y719392D01*
X687146Y719819D01*
X688965Y721035D01*
X690181Y722854D01*
X690608Y725000D01*
X690181Y727146D01*
X688965Y728965D01*
X687146Y730181D01*
X685000Y730608D01*
D02*
G37*
G36*
X380000Y739286D02*
X377389Y738943D01*
X374957Y737935D01*
X372868Y736332D01*
X371265Y734243D01*
X370257Y731811D01*
X369914Y729200D01*
X370257Y726590D01*
X371265Y724157D01*
X372868Y722068D01*
X374957Y720465D01*
X377389Y719457D01*
X380000Y719114D01*
X382611Y719457D01*
X385043Y720465D01*
X387132Y722068D01*
X388735Y724157D01*
X389743Y726590D01*
X390086Y729200D01*
X389743Y731811D01*
X388735Y734243D01*
X387132Y736332D01*
X385043Y737935D01*
X382611Y738943D01*
X380000Y739286D01*
D02*
G37*
G36*
X1005000Y725608D02*
X1002854Y725181D01*
X1001035Y723965D01*
X999819Y722146D01*
X999392Y720000D01*
X999819Y717854D01*
X1001035Y716035D01*
X1002854Y714819D01*
X1005000Y714392D01*
X1007146Y714819D01*
X1008965Y716035D01*
X1010181Y717854D01*
X1010608Y720000D01*
X1010181Y722146D01*
X1008965Y723965D01*
X1007146Y725181D01*
X1005000Y725608D01*
D02*
G37*
G36*
X965000D02*
X962854Y725181D01*
X961035Y723965D01*
X959819Y722146D01*
X959392Y720000D01*
X959819Y717854D01*
X961035Y716035D01*
X962854Y714819D01*
X965000Y714392D01*
X967146Y714819D01*
X968965Y716035D01*
X970181Y717854D01*
X970608Y720000D01*
X970181Y722146D01*
X968965Y723965D01*
X967146Y725181D01*
X965000Y725608D01*
D02*
G37*
G36*
X735000D02*
X732854Y725181D01*
X731035Y723965D01*
X729819Y722146D01*
X729392Y720000D01*
X729819Y717854D01*
X731035Y716035D01*
X732854Y714819D01*
X735000Y714392D01*
X737146Y714819D01*
X738965Y716035D01*
X740181Y717854D01*
X740608Y720000D01*
X740181Y722146D01*
X738965Y723965D01*
X737146Y725181D01*
X735000Y725608D01*
D02*
G37*
G36*
X715000D02*
X712854Y725181D01*
X711035Y723965D01*
X709819Y722146D01*
X709392Y720000D01*
X709819Y717854D01*
X711035Y716035D01*
X712854Y714819D01*
X715000Y714392D01*
X717146Y714819D01*
X718965Y716035D01*
X720181Y717854D01*
X720608Y720000D01*
X720181Y722146D01*
X718965Y723965D01*
X717146Y725181D01*
X715000Y725608D01*
D02*
G37*
G36*
X661000Y719608D02*
X658854Y719181D01*
X657035Y717965D01*
X655819Y716146D01*
X655392Y714000D01*
X655819Y711854D01*
X657035Y710035D01*
X658854Y708819D01*
X661000Y708392D01*
X663146Y708819D01*
X664965Y710035D01*
X666181Y711854D01*
X666608Y714000D01*
X666181Y716146D01*
X664965Y717965D01*
X663146Y719181D01*
X661000Y719608D01*
D02*
G37*
G36*
X601000Y718608D02*
X598854Y718181D01*
X597035Y716965D01*
X595819Y715146D01*
X595392Y713000D01*
X595819Y710854D01*
X597035Y709035D01*
X598854Y707819D01*
X601000Y707392D01*
X603146Y707819D01*
X604965Y709035D01*
X606181Y710854D01*
X606608Y713000D01*
X606181Y715146D01*
X604965Y716965D01*
X603146Y718181D01*
X601000Y718608D01*
D02*
G37*
G36*
X822000Y711608D02*
X819854Y711181D01*
X818035Y709965D01*
X816819Y708146D01*
X816392Y706000D01*
X816819Y703854D01*
X818035Y702035D01*
X819854Y700819D01*
X822000Y700392D01*
X824146Y700819D01*
X825965Y702035D01*
X827181Y703854D01*
X827608Y706000D01*
X827181Y708146D01*
X825965Y709965D01*
X824146Y711181D01*
X822000Y711608D01*
D02*
G37*
G36*
X1005000Y710608D02*
X1002854Y710181D01*
X1001035Y708965D01*
X999819Y707146D01*
X999392Y705000D01*
X999819Y702854D01*
X1001035Y701035D01*
X1002854Y699819D01*
X1005000Y699392D01*
X1007146Y699819D01*
X1008965Y701035D01*
X1010181Y702854D01*
X1010608Y705000D01*
X1010181Y707146D01*
X1008965Y708965D01*
X1007146Y710181D01*
X1005000Y710608D01*
D02*
G37*
G36*
X965000D02*
X962854Y710181D01*
X961035Y708965D01*
X959819Y707146D01*
X959392Y705000D01*
X959819Y702854D01*
X961035Y701035D01*
X962854Y699819D01*
X965000Y699392D01*
X967146Y699819D01*
X968965Y701035D01*
X970181Y702854D01*
X970608Y705000D01*
X970181Y707146D01*
X968965Y708965D01*
X967146Y710181D01*
X965000Y710608D01*
D02*
G37*
G36*
X685000Y705608D02*
X682854Y705181D01*
X681035Y703965D01*
X679819Y702146D01*
X679392Y700000D01*
X679819Y697854D01*
X681035Y696035D01*
X682854Y694819D01*
X685000Y694392D01*
X687146Y694819D01*
X688965Y696035D01*
X690181Y697854D01*
X690608Y700000D01*
X690181Y702146D01*
X688965Y703965D01*
X687146Y705181D01*
X685000Y705608D01*
D02*
G37*
G36*
X354600Y713886D02*
X351990Y713543D01*
X349557Y712535D01*
X347468Y710932D01*
X345865Y708843D01*
X344857Y706411D01*
X344514Y703800D01*
X344857Y701189D01*
X345865Y698757D01*
X347468Y696668D01*
X349557Y695065D01*
X351990Y694057D01*
X354600Y693714D01*
X357211Y694057D01*
X359643Y695065D01*
X361732Y696668D01*
X363335Y698757D01*
X364343Y701189D01*
X364686Y703800D01*
X364343Y706411D01*
X363335Y708843D01*
X361732Y710932D01*
X359643Y712535D01*
X357211Y713543D01*
X354600Y713886D01*
D02*
G37*
G36*
X1005000Y695608D02*
X1002854Y695181D01*
X1001035Y693965D01*
X999819Y692146D01*
X999392Y690000D01*
X999819Y687854D01*
X1001035Y686035D01*
X1002854Y684819D01*
X1005000Y684392D01*
X1007146Y684819D01*
X1008965Y686035D01*
X1010181Y687854D01*
X1010608Y690000D01*
X1010181Y692146D01*
X1008965Y693965D01*
X1007146Y695181D01*
X1005000Y695608D01*
D02*
G37*
G36*
X965000D02*
X962854Y695181D01*
X961035Y693965D01*
X959819Y692146D01*
X959392Y690000D01*
X959819Y687854D01*
X961035Y686035D01*
X962854Y684819D01*
X965000Y684392D01*
X967146Y684819D01*
X968965Y686035D01*
X970181Y687854D01*
X970608Y690000D01*
X970181Y692146D01*
X968965Y693965D01*
X967146Y695181D01*
X965000Y695608D01*
D02*
G37*
G36*
X1005000Y680608D02*
X1002854Y680181D01*
X1001035Y678965D01*
X999819Y677146D01*
X999392Y675000D01*
X999819Y672854D01*
X1001035Y671035D01*
X1002854Y669819D01*
X1005000Y669392D01*
X1007146Y669819D01*
X1008965Y671035D01*
X1010181Y672854D01*
X1010608Y675000D01*
X1010181Y677146D01*
X1008965Y678965D01*
X1007146Y680181D01*
X1005000Y680608D01*
D02*
G37*
G36*
X965000D02*
X962854Y680181D01*
X961035Y678965D01*
X959819Y677146D01*
X959392Y675000D01*
X959819Y672854D01*
X961035Y671035D01*
X962854Y669819D01*
X965000Y669392D01*
X967146Y669819D01*
X968965Y671035D01*
X970181Y672854D01*
X970608Y675000D01*
X970181Y677146D01*
X968965Y678965D01*
X967146Y680181D01*
X965000Y680608D01*
D02*
G37*
G36*
X380000Y688486D02*
X377389Y688143D01*
X374957Y687135D01*
X372868Y685532D01*
X371265Y683443D01*
X370257Y681011D01*
X369914Y678400D01*
X370257Y675789D01*
X371265Y673357D01*
X372868Y671268D01*
X374957Y669665D01*
X377389Y668657D01*
X380000Y668314D01*
X382611Y668657D01*
X385043Y669665D01*
X387132Y671268D01*
X388735Y673357D01*
X389743Y675789D01*
X390086Y678400D01*
X389743Y681011D01*
X388735Y683443D01*
X387132Y685532D01*
X385043Y687135D01*
X382611Y688143D01*
X380000Y688486D01*
D02*
G37*
G36*
X354600D02*
X351990Y688143D01*
X349557Y687135D01*
X347468Y685532D01*
X345865Y683443D01*
X344857Y681011D01*
X344514Y678400D01*
X344857Y675789D01*
X345865Y673357D01*
X347468Y671268D01*
X349557Y669665D01*
X351990Y668657D01*
X354600Y668314D01*
X357211Y668657D01*
X359643Y669665D01*
X361732Y671268D01*
X363335Y673357D01*
X364343Y675789D01*
X364686Y678400D01*
X364343Y681011D01*
X363335Y683443D01*
X361732Y685532D01*
X359643Y687135D01*
X357211Y688143D01*
X354600Y688486D01*
D02*
G37*
G36*
X515000Y676608D02*
X512854Y676181D01*
X511035Y674965D01*
X509819Y673146D01*
X509392Y671000D01*
X509819Y668854D01*
X511035Y667035D01*
X512854Y665819D01*
X515000Y665392D01*
X517146Y665819D01*
X518965Y667035D01*
X520181Y668854D01*
X520608Y671000D01*
X520181Y673146D01*
X518965Y674965D01*
X517146Y676181D01*
X515000Y676608D01*
D02*
G37*
G36*
X735000Y666608D02*
X732854Y666181D01*
X731035Y664965D01*
X729819Y663146D01*
X729392Y661000D01*
X729819Y658854D01*
X731035Y657035D01*
X732854Y655819D01*
X735000Y655392D01*
X737146Y655819D01*
X738965Y657035D01*
X740181Y658854D01*
X740608Y661000D01*
X740181Y663146D01*
X738965Y664965D01*
X737146Y666181D01*
X735000Y666608D01*
D02*
G37*
G36*
X715000D02*
X712854Y666181D01*
X711035Y664965D01*
X709819Y663146D01*
X709392Y661000D01*
X709819Y658854D01*
X711035Y657035D01*
X712854Y655819D01*
X715000Y655392D01*
X717146Y655819D01*
X718965Y657035D01*
X720181Y658854D01*
X720608Y661000D01*
X720181Y663146D01*
X718965Y664965D01*
X717146Y666181D01*
X715000Y666608D01*
D02*
G37*
G36*
X470000D02*
X467854Y666181D01*
X466035Y664965D01*
X464819Y663146D01*
X464392Y661000D01*
X464819Y658854D01*
X466035Y657035D01*
X467854Y655819D01*
X470000Y655392D01*
X472146Y655819D01*
X473965Y657035D01*
X475181Y658854D01*
X475608Y661000D01*
X475181Y663146D01*
X473965Y664965D01*
X472146Y666181D01*
X470000Y666608D01*
D02*
G37*
G36*
X457000D02*
X454854Y666181D01*
X453035Y664965D01*
X451819Y663146D01*
X451392Y661000D01*
X451819Y658854D01*
X453035Y657035D01*
X454854Y655819D01*
X457000Y655392D01*
X459146Y655819D01*
X460965Y657035D01*
X462181Y658854D01*
X462608Y661000D01*
X462181Y663146D01*
X460965Y664965D01*
X459146Y666181D01*
X457000Y666608D01*
D02*
G37*
G36*
X1005000Y665608D02*
X1002854Y665181D01*
X1001035Y663965D01*
X999819Y662146D01*
X999392Y660000D01*
X999819Y657854D01*
X1001035Y656035D01*
X1002854Y654819D01*
X1005000Y654392D01*
X1007146Y654819D01*
X1008965Y656035D01*
X1010181Y657854D01*
X1010608Y660000D01*
X1010181Y662146D01*
X1008965Y663965D01*
X1007146Y665181D01*
X1005000Y665608D01*
D02*
G37*
G36*
X965000D02*
X962854Y665181D01*
X961035Y663965D01*
X959819Y662146D01*
X959392Y660000D01*
X959819Y657854D01*
X961035Y656035D01*
X962854Y654819D01*
X965000Y654392D01*
X967146Y654819D01*
X968965Y656035D01*
X970181Y657854D01*
X970608Y660000D01*
X970181Y662146D01*
X968965Y663965D01*
X967146Y665181D01*
X965000Y665608D01*
D02*
G37*
G36*
X870000Y655608D02*
X867854Y655181D01*
X866035Y653965D01*
X864819Y652146D01*
X864392Y650000D01*
X864819Y647854D01*
X866035Y646035D01*
X867854Y644819D01*
X870000Y644392D01*
X872146Y644819D01*
X873965Y646035D01*
X875181Y647854D01*
X875608Y650000D01*
X875181Y652146D01*
X873965Y653965D01*
X872146Y655181D01*
X870000Y655608D01*
D02*
G37*
G36*
X855000D02*
X852854Y655181D01*
X851035Y653965D01*
X849819Y652146D01*
X849392Y650000D01*
X849819Y647854D01*
X851035Y646035D01*
X852854Y644819D01*
X855000Y644392D01*
X857146Y644819D01*
X858965Y646035D01*
X860181Y647854D01*
X860608Y650000D01*
X860181Y652146D01*
X858965Y653965D01*
X857146Y655181D01*
X855000Y655608D01*
D02*
G37*
G36*
X840000D02*
X837854Y655181D01*
X836035Y653965D01*
X834819Y652146D01*
X834392Y650000D01*
X834819Y647854D01*
X836035Y646035D01*
X837854Y644819D01*
X840000Y644392D01*
X842146Y644819D01*
X843965Y646035D01*
X845181Y647854D01*
X845608Y650000D01*
X845181Y652146D01*
X843965Y653965D01*
X842146Y655181D01*
X840000Y655608D01*
D02*
G37*
G36*
X825000D02*
X822854Y655181D01*
X821035Y653965D01*
X819819Y652146D01*
X819392Y650000D01*
X819819Y647854D01*
X821035Y646035D01*
X822854Y644819D01*
X825000Y644392D01*
X827146Y644819D01*
X828965Y646035D01*
X830181Y647854D01*
X830608Y650000D01*
X830181Y652146D01*
X828965Y653965D01*
X827146Y655181D01*
X825000Y655608D01*
D02*
G37*
G36*
X810000D02*
X807854Y655181D01*
X806035Y653965D01*
X804819Y652146D01*
X804392Y650000D01*
X804819Y647854D01*
X806035Y646035D01*
X807854Y644819D01*
X810000Y644392D01*
X812146Y644819D01*
X813965Y646035D01*
X815181Y647854D01*
X815608Y650000D01*
X815181Y652146D01*
X813965Y653965D01*
X812146Y655181D01*
X810000Y655608D01*
D02*
G37*
G36*
X380000Y663086D02*
X377389Y662743D01*
X374957Y661735D01*
X372868Y660132D01*
X371265Y658043D01*
X370257Y655611D01*
X369914Y653000D01*
X370257Y650389D01*
X371265Y647957D01*
X372868Y645868D01*
X374957Y644265D01*
X377389Y643257D01*
X380000Y642914D01*
X382611Y643257D01*
X385043Y644265D01*
X387132Y645868D01*
X388735Y647957D01*
X389743Y650389D01*
X390086Y653000D01*
X389743Y655611D01*
X388735Y658043D01*
X387132Y660132D01*
X385043Y661735D01*
X382611Y662743D01*
X380000Y663086D01*
D02*
G37*
G36*
X735000Y653608D02*
X732854Y653181D01*
X731035Y651965D01*
X729819Y650146D01*
X729392Y648000D01*
X729819Y645854D01*
X731035Y644035D01*
X732854Y642819D01*
X735000Y642392D01*
X737146Y642819D01*
X738965Y644035D01*
X740181Y645854D01*
X740608Y648000D01*
X740181Y650146D01*
X738965Y651965D01*
X737146Y653181D01*
X735000Y653608D01*
D02*
G37*
G36*
X715000D02*
X712854Y653181D01*
X711035Y651965D01*
X709819Y650146D01*
X709392Y648000D01*
X709819Y645854D01*
X711035Y644035D01*
X712854Y642819D01*
X715000Y642392D01*
X717146Y642819D01*
X718965Y644035D01*
X720181Y645854D01*
X720608Y648000D01*
X720181Y650146D01*
X718965Y651965D01*
X717146Y653181D01*
X715000Y653608D01*
D02*
G37*
G36*
X773000Y652608D02*
X770854Y652181D01*
X769035Y650965D01*
X767819Y649146D01*
X767392Y647000D01*
X767819Y644854D01*
X769035Y643035D01*
X770854Y641819D01*
X773000Y641392D01*
X775146Y641819D01*
X776965Y643035D01*
X778181Y644854D01*
X778608Y647000D01*
X778181Y649146D01*
X776965Y650965D01*
X775146Y652181D01*
X773000Y652608D01*
D02*
G37*
G36*
X940000Y650608D02*
X937854Y650181D01*
X936035Y648965D01*
X934819Y647146D01*
X934392Y645000D01*
X934819Y642854D01*
X936035Y641035D01*
X937854Y639819D01*
X940000Y639392D01*
X942146Y639819D01*
X943965Y641035D01*
X945181Y642854D01*
X945608Y645000D01*
X945181Y647146D01*
X943965Y648965D01*
X942146Y650181D01*
X940000Y650608D01*
D02*
G37*
G36*
X860000Y640608D02*
X857854Y640181D01*
X856035Y638965D01*
X854819Y637146D01*
X854392Y635000D01*
X854819Y632854D01*
X856035Y631035D01*
X857854Y629819D01*
X860000Y629392D01*
X862146Y629819D01*
X863965Y631035D01*
X865181Y632854D01*
X865608Y635000D01*
X865181Y637146D01*
X863965Y638965D01*
X862146Y640181D01*
X860000Y640608D01*
D02*
G37*
G36*
X845000D02*
X842854Y640181D01*
X841035Y638965D01*
X839819Y637146D01*
X839392Y635000D01*
X839819Y632854D01*
X841035Y631035D01*
X842854Y629819D01*
X845000Y629392D01*
X847146Y629819D01*
X848965Y631035D01*
X850181Y632854D01*
X850608Y635000D01*
X850181Y637146D01*
X848965Y638965D01*
X847146Y640181D01*
X845000Y640608D01*
D02*
G37*
G36*
X830000D02*
X827854Y640181D01*
X826035Y638965D01*
X824819Y637146D01*
X824392Y635000D01*
X824819Y632854D01*
X826035Y631035D01*
X827854Y629819D01*
X830000Y629392D01*
X832146Y629819D01*
X833965Y631035D01*
X835181Y632854D01*
X835608Y635000D01*
X835181Y637146D01*
X833965Y638965D01*
X832146Y640181D01*
X830000Y640608D01*
D02*
G37*
G36*
X815000D02*
X812854Y640181D01*
X811035Y638965D01*
X809819Y637146D01*
X809392Y635000D01*
X809819Y632854D01*
X811035Y631035D01*
X812854Y629819D01*
X815000Y629392D01*
X817146Y629819D01*
X818965Y631035D01*
X820181Y632854D01*
X820608Y635000D01*
X820181Y637146D01*
X818965Y638965D01*
X817146Y640181D01*
X815000Y640608D01*
D02*
G37*
G36*
X800000D02*
X797854Y640181D01*
X796035Y638965D01*
X794819Y637146D01*
X794392Y635000D01*
X794819Y632854D01*
X796035Y631035D01*
X797854Y629819D01*
X800000Y629392D01*
X802146Y629819D01*
X803965Y631035D01*
X805181Y632854D01*
X805608Y635000D01*
X805181Y637146D01*
X803965Y638965D01*
X802146Y640181D01*
X800000Y640608D01*
D02*
G37*
G36*
X927000Y638608D02*
X924854Y638181D01*
X923035Y636965D01*
X921819Y635146D01*
X921392Y633000D01*
X921819Y630854D01*
X923035Y629035D01*
X924854Y627819D01*
X927000Y627392D01*
X929146Y627819D01*
X930965Y629035D01*
X932181Y630854D01*
X932608Y633000D01*
X932181Y635146D01*
X930965Y636965D01*
X929146Y638181D01*
X927000Y638608D01*
D02*
G37*
G36*
X880000D02*
X877854Y638181D01*
X876035Y636965D01*
X874819Y635146D01*
X874392Y633000D01*
X874819Y630854D01*
X876035Y629035D01*
X877854Y627819D01*
X880000Y627392D01*
X882146Y627819D01*
X883965Y629035D01*
X885181Y630854D01*
X885608Y633000D01*
X885181Y635146D01*
X883965Y636965D01*
X882146Y638181D01*
X880000Y638608D01*
D02*
G37*
G36*
X735000Y637608D02*
X732854Y637181D01*
X731035Y635965D01*
X729819Y634146D01*
X729392Y632000D01*
X729819Y629854D01*
X731035Y628035D01*
X732854Y626819D01*
X735000Y626392D01*
X737146Y626819D01*
X738965Y628035D01*
X740181Y629854D01*
X740608Y632000D01*
X740181Y634146D01*
X738965Y635965D01*
X737146Y637181D01*
X735000Y637608D01*
D02*
G37*
G36*
X715000D02*
X712854Y637181D01*
X711035Y635965D01*
X709819Y634146D01*
X709392Y632000D01*
X709819Y629854D01*
X711035Y628035D01*
X712854Y626819D01*
X715000Y626392D01*
X717146Y626819D01*
X718965Y628035D01*
X720181Y629854D01*
X720608Y632000D01*
X720181Y634146D01*
X718965Y635965D01*
X717146Y637181D01*
X715000Y637608D01*
D02*
G37*
G36*
X581950Y634658D02*
X579804Y634231D01*
X577985Y633015D01*
X576769Y631196D01*
X576342Y629050D01*
X576769Y626904D01*
X577985Y625085D01*
X579804Y623869D01*
X581950Y623442D01*
X584096Y623869D01*
X585915Y625085D01*
X587131Y626904D01*
X587558Y629050D01*
X587131Y631196D01*
X585915Y633015D01*
X584096Y634231D01*
X581950Y634658D01*
D02*
G37*
G36*
X661000Y634608D02*
X658854Y634181D01*
X657035Y632965D01*
X655819Y631146D01*
X655392Y629000D01*
X655819Y626854D01*
X657035Y625035D01*
X658854Y623819D01*
X661000Y623392D01*
X663146Y623819D01*
X664965Y625035D01*
X666181Y626854D01*
X666608Y629000D01*
X666181Y631146D01*
X664965Y632965D01*
X663146Y634181D01*
X661000Y634608D01*
D02*
G37*
G36*
X380000Y637686D02*
X377389Y637343D01*
X374957Y636335D01*
X372868Y634732D01*
X371265Y632643D01*
X370257Y630210D01*
X369914Y627600D01*
X370257Y624990D01*
X371265Y622557D01*
X372868Y620468D01*
X374957Y618865D01*
X377389Y617857D01*
X380000Y617514D01*
X382611Y617857D01*
X385043Y618865D01*
X387132Y620468D01*
X388735Y622557D01*
X389743Y624990D01*
X390086Y627600D01*
X389743Y630210D01*
X388735Y632643D01*
X387132Y634732D01*
X385043Y636335D01*
X382611Y637343D01*
X380000Y637686D01*
D02*
G37*
G36*
X354600D02*
X351990Y637343D01*
X349557Y636335D01*
X347468Y634732D01*
X345865Y632643D01*
X344857Y630210D01*
X344514Y627600D01*
X344857Y624990D01*
X345865Y622557D01*
X347468Y620468D01*
X349557Y618865D01*
X351990Y617857D01*
X354600Y617514D01*
X357211Y617857D01*
X359643Y618865D01*
X361732Y620468D01*
X363335Y622557D01*
X364343Y624990D01*
X364686Y627600D01*
X364343Y630210D01*
X363335Y632643D01*
X361732Y634732D01*
X359643Y636335D01*
X357211Y637343D01*
X354600Y637686D01*
D02*
G37*
G36*
X774000Y627608D02*
X771854Y627181D01*
X770035Y625965D01*
X768819Y624146D01*
X768392Y622000D01*
X768819Y619854D01*
X770035Y618035D01*
X771854Y616819D01*
X774000Y616392D01*
X776146Y616819D01*
X777965Y618035D01*
X779181Y619854D01*
X779608Y622000D01*
X779181Y624146D01*
X777965Y625965D01*
X776146Y627181D01*
X774000Y627608D01*
D02*
G37*
G36*
X735000Y622608D02*
X732854Y622181D01*
X731035Y620965D01*
X729819Y619146D01*
X729392Y617000D01*
X729819Y614854D01*
X731035Y613035D01*
X732854Y611819D01*
X735000Y611392D01*
X737146Y611819D01*
X738965Y613035D01*
X740181Y614854D01*
X740608Y617000D01*
X740181Y619146D01*
X738965Y620965D01*
X737146Y622181D01*
X735000Y622608D01*
D02*
G37*
G36*
X715000D02*
X712854Y622181D01*
X711035Y620965D01*
X709819Y619146D01*
X709392Y617000D01*
X709819Y614854D01*
X711035Y613035D01*
X712854Y611819D01*
X715000Y611392D01*
X717146Y611819D01*
X718965Y613035D01*
X720181Y614854D01*
X720608Y617000D01*
X720181Y619146D01*
X718965Y620965D01*
X717146Y622181D01*
X715000Y622608D01*
D02*
G37*
G36*
X601000D02*
X598854Y622181D01*
X597035Y620965D01*
X595819Y619146D01*
X595392Y617000D01*
X595819Y614854D01*
X597035Y613035D01*
X598854Y611819D01*
X601000Y611392D01*
X603146Y611819D01*
X604965Y613035D01*
X606181Y614854D01*
X606608Y617000D01*
X606181Y619146D01*
X604965Y620965D01*
X603146Y622181D01*
X601000Y622608D01*
D02*
G37*
G36*
X685000Y620608D02*
X682854Y620181D01*
X681035Y618965D01*
X679819Y617146D01*
X679392Y615000D01*
X679819Y612854D01*
X681035Y611035D01*
X682854Y609819D01*
X685000Y609392D01*
X687146Y609819D01*
X688965Y611035D01*
X690181Y612854D01*
X690608Y615000D01*
X690181Y617146D01*
X688965Y618965D01*
X687146Y620181D01*
X685000Y620608D01*
D02*
G37*
G36*
X661000Y609608D02*
X658854Y609181D01*
X657035Y607965D01*
X655819Y606146D01*
X655392Y604000D01*
X655819Y601854D01*
X657035Y600035D01*
X658854Y598819D01*
X661000Y598392D01*
X663146Y598819D01*
X664965Y600035D01*
X666181Y601854D01*
X666608Y604000D01*
X666181Y606146D01*
X664965Y607965D01*
X663146Y609181D01*
X661000Y609608D01*
D02*
G37*
G36*
X601000D02*
X598854Y609181D01*
X597035Y607965D01*
X595819Y606146D01*
X595392Y604000D01*
X595819Y601854D01*
X597035Y600035D01*
X598854Y598819D01*
X601000Y598392D01*
X603146Y598819D01*
X604965Y600035D01*
X606181Y601854D01*
X606608Y604000D01*
X606181Y606146D01*
X604965Y607965D01*
X603146Y609181D01*
X601000Y609608D01*
D02*
G37*
G36*
X912000Y604608D02*
X909854Y604181D01*
X908035Y602965D01*
X906819Y601146D01*
X906455Y599316D01*
X906365Y598985D01*
X905224Y598364D01*
X904000Y598608D01*
X901854Y598181D01*
X900035Y596965D01*
X898819Y595146D01*
X898392Y593000D01*
X898819Y590854D01*
X900035Y589035D01*
X901854Y587819D01*
X904000Y587392D01*
X906146Y587819D01*
X907965Y589035D01*
X909181Y590854D01*
X909545Y592684D01*
X909635Y593015D01*
X910776Y593636D01*
X912000Y593392D01*
X914146Y593819D01*
X915965Y595035D01*
X917181Y596854D01*
X917608Y599000D01*
X917181Y601146D01*
X915965Y602965D01*
X914146Y604181D01*
X912000Y604608D01*
D02*
G37*
G36*
X822000Y605608D02*
X819854Y605181D01*
X818035Y603965D01*
X816819Y602146D01*
X816392Y600000D01*
X816819Y597854D01*
X818035Y596035D01*
X819854Y594819D01*
X822000Y594392D01*
X824146Y594819D01*
X825965Y596035D01*
X827181Y597854D01*
X827608Y600000D01*
X827181Y602146D01*
X825965Y603965D01*
X824146Y605181D01*
X822000Y605608D01*
D02*
G37*
G36*
X380000Y612286D02*
X377389Y611943D01*
X374957Y610935D01*
X372868Y609332D01*
X371265Y607243D01*
X370257Y604810D01*
X369914Y602200D01*
X370257Y599590D01*
X371265Y597157D01*
X372868Y595068D01*
X374957Y593465D01*
X377389Y592457D01*
X380000Y592114D01*
X382611Y592457D01*
X385043Y593465D01*
X387132Y595068D01*
X388735Y597157D01*
X389743Y599590D01*
X390086Y602200D01*
X389743Y604810D01*
X388735Y607243D01*
X387132Y609332D01*
X385043Y610935D01*
X382611Y611943D01*
X380000Y612286D01*
D02*
G37*
G36*
X354600D02*
X351990Y611943D01*
X349557Y610935D01*
X347468Y609332D01*
X345865Y607243D01*
X344857Y604810D01*
X344514Y602200D01*
X344857Y599590D01*
X345865Y597157D01*
X347468Y595068D01*
X349557Y593465D01*
X351990Y592457D01*
X354600Y592114D01*
X357211Y592457D01*
X359643Y593465D01*
X361732Y595068D01*
X363335Y597157D01*
X364343Y599590D01*
X364686Y602200D01*
X364343Y604810D01*
X363335Y607243D01*
X361732Y609332D01*
X359643Y610935D01*
X357211Y611943D01*
X354600Y612286D01*
D02*
G37*
G36*
X1015000Y612608D02*
X1011737Y612178D01*
X1008696Y610919D01*
X1006085Y608915D01*
X1004081Y606304D01*
X1002822Y603263D01*
X1002392Y600000D01*
X1002822Y596737D01*
X1004081Y593696D01*
X1006085Y591085D01*
X1008696Y589081D01*
X1011737Y587822D01*
X1015000Y587392D01*
X1018263Y587822D01*
X1021304Y589081D01*
X1023915Y591085D01*
X1025919Y593696D01*
X1027178Y596737D01*
X1027608Y600000D01*
X1027178Y603263D01*
X1025919Y606304D01*
X1023915Y608915D01*
X1021304Y610919D01*
X1018263Y612178D01*
X1015000Y612608D01*
D02*
G37*
G36*
X685000Y595608D02*
X682854Y595181D01*
X681035Y593965D01*
X679819Y592146D01*
X679392Y590000D01*
X679819Y587854D01*
X681035Y586035D01*
X682854Y584819D01*
X685000Y584392D01*
X687146Y584819D01*
X688965Y586035D01*
X690181Y587854D01*
X690608Y590000D01*
X690181Y592146D01*
X688965Y593965D01*
X687146Y595181D01*
X685000Y595608D01*
D02*
G37*
G36*
X470000Y585608D02*
X467854Y585181D01*
X466035Y583965D01*
X464819Y582146D01*
X464392Y580000D01*
X464819Y577854D01*
X466035Y576035D01*
X467854Y574819D01*
X470000Y574392D01*
X472146Y574819D01*
X473965Y576035D01*
X475181Y577854D01*
X475608Y580000D01*
X475181Y582146D01*
X473965Y583965D01*
X472146Y585181D01*
X470000Y585608D01*
D02*
G37*
G36*
X662000Y578608D02*
X659854Y578181D01*
X658035Y576965D01*
X656819Y575146D01*
X656392Y573000D01*
X656819Y570854D01*
X658035Y569035D01*
X659854Y567819D01*
X662000Y567392D01*
X664146Y567819D01*
X665965Y569035D01*
X667181Y570854D01*
X667608Y573000D01*
X667181Y575146D01*
X665965Y576965D01*
X664146Y578181D01*
X662000Y578608D01*
D02*
G37*
G36*
X380000Y586886D02*
X377389Y586543D01*
X374957Y585535D01*
X372868Y583932D01*
X371265Y581843D01*
X370257Y579411D01*
X369914Y576800D01*
X370257Y574189D01*
X371265Y571757D01*
X372868Y569668D01*
X374957Y568065D01*
X377389Y567057D01*
X380000Y566714D01*
X382611Y567057D01*
X385043Y568065D01*
X387132Y569668D01*
X388735Y571757D01*
X389743Y574189D01*
X390086Y576800D01*
X389743Y579411D01*
X388735Y581843D01*
X387132Y583932D01*
X385043Y585535D01*
X382611Y586543D01*
X380000Y586886D01*
D02*
G37*
G36*
X354600D02*
X351990Y586543D01*
X349557Y585535D01*
X347468Y583932D01*
X345865Y581843D01*
X344857Y579411D01*
X344514Y576800D01*
X344857Y574189D01*
X345865Y571757D01*
X347468Y569668D01*
X349557Y568065D01*
X351990Y567057D01*
X354600Y566714D01*
X357211Y567057D01*
X359643Y568065D01*
X361732Y569668D01*
X363335Y571757D01*
X364343Y574189D01*
X364686Y576800D01*
X364343Y579411D01*
X363335Y581843D01*
X361732Y583932D01*
X359643Y585535D01*
X357211Y586543D01*
X354600Y586886D01*
D02*
G37*
G36*
X860000Y574608D02*
X857854Y574181D01*
X856035Y572965D01*
X854819Y571146D01*
X854392Y569000D01*
X854819Y566854D01*
X856035Y565035D01*
X857854Y563819D01*
X860000Y563392D01*
X862146Y563819D01*
X863965Y565035D01*
X865181Y566854D01*
X865608Y569000D01*
X865181Y571146D01*
X863965Y572965D01*
X862146Y574181D01*
X860000Y574608D01*
D02*
G37*
G36*
X783000Y570608D02*
X780854Y570181D01*
X779035Y568965D01*
X777819Y567146D01*
X777392Y565000D01*
X777819Y562854D01*
X779035Y561035D01*
X780854Y559819D01*
X783000Y559392D01*
X785146Y559819D01*
X786965Y561035D01*
X788181Y562854D01*
X788608Y565000D01*
X788181Y567146D01*
X786965Y568965D01*
X785146Y570181D01*
X783000Y570608D01*
D02*
G37*
G36*
X580000Y565608D02*
X577854Y565181D01*
X576035Y563965D01*
X574819Y562146D01*
X574392Y560000D01*
X574819Y557854D01*
X576035Y556035D01*
X577854Y554819D01*
X580000Y554392D01*
X582146Y554819D01*
X583965Y556035D01*
X585181Y557854D01*
X585608Y560000D01*
X585181Y562146D01*
X583965Y563965D01*
X582146Y565181D01*
X580000Y565608D01*
D02*
G37*
G36*
X397000Y560608D02*
X394854Y560181D01*
X393035Y558965D01*
X391819Y557146D01*
X391392Y555000D01*
X391819Y552854D01*
X393035Y551035D01*
X394854Y549819D01*
X397000Y549392D01*
X399146Y549819D01*
X400965Y551035D01*
X402181Y552854D01*
X402353Y553717D01*
X403647D01*
X403819Y552854D01*
X405035Y551035D01*
X406854Y549819D01*
X409000Y549392D01*
X411146Y549819D01*
X412965Y551035D01*
X414181Y552854D01*
X414608Y555000D01*
X414181Y557146D01*
X412965Y558965D01*
X411146Y560181D01*
X409000Y560608D01*
X406854Y560181D01*
X405035Y558965D01*
X403819Y557146D01*
X403647Y556283D01*
X402353D01*
X402181Y557146D01*
X400965Y558965D01*
X399146Y560181D01*
X397000Y560608D01*
D02*
G37*
G36*
X890000Y555608D02*
X887854Y555181D01*
X886035Y553965D01*
X884819Y552146D01*
X884392Y550000D01*
X884819Y547854D01*
X886035Y546035D01*
X887854Y544819D01*
X890000Y544392D01*
X892146Y544819D01*
X893965Y546035D01*
X895181Y547854D01*
X895608Y550000D01*
X895181Y552146D01*
X893965Y553965D01*
X892146Y555181D01*
X890000Y555608D01*
D02*
G37*
G36*
X354600Y561486D02*
X351990Y561143D01*
X349557Y560135D01*
X347468Y558532D01*
X345865Y556443D01*
X344857Y554011D01*
X344514Y551400D01*
X344857Y548789D01*
X345865Y546357D01*
X347468Y544268D01*
X349557Y542665D01*
X351990Y541657D01*
X354600Y541314D01*
X357211Y541657D01*
X359643Y542665D01*
X361732Y544268D01*
X363335Y546357D01*
X364343Y548789D01*
X364686Y551400D01*
X364343Y554011D01*
X363335Y556443D01*
X361732Y558532D01*
X359643Y560135D01*
X357211Y561143D01*
X354600Y561486D01*
D02*
G37*
G36*
X890000Y530608D02*
X887854Y530181D01*
X886035Y528965D01*
X884819Y527146D01*
X884392Y525000D01*
X884819Y522854D01*
X886035Y521035D01*
X887854Y519819D01*
X890000Y519392D01*
X892146Y519819D01*
X893965Y521035D01*
X895181Y522854D01*
X895608Y525000D01*
X895181Y527146D01*
X893965Y528965D01*
X892146Y530181D01*
X890000Y530608D01*
D02*
G37*
G36*
X661000Y524608D02*
X658854Y524181D01*
X657035Y522965D01*
X655819Y521146D01*
X655392Y519000D01*
X655819Y516854D01*
X657035Y515035D01*
X658854Y513819D01*
X661000Y513392D01*
X663146Y513819D01*
X664965Y515035D01*
X666181Y516854D01*
X666608Y519000D01*
X666181Y521146D01*
X664965Y522965D01*
X663146Y524181D01*
X661000Y524608D01*
D02*
G37*
G36*
X581000D02*
X578854Y524181D01*
X577035Y522965D01*
X575819Y521146D01*
X575392Y519000D01*
X575819Y516854D01*
X577035Y515035D01*
X578854Y513819D01*
X581000Y513392D01*
X583146Y513819D01*
X584965Y515035D01*
X586181Y516854D01*
X586608Y519000D01*
X586181Y521146D01*
X584965Y522965D01*
X583146Y524181D01*
X581000Y524608D01*
D02*
G37*
G36*
X622000Y523608D02*
X619854Y523181D01*
X618035Y521965D01*
X616819Y520146D01*
X616392Y518000D01*
X616819Y515854D01*
X618035Y514035D01*
X619854Y512819D01*
X622000Y512392D01*
X624146Y512819D01*
X625965Y514035D01*
X627181Y515854D01*
X627608Y518000D01*
X627181Y520146D01*
X625965Y521965D01*
X624146Y523181D01*
X622000Y523608D01*
D02*
G37*
G36*
X1015000Y536408D02*
X1011737Y535978D01*
X1008696Y534719D01*
X1006085Y532715D01*
X1004081Y530104D01*
X1002822Y527063D01*
X1002392Y523800D01*
X1002822Y520537D01*
X1004081Y517496D01*
X1006085Y514885D01*
X1008696Y512881D01*
X1011737Y511622D01*
X1015000Y511192D01*
X1018263Y511622D01*
X1021304Y512881D01*
X1023915Y514885D01*
X1025919Y517496D01*
X1027178Y520537D01*
X1027608Y523800D01*
X1027178Y527063D01*
X1025919Y530104D01*
X1023915Y532715D01*
X1021304Y534719D01*
X1018263Y535978D01*
X1015000Y536408D01*
D02*
G37*
G36*
X601000Y512608D02*
X598854Y512181D01*
X597035Y510965D01*
X595819Y509146D01*
X595392Y507000D01*
X595819Y504854D01*
X597035Y503035D01*
X598854Y501819D01*
X601000Y501392D01*
X603146Y501819D01*
X604965Y503035D01*
X606181Y504854D01*
X606608Y507000D01*
X606181Y509146D01*
X604965Y510965D01*
X603146Y512181D01*
X601000Y512608D01*
D02*
G37*
G36*
X890000Y510608D02*
X887854Y510181D01*
X886035Y508965D01*
X884819Y507146D01*
X884392Y505000D01*
X884819Y502854D01*
X886035Y501035D01*
X887854Y499819D01*
X890000Y499392D01*
X892146Y499819D01*
X893965Y501035D01*
X895181Y502854D01*
X895608Y505000D01*
X895181Y507146D01*
X893965Y508965D01*
X892146Y510181D01*
X890000Y510608D01*
D02*
G37*
G36*
X661000Y499608D02*
X658854Y499181D01*
X657035Y497965D01*
X655819Y496146D01*
X655392Y494000D01*
X655819Y491854D01*
X657035Y490035D01*
X658854Y488819D01*
X661000Y488392D01*
X663146Y488819D01*
X664965Y490035D01*
X666181Y491854D01*
X666608Y494000D01*
X666181Y496146D01*
X664965Y497965D01*
X663146Y499181D01*
X661000Y499608D01*
D02*
G37*
G36*
X601000Y498608D02*
X598854Y498181D01*
X597035Y496965D01*
X595819Y495146D01*
X595392Y493000D01*
X595819Y490854D01*
X597035Y489035D01*
X598854Y487819D01*
X601000Y487392D01*
X603146Y487819D01*
X604965Y489035D01*
X606181Y490854D01*
X606608Y493000D01*
X606181Y495146D01*
X604965Y496965D01*
X603146Y498181D01*
X601000Y498608D01*
D02*
G37*
G36*
X985000Y495608D02*
X982854Y495181D01*
X981035Y493965D01*
X979819Y492146D01*
X979392Y490000D01*
X979819Y487854D01*
X981035Y486035D01*
X982854Y484819D01*
X985000Y484392D01*
X987146Y484819D01*
X988965Y486035D01*
X990181Y487854D01*
X990608Y490000D01*
X990181Y492146D01*
X988965Y493965D01*
X987146Y495181D01*
X985000Y495608D01*
D02*
G37*
G36*
X965000D02*
X962854Y495181D01*
X961035Y493965D01*
X959819Y492146D01*
X959392Y490000D01*
X959819Y487854D01*
X961035Y486035D01*
X962854Y484819D01*
X965000Y484392D01*
X967146Y484819D01*
X968965Y486035D01*
X970181Y487854D01*
X970608Y490000D01*
X970181Y492146D01*
X968965Y493965D01*
X967146Y495181D01*
X965000Y495608D01*
D02*
G37*
G36*
X945000D02*
X942854Y495181D01*
X941035Y493965D01*
X939819Y492146D01*
X939392Y490000D01*
X939819Y487854D01*
X941035Y486035D01*
X942854Y484819D01*
X945000Y484392D01*
X947146Y484819D01*
X948965Y486035D01*
X950181Y487854D01*
X950608Y490000D01*
X950181Y492146D01*
X948965Y493965D01*
X947146Y495181D01*
X945000Y495608D01*
D02*
G37*
G36*
X925000D02*
X922854Y495181D01*
X921035Y493965D01*
X919819Y492146D01*
X919392Y490000D01*
X919819Y487854D01*
X921035Y486035D01*
X922854Y484819D01*
X925000Y484392D01*
X927146Y484819D01*
X928965Y486035D01*
X930181Y487854D01*
X930608Y490000D01*
X930181Y492146D01*
X928965Y493965D01*
X927146Y495181D01*
X925000Y495608D01*
D02*
G37*
G36*
X560000D02*
X557854Y495181D01*
X556035Y493965D01*
X554819Y492146D01*
X554392Y490000D01*
X554819Y487854D01*
X556035Y486035D01*
X557854Y484819D01*
X560000Y484392D01*
X562146Y484819D01*
X563965Y486035D01*
X565181Y487854D01*
X565608Y490000D01*
X565181Y492146D01*
X563965Y493965D01*
X562146Y495181D01*
X560000Y495608D01*
D02*
G37*
G36*
X540000D02*
X537854Y495181D01*
X536035Y493965D01*
X534819Y492146D01*
X534392Y490000D01*
X534819Y487854D01*
X536035Y486035D01*
X537854Y484819D01*
X540000Y484392D01*
X542146Y484819D01*
X543965Y486035D01*
X545181Y487854D01*
X545608Y490000D01*
X545181Y492146D01*
X543965Y493965D01*
X542146Y495181D01*
X540000Y495608D01*
D02*
G37*
G36*
X686000Y485608D02*
X683854Y485181D01*
X682035Y483965D01*
X680819Y482146D01*
X680392Y480000D01*
X680819Y477854D01*
X682035Y476035D01*
X683854Y474819D01*
X686000Y474392D01*
X688146Y474819D01*
X689965Y476035D01*
X691181Y477854D01*
X691608Y480000D01*
X691181Y482146D01*
X689965Y483965D01*
X688146Y485181D01*
X686000Y485608D01*
D02*
G37*
G36*
X1015000Y498308D02*
X1011737Y497878D01*
X1008696Y496619D01*
X1006085Y494615D01*
X1004081Y492004D01*
X1002822Y488963D01*
X1002392Y485700D01*
X1002822Y482437D01*
X1004081Y479396D01*
X1006085Y476785D01*
X1008696Y474781D01*
X1011737Y473522D01*
X1015000Y473092D01*
X1018263Y473522D01*
X1021304Y474781D01*
X1023915Y476785D01*
X1025919Y479396D01*
X1027178Y482437D01*
X1027608Y485700D01*
X1027178Y488963D01*
X1025919Y492004D01*
X1023915Y494615D01*
X1021304Y496619D01*
X1018263Y497878D01*
X1015000Y498308D01*
D02*
G37*
G36*
X890000Y480608D02*
X887854Y480181D01*
X886035Y478965D01*
X884819Y477146D01*
X884392Y475000D01*
X884819Y472854D01*
X886035Y471035D01*
X887854Y469819D01*
X890000Y469392D01*
X892146Y469819D01*
X893965Y471035D01*
X895181Y472854D01*
X895608Y475000D01*
X895181Y477146D01*
X893965Y478965D01*
X892146Y480181D01*
X890000Y480608D01*
D02*
G37*
G36*
X560000Y470608D02*
X557854Y470181D01*
X556035Y468965D01*
X554819Y467146D01*
X554392Y465000D01*
X554819Y462854D01*
X556035Y461035D01*
X557854Y459819D01*
X560000Y459392D01*
X562146Y459819D01*
X563965Y461035D01*
X565181Y462854D01*
X565608Y465000D01*
X565181Y467146D01*
X563965Y468965D01*
X562146Y470181D01*
X560000Y470608D01*
D02*
G37*
G36*
X540000D02*
X537854Y470181D01*
X536035Y468965D01*
X534819Y467146D01*
X534392Y465000D01*
X534819Y462854D01*
X536035Y461035D01*
X537854Y459819D01*
X540000Y459392D01*
X542146Y459819D01*
X543965Y461035D01*
X545181Y462854D01*
X545608Y465000D01*
X545181Y467146D01*
X543965Y468965D01*
X542146Y470181D01*
X540000Y470608D01*
D02*
G37*
G36*
X783000Y469608D02*
X780854Y469181D01*
X779035Y467965D01*
X777819Y466146D01*
X777392Y464000D01*
X777819Y461854D01*
X779035Y460035D01*
X780854Y458819D01*
X783000Y458392D01*
X785146Y458819D01*
X786965Y460035D01*
X788181Y461854D01*
X788608Y464000D01*
X788181Y466146D01*
X786965Y467965D01*
X785146Y469181D01*
X783000Y469608D01*
D02*
G37*
G36*
X738000D02*
X735854Y469181D01*
X734035Y467965D01*
X732819Y466146D01*
X732392Y464000D01*
X732819Y461854D01*
X734035Y460035D01*
X735854Y458819D01*
X738000Y458392D01*
X740146Y458819D01*
X741965Y460035D01*
X743181Y461854D01*
X743608Y464000D01*
X743181Y466146D01*
X741965Y467965D01*
X740146Y469181D01*
X738000Y469608D01*
D02*
G37*
G36*
X959000Y482104D02*
X955867Y481691D01*
X952948Y480482D01*
X950442Y478559D01*
X948518Y476052D01*
X947309Y473133D01*
X946897Y470000D01*
X947309Y466867D01*
X948518Y463948D01*
X950442Y461441D01*
X952948Y459518D01*
X955867Y458309D01*
X959000Y457896D01*
X962133Y458309D01*
X965052Y459518D01*
X967559Y461441D01*
X969482Y463948D01*
X970691Y466867D01*
X971104Y470000D01*
X970691Y473133D01*
X969482Y476052D01*
X967559Y478559D01*
X965052Y480482D01*
X962133Y481691D01*
X959000Y482104D01*
D02*
G37*
G36*
X920000Y455608D02*
X917854Y455181D01*
X916035Y453965D01*
X914819Y452146D01*
X914392Y450000D01*
X914819Y447854D01*
X916035Y446035D01*
X917854Y444819D01*
X920000Y444392D01*
X922146Y444819D01*
X923965Y446035D01*
X925181Y447854D01*
X925608Y450000D01*
X925181Y452146D01*
X923965Y453965D01*
X922146Y455181D01*
X920000Y455608D01*
D02*
G37*
G36*
X900000D02*
X897854Y455181D01*
X896035Y453965D01*
X894819Y452146D01*
X894392Y450000D01*
X894819Y447854D01*
X896035Y446035D01*
X897854Y444819D01*
X900000Y444392D01*
X902146Y444819D01*
X903965Y446035D01*
X905181Y447854D01*
X905608Y450000D01*
X905181Y452146D01*
X903965Y453965D01*
X902146Y455181D01*
X900000Y455608D01*
D02*
G37*
G36*
X885000D02*
X882854Y455181D01*
X881035Y453965D01*
X879819Y452146D01*
X879392Y450000D01*
X879819Y447854D01*
X881035Y446035D01*
X882854Y444819D01*
X885000Y444392D01*
X887146Y444819D01*
X888965Y446035D01*
X890181Y447854D01*
X890608Y450000D01*
X890181Y452146D01*
X888965Y453965D01*
X887146Y455181D01*
X885000Y455608D01*
D02*
G37*
G36*
X865000D02*
X862854Y455181D01*
X861035Y453965D01*
X859819Y452146D01*
X859392Y450000D01*
X859819Y447854D01*
X861035Y446035D01*
X862854Y444819D01*
X865000Y444392D01*
X867146Y444819D01*
X868965Y446035D01*
X870181Y447854D01*
X870608Y450000D01*
X870181Y452146D01*
X868965Y453965D01*
X867146Y455181D01*
X865000Y455608D01*
D02*
G37*
G36*
X850000D02*
X847854Y455181D01*
X846035Y453965D01*
X844819Y452146D01*
X844392Y450000D01*
X844819Y447854D01*
X846035Y446035D01*
X847854Y444819D01*
X850000Y444392D01*
X852146Y444819D01*
X853965Y446035D01*
X855181Y447854D01*
X855608Y450000D01*
X855181Y452146D01*
X853965Y453965D01*
X852146Y455181D01*
X850000Y455608D01*
D02*
G37*
G36*
X830000D02*
X827854Y455181D01*
X826035Y453965D01*
X824819Y452146D01*
X824392Y450000D01*
X824819Y447854D01*
X826035Y446035D01*
X827854Y444819D01*
X830000Y444392D01*
X832146Y444819D01*
X833965Y446035D01*
X835181Y447854D01*
X835608Y450000D01*
X835181Y452146D01*
X833965Y453965D01*
X832146Y455181D01*
X830000Y455608D01*
D02*
G37*
G36*
X815000D02*
X812854Y455181D01*
X811035Y453965D01*
X809819Y452146D01*
X809392Y450000D01*
X809819Y447854D01*
X811035Y446035D01*
X812854Y444819D01*
X815000Y444392D01*
X817146Y444819D01*
X818965Y446035D01*
X820181Y447854D01*
X820608Y450000D01*
X820181Y452146D01*
X818965Y453965D01*
X817146Y455181D01*
X815000Y455608D01*
D02*
G37*
G36*
X687000Y435608D02*
X684854Y435181D01*
X683035Y433965D01*
X681819Y432146D01*
X681392Y430000D01*
X681819Y427854D01*
X683035Y426035D01*
X684854Y424819D01*
X687000Y424392D01*
X689146Y424819D01*
X690965Y426035D01*
X692181Y427854D01*
X692608Y430000D01*
X692181Y432146D01*
X690965Y433965D01*
X689146Y435181D01*
X687000Y435608D01*
D02*
G37*
G36*
X369000Y477084D02*
X364763Y476750D01*
X360631Y475758D01*
X356704Y474132D01*
X353081Y471911D01*
X349849Y469151D01*
X347089Y465919D01*
X344868Y462296D01*
X343242Y458369D01*
X342250Y454237D01*
X341917Y450000D01*
X342250Y445763D01*
X343242Y441631D01*
X344868Y437704D01*
X347089Y434081D01*
X349849Y430849D01*
X353081Y428089D01*
X356704Y425868D01*
X360631Y424242D01*
X364763Y423250D01*
X369000Y422916D01*
X373237Y423250D01*
X377369Y424242D01*
X381296Y425868D01*
X384919Y428089D01*
X388151Y430849D01*
X390911Y434081D01*
X393132Y437704D01*
X394758Y441631D01*
X395750Y445763D01*
X396083Y450000D01*
X395750Y454237D01*
X394758Y458369D01*
X393132Y462296D01*
X390911Y465919D01*
X388151Y469151D01*
X384919Y471911D01*
X381296Y474132D01*
X377369Y475758D01*
X373237Y476750D01*
X369000Y477084D01*
D02*
G37*
G36*
X745000Y424608D02*
X742854Y424181D01*
X741035Y422965D01*
X739819Y421146D01*
X739392Y419000D01*
X739819Y416854D01*
X741035Y415035D01*
X742854Y413819D01*
X745000Y413392D01*
X747146Y413819D01*
X748965Y415035D01*
X750181Y416854D01*
X750608Y419000D01*
X750181Y421146D01*
X748965Y422965D01*
X747146Y424181D01*
X745000Y424608D01*
D02*
G37*
G36*
X645400Y426095D02*
X642528Y425717D01*
X639853Y424608D01*
X637555Y422845D01*
X635792Y420547D01*
X634683Y417872D01*
X634305Y415000D01*
X634683Y412128D01*
X635792Y409453D01*
X637555Y407155D01*
X639853Y405392D01*
X642528Y404283D01*
X645400Y403905D01*
X648272Y404283D01*
X650947Y405392D01*
X653245Y407155D01*
X655008Y409453D01*
X656117Y412128D01*
X656495Y415000D01*
X656117Y417872D01*
X655008Y420547D01*
X653245Y422845D01*
X650947Y424608D01*
X648272Y425717D01*
X645400Y426095D01*
D02*
G37*
G36*
X620000D02*
X617128Y425717D01*
X614453Y424608D01*
X612155Y422845D01*
X610392Y420547D01*
X609283Y417872D01*
X608905Y415000D01*
X609283Y412128D01*
X610392Y409453D01*
X612155Y407155D01*
X614453Y405392D01*
X617128Y404283D01*
X620000Y403905D01*
X622872Y404283D01*
X625547Y405392D01*
X627845Y407155D01*
X629608Y409453D01*
X630717Y412128D01*
X631095Y415000D01*
X630717Y417872D01*
X629608Y420547D01*
X627845Y422845D01*
X625547Y424608D01*
X622872Y425717D01*
X620000Y426095D01*
D02*
G37*
G36*
X737000Y414608D02*
X734854Y414181D01*
X733035Y412965D01*
X731819Y411146D01*
X731392Y409000D01*
X731819Y406854D01*
X733035Y405035D01*
X734854Y403819D01*
X737000Y403392D01*
X739146Y403819D01*
X740965Y405035D01*
X742181Y406854D01*
X742608Y409000D01*
X742181Y411146D01*
X740965Y412965D01*
X739146Y414181D01*
X737000Y414608D01*
D02*
G37*
G36*
X1050000Y452084D02*
X1045763Y451750D01*
X1041631Y450758D01*
X1037704Y449132D01*
X1034081Y446911D01*
X1030849Y444151D01*
X1028089Y440919D01*
X1025869Y437296D01*
X1024242Y433369D01*
X1023250Y429237D01*
X1022916Y425000D01*
X1023250Y420763D01*
X1024242Y416631D01*
X1025869Y412704D01*
X1028089Y409081D01*
X1030849Y405849D01*
X1034081Y403089D01*
X1037704Y400868D01*
X1041631Y399242D01*
X1045763Y398250D01*
X1050000Y397916D01*
X1054237Y398250D01*
X1058369Y399242D01*
X1062296Y400868D01*
X1065919Y403089D01*
X1069151Y405849D01*
X1071911Y409081D01*
X1074132Y412704D01*
X1075758Y416631D01*
X1076750Y420763D01*
X1077084Y425000D01*
X1076750Y429237D01*
X1075758Y433369D01*
X1074132Y437296D01*
X1071911Y440919D01*
X1069151Y444151D01*
X1065919Y446911D01*
X1062296Y449132D01*
X1058369Y450758D01*
X1054237Y451750D01*
X1050000Y452084D01*
D02*
G37*
G36*
X500000D02*
X495763Y451750D01*
X491631Y450758D01*
X487704Y449132D01*
X484081Y446911D01*
X480849Y444151D01*
X478089Y440919D01*
X475868Y437296D01*
X474242Y433369D01*
X473250Y429237D01*
X472916Y425000D01*
X473250Y420763D01*
X474242Y416631D01*
X475868Y412704D01*
X478089Y409081D01*
X480849Y405849D01*
X484081Y403089D01*
X487704Y400868D01*
X491631Y399242D01*
X495763Y398250D01*
X500000Y397916D01*
X504237Y398250D01*
X508369Y399242D01*
X512296Y400868D01*
X515919Y403089D01*
X519151Y405849D01*
X521911Y409081D01*
X524132Y412704D01*
X525758Y416631D01*
X526750Y420763D01*
X527084Y425000D01*
X526750Y429237D01*
X525758Y433369D01*
X524132Y437296D01*
X521911Y440919D01*
X519151Y444151D01*
X515919Y446911D01*
X512296Y449132D01*
X508369Y450758D01*
X504237Y451750D01*
X500000Y452084D01*
D02*
G37*
%LPD*%
D42*
X380000Y830800D02*
D03*
Y856200D02*
D03*
Y881600D02*
D03*
Y780000D02*
D03*
Y703800D02*
D03*
X354600Y653000D02*
D03*
Y729200D02*
D03*
D43*
X380000Y551400D02*
D03*
D44*
X1015000Y561900D02*
D03*
D46*
X960000Y395000D02*
D03*
D47*
X314000Y842000D02*
D03*
X430000Y1020000D02*
D03*
X425000Y425000D02*
D03*
X1050000Y950000D02*
D03*
X985000Y425000D02*
D03*
X855000Y405000D02*
D03*
X835000D02*
D03*
X815000D02*
D03*
X795000D02*
D03*
X875000D02*
D03*
X935000D02*
D03*
X895000D02*
D03*
X915000D02*
D03*
X334000Y945000D02*
D03*
X515000Y645000D02*
D03*
X334000Y888000D02*
D03*
X496000Y772000D02*
D03*
X483000D02*
D03*
X521000Y717000D02*
D03*
X489000Y719000D02*
D03*
X459000Y742000D02*
D03*
X647000Y1007000D02*
D03*
X627000Y1008000D02*
D03*
X578000Y1017000D02*
D03*
X788000Y990000D02*
D03*
X793000Y1038000D02*
D03*
Y1011000D02*
D03*
X486000Y615000D02*
D03*
X466000D02*
D03*
X486000Y627000D02*
D03*
X466000D02*
D03*
X431000Y641000D02*
D03*
X457000Y675000D02*
D03*
X561000Y535000D02*
D03*
X534000D02*
D03*
X440000Y487000D02*
D03*
Y513000D02*
D03*
X483000Y580000D02*
D03*
X441000Y880000D02*
D03*
X904000Y620000D02*
D03*
X610000Y472000D02*
D03*
Y528000D02*
D03*
X580000Y481000D02*
D03*
Y906000D02*
D03*
Y806000D02*
D03*
Y701000D02*
D03*
X579000Y591000D02*
D03*
X610000Y582000D02*
D03*
Y638000D02*
D03*
Y692000D02*
D03*
Y748000D02*
D03*
Y798000D02*
D03*
Y853000D02*
D03*
Y898000D02*
D03*
Y952000D02*
D03*
X334000Y875000D02*
D03*
Y830000D02*
D03*
X856000Y1029000D02*
D03*
X776000Y449000D02*
D03*
X691000D02*
D03*
X720000Y419000D02*
D03*
X855000Y795000D02*
D03*
X840000D02*
D03*
X825000D02*
D03*
X810000D02*
D03*
X770000Y565000D02*
D03*
X745000D02*
D03*
X725000D02*
D03*
X870000Y895000D02*
D03*
X855000D02*
D03*
X810000D02*
D03*
X840000D02*
D03*
X825000D02*
D03*
X810000Y585000D02*
D03*
X825000D02*
D03*
X840000D02*
D03*
X855000D02*
D03*
X870000D02*
D03*
Y695000D02*
D03*
X855000D02*
D03*
X840000D02*
D03*
X825000D02*
D03*
X810000D02*
D03*
X800000Y820000D02*
D03*
X871000Y1026000D02*
D03*
X724000Y409000D02*
D03*
X917000Y615000D02*
D03*
M02*
