G04 Layer_Physical_Order=3*
G04 Layer_Color=16440176*
%FSLAX44Y44*%
%MOMM*%
G71*
G01*
G75*
%ADD27C,0.3000*%
%ADD28C,0.2000*%
%ADD29C,0.7500*%
%ADD37C,2.0000*%
%ADD38C,2.1000*%
%ADD40C,1.6000*%
%ADD42C,1.8000*%
%ADD43C,0.7000*%
G36*
X1095000Y845098D02*
X935098D01*
Y939902D01*
X945000D01*
X946951Y940290D01*
X948605Y941395D01*
X949710Y943049D01*
X950098Y945000D01*
Y1035000D01*
X949710Y1036951D01*
X948605Y1038605D01*
X946951Y1039710D01*
X945000Y1040098D01*
X900000D01*
X898049Y1039710D01*
X896395Y1038605D01*
X895290Y1036951D01*
X894902Y1035000D01*
Y890098D01*
X874675D01*
X874188Y891368D01*
X875181Y892854D01*
X875608Y895000D01*
X875181Y897146D01*
X873965Y898965D01*
X872146Y900181D01*
X870000Y900608D01*
X867854Y900181D01*
X866035Y898965D01*
X864819Y897146D01*
X864392Y895000D01*
X864819Y892854D01*
X865812Y891368D01*
X865325Y890098D01*
X859675D01*
X859188Y891368D01*
X860181Y892854D01*
X860608Y895000D01*
X860181Y897146D01*
X858965Y898965D01*
X857146Y900181D01*
X855000Y900608D01*
X852854Y900181D01*
X851035Y898965D01*
X849819Y897146D01*
X849392Y895000D01*
X849819Y892854D01*
X850812Y891368D01*
X850325Y890098D01*
X844675D01*
X844188Y891368D01*
X845181Y892854D01*
X845608Y895000D01*
X845181Y897146D01*
X843965Y898965D01*
X842146Y900181D01*
X840000Y900608D01*
X837854Y900181D01*
X836035Y898965D01*
X834819Y897146D01*
X834392Y895000D01*
X834819Y892854D01*
X835812Y891368D01*
X835325Y890098D01*
X829675D01*
X829188Y891368D01*
X830181Y892854D01*
X830608Y895000D01*
X830181Y897146D01*
X828965Y898965D01*
X827407Y900006D01*
X827031Y900798D01*
X826895Y901526D01*
X827652Y902659D01*
X828118Y905000D01*
X827652Y907341D01*
X826326Y909326D01*
X819326Y916326D01*
X817341Y917652D01*
X815000Y918118D01*
X741234D01*
X740429Y919099D01*
X740608Y920000D01*
X741332Y920882D01*
X774000D01*
X776341Y921348D01*
X778326Y922674D01*
X779652Y924659D01*
X780117Y927000D01*
X779652Y929341D01*
X778326Y931326D01*
X776341Y932652D01*
X774000Y933118D01*
X741234D01*
X740429Y934099D01*
X740608Y935000D01*
X740516Y935462D01*
X741321Y936444D01*
X765000D01*
X766697Y936667D01*
X768278Y937322D01*
X769636Y938364D01*
X778636Y947364D01*
X779678Y948722D01*
X780333Y950303D01*
X780556Y952000D01*
X780333Y953697D01*
X779678Y955278D01*
X778636Y956636D01*
X777278Y957678D01*
X775697Y958333D01*
X774000Y958556D01*
X772303Y958333D01*
X770722Y957678D01*
X769364Y956636D01*
X762284Y949556D01*
X740972D01*
X740608Y950000D01*
X740181Y952146D01*
X738965Y953965D01*
X737146Y955181D01*
X735000Y955608D01*
X732854Y955181D01*
X731035Y953965D01*
X729819Y952146D01*
X729392Y950000D01*
X729028Y949556D01*
X720972D01*
X720608Y950000D01*
X720181Y952146D01*
X718965Y953965D01*
X717146Y955181D01*
X715000Y955608D01*
X712854Y955181D01*
X711035Y953965D01*
X709819Y952146D01*
X709392Y950000D01*
X709028Y949556D01*
X685000D01*
X683303Y949333D01*
X681722Y948678D01*
X681368Y948406D01*
X680098Y949032D01*
Y1000000D01*
X679710Y1001951D01*
X678605Y1003605D01*
X676951Y1004710D01*
X675000Y1005098D01*
X653230D01*
X652425Y1006080D01*
X652608Y1007000D01*
X652181Y1009146D01*
X650965Y1010965D01*
X649146Y1012181D01*
X647000Y1012608D01*
X644854Y1012181D01*
X643035Y1010965D01*
X641819Y1009146D01*
X641392Y1007000D01*
X641575Y1006080D01*
X640770Y1005098D01*
X633087D01*
X632283Y1006368D01*
X632608Y1008000D01*
X632181Y1010146D01*
X630965Y1011965D01*
X629146Y1013181D01*
X627000Y1013608D01*
X624854Y1013181D01*
X623035Y1011965D01*
X621819Y1010146D01*
X621392Y1008000D01*
X621717Y1006368D01*
X620913Y1005098D01*
X535000D01*
X533049Y1004710D01*
X531395Y1003605D01*
X530290Y1001951D01*
X529902Y1000000D01*
Y540409D01*
X530000Y539916D01*
Y539414D01*
X530153Y539044D01*
X530035Y538965D01*
X528819Y537146D01*
X528392Y535000D01*
X528819Y532854D01*
X530035Y531035D01*
X530153Y530956D01*
X530000Y530586D01*
Y530084D01*
X529902Y529591D01*
Y450000D01*
X530290Y448049D01*
X531395Y446395D01*
X533049Y445290D01*
X535000Y444902D01*
X675000D01*
X676951Y445290D01*
X678605Y446395D01*
X679710Y448049D01*
X680098Y450000D01*
Y475747D01*
X681368Y476133D01*
X681674Y475674D01*
X683659Y474348D01*
X686000Y473882D01*
X688341Y474348D01*
X690326Y475674D01*
X763534Y548882D01*
X773000D01*
X775341Y549348D01*
X777326Y550674D01*
X787326Y560674D01*
X788652Y562659D01*
X789118Y565000D01*
X788652Y567341D01*
X787802Y568613D01*
X788481Y569883D01*
X790466D01*
X795674Y564674D01*
X797659Y563348D01*
X800000Y562882D01*
X851000D01*
X853341Y563348D01*
X855326Y564674D01*
X856652Y566659D01*
X857117Y569000D01*
X856652Y571341D01*
X855326Y573326D01*
X853341Y574652D01*
X851000Y575117D01*
X802534D01*
X797326Y580326D01*
X795341Y581652D01*
X793000Y582118D01*
X680000D01*
X677659Y581652D01*
X675674Y580326D01*
X671999Y576650D01*
X670826Y577136D01*
Y584344D01*
X677862Y591381D01*
X679033Y590756D01*
X678883Y590000D01*
X679348Y587659D01*
X680674Y585674D01*
X682659Y584348D01*
X685000Y583882D01*
X737000D01*
X739341Y584348D01*
X741326Y585674D01*
X743534Y587882D01*
X803900D01*
X804713Y586612D01*
X804392Y585000D01*
X804819Y582854D01*
X806035Y581035D01*
X807854Y579819D01*
X810000Y579392D01*
X812146Y579819D01*
X813965Y581035D01*
X815181Y582854D01*
X815608Y585000D01*
X815287Y586612D01*
X815878Y587665D01*
X815922Y587715D01*
X816191Y587920D01*
X818341Y588348D01*
X819703Y589258D01*
X820619Y588343D01*
X819819Y587146D01*
X819392Y585000D01*
X819819Y582854D01*
X821035Y581035D01*
X822854Y579819D01*
X825000Y579392D01*
X827146Y579819D01*
X828965Y581035D01*
X830181Y582854D01*
X830608Y585000D01*
X830181Y587146D01*
X828965Y588965D01*
X827146Y590181D01*
X825000Y590608D01*
X822854Y590181D01*
X822174Y589727D01*
X821365Y590713D01*
X826326Y595674D01*
X827652Y597659D01*
X828118Y600000D01*
X827652Y602341D01*
X826326Y604326D01*
X824341Y605652D01*
X822000Y606118D01*
X819659Y605652D01*
X817674Y604326D01*
X813466Y600117D01*
X784258D01*
X783772Y601291D01*
X793656Y611175D01*
X873344D01*
X874759Y609759D01*
X876587Y608357D01*
X878716Y607475D01*
X881000Y607174D01*
X883284Y607475D01*
X885413Y608357D01*
X887241Y609759D01*
X888643Y611587D01*
X889525Y613716D01*
X889826Y616000D01*
X889525Y618284D01*
X888643Y620413D01*
X887241Y622241D01*
X885752Y623729D01*
X886238Y624902D01*
X922645D01*
X923244Y623782D01*
X922819Y623146D01*
X922392Y621000D01*
X922819Y618854D01*
X924035Y617035D01*
X925854Y615819D01*
X928000Y615392D01*
X930146Y615819D01*
X931965Y617035D01*
X933181Y618854D01*
X933608Y621000D01*
X933181Y623146D01*
X932463Y624221D01*
X932457Y624233D01*
X932916Y624936D01*
X933295Y625261D01*
X935098Y624902D01*
X1095000D01*
Y380000D01*
X305000D01*
Y1065000D01*
X850471D01*
X850878Y1063730D01*
X849819Y1062146D01*
X849392Y1060000D01*
X849819Y1057854D01*
X851035Y1056035D01*
X852854Y1054819D01*
X855000Y1054392D01*
X857146Y1054819D01*
X858965Y1056035D01*
X860181Y1057854D01*
X860353Y1058717D01*
X861647D01*
X861819Y1057854D01*
X863035Y1056035D01*
X864854Y1054819D01*
X867000Y1054392D01*
X869146Y1054819D01*
X870965Y1056035D01*
X872181Y1057854D01*
X872608Y1060000D01*
X872181Y1062146D01*
X871123Y1063730D01*
X871529Y1065000D01*
X1095000D01*
Y845098D01*
D02*
G37*
G36*
X680415Y926063D02*
X680674Y925674D01*
X682659Y924348D01*
X685000Y923883D01*
X695466D01*
X696674Y922674D01*
X698659Y921348D01*
X701000Y920882D01*
X708668D01*
X709392Y920000D01*
X709572Y919099D01*
X708766Y918118D01*
X692000D01*
X689659Y917652D01*
X687674Y916326D01*
X681368Y910020D01*
X680098Y910546D01*
Y922069D01*
X679710Y924020D01*
X678605Y925674D01*
X678578Y925991D01*
X678824Y926230D01*
X680415Y926063D01*
D02*
G37*
G36*
X817674Y900674D02*
X819659Y899348D01*
X819751Y899330D01*
X820335Y897919D01*
X819819Y897146D01*
X819392Y895000D01*
X819819Y892854D01*
X820812Y891368D01*
X820325Y890098D01*
X814675D01*
X814188Y891368D01*
X815181Y892854D01*
X815608Y895000D01*
X815181Y897146D01*
X813965Y898965D01*
X812146Y900181D01*
X810000Y900608D01*
X807854Y900181D01*
X806035Y898965D01*
X804819Y897146D01*
X804392Y895000D01*
X804819Y892854D01*
X805812Y891368D01*
X805325Y890098D01*
X750000D01*
X748049Y889710D01*
X746395Y888605D01*
X745290Y886951D01*
X744902Y885000D01*
Y850556D01*
X740393D01*
X739374Y851826D01*
X739608Y853000D01*
X739181Y855146D01*
X737965Y856965D01*
X736146Y858181D01*
X734000Y858608D01*
X731854Y858181D01*
X730035Y856965D01*
X728819Y855146D01*
X728392Y853000D01*
X728626Y851826D01*
X727607Y850556D01*
X721393D01*
X720374Y851826D01*
X720608Y853000D01*
X720181Y855146D01*
X718965Y856965D01*
X717146Y858181D01*
X715000Y858608D01*
X712854Y858181D01*
X711035Y856965D01*
X709819Y855146D01*
X709392Y853000D01*
X709626Y851826D01*
X708607Y850556D01*
X682000D01*
X681368Y850473D01*
X680098Y851569D01*
Y899532D01*
X681368Y900211D01*
X682659Y899348D01*
X685000Y898883D01*
X687341Y899348D01*
X689326Y900674D01*
X694534Y905882D01*
X812466D01*
X817674Y900674D01*
D02*
G37*
G36*
X945000Y945000D02*
X930000D01*
Y845000D01*
X910000D01*
X900000Y835000D01*
X894529D01*
X894122Y836270D01*
X895181Y837854D01*
X895608Y840000D01*
X895181Y842146D01*
X893965Y843965D01*
X892146Y845181D01*
X890000Y845608D01*
X887854Y845181D01*
X886035Y843965D01*
X884819Y842146D01*
X884392Y840000D01*
X884819Y837854D01*
X885878Y836270D01*
X885471Y835000D01*
X879529D01*
X879122Y836270D01*
X880181Y837854D01*
X880608Y840000D01*
X880181Y842146D01*
X878965Y843965D01*
X877146Y845181D01*
X875000Y845608D01*
X872854Y845181D01*
X871035Y843965D01*
X869819Y842146D01*
X869392Y840000D01*
X869819Y837854D01*
X870878Y836270D01*
X870471Y835000D01*
X750000D01*
Y885000D01*
X900000D01*
Y1035000D01*
X945000D01*
Y945000D01*
D02*
G37*
G36*
X875760Y831609D02*
X875805Y831574D01*
X875924Y831395D01*
X876578Y830958D01*
X877193Y830469D01*
X877399Y830409D01*
X877578Y830290D01*
X878349Y830137D01*
X879105Y829920D01*
X879318Y829944D01*
X879529Y829902D01*
X885471D01*
X885682Y829944D01*
X885895Y829920D01*
X886651Y830137D01*
X887422Y830290D01*
X887601Y830409D01*
X887807Y830469D01*
X888422Y830958D01*
X889076Y831395D01*
X889195Y831573D01*
X889240Y831609D01*
X889667Y831707D01*
X890333D01*
X890760Y831609D01*
X890805Y831574D01*
X890924Y831395D01*
X891578Y830958D01*
X891786Y830792D01*
X892037Y829472D01*
X891995Y829204D01*
X860791Y798000D01*
X859527Y798125D01*
X858965Y798965D01*
X857146Y800181D01*
X855000Y800608D01*
X852854Y800181D01*
X851035Y798965D01*
X849819Y797146D01*
X849392Y795000D01*
X849819Y792854D01*
X850812Y791368D01*
X850325Y790098D01*
X844675D01*
X844188Y791368D01*
X845181Y792854D01*
X845608Y795000D01*
X845181Y797146D01*
X843965Y798965D01*
X842146Y800181D01*
X840000Y800608D01*
X837854Y800181D01*
X836035Y798965D01*
X834819Y797146D01*
X834392Y795000D01*
X834819Y792854D01*
X835812Y791368D01*
X835325Y790098D01*
X829675D01*
X829188Y791368D01*
X830181Y792854D01*
X830608Y795000D01*
X830181Y797146D01*
X828965Y798965D01*
X827146Y800181D01*
X826553Y800299D01*
X826285Y801647D01*
X826326Y801674D01*
X827652Y803659D01*
X828118Y806000D01*
X827652Y808341D01*
X826326Y810326D01*
X819326Y817326D01*
X817341Y818652D01*
X815000Y819118D01*
X806332D01*
X805608Y820000D01*
X805181Y822146D01*
X803965Y823965D01*
X802146Y825181D01*
X800000Y825608D01*
X797854Y825181D01*
X796035Y823965D01*
X794819Y822146D01*
X794392Y820000D01*
X793668Y819118D01*
X740615D01*
X740053Y820000D01*
X740615Y820882D01*
X774000D01*
X776341Y821348D01*
X778326Y822674D01*
X779652Y824659D01*
X780117Y827000D01*
X779793Y828632D01*
X780688Y829902D01*
X870471D01*
X870682Y829944D01*
X870895Y829920D01*
X871651Y830137D01*
X872422Y830290D01*
X872601Y830409D01*
X872807Y830469D01*
X873422Y830958D01*
X874076Y831395D01*
X874195Y831573D01*
X874240Y831609D01*
X874667Y831707D01*
X875333D01*
X875760Y831609D01*
D02*
G37*
G36*
X675000Y942272D02*
X656364Y923636D01*
X655322Y922278D01*
X654667Y920697D01*
X654444Y919000D01*
X654667Y917303D01*
X655322Y915722D01*
X656364Y914364D01*
X657722Y913322D01*
X659303Y912667D01*
X661000Y912444D01*
X662697Y912667D01*
X664278Y913322D01*
X665636Y914364D01*
X673827Y922555D01*
X675000Y922069D01*
Y846272D01*
X656364Y827636D01*
X655322Y826278D01*
X654667Y824697D01*
X654444Y823000D01*
Y819000D01*
X654667Y817303D01*
X655322Y815722D01*
X656364Y814364D01*
X657722Y813322D01*
X659303Y812667D01*
X661000Y812444D01*
X662697Y812667D01*
X664278Y813322D01*
X665636Y814364D01*
X666678Y815722D01*
X667333Y817303D01*
X667556Y819000D01*
Y820284D01*
X673827Y826555D01*
X675000Y826069D01*
Y794470D01*
X673730Y793791D01*
X673146Y794181D01*
X671000Y794608D01*
X668854Y794181D01*
X667035Y792965D01*
X665819Y791146D01*
X665392Y789000D01*
X665819Y786854D01*
X667035Y785035D01*
X668854Y783819D01*
X671000Y783392D01*
X673146Y783819D01*
X673730Y784209D01*
X675000Y783531D01*
Y737272D01*
X656364Y718636D01*
X655322Y717278D01*
X654667Y715697D01*
X654444Y714000D01*
X654667Y712303D01*
X655322Y710722D01*
X656364Y709364D01*
X657722Y708322D01*
X659303Y707667D01*
X661000Y707444D01*
X662697Y707667D01*
X664278Y708322D01*
X665636Y709364D01*
X673827Y717555D01*
X675000Y717069D01*
Y627272D01*
X656364Y608636D01*
X655322Y607278D01*
X654667Y605697D01*
X654444Y604000D01*
X654667Y602303D01*
X655322Y600722D01*
X656364Y599364D01*
X657722Y598322D01*
X658165Y598139D01*
X658412Y596893D01*
X655759Y594241D01*
X654357Y592413D01*
X653475Y590284D01*
X653175Y588000D01*
Y573000D01*
X653475Y570716D01*
X654357Y568587D01*
X655759Y566759D01*
X657587Y565357D01*
X658522Y564970D01*
X658820Y563472D01*
X617674Y522326D01*
X616348Y520341D01*
X615882Y518000D01*
X616348Y515659D01*
X617674Y513674D01*
X619659Y512348D01*
X622000Y511883D01*
X624341Y512348D01*
X626326Y513674D01*
X673827Y561175D01*
X675000Y560689D01*
Y450000D01*
X535000D01*
Y529591D01*
X536146Y529819D01*
X537965Y531035D01*
X539181Y532854D01*
X539608Y535000D01*
X539181Y537146D01*
X537965Y538965D01*
X536146Y540181D01*
X535000Y540409D01*
Y1000000D01*
X675000D01*
Y942272D01*
D02*
G37*
G36*
X817674Y801674D02*
X819659Y800348D01*
X820552Y800170D01*
X820785Y799589D01*
X820925Y798801D01*
X819819Y797146D01*
X819392Y795000D01*
X819819Y792854D01*
X820812Y791368D01*
X820325Y790098D01*
X814675D01*
X814188Y791368D01*
X815181Y792854D01*
X815608Y795000D01*
X815181Y797146D01*
X813965Y798965D01*
X812146Y800181D01*
X810000Y800608D01*
X807854Y800181D01*
X806035Y798965D01*
X804819Y797146D01*
X804392Y795000D01*
X804819Y792854D01*
X805812Y791368D01*
X805325Y790098D01*
X750000D01*
X748049Y789710D01*
X746395Y788605D01*
X745290Y786951D01*
X744902Y785000D01*
Y749556D01*
X740972D01*
X740608Y750000D01*
X740181Y752146D01*
X738965Y753965D01*
X737146Y755181D01*
X735000Y755608D01*
X732854Y755181D01*
X731035Y753965D01*
X729819Y752146D01*
X729392Y750000D01*
X729028Y749556D01*
X720972D01*
X720608Y750000D01*
X720181Y752146D01*
X718965Y753965D01*
X717146Y755181D01*
X715000Y755608D01*
X712854Y755181D01*
X711035Y753965D01*
X709819Y752146D01*
X709392Y750000D01*
X709028Y749556D01*
X690000D01*
X688303Y749333D01*
X686722Y748678D01*
X685364Y747636D01*
X681271Y743543D01*
X680098Y744029D01*
Y783531D01*
X679952Y784265D01*
X679878Y785010D01*
X679759Y785233D01*
X679710Y785481D01*
X679294Y786104D01*
X678941Y786765D01*
X678745Y786925D01*
X678605Y787135D01*
X677982Y787551D01*
X677403Y788027D01*
X676806Y788346D01*
Y789654D01*
X677403Y789974D01*
X677982Y790449D01*
X678605Y790865D01*
X678745Y791075D01*
X678941Y791235D01*
X679294Y791896D01*
X679710Y792519D01*
X679759Y792767D01*
X679878Y792990D01*
X679952Y793735D01*
X680098Y794470D01*
Y799532D01*
X681368Y800211D01*
X682659Y799348D01*
X685000Y798883D01*
X687341Y799348D01*
X689326Y800674D01*
X695534Y806882D01*
X812466D01*
X817674Y801674D01*
D02*
G37*
G36*
X1095000Y805000D02*
X935000D01*
X875000Y745000D01*
Y735000D01*
X750000D01*
Y785000D01*
X855000D01*
X899902Y829902D01*
X900000D01*
X901627Y830226D01*
X901951Y830290D01*
X903605Y831395D01*
X912112Y839902D01*
X930000D01*
X930492Y840000D01*
X1095000D01*
Y805000D01*
D02*
G37*
G36*
X874902Y699675D02*
X873632Y699188D01*
X872146Y700181D01*
X870000Y700608D01*
X867854Y700181D01*
X866035Y698965D01*
X864819Y697146D01*
X864392Y695000D01*
X864819Y692854D01*
X866035Y691035D01*
X867854Y689819D01*
X870000Y689392D01*
X872146Y689819D01*
X873632Y690812D01*
X874902Y690325D01*
Y685098D01*
X750000D01*
X748049Y684710D01*
X746395Y683605D01*
X745290Y681951D01*
X744902Y680000D01*
Y646556D01*
X741321D01*
X740516Y647538D01*
X740608Y648000D01*
X740181Y650146D01*
X738965Y651965D01*
X737146Y653181D01*
X735000Y653608D01*
X732854Y653181D01*
X731035Y651965D01*
X729819Y650146D01*
X729392Y648000D01*
X729484Y647538D01*
X728679Y646556D01*
X721321D01*
X720516Y647538D01*
X720608Y648000D01*
X720181Y650146D01*
X718965Y651965D01*
X717146Y653181D01*
X715000Y653608D01*
X712854Y653181D01*
X711035Y651965D01*
X709819Y650146D01*
X709392Y648000D01*
X709484Y647538D01*
X708679Y646556D01*
X697000D01*
X695303Y646333D01*
X693722Y645678D01*
X692364Y644636D01*
X681271Y633543D01*
X680098Y634029D01*
Y694532D01*
X681368Y695211D01*
X682659Y694348D01*
X685000Y693883D01*
X687341Y694348D01*
X689326Y695674D01*
X700534Y706882D01*
X812466D01*
X817674Y701674D01*
X819659Y700348D01*
X820552Y700170D01*
X820785Y699589D01*
X820925Y698801D01*
X819819Y697146D01*
X819392Y695000D01*
X819819Y692854D01*
X821035Y691035D01*
X822854Y689819D01*
X825000Y689392D01*
X827146Y689819D01*
X828965Y691035D01*
X830181Y692854D01*
X830608Y695000D01*
X830181Y697146D01*
X828965Y698965D01*
X827146Y700181D01*
X826553Y700299D01*
X826285Y701647D01*
X826326Y701674D01*
X827652Y703659D01*
X828118Y706000D01*
X827652Y708341D01*
X826326Y710326D01*
X819326Y717326D01*
X817341Y718652D01*
X815000Y719118D01*
X741332D01*
X740608Y720000D01*
X740429Y720901D01*
X741234Y721882D01*
X770859D01*
X771659Y721348D01*
X774000Y720882D01*
X776341Y721348D01*
X778326Y722674D01*
X779652Y724659D01*
X780117Y727000D01*
X779793Y728632D01*
X780688Y729902D01*
X874902D01*
Y699675D01*
D02*
G37*
G36*
X709572Y720901D02*
X709392Y720000D01*
X708668Y719118D01*
X698000D01*
X695659Y718652D01*
X693674Y717326D01*
X681368Y705020D01*
X680098Y705546D01*
Y717069D01*
X679710Y719020D01*
X678605Y720674D01*
X678978Y721354D01*
X680311Y721217D01*
X680674Y720674D01*
X682659Y719348D01*
X685000Y718883D01*
X687341Y719348D01*
X689326Y720674D01*
X690534Y721882D01*
X708766D01*
X709572Y720901D01*
D02*
G37*
G36*
X1095000Y630000D02*
X935098D01*
Y791131D01*
X935000Y791624D01*
Y797790D01*
X937112Y799902D01*
X1095000D01*
Y630000D01*
D02*
G37*
G36*
X930000Y791131D02*
Y630000D01*
X774317D01*
X773341Y630652D01*
X771000Y631118D01*
X750000D01*
Y680000D01*
X880000D01*
Y734508D01*
X880098Y735000D01*
Y742888D01*
X928827Y791617D01*
X930000Y791131D01*
D02*
G37*
G36*
X769674Y617674D02*
X771659Y616348D01*
X772179Y616245D01*
X772548Y615029D01*
X770344Y612826D01*
X740353D01*
X739674Y614095D01*
X740181Y614854D01*
X740608Y617000D01*
X740429Y617901D01*
X741234Y618882D01*
X768466D01*
X769674Y617674D01*
D02*
G37*
G36*
X765799Y568613D02*
X764819Y567146D01*
X764392Y565000D01*
X764819Y562854D01*
X765231Y562238D01*
X764632Y561118D01*
X761000D01*
X758659Y560652D01*
X756674Y559326D01*
X681674Y484326D01*
X681368Y483867D01*
X680098Y484253D01*
Y560689D01*
X679710Y562640D01*
X678605Y564294D01*
X678476Y565825D01*
X682534Y569883D01*
X720295D01*
X720799Y568613D01*
X719819Y567146D01*
X719392Y565000D01*
X719819Y562854D01*
X721035Y561035D01*
X722854Y559819D01*
X725000Y559392D01*
X727146Y559819D01*
X728965Y561035D01*
X730181Y562854D01*
X730608Y565000D01*
X730181Y567146D01*
X729201Y568613D01*
X729705Y569883D01*
X740295D01*
X740799Y568613D01*
X739819Y567146D01*
X739392Y565000D01*
X739819Y562854D01*
X741035Y561035D01*
X742854Y559819D01*
X745000Y559392D01*
X747146Y559819D01*
X748965Y561035D01*
X750181Y562854D01*
X750608Y565000D01*
X750181Y567146D01*
X749201Y568613D01*
X749705Y569883D01*
X765295D01*
X765799Y568613D01*
D02*
G37*
%LPC*%
G36*
X793000Y1043608D02*
X790854Y1043181D01*
X789035Y1041965D01*
X787819Y1040146D01*
X787392Y1038000D01*
X787819Y1035854D01*
X789035Y1034035D01*
X790854Y1032819D01*
X793000Y1032392D01*
X795146Y1032819D01*
X796965Y1034035D01*
X798181Y1035854D01*
X798608Y1038000D01*
X798181Y1040146D01*
X796965Y1041965D01*
X795146Y1043181D01*
X793000Y1043608D01*
D02*
G37*
G36*
X728000D02*
X725854Y1043181D01*
X724035Y1041965D01*
X722819Y1040146D01*
X722392Y1038000D01*
X722819Y1035854D01*
X724035Y1034035D01*
X725854Y1032819D01*
X728000Y1032392D01*
X730146Y1032819D01*
X731965Y1034035D01*
X733181Y1035854D01*
X733608Y1038000D01*
X733181Y1040146D01*
X731965Y1041965D01*
X730146Y1043181D01*
X728000Y1043608D01*
D02*
G37*
G36*
X808000Y1043608D02*
X805854Y1043181D01*
X804035Y1041965D01*
X802819Y1040146D01*
X802392Y1038000D01*
X802819Y1035854D01*
X804035Y1034035D01*
X805854Y1032819D01*
X808000Y1032392D01*
X810146Y1032819D01*
X811965Y1034035D01*
X813181Y1035854D01*
X813608Y1038000D01*
X813181Y1040146D01*
X811965Y1041965D01*
X810146Y1043181D01*
X808000Y1043608D01*
D02*
G37*
G36*
X856000Y1034608D02*
X853854Y1034181D01*
X852035Y1032965D01*
X850819Y1031146D01*
X850392Y1029000D01*
X850819Y1026854D01*
X852035Y1025035D01*
X853854Y1023819D01*
X856000Y1023392D01*
X858146Y1023819D01*
X859965Y1025035D01*
X861181Y1026854D01*
X861608Y1029000D01*
X861181Y1031146D01*
X859965Y1032965D01*
X858146Y1034181D01*
X856000Y1034608D01*
D02*
G37*
G36*
X960000Y1031608D02*
X957854Y1031181D01*
X956035Y1029965D01*
X954819Y1028146D01*
X954392Y1026000D01*
X954819Y1023854D01*
X956035Y1022035D01*
X957854Y1020819D01*
X960000Y1020392D01*
X962146Y1020819D01*
X963965Y1022035D01*
X965181Y1023854D01*
X965608Y1026000D01*
X965181Y1028146D01*
X963965Y1029965D01*
X962146Y1031181D01*
X960000Y1031608D01*
D02*
G37*
G36*
X871000Y1031608D02*
X868854Y1031181D01*
X867035Y1029965D01*
X865819Y1028146D01*
X865392Y1026000D01*
X865819Y1023854D01*
X867035Y1022035D01*
X868854Y1020819D01*
X871000Y1020392D01*
X873146Y1020819D01*
X874965Y1022035D01*
X876181Y1023854D01*
X876608Y1026000D01*
X876181Y1028146D01*
X874965Y1029965D01*
X873146Y1031181D01*
X871000Y1031608D01*
D02*
G37*
G36*
X1015000Y1030608D02*
X1012854Y1030181D01*
X1011035Y1028965D01*
X1009819Y1027146D01*
X1009392Y1025000D01*
X1009819Y1022854D01*
X1011035Y1021035D01*
X1012854Y1019819D01*
X1015000Y1019392D01*
X1017146Y1019819D01*
X1018965Y1021035D01*
X1020181Y1022854D01*
X1020608Y1025000D01*
X1020181Y1027146D01*
X1018965Y1028965D01*
X1017146Y1030181D01*
X1015000Y1030608D01*
D02*
G37*
G36*
X995000D02*
X992854Y1030181D01*
X991035Y1028965D01*
X989819Y1027146D01*
X989392Y1025000D01*
X989819Y1022854D01*
X991035Y1021035D01*
X992854Y1019819D01*
X995000Y1019392D01*
X997146Y1019819D01*
X998965Y1021035D01*
X1000181Y1022854D01*
X1000608Y1025000D01*
X1000181Y1027146D01*
X998965Y1028965D01*
X997146Y1030181D01*
X995000Y1030608D01*
D02*
G37*
G36*
X430000Y1025608D02*
X427854Y1025181D01*
X426035Y1023965D01*
X424819Y1022146D01*
X424392Y1020000D01*
X424819Y1017854D01*
X426035Y1016035D01*
X427854Y1014819D01*
X430000Y1014392D01*
X432146Y1014819D01*
X433965Y1016035D01*
X435181Y1017854D01*
X435608Y1020000D01*
X435181Y1022146D01*
X433965Y1023965D01*
X432146Y1025181D01*
X430000Y1025608D01*
D02*
G37*
G36*
X578000Y1022608D02*
X575854Y1022181D01*
X574035Y1020965D01*
X572819Y1019146D01*
X572392Y1017000D01*
X572819Y1014854D01*
X574035Y1013035D01*
X575854Y1011819D01*
X578000Y1011392D01*
X580146Y1011819D01*
X581965Y1013035D01*
X583181Y1014854D01*
X583608Y1017000D01*
X583181Y1019146D01*
X581965Y1020965D01*
X580146Y1022181D01*
X578000Y1022608D01*
D02*
G37*
G36*
X793000Y1016608D02*
X790854Y1016181D01*
X789035Y1014965D01*
X787819Y1013146D01*
X787392Y1011000D01*
X787819Y1008854D01*
X789035Y1007035D01*
X790854Y1005819D01*
X793000Y1005392D01*
X795146Y1005819D01*
X796965Y1007035D01*
X798181Y1008854D01*
X798608Y1011000D01*
X798181Y1013146D01*
X796965Y1014965D01*
X795146Y1016181D01*
X793000Y1016608D01*
D02*
G37*
G36*
X1015000Y1011608D02*
X1012854Y1011181D01*
X1011035Y1009965D01*
X1009819Y1008146D01*
X1009392Y1006000D01*
X1009819Y1003854D01*
X1011035Y1002035D01*
X1012854Y1000819D01*
X1015000Y1000392D01*
X1017146Y1000819D01*
X1018965Y1002035D01*
X1020181Y1003854D01*
X1020608Y1006000D01*
X1020181Y1008146D01*
X1018965Y1009965D01*
X1017146Y1011181D01*
X1015000Y1011608D01*
D02*
G37*
G36*
X696000D02*
X693854Y1011181D01*
X692035Y1009965D01*
X690819Y1008146D01*
X690392Y1006000D01*
X690819Y1003854D01*
X692035Y1002035D01*
X693854Y1000819D01*
X696000Y1000392D01*
X698146Y1000819D01*
X699965Y1002035D01*
X701181Y1003854D01*
X701608Y1006000D01*
X701181Y1008146D01*
X699965Y1009965D01*
X698146Y1011181D01*
X696000Y1011608D01*
D02*
G37*
G36*
X995000Y1010608D02*
X992854Y1010181D01*
X991035Y1008965D01*
X989819Y1007146D01*
X989392Y1005000D01*
X989819Y1002854D01*
X991035Y1001035D01*
X992854Y999819D01*
X995000Y999392D01*
X997146Y999819D01*
X998965Y1001035D01*
X1000181Y1002854D01*
X1000608Y1005000D01*
X1000181Y1007146D01*
X998965Y1008965D01*
X997146Y1010181D01*
X995000Y1010608D01*
D02*
G37*
G36*
X855000Y1010608D02*
X852854Y1010181D01*
X851035Y1008965D01*
X849819Y1007146D01*
X849392Y1005000D01*
X849819Y1002854D01*
X851035Y1001035D01*
X852854Y999819D01*
X855000Y999392D01*
X857146Y999819D01*
X858965Y1001035D01*
X860181Y1002854D01*
X860608Y1005000D01*
X860181Y1007146D01*
X858965Y1008965D01*
X857146Y1010181D01*
X855000Y1010608D01*
D02*
G37*
G36*
X1050000Y1047084D02*
X1045763Y1046750D01*
X1041631Y1045758D01*
X1037704Y1044132D01*
X1034081Y1041911D01*
X1030849Y1039151D01*
X1028089Y1035919D01*
X1025869Y1032296D01*
X1024242Y1028369D01*
X1023250Y1024237D01*
X1022916Y1020000D01*
X1023250Y1015763D01*
X1024242Y1011631D01*
X1025869Y1007704D01*
X1028089Y1004081D01*
X1030849Y1000849D01*
X1034081Y998089D01*
X1037704Y995868D01*
X1041631Y994242D01*
X1045763Y993250D01*
X1050000Y992916D01*
X1054237Y993250D01*
X1058369Y994242D01*
X1062296Y995868D01*
X1065919Y998089D01*
X1069151Y1000849D01*
X1071911Y1004081D01*
X1074132Y1007704D01*
X1075758Y1011631D01*
X1076750Y1015763D01*
X1077084Y1020000D01*
X1076750Y1024237D01*
X1075758Y1028369D01*
X1074132Y1032296D01*
X1071911Y1035919D01*
X1069151Y1039151D01*
X1065919Y1041911D01*
X1062296Y1044132D01*
X1058369Y1045758D01*
X1054237Y1046750D01*
X1050000Y1047084D01*
D02*
G37*
G36*
X500000D02*
X495763Y1046750D01*
X491631Y1045758D01*
X487704Y1044132D01*
X484081Y1041911D01*
X480849Y1039151D01*
X478089Y1035919D01*
X475868Y1032296D01*
X474242Y1028369D01*
X473250Y1024237D01*
X472916Y1020000D01*
X473250Y1015763D01*
X474242Y1011631D01*
X475868Y1007704D01*
X478089Y1004081D01*
X480849Y1000849D01*
X484081Y998089D01*
X487704Y995868D01*
X491631Y994242D01*
X495763Y993250D01*
X500000Y992916D01*
X504237Y993250D01*
X508369Y994242D01*
X512296Y995868D01*
X515919Y998089D01*
X519151Y1000849D01*
X521911Y1004081D01*
X524132Y1007704D01*
X525758Y1011631D01*
X526750Y1015763D01*
X527084Y1020000D01*
X526750Y1024237D01*
X525758Y1028369D01*
X524132Y1032296D01*
X521911Y1035919D01*
X519151Y1039151D01*
X515919Y1041911D01*
X512296Y1044132D01*
X508369Y1045758D01*
X504237Y1046750D01*
X500000Y1047084D01*
D02*
G37*
G36*
X788000Y995608D02*
X785854Y995181D01*
X784035Y993965D01*
X782819Y992146D01*
X782392Y990000D01*
X782819Y987854D01*
X784035Y986035D01*
X785854Y984819D01*
X788000Y984392D01*
X790146Y984819D01*
X791965Y986035D01*
X793181Y987854D01*
X793608Y990000D01*
X793181Y992146D01*
X791965Y993965D01*
X790146Y995181D01*
X788000Y995608D01*
D02*
G37*
G36*
X369000Y1037084D02*
X364763Y1036750D01*
X360631Y1035758D01*
X356704Y1034132D01*
X353081Y1031911D01*
X349849Y1029151D01*
X347089Y1025919D01*
X344868Y1022296D01*
X343242Y1018369D01*
X342250Y1014237D01*
X341917Y1010000D01*
X342250Y1005763D01*
X343242Y1001631D01*
X344868Y997704D01*
X347089Y994081D01*
X349849Y990849D01*
X353081Y988089D01*
X356704Y985868D01*
X360631Y984242D01*
X364763Y983250D01*
X369000Y982916D01*
X373237Y983250D01*
X377369Y984242D01*
X381296Y985868D01*
X384919Y988089D01*
X388151Y990849D01*
X390911Y994081D01*
X393132Y997704D01*
X394758Y1001631D01*
X395750Y1005763D01*
X396083Y1010000D01*
X395750Y1014237D01*
X394758Y1018369D01*
X393132Y1022296D01*
X390911Y1025919D01*
X388151Y1029151D01*
X384919Y1031911D01*
X381296Y1034132D01*
X377369Y1035758D01*
X373237Y1036750D01*
X369000Y1037084D01*
D02*
G37*
G36*
X1035000Y985608D02*
X1032854Y985181D01*
X1031035Y983965D01*
X1029819Y982146D01*
X1029392Y980000D01*
X1029819Y977854D01*
X1031035Y976035D01*
X1032854Y974819D01*
X1035000Y974392D01*
X1037146Y974819D01*
X1038965Y976035D01*
X1040181Y977854D01*
X1040608Y980000D01*
X1040181Y982146D01*
X1038965Y983965D01*
X1037146Y985181D01*
X1035000Y985608D01*
D02*
G37*
G36*
X1015000D02*
X1012854Y985181D01*
X1011035Y983965D01*
X1009819Y982146D01*
X1009392Y980000D01*
X1009819Y977854D01*
X1011035Y976035D01*
X1012854Y974819D01*
X1015000Y974392D01*
X1017146Y974819D01*
X1018965Y976035D01*
X1020181Y977854D01*
X1020608Y980000D01*
X1020181Y982146D01*
X1018965Y983965D01*
X1017146Y985181D01*
X1015000Y985608D01*
D02*
G37*
G36*
X995000D02*
X992854Y985181D01*
X991035Y983965D01*
X989819Y982146D01*
X989392Y980000D01*
X989819Y977854D01*
X991035Y976035D01*
X992854Y974819D01*
X995000Y974392D01*
X997146Y974819D01*
X998965Y976035D01*
X1000181Y977854D01*
X1000608Y980000D01*
X1000181Y982146D01*
X998965Y983965D01*
X997146Y985181D01*
X995000Y985608D01*
D02*
G37*
G36*
X960000D02*
X957854Y985181D01*
X956035Y983965D01*
X954819Y982146D01*
X954392Y980000D01*
X954819Y977854D01*
X956035Y976035D01*
X957854Y974819D01*
X960000Y974392D01*
X962146Y974819D01*
X963965Y976035D01*
X965181Y977854D01*
X965608Y980000D01*
X965181Y982146D01*
X963965Y983965D01*
X962146Y985181D01*
X960000Y985608D01*
D02*
G37*
G36*
X735000Y970608D02*
X732854Y970181D01*
X731035Y968965D01*
X729819Y967146D01*
X729392Y965000D01*
X729819Y962854D01*
X731035Y961035D01*
X732854Y959819D01*
X735000Y959392D01*
X737146Y959819D01*
X738965Y961035D01*
X740181Y962854D01*
X740608Y965000D01*
X740181Y967146D01*
X738965Y968965D01*
X737146Y970181D01*
X735000Y970608D01*
D02*
G37*
G36*
X715000D02*
X712854Y970181D01*
X711035Y968965D01*
X709819Y967146D01*
X709392Y965000D01*
X709819Y962854D01*
X711035Y961035D01*
X712854Y959819D01*
X715000Y959392D01*
X717146Y959819D01*
X718965Y961035D01*
X720181Y962854D01*
X720608Y965000D01*
X720181Y967146D01*
X718965Y968965D01*
X717146Y970181D01*
X715000Y970608D01*
D02*
G37*
G36*
X1035000Y960608D02*
X1032854Y960181D01*
X1031035Y958965D01*
X1029819Y957146D01*
X1029392Y955000D01*
X1029819Y952854D01*
X1031035Y951035D01*
X1032854Y949819D01*
X1035000Y949392D01*
X1037146Y949819D01*
X1038965Y951035D01*
X1040181Y952854D01*
X1040608Y955000D01*
X1040181Y957146D01*
X1038965Y958965D01*
X1037146Y960181D01*
X1035000Y960608D01*
D02*
G37*
G36*
X1015000D02*
X1012854Y960181D01*
X1011035Y958965D01*
X1009819Y957146D01*
X1009392Y955000D01*
X1009819Y952854D01*
X1011035Y951035D01*
X1012854Y949819D01*
X1015000Y949392D01*
X1017146Y949819D01*
X1018965Y951035D01*
X1020181Y952854D01*
X1020608Y955000D01*
X1020181Y957146D01*
X1018965Y958965D01*
X1017146Y960181D01*
X1015000Y960608D01*
D02*
G37*
G36*
X995000D02*
X992854Y960181D01*
X991035Y958965D01*
X989819Y957146D01*
X989392Y955000D01*
X989819Y952854D01*
X991035Y951035D01*
X992854Y949819D01*
X995000Y949392D01*
X997146Y949819D01*
X998965Y951035D01*
X1000181Y952854D01*
X1000608Y955000D01*
X1000181Y957146D01*
X998965Y958965D01*
X997146Y960181D01*
X995000Y960608D01*
D02*
G37*
G36*
X960000D02*
X957854Y960181D01*
X956035Y958965D01*
X954819Y957146D01*
X954392Y955000D01*
X954819Y952854D01*
X956035Y951035D01*
X957854Y949819D01*
X960000Y949392D01*
X962146Y949819D01*
X963965Y951035D01*
X965181Y952854D01*
X965608Y955000D01*
X965181Y957146D01*
X963965Y958965D01*
X962146Y960181D01*
X960000Y960608D01*
D02*
G37*
G36*
X870000D02*
X867854Y960181D01*
X866035Y958965D01*
X864819Y957146D01*
X864392Y955000D01*
X864819Y952854D01*
X866035Y951035D01*
X867854Y949819D01*
X870000Y949392D01*
X872146Y949819D01*
X873965Y951035D01*
X875181Y952854D01*
X875608Y955000D01*
X875181Y957146D01*
X873965Y958965D01*
X872146Y960181D01*
X870000Y960608D01*
D02*
G37*
G36*
X855000D02*
X852854Y960181D01*
X851035Y958965D01*
X849819Y957146D01*
X849392Y955000D01*
X849819Y952854D01*
X851035Y951035D01*
X852854Y949819D01*
X855000Y949392D01*
X857146Y949819D01*
X858965Y951035D01*
X860181Y952854D01*
X860608Y955000D01*
X860181Y957146D01*
X858965Y958965D01*
X857146Y960181D01*
X855000Y960608D01*
D02*
G37*
G36*
X840000D02*
X837854Y960181D01*
X836035Y958965D01*
X834819Y957146D01*
X834392Y955000D01*
X834819Y952854D01*
X836035Y951035D01*
X837854Y949819D01*
X840000Y949392D01*
X842146Y949819D01*
X843965Y951035D01*
X845181Y952854D01*
X845608Y955000D01*
X845181Y957146D01*
X843965Y958965D01*
X842146Y960181D01*
X840000Y960608D01*
D02*
G37*
G36*
X825000D02*
X822854Y960181D01*
X821035Y958965D01*
X819819Y957146D01*
X819392Y955000D01*
X819819Y952854D01*
X821035Y951035D01*
X822854Y949819D01*
X825000Y949392D01*
X827146Y949819D01*
X828965Y951035D01*
X830181Y952854D01*
X830608Y955000D01*
X830181Y957146D01*
X828965Y958965D01*
X827146Y960181D01*
X825000Y960608D01*
D02*
G37*
G36*
X810000D02*
X807854Y960181D01*
X806035Y958965D01*
X804819Y957146D01*
X804392Y955000D01*
X804819Y952854D01*
X806035Y951035D01*
X807854Y949819D01*
X810000Y949392D01*
X812146Y949819D01*
X813965Y951035D01*
X815181Y952854D01*
X815608Y955000D01*
X815181Y957146D01*
X813965Y958965D01*
X812146Y960181D01*
X810000Y960608D01*
D02*
G37*
G36*
X1050000Y955608D02*
X1047854Y955181D01*
X1046035Y953965D01*
X1044819Y952146D01*
X1044392Y950000D01*
X1044819Y947854D01*
X1046035Y946035D01*
X1047854Y944819D01*
X1050000Y944392D01*
X1052146Y944819D01*
X1053965Y946035D01*
X1055181Y947854D01*
X1055608Y950000D01*
X1055181Y952146D01*
X1053965Y953965D01*
X1052146Y955181D01*
X1050000Y955608D01*
D02*
G37*
G36*
X334000Y950608D02*
X331854Y950181D01*
X330035Y948965D01*
X328819Y947146D01*
X328392Y945000D01*
X328819Y942854D01*
X330035Y941035D01*
X331854Y939819D01*
X334000Y939392D01*
X336146Y939819D01*
X337965Y941035D01*
X339181Y942854D01*
X339608Y945000D01*
X339181Y947146D01*
X337965Y948965D01*
X336146Y950181D01*
X334000Y950608D01*
D02*
G37*
G36*
X870000Y945608D02*
X867854Y945181D01*
X866035Y943965D01*
X864819Y942146D01*
X864392Y940000D01*
X864819Y937854D01*
X866035Y936035D01*
X867854Y934819D01*
X870000Y934392D01*
X872146Y934819D01*
X873965Y936035D01*
X875181Y937854D01*
X875608Y940000D01*
X875181Y942146D01*
X873965Y943965D01*
X872146Y945181D01*
X870000Y945608D01*
D02*
G37*
G36*
X855000D02*
X852854Y945181D01*
X851035Y943965D01*
X849819Y942146D01*
X849392Y940000D01*
X849819Y937854D01*
X851035Y936035D01*
X852854Y934819D01*
X855000Y934392D01*
X857146Y934819D01*
X858965Y936035D01*
X860181Y937854D01*
X860608Y940000D01*
X860181Y942146D01*
X858965Y943965D01*
X857146Y945181D01*
X855000Y945608D01*
D02*
G37*
G36*
X840000D02*
X837854Y945181D01*
X836035Y943965D01*
X834819Y942146D01*
X834392Y940000D01*
X834819Y937854D01*
X836035Y936035D01*
X837854Y934819D01*
X840000Y934392D01*
X842146Y934819D01*
X843965Y936035D01*
X845181Y937854D01*
X845608Y940000D01*
X845181Y942146D01*
X843965Y943965D01*
X842146Y945181D01*
X840000Y945608D01*
D02*
G37*
G36*
X825000D02*
X822854Y945181D01*
X821035Y943965D01*
X819819Y942146D01*
X819392Y940000D01*
X819819Y937854D01*
X821035Y936035D01*
X822854Y934819D01*
X825000Y934392D01*
X827146Y934819D01*
X828965Y936035D01*
X830181Y937854D01*
X830608Y940000D01*
X830181Y942146D01*
X828965Y943965D01*
X827146Y945181D01*
X825000Y945608D01*
D02*
G37*
G36*
X810000D02*
X807854Y945181D01*
X806035Y943965D01*
X804819Y942146D01*
X804392Y940000D01*
X804819Y937854D01*
X806035Y936035D01*
X807854Y934819D01*
X810000Y934392D01*
X812146Y934819D01*
X813965Y936035D01*
X815181Y937854D01*
X815608Y940000D01*
X815181Y942146D01*
X813965Y943965D01*
X812146Y945181D01*
X810000Y945608D01*
D02*
G37*
G36*
X371000D02*
X368854Y945181D01*
X367035Y943965D01*
X365819Y942146D01*
X365392Y940000D01*
X365819Y937854D01*
X367035Y936035D01*
X368854Y934819D01*
X371000Y934392D01*
X373146Y934819D01*
X374965Y936035D01*
X376181Y937854D01*
X376608Y940000D01*
X376181Y942146D01*
X374965Y943965D01*
X373146Y945181D01*
X371000Y945608D01*
D02*
G37*
G36*
X380000Y917086D02*
X377389Y916743D01*
X374957Y915735D01*
X372868Y914132D01*
X371265Y912043D01*
X370257Y909611D01*
X369914Y907000D01*
X370257Y904389D01*
X371265Y901957D01*
X372868Y899868D01*
X374957Y898265D01*
X377389Y897257D01*
X380000Y896914D01*
X382611Y897257D01*
X385043Y898265D01*
X387132Y899868D01*
X388735Y901957D01*
X389743Y904389D01*
X390086Y907000D01*
X389743Y909611D01*
X388735Y912043D01*
X387132Y914132D01*
X385043Y915735D01*
X382611Y916743D01*
X380000Y917086D01*
D02*
G37*
G36*
X354600D02*
X351990Y916743D01*
X349557Y915735D01*
X347468Y914132D01*
X345865Y912043D01*
X344857Y909611D01*
X344514Y907000D01*
X344857Y904389D01*
X345865Y901957D01*
X347468Y899868D01*
X349557Y898265D01*
X351990Y897257D01*
X354600Y896914D01*
X357211Y897257D01*
X359643Y898265D01*
X361732Y899868D01*
X363335Y901957D01*
X364343Y904389D01*
X364686Y907000D01*
X364343Y909611D01*
X363335Y912043D01*
X361732Y914132D01*
X359643Y915735D01*
X357211Y916743D01*
X354600Y917086D01*
D02*
G37*
G36*
X1015000Y912608D02*
X1011737Y912178D01*
X1008696Y910919D01*
X1006085Y908915D01*
X1004081Y906304D01*
X1002822Y903263D01*
X1002392Y900000D01*
X1002822Y896737D01*
X1004081Y893696D01*
X1006085Y891085D01*
X1008696Y889081D01*
X1011737Y887822D01*
X1015000Y887392D01*
X1018263Y887822D01*
X1021304Y889081D01*
X1023915Y891085D01*
X1025919Y893696D01*
X1027178Y896737D01*
X1027608Y900000D01*
X1027178Y903263D01*
X1025919Y906304D01*
X1023915Y908915D01*
X1021304Y910919D01*
X1018263Y912178D01*
X1015000Y912608D01*
D02*
G37*
G36*
X334000Y893608D02*
X331854Y893181D01*
X330035Y891965D01*
X328819Y890146D01*
X328392Y888000D01*
X328819Y885854D01*
X330035Y884035D01*
X331854Y882819D01*
X334000Y882392D01*
X336146Y882819D01*
X337965Y884035D01*
X339181Y885854D01*
X339608Y888000D01*
X339181Y890146D01*
X337965Y891965D01*
X336146Y893181D01*
X334000Y893608D01*
D02*
G37*
G36*
X441000Y885608D02*
X438854Y885181D01*
X437035Y883965D01*
X435819Y882146D01*
X435392Y880000D01*
X435819Y877854D01*
X437035Y876035D01*
X438854Y874819D01*
X441000Y874392D01*
X443146Y874819D01*
X444965Y876035D01*
X446181Y877854D01*
X446608Y880000D01*
X446181Y882146D01*
X444965Y883965D01*
X443146Y885181D01*
X441000Y885608D01*
D02*
G37*
G36*
X380000Y891686D02*
X377389Y891343D01*
X374957Y890335D01*
X372868Y888732D01*
X371265Y886643D01*
X370257Y884211D01*
X369914Y881600D01*
X370257Y878989D01*
X371265Y876557D01*
X372868Y874468D01*
X374957Y872865D01*
X377389Y871857D01*
X380000Y871514D01*
X382611Y871857D01*
X385043Y872865D01*
X387132Y874468D01*
X388735Y876557D01*
X389743Y878989D01*
X390086Y881600D01*
X389743Y884211D01*
X388735Y886643D01*
X387132Y888732D01*
X385043Y890335D01*
X382611Y891343D01*
X380000Y891686D01*
D02*
G37*
G36*
X354600D02*
X351990Y891343D01*
X349557Y890335D01*
X347468Y888732D01*
X345865Y886643D01*
X344857Y884211D01*
X344514Y881600D01*
X344857Y878989D01*
X345865Y876557D01*
X347468Y874468D01*
X349557Y872865D01*
X351990Y871857D01*
X354600Y871514D01*
X357211Y871857D01*
X359643Y872865D01*
X361732Y874468D01*
X363335Y876557D01*
X364343Y878989D01*
X364686Y881600D01*
X364343Y884211D01*
X363335Y886643D01*
X361732Y888732D01*
X359643Y890335D01*
X357211Y891343D01*
X354600Y891686D01*
D02*
G37*
G36*
X334000Y880608D02*
X331854Y880181D01*
X330035Y878965D01*
X328819Y877146D01*
X328392Y875000D01*
X328819Y872854D01*
X330035Y871035D01*
X331854Y869819D01*
X334000Y869392D01*
X336146Y869819D01*
X337965Y871035D01*
X339181Y872854D01*
X339608Y875000D01*
X339181Y877146D01*
X337965Y878965D01*
X336146Y880181D01*
X334000Y880608D01*
D02*
G37*
G36*
X1015000Y874508D02*
X1011737Y874078D01*
X1008696Y872819D01*
X1006085Y870815D01*
X1004081Y868204D01*
X1002822Y865163D01*
X1002392Y861900D01*
X1002822Y858637D01*
X1004081Y855596D01*
X1006085Y852985D01*
X1008696Y850981D01*
X1011737Y849722D01*
X1015000Y849292D01*
X1018263Y849722D01*
X1021304Y850981D01*
X1023915Y852985D01*
X1025919Y855596D01*
X1027178Y858637D01*
X1027608Y861900D01*
X1027178Y865163D01*
X1025919Y868204D01*
X1023915Y870815D01*
X1021304Y872819D01*
X1018263Y874078D01*
X1015000Y874508D01*
D02*
G37*
G36*
X380000Y866286D02*
X377389Y865943D01*
X374957Y864935D01*
X372868Y863332D01*
X371265Y861243D01*
X370257Y858811D01*
X369914Y856200D01*
X370257Y853589D01*
X371265Y851157D01*
X372868Y849068D01*
X374957Y847465D01*
X377389Y846457D01*
X380000Y846114D01*
X382611Y846457D01*
X385043Y847465D01*
X387132Y849068D01*
X388735Y851157D01*
X389743Y853589D01*
X390086Y856200D01*
X389743Y858811D01*
X388735Y861243D01*
X387132Y863332D01*
X385043Y864935D01*
X382611Y865943D01*
X380000Y866286D01*
D02*
G37*
G36*
X354600D02*
X351990Y865943D01*
X349557Y864935D01*
X347468Y863332D01*
X345865Y861243D01*
X344857Y858811D01*
X344514Y856200D01*
X344857Y853589D01*
X345865Y851157D01*
X347468Y849068D01*
X349557Y847465D01*
X351990Y846457D01*
X354600Y846114D01*
X357211Y846457D01*
X359643Y847465D01*
X361732Y849068D01*
X363335Y851157D01*
X364343Y853589D01*
X364686Y856200D01*
X364343Y858811D01*
X363335Y861243D01*
X361732Y863332D01*
X359643Y864935D01*
X357211Y865943D01*
X354600Y866286D01*
D02*
G37*
G36*
X314000Y847608D02*
X311854Y847181D01*
X310035Y845965D01*
X308819Y844146D01*
X308392Y842000D01*
X308819Y839854D01*
X310035Y838035D01*
X311854Y836819D01*
X314000Y836392D01*
X316146Y836819D01*
X317965Y838035D01*
X319181Y839854D01*
X319608Y842000D01*
X319181Y844146D01*
X317965Y845965D01*
X316146Y847181D01*
X314000Y847608D01*
D02*
G37*
G36*
X334000Y835608D02*
X331854Y835181D01*
X330035Y833965D01*
X328819Y832146D01*
X328392Y830000D01*
X328819Y827854D01*
X330035Y826035D01*
X331854Y824819D01*
X334000Y824392D01*
X336146Y824819D01*
X337965Y826035D01*
X339181Y827854D01*
X339608Y830000D01*
X339181Y832146D01*
X337965Y833965D01*
X336146Y835181D01*
X334000Y835608D01*
D02*
G37*
G36*
X380000Y840886D02*
X377389Y840543D01*
X374957Y839535D01*
X372868Y837932D01*
X371265Y835843D01*
X370257Y833410D01*
X369914Y830800D01*
X370257Y828189D01*
X371265Y825757D01*
X372868Y823668D01*
X374957Y822065D01*
X377389Y821057D01*
X380000Y820714D01*
X382611Y821057D01*
X385043Y822065D01*
X387132Y823668D01*
X388735Y825757D01*
X389743Y828189D01*
X390086Y830800D01*
X389743Y833410D01*
X388735Y835843D01*
X387132Y837932D01*
X385043Y839535D01*
X382611Y840543D01*
X380000Y840886D01*
D02*
G37*
G36*
X354600D02*
X351990Y840543D01*
X349557Y839535D01*
X347468Y837932D01*
X345865Y835843D01*
X344857Y833410D01*
X344514Y830800D01*
X344857Y828189D01*
X345865Y825757D01*
X347468Y823668D01*
X349557Y822065D01*
X351990Y821057D01*
X354600Y820714D01*
X357211Y821057D01*
X359643Y822065D01*
X361732Y823668D01*
X363335Y825757D01*
X364343Y828189D01*
X364686Y830800D01*
X364343Y833410D01*
X363335Y835843D01*
X361732Y837932D01*
X359643Y839535D01*
X357211Y840543D01*
X354600Y840886D01*
D02*
G37*
G36*
X380000Y815486D02*
X377389Y815143D01*
X374957Y814135D01*
X372868Y812532D01*
X371265Y810443D01*
X370257Y808010D01*
X369914Y805400D01*
X370257Y802790D01*
X371265Y800357D01*
X372868Y798268D01*
X374957Y796665D01*
X377389Y795657D01*
X380000Y795314D01*
X382611Y795657D01*
X385043Y796665D01*
X387132Y798268D01*
X388735Y800357D01*
X389743Y802790D01*
X390086Y805400D01*
X389743Y808010D01*
X388735Y810443D01*
X387132Y812532D01*
X385043Y814135D01*
X382611Y815143D01*
X380000Y815486D01*
D02*
G37*
G36*
X354600D02*
X351990Y815143D01*
X349557Y814135D01*
X347468Y812532D01*
X345865Y810443D01*
X344857Y808010D01*
X344514Y805400D01*
X344681Y804132D01*
X320674Y780126D01*
X319348Y778141D01*
X318883Y775800D01*
Y415000D01*
X319348Y412659D01*
X320674Y410674D01*
X345674Y385674D01*
X347659Y384348D01*
X350000Y383882D01*
X554000D01*
X556341Y384348D01*
X558326Y385674D01*
X563534Y390882D01*
X668000D01*
X670341Y391348D01*
X672326Y392674D01*
X691326Y411674D01*
X692652Y413659D01*
X693118Y416000D01*
Y430000D01*
X692652Y432341D01*
X691326Y434326D01*
X689341Y435652D01*
X687000Y436118D01*
X684659Y435652D01*
X682674Y434326D01*
X681348Y432341D01*
X680882Y430000D01*
Y418534D01*
X665466Y403118D01*
X623376D01*
X623124Y404388D01*
X625547Y405392D01*
X627845Y407155D01*
X629608Y409453D01*
X630717Y412128D01*
X631095Y415000D01*
X630717Y417872D01*
X629608Y420547D01*
X627845Y422845D01*
X625547Y424608D01*
X622872Y425717D01*
X620000Y426095D01*
X617128Y425717D01*
X614453Y424608D01*
X612155Y422845D01*
X610392Y420547D01*
X609283Y417872D01*
X608905Y415000D01*
X609283Y412128D01*
X610392Y409453D01*
X612155Y407155D01*
X614453Y405392D01*
X616876Y404388D01*
X616624Y403118D01*
X561000D01*
X558659Y402652D01*
X556674Y401326D01*
X551466Y396118D01*
X352534D01*
X331118Y417534D01*
Y773266D01*
X353332Y795481D01*
X354600Y795314D01*
X357211Y795657D01*
X359643Y796665D01*
X361732Y798268D01*
X363335Y800357D01*
X364343Y802790D01*
X364686Y805400D01*
X364343Y808010D01*
X363335Y810443D01*
X361732Y812532D01*
X359643Y814135D01*
X357211Y815143D01*
X354600Y815486D01*
D02*
G37*
G36*
X438000Y800608D02*
X435854Y800181D01*
X434035Y798965D01*
X432819Y797146D01*
X432392Y795000D01*
X432819Y792854D01*
X434035Y791035D01*
X435854Y789819D01*
X438000Y789392D01*
X440146Y789819D01*
X441965Y791035D01*
X443181Y792854D01*
X443608Y795000D01*
X443181Y797146D01*
X441965Y798965D01*
X440146Y800181D01*
X438000Y800608D01*
D02*
G37*
G36*
X380000Y790086D02*
X377389Y789743D01*
X374957Y788735D01*
X372868Y787132D01*
X371265Y785043D01*
X370257Y782610D01*
X369914Y780000D01*
X370257Y777390D01*
X371265Y774957D01*
X372868Y772868D01*
X374957Y771265D01*
X377389Y770257D01*
X380000Y769914D01*
X382611Y770257D01*
X385043Y771265D01*
X387132Y772868D01*
X388735Y774957D01*
X389743Y777390D01*
X390086Y780000D01*
X389743Y782610D01*
X388735Y785043D01*
X387132Y787132D01*
X385043Y788735D01*
X382611Y789743D01*
X380000Y790086D01*
D02*
G37*
G36*
X354600D02*
X351990Y789743D01*
X349557Y788735D01*
X347468Y787132D01*
X345865Y785043D01*
X344857Y782610D01*
X344514Y780000D01*
X344857Y777390D01*
X345865Y774957D01*
X347468Y772868D01*
X349557Y771265D01*
X351990Y770257D01*
X354600Y769914D01*
X357211Y770257D01*
X359643Y771265D01*
X361732Y772868D01*
X363335Y774957D01*
X364343Y777390D01*
X364686Y780000D01*
X364343Y782610D01*
X363335Y785043D01*
X361732Y787132D01*
X359643Y788735D01*
X357211Y789743D01*
X354600Y790086D01*
D02*
G37*
G36*
X520000Y777608D02*
X517854Y777181D01*
X516035Y775965D01*
X514819Y774146D01*
X514392Y772000D01*
X514819Y769854D01*
X516035Y768035D01*
X517854Y766819D01*
X520000Y766392D01*
X522146Y766819D01*
X523965Y768035D01*
X525181Y769854D01*
X525608Y772000D01*
X525181Y774146D01*
X523965Y775965D01*
X522146Y777181D01*
X520000Y777608D01*
D02*
G37*
G36*
X496000D02*
X493854Y777181D01*
X492035Y775965D01*
X490819Y774146D01*
X490392Y772000D01*
X490819Y769854D01*
X492035Y768035D01*
X493854Y766819D01*
X496000Y766392D01*
X498146Y766819D01*
X499965Y768035D01*
X501181Y769854D01*
X501608Y772000D01*
X501181Y774146D01*
X499965Y775965D01*
X498146Y777181D01*
X496000Y777608D01*
D02*
G37*
G36*
X483000D02*
X480854Y777181D01*
X479035Y775965D01*
X477819Y774146D01*
X477392Y772000D01*
X477819Y769854D01*
X479035Y768035D01*
X480854Y766819D01*
X483000Y766392D01*
X485146Y766819D01*
X486965Y768035D01*
X488181Y769854D01*
X488608Y772000D01*
X488181Y774146D01*
X486965Y775965D01*
X485146Y777181D01*
X483000Y777608D01*
D02*
G37*
G36*
Y756608D02*
X480854Y756181D01*
X479035Y754965D01*
X477819Y753146D01*
X477392Y751000D01*
X477819Y748854D01*
X479035Y747035D01*
X480854Y745819D01*
X483000Y745392D01*
X485146Y745819D01*
X486965Y747035D01*
X488181Y748854D01*
X488608Y751000D01*
X488181Y753146D01*
X486965Y754965D01*
X485146Y756181D01*
X483000Y756608D01*
D02*
G37*
G36*
X380000Y764686D02*
X377389Y764343D01*
X374957Y763335D01*
X372868Y761732D01*
X371265Y759643D01*
X370257Y757210D01*
X369914Y754600D01*
X370257Y751990D01*
X371265Y749557D01*
X372868Y747468D01*
X374957Y745865D01*
X377389Y744857D01*
X380000Y744514D01*
X382611Y744857D01*
X385043Y745865D01*
X387132Y747468D01*
X388735Y749557D01*
X389743Y751990D01*
X390086Y754600D01*
X389743Y757210D01*
X388735Y759643D01*
X387132Y761732D01*
X385043Y763335D01*
X382611Y764343D01*
X380000Y764686D01*
D02*
G37*
G36*
X354600D02*
X351990Y764343D01*
X349557Y763335D01*
X347468Y761732D01*
X345865Y759643D01*
X344857Y757210D01*
X344514Y754600D01*
X344857Y751990D01*
X345865Y749557D01*
X347468Y747468D01*
X349557Y745865D01*
X351990Y744857D01*
X354600Y744514D01*
X357211Y744857D01*
X359643Y745865D01*
X361732Y747468D01*
X363335Y749557D01*
X364343Y751990D01*
X364686Y754600D01*
X364343Y757210D01*
X363335Y759643D01*
X361732Y761732D01*
X359643Y763335D01*
X357211Y764343D01*
X354600Y764686D01*
D02*
G37*
G36*
X459000Y758608D02*
X456854Y758181D01*
X455035Y756965D01*
X453819Y755146D01*
X453392Y753000D01*
X453819Y750854D01*
X455035Y749035D01*
X456210Y748249D01*
Y746751D01*
X455035Y745965D01*
X453819Y744146D01*
X453392Y742000D01*
X453819Y739854D01*
X455035Y738035D01*
X456854Y736819D01*
X459000Y736392D01*
X461146Y736819D01*
X462965Y738035D01*
X464181Y739854D01*
X464608Y742000D01*
X464181Y744146D01*
X462965Y745965D01*
X461790Y746751D01*
Y748249D01*
X462965Y749035D01*
X464181Y750854D01*
X464608Y753000D01*
X464181Y755146D01*
X462965Y756965D01*
X461146Y758181D01*
X459000Y758608D01*
D02*
G37*
G36*
X483000Y737608D02*
X480854Y737181D01*
X479035Y735965D01*
X477819Y734146D01*
X477392Y732000D01*
X477819Y729854D01*
X479035Y728035D01*
X480854Y726819D01*
X483000Y726392D01*
X485146Y726819D01*
X486965Y728035D01*
X488181Y729854D01*
X488608Y732000D01*
X488181Y734146D01*
X486965Y735965D01*
X485146Y737181D01*
X483000Y737608D01*
D02*
G37*
G36*
X380000Y739286D02*
X377389Y738943D01*
X374957Y737935D01*
X372868Y736332D01*
X371265Y734243D01*
X370257Y731811D01*
X369914Y729200D01*
X370257Y726590D01*
X371265Y724157D01*
X372868Y722068D01*
X374957Y720465D01*
X377389Y719457D01*
X380000Y719114D01*
X382611Y719457D01*
X385043Y720465D01*
X387132Y722068D01*
X388735Y724157D01*
X389743Y726590D01*
X390086Y729200D01*
X389743Y731811D01*
X388735Y734243D01*
X387132Y736332D01*
X385043Y737935D01*
X382611Y738943D01*
X380000Y739286D01*
D02*
G37*
G36*
X354600D02*
X351990Y738943D01*
X349557Y737935D01*
X347468Y736332D01*
X345865Y734243D01*
X344857Y731811D01*
X344514Y729200D01*
X344857Y726590D01*
X345865Y724157D01*
X347468Y722068D01*
X349557Y720465D01*
X351990Y719457D01*
X354600Y719114D01*
X357211Y719457D01*
X359643Y720465D01*
X361732Y722068D01*
X363335Y724157D01*
X364343Y726590D01*
X364686Y729200D01*
X364343Y731811D01*
X363335Y734243D01*
X361732Y736332D01*
X359643Y737935D01*
X357211Y738943D01*
X354600Y739286D01*
D02*
G37*
G36*
X489000Y724608D02*
X486854Y724181D01*
X485035Y722965D01*
X483819Y721146D01*
X483392Y719000D01*
X483819Y716854D01*
X485035Y715035D01*
X486854Y713819D01*
X489000Y713392D01*
X491146Y713819D01*
X492965Y715035D01*
X494181Y716854D01*
X494608Y719000D01*
X494181Y721146D01*
X492965Y722965D01*
X491146Y724181D01*
X489000Y724608D01*
D02*
G37*
G36*
X521000Y722608D02*
X518854Y722181D01*
X517035Y720965D01*
X515819Y719146D01*
X515392Y717000D01*
X515819Y714854D01*
X517035Y713035D01*
X518854Y711819D01*
X521000Y711392D01*
X523146Y711819D01*
X524965Y713035D01*
X526181Y714854D01*
X526608Y717000D01*
X526181Y719146D01*
X524965Y720965D01*
X523146Y722181D01*
X521000Y722608D01*
D02*
G37*
G36*
X380000Y713886D02*
X377389Y713543D01*
X374957Y712535D01*
X372868Y710932D01*
X371265Y708843D01*
X370257Y706411D01*
X369914Y703800D01*
X370257Y701189D01*
X371265Y698757D01*
X372868Y696668D01*
X374957Y695065D01*
X377389Y694057D01*
X380000Y693714D01*
X382611Y694057D01*
X385043Y695065D01*
X387132Y696668D01*
X388735Y698757D01*
X389743Y701189D01*
X390086Y703800D01*
X389743Y706411D01*
X388735Y708843D01*
X387132Y710932D01*
X385043Y712535D01*
X382611Y713543D01*
X380000Y713886D01*
D02*
G37*
G36*
X354600D02*
X351990Y713543D01*
X349557Y712535D01*
X347468Y710932D01*
X345865Y708843D01*
X344857Y706411D01*
X344514Y703800D01*
X344857Y701189D01*
X345865Y698757D01*
X347468Y696668D01*
X349557Y695065D01*
X351990Y694057D01*
X354600Y693714D01*
X357211Y694057D01*
X359643Y695065D01*
X361732Y696668D01*
X363335Y698757D01*
X364343Y701189D01*
X364686Y703800D01*
X364343Y706411D01*
X363335Y708843D01*
X361732Y710932D01*
X359643Y712535D01*
X357211Y713543D01*
X354600Y713886D01*
D02*
G37*
G36*
X457000Y680608D02*
X454854Y680181D01*
X453035Y678965D01*
X451819Y677146D01*
X451392Y675000D01*
X451819Y672854D01*
X453035Y671035D01*
X454854Y669819D01*
X457000Y669392D01*
X459146Y669819D01*
X460965Y671035D01*
X462181Y672854D01*
X462608Y675000D01*
X462181Y677146D01*
X460965Y678965D01*
X459146Y680181D01*
X457000Y680608D01*
D02*
G37*
G36*
X380000Y688486D02*
X377389Y688143D01*
X374957Y687135D01*
X372868Y685532D01*
X371265Y683443D01*
X370257Y681011D01*
X369914Y678400D01*
X370257Y675789D01*
X371265Y673357D01*
X372868Y671268D01*
X374957Y669665D01*
X377389Y668657D01*
X380000Y668314D01*
X382611Y668657D01*
X385043Y669665D01*
X387132Y671268D01*
X388735Y673357D01*
X389743Y675789D01*
X390086Y678400D01*
X389743Y681011D01*
X388735Y683443D01*
X387132Y685532D01*
X385043Y687135D01*
X382611Y688143D01*
X380000Y688486D01*
D02*
G37*
G36*
X354600D02*
X351990Y688143D01*
X349557Y687135D01*
X347468Y685532D01*
X345865Y683443D01*
X344857Y681011D01*
X344514Y678400D01*
X344857Y675789D01*
X345865Y673357D01*
X347468Y671268D01*
X349557Y669665D01*
X351990Y668657D01*
X354600Y668314D01*
X357211Y668657D01*
X359643Y669665D01*
X361732Y671268D01*
X363335Y673357D01*
X364343Y675789D01*
X364686Y678400D01*
X364343Y681011D01*
X363335Y683443D01*
X361732Y685532D01*
X359643Y687135D01*
X357211Y688143D01*
X354600Y688486D01*
D02*
G37*
G36*
X515000Y676608D02*
X512854Y676181D01*
X511035Y674965D01*
X509819Y673146D01*
X509392Y671000D01*
X509819Y668854D01*
X511035Y667035D01*
X512854Y665819D01*
X515000Y665392D01*
X517146Y665819D01*
X518965Y667035D01*
X520181Y668854D01*
X520608Y671000D01*
X520181Y673146D01*
X518965Y674965D01*
X517146Y676181D01*
X515000Y676608D01*
D02*
G37*
G36*
X470000Y666608D02*
X467854Y666181D01*
X466035Y664965D01*
X464819Y663146D01*
X464392Y661000D01*
X464819Y658854D01*
X466035Y657035D01*
X467854Y655819D01*
X470000Y655392D01*
X472146Y655819D01*
X473965Y657035D01*
X475181Y658854D01*
X475608Y661000D01*
X475181Y663146D01*
X473965Y664965D01*
X472146Y666181D01*
X470000Y666608D01*
D02*
G37*
G36*
X457000D02*
X454854Y666181D01*
X453035Y664965D01*
X451819Y663146D01*
X451392Y661000D01*
X451819Y658854D01*
X453035Y657035D01*
X454854Y655819D01*
X457000Y655392D01*
X459146Y655819D01*
X460965Y657035D01*
X462181Y658854D01*
X462608Y661000D01*
X462181Y663146D01*
X460965Y664965D01*
X459146Y666181D01*
X457000Y666608D01*
D02*
G37*
G36*
X380000Y663086D02*
X377389Y662743D01*
X374957Y661735D01*
X372868Y660132D01*
X371265Y658043D01*
X370257Y655611D01*
X369914Y653000D01*
X370257Y650389D01*
X371265Y647957D01*
X372868Y645868D01*
X374957Y644265D01*
X377389Y643257D01*
X380000Y642914D01*
X382611Y643257D01*
X385043Y644265D01*
X387132Y645868D01*
X388735Y647957D01*
X389743Y650389D01*
X390086Y653000D01*
X389743Y655611D01*
X388735Y658043D01*
X387132Y660132D01*
X385043Y661735D01*
X382611Y662743D01*
X380000Y663086D01*
D02*
G37*
G36*
X354600D02*
X351990Y662743D01*
X349557Y661735D01*
X347468Y660132D01*
X345865Y658043D01*
X344857Y655611D01*
X344514Y653000D01*
X344857Y650389D01*
X345865Y647957D01*
X347468Y645868D01*
X349557Y644265D01*
X351990Y643257D01*
X354600Y642914D01*
X357211Y643257D01*
X359643Y644265D01*
X361732Y645868D01*
X363335Y647957D01*
X364343Y650389D01*
X364686Y653000D01*
X364343Y655611D01*
X363335Y658043D01*
X361732Y660132D01*
X359643Y661735D01*
X357211Y662743D01*
X354600Y663086D01*
D02*
G37*
G36*
X515000Y650608D02*
X512854Y650181D01*
X511035Y648965D01*
X509819Y647146D01*
X509392Y645000D01*
X509819Y642854D01*
X511035Y641035D01*
X512854Y639819D01*
X515000Y639392D01*
X517146Y639819D01*
X518965Y641035D01*
X520181Y642854D01*
X520608Y645000D01*
X520181Y647146D01*
X518965Y648965D01*
X517146Y650181D01*
X515000Y650608D01*
D02*
G37*
G36*
X431000Y646608D02*
X428854Y646181D01*
X427035Y644965D01*
X425819Y643146D01*
X425392Y641000D01*
X425819Y638854D01*
X427035Y637035D01*
X428854Y635819D01*
X431000Y635392D01*
X433146Y635819D01*
X434965Y637035D01*
X436181Y638854D01*
X436608Y641000D01*
X436181Y643146D01*
X434965Y644965D01*
X433146Y646181D01*
X431000Y646608D01*
D02*
G37*
G36*
X380000Y637686D02*
X377389Y637343D01*
X374957Y636335D01*
X372868Y634732D01*
X371265Y632643D01*
X370257Y630210D01*
X369914Y627600D01*
X370257Y624990D01*
X371265Y622557D01*
X372868Y620468D01*
X374957Y618865D01*
X377389Y617857D01*
X380000Y617514D01*
X382611Y617857D01*
X385043Y618865D01*
X387132Y620468D01*
X388735Y622557D01*
X389743Y624990D01*
X390086Y627600D01*
X389743Y630210D01*
X388735Y632643D01*
X387132Y634732D01*
X385043Y636335D01*
X382611Y637343D01*
X380000Y637686D01*
D02*
G37*
G36*
X354600D02*
X351990Y637343D01*
X349557Y636335D01*
X347468Y634732D01*
X345865Y632643D01*
X344857Y630210D01*
X344514Y627600D01*
X344857Y624990D01*
X345865Y622557D01*
X347468Y620468D01*
X349557Y618865D01*
X351990Y617857D01*
X354600Y617514D01*
X357211Y617857D01*
X359643Y618865D01*
X361732Y620468D01*
X363335Y622557D01*
X364343Y624990D01*
X364686Y627600D01*
X364343Y630210D01*
X363335Y632643D01*
X361732Y634732D01*
X359643Y636335D01*
X357211Y637343D01*
X354600Y637686D01*
D02*
G37*
G36*
X486000Y632608D02*
X483854Y632181D01*
X482035Y630965D01*
X480819Y629146D01*
X480392Y627000D01*
X480819Y624854D01*
X482035Y623035D01*
X483854Y621819D01*
X484717Y621647D01*
Y620353D01*
X483854Y620181D01*
X482035Y618965D01*
X480819Y617146D01*
X480392Y615000D01*
X480819Y612854D01*
X482035Y611035D01*
X483854Y609819D01*
X486000Y609392D01*
X488146Y609819D01*
X489965Y611035D01*
X491181Y612854D01*
X491608Y615000D01*
X491181Y617146D01*
X489965Y618965D01*
X488146Y620181D01*
X487283Y620353D01*
Y621647D01*
X488146Y621819D01*
X489965Y623035D01*
X491181Y624854D01*
X491608Y627000D01*
X491181Y629146D01*
X489965Y630965D01*
X488146Y632181D01*
X486000Y632608D01*
D02*
G37*
G36*
X466000D02*
X463854Y632181D01*
X462035Y630965D01*
X460819Y629146D01*
X460392Y627000D01*
X460819Y624854D01*
X462035Y623035D01*
X463854Y621819D01*
X464717Y621647D01*
Y620353D01*
X463854Y620181D01*
X462035Y618965D01*
X460819Y617146D01*
X460392Y615000D01*
X460819Y612854D01*
X462035Y611035D01*
X463854Y609819D01*
X466000Y609392D01*
X468146Y609819D01*
X469965Y611035D01*
X471181Y612854D01*
X471608Y615000D01*
X471181Y617146D01*
X469965Y618965D01*
X468146Y620181D01*
X467283Y620353D01*
Y621647D01*
X468146Y621819D01*
X469965Y623035D01*
X471181Y624854D01*
X471608Y627000D01*
X471181Y629146D01*
X469965Y630965D01*
X468146Y632181D01*
X466000Y632608D01*
D02*
G37*
G36*
X917000Y620608D02*
X914854Y620181D01*
X913035Y618965D01*
X911819Y617146D01*
X911392Y615000D01*
X911819Y612854D01*
X913035Y611035D01*
X914854Y609819D01*
X917000Y609392D01*
X919146Y609819D01*
X920965Y611035D01*
X922181Y612854D01*
X922608Y615000D01*
X922181Y617146D01*
X920965Y618965D01*
X919146Y620181D01*
X917000Y620608D01*
D02*
G37*
G36*
X912000Y604608D02*
X909854Y604181D01*
X908035Y602965D01*
X906819Y601146D01*
X906392Y599000D01*
X906819Y596854D01*
X908035Y595035D01*
X909854Y593819D01*
X912000Y593392D01*
X914146Y593819D01*
X915965Y595035D01*
X917181Y596854D01*
X917608Y599000D01*
X917181Y601146D01*
X915965Y602965D01*
X914146Y604181D01*
X912000Y604608D01*
D02*
G37*
G36*
X380000Y612286D02*
X377389Y611943D01*
X374957Y610935D01*
X372868Y609332D01*
X371265Y607243D01*
X370257Y604810D01*
X369914Y602200D01*
X370257Y599590D01*
X371265Y597157D01*
X372868Y595068D01*
X374957Y593465D01*
X377389Y592457D01*
X380000Y592114D01*
X382611Y592457D01*
X385043Y593465D01*
X387132Y595068D01*
X388735Y597157D01*
X389743Y599590D01*
X390086Y602200D01*
X389743Y604810D01*
X388735Y607243D01*
X387132Y609332D01*
X385043Y610935D01*
X382611Y611943D01*
X380000Y612286D01*
D02*
G37*
G36*
X354600D02*
X351990Y611943D01*
X349557Y610935D01*
X347468Y609332D01*
X345865Y607243D01*
X344857Y604810D01*
X344514Y602200D01*
X344857Y599590D01*
X345865Y597157D01*
X347468Y595068D01*
X349557Y593465D01*
X351990Y592457D01*
X354600Y592114D01*
X357211Y592457D01*
X359643Y593465D01*
X361732Y595068D01*
X363335Y597157D01*
X364343Y599590D01*
X364686Y602200D01*
X364343Y604810D01*
X363335Y607243D01*
X361732Y609332D01*
X359643Y610935D01*
X357211Y611943D01*
X354600Y612286D01*
D02*
G37*
G36*
X1015000Y612608D02*
X1011737Y612178D01*
X1008696Y610919D01*
X1006085Y608915D01*
X1004081Y606304D01*
X1002822Y603263D01*
X1002392Y600000D01*
X1002822Y596737D01*
X1004081Y593696D01*
X1006085Y591085D01*
X1008696Y589081D01*
X1011737Y587822D01*
X1015000Y587392D01*
X1018263Y587822D01*
X1021304Y589081D01*
X1023915Y591085D01*
X1025919Y593696D01*
X1027178Y596737D01*
X1027608Y600000D01*
X1027178Y603263D01*
X1025919Y606304D01*
X1023915Y608915D01*
X1021304Y610919D01*
X1018263Y612178D01*
X1015000Y612608D01*
D02*
G37*
G36*
X870000Y590608D02*
X867854Y590181D01*
X866035Y588965D01*
X864819Y587146D01*
X864392Y585000D01*
X864819Y582854D01*
X866035Y581035D01*
X867854Y579819D01*
X870000Y579392D01*
X872146Y579819D01*
X873965Y581035D01*
X875181Y582854D01*
X875608Y585000D01*
X875181Y587146D01*
X873965Y588965D01*
X872146Y590181D01*
X870000Y590608D01*
D02*
G37*
G36*
X855000D02*
X852854Y590181D01*
X851035Y588965D01*
X849819Y587146D01*
X849392Y585000D01*
X849819Y582854D01*
X851035Y581035D01*
X852854Y579819D01*
X855000Y579392D01*
X857146Y579819D01*
X858965Y581035D01*
X860181Y582854D01*
X860608Y585000D01*
X860181Y587146D01*
X858965Y588965D01*
X857146Y590181D01*
X855000Y590608D01*
D02*
G37*
G36*
X840000D02*
X837854Y590181D01*
X836035Y588965D01*
X834819Y587146D01*
X834392Y585000D01*
X834819Y582854D01*
X836035Y581035D01*
X837854Y579819D01*
X840000Y579392D01*
X842146Y579819D01*
X843965Y581035D01*
X845181Y582854D01*
X845608Y585000D01*
X845181Y587146D01*
X843965Y588965D01*
X842146Y590181D01*
X840000Y590608D01*
D02*
G37*
G36*
X483000Y585608D02*
X480854Y585181D01*
X479035Y583965D01*
X477819Y582146D01*
X477392Y580000D01*
X477819Y577854D01*
X479035Y576035D01*
X480854Y574819D01*
X483000Y574392D01*
X485146Y574819D01*
X486965Y576035D01*
X488181Y577854D01*
X488608Y580000D01*
X488181Y582146D01*
X486965Y583965D01*
X485146Y585181D01*
X483000Y585608D01*
D02*
G37*
G36*
X470000D02*
X467854Y585181D01*
X466035Y583965D01*
X464819Y582146D01*
X464392Y580000D01*
X464819Y577854D01*
X466035Y576035D01*
X467854Y574819D01*
X470000Y574392D01*
X472146Y574819D01*
X473965Y576035D01*
X475181Y577854D01*
X475608Y580000D01*
X475181Y582146D01*
X473965Y583965D01*
X472146Y585181D01*
X470000Y585608D01*
D02*
G37*
G36*
X380000Y586886D02*
X377389Y586543D01*
X374957Y585535D01*
X372868Y583932D01*
X371265Y581843D01*
X370257Y579411D01*
X369914Y576800D01*
X370257Y574189D01*
X371265Y571757D01*
X372868Y569668D01*
X374957Y568065D01*
X377389Y567057D01*
X380000Y566714D01*
X382611Y567057D01*
X385043Y568065D01*
X387132Y569668D01*
X388735Y571757D01*
X389743Y574189D01*
X390086Y576800D01*
X389743Y579411D01*
X388735Y581843D01*
X387132Y583932D01*
X385043Y585535D01*
X382611Y586543D01*
X380000Y586886D01*
D02*
G37*
G36*
X354600D02*
X351990Y586543D01*
X349557Y585535D01*
X347468Y583932D01*
X345865Y581843D01*
X344857Y579411D01*
X344514Y576800D01*
X344857Y574189D01*
X345865Y571757D01*
X347468Y569668D01*
X349557Y568065D01*
X351990Y567057D01*
X354600Y566714D01*
X357211Y567057D01*
X359643Y568065D01*
X361732Y569668D01*
X363335Y571757D01*
X364343Y574189D01*
X364686Y576800D01*
X364343Y579411D01*
X363335Y581843D01*
X361732Y583932D01*
X359643Y585535D01*
X357211Y586543D01*
X354600Y586886D01*
D02*
G37*
G36*
X397000Y560608D02*
X394854Y560181D01*
X393035Y558965D01*
X391819Y557146D01*
X391392Y555000D01*
X391819Y552854D01*
X393035Y551035D01*
X394854Y549819D01*
X397000Y549392D01*
X399146Y549819D01*
X400965Y551035D01*
X402181Y552854D01*
X402353Y553717D01*
X403647D01*
X403819Y552854D01*
X405035Y551035D01*
X406854Y549819D01*
X409000Y549392D01*
X411146Y549819D01*
X412965Y551035D01*
X414181Y552854D01*
X414608Y555000D01*
X414181Y557146D01*
X412965Y558965D01*
X411146Y560181D01*
X409000Y560608D01*
X406854Y560181D01*
X405035Y558965D01*
X403819Y557146D01*
X403647Y556283D01*
X402353D01*
X402181Y557146D01*
X400965Y558965D01*
X399146Y560181D01*
X397000Y560608D01*
D02*
G37*
G36*
X1015000Y574508D02*
X1011737Y574078D01*
X1008696Y572819D01*
X1006085Y570815D01*
X1004081Y568204D01*
X1002822Y565163D01*
X1002392Y561900D01*
X1002822Y558637D01*
X1004081Y555596D01*
X1006085Y552985D01*
X1008696Y550981D01*
X1011737Y549722D01*
X1015000Y549292D01*
X1018263Y549722D01*
X1021304Y550981D01*
X1023915Y552985D01*
X1025919Y555596D01*
X1027178Y558637D01*
X1027608Y561900D01*
X1027178Y565163D01*
X1025919Y568204D01*
X1023915Y570815D01*
X1021304Y572819D01*
X1018263Y574078D01*
X1015000Y574508D01*
D02*
G37*
G36*
X390000Y561400D02*
X370000D01*
Y541400D01*
X390000D01*
Y561400D01*
D02*
G37*
G36*
X354600Y561486D02*
X351990Y561143D01*
X349557Y560135D01*
X347468Y558532D01*
X345865Y556443D01*
X344857Y554011D01*
X344514Y551400D01*
X344857Y548789D01*
X345865Y546357D01*
X347468Y544268D01*
X349557Y542665D01*
X351990Y541657D01*
X354600Y541314D01*
X357211Y541657D01*
X359643Y542665D01*
X361732Y544268D01*
X363335Y546357D01*
X364343Y548789D01*
X364686Y551400D01*
X364343Y554011D01*
X363335Y556443D01*
X361732Y558532D01*
X359643Y560135D01*
X357211Y561143D01*
X354600Y561486D01*
D02*
G37*
G36*
X440000Y518608D02*
X437854Y518181D01*
X436035Y516965D01*
X434819Y515146D01*
X434392Y513000D01*
X434819Y510854D01*
X436035Y509035D01*
X437854Y507819D01*
X440000Y507392D01*
X442146Y507819D01*
X443965Y509035D01*
X445181Y510854D01*
X445608Y513000D01*
X445181Y515146D01*
X443965Y516965D01*
X442146Y518181D01*
X440000Y518608D01*
D02*
G37*
G36*
Y492608D02*
X437854Y492181D01*
X436035Y490965D01*
X434819Y489146D01*
X434392Y487000D01*
X434819Y484854D01*
X436035Y483035D01*
X437854Y481819D01*
X440000Y481392D01*
X442146Y481819D01*
X443965Y483035D01*
X445181Y484854D01*
X445608Y487000D01*
X445181Y489146D01*
X443965Y490965D01*
X442146Y492181D01*
X440000Y492608D01*
D02*
G37*
G36*
X995000Y560098D02*
X845000D01*
X843049Y559710D01*
X841395Y558605D01*
X840290Y556951D01*
X839902Y555000D01*
Y460098D01*
X790000D01*
X788310Y459762D01*
X787673Y460412D01*
X787471Y460791D01*
X788181Y461854D01*
X788608Y464000D01*
X788181Y466146D01*
X786965Y467965D01*
X785146Y469181D01*
X783000Y469608D01*
X780854Y469181D01*
X779035Y467965D01*
X777819Y466146D01*
X777392Y464000D01*
X777819Y461854D01*
X779035Y460035D01*
X780854Y458819D01*
X783000Y458392D01*
X784990Y458788D01*
X785388Y458444D01*
X785830Y457759D01*
X785290Y456951D01*
X784902Y455000D01*
Y440000D01*
X785290Y438049D01*
X786395Y436395D01*
X788049Y435290D01*
X790000Y434902D01*
X925000D01*
X926951Y435290D01*
X928605Y436395D01*
X929710Y438049D01*
X930098Y440000D01*
Y454902D01*
X947238D01*
X947309Y454367D01*
X948518Y451448D01*
X950442Y448941D01*
X952948Y447018D01*
X955867Y445809D01*
X959000Y445396D01*
X962133Y445809D01*
X965052Y447018D01*
X967559Y448941D01*
X969482Y451448D01*
X970691Y454367D01*
X970761Y454902D01*
X1030000D01*
X1031951Y455290D01*
X1033605Y456395D01*
X1034710Y458049D01*
X1035098Y460000D01*
Y540000D01*
X1034710Y541951D01*
X1033605Y543605D01*
X1031951Y544710D01*
X1030000Y545098D01*
X1000098D01*
Y555000D01*
X999710Y556951D01*
X998605Y558605D01*
X996951Y559710D01*
X995000Y560098D01*
D02*
G37*
G36*
X691000Y454608D02*
X688854Y454181D01*
X687035Y452965D01*
X685819Y451146D01*
X685392Y449000D01*
X685819Y446854D01*
X687035Y445035D01*
X688854Y443819D01*
X691000Y443392D01*
X693146Y443819D01*
X694965Y445035D01*
X696181Y446854D01*
X696608Y449000D01*
X696181Y451146D01*
X694965Y452965D01*
X693146Y454181D01*
X691000Y454608D01*
D02*
G37*
G36*
X769000Y450608D02*
X766854Y450181D01*
X765035Y448965D01*
X763819Y447146D01*
X763392Y445000D01*
X763819Y442854D01*
X765035Y441035D01*
X766854Y439819D01*
X769000Y439392D01*
X771146Y439819D01*
X772965Y441035D01*
X774181Y442854D01*
X774608Y445000D01*
X774181Y447146D01*
X772965Y448965D01*
X771146Y450181D01*
X769000Y450608D01*
D02*
G37*
G36*
X369000Y477084D02*
X364763Y476750D01*
X360631Y475758D01*
X356704Y474132D01*
X353081Y471911D01*
X349849Y469151D01*
X347089Y465919D01*
X344868Y462296D01*
X343242Y458369D01*
X342250Y454237D01*
X341917Y450000D01*
X342250Y445763D01*
X343242Y441631D01*
X344868Y437704D01*
X347089Y434081D01*
X349849Y430849D01*
X353081Y428089D01*
X356704Y425868D01*
X360631Y424242D01*
X364763Y423250D01*
X369000Y422916D01*
X373237Y423250D01*
X377369Y424242D01*
X381296Y425868D01*
X384919Y428089D01*
X388151Y430849D01*
X390911Y434081D01*
X393132Y437704D01*
X394758Y441631D01*
X395750Y445763D01*
X396083Y450000D01*
X395750Y454237D01*
X394758Y458369D01*
X393132Y462296D01*
X390911Y465919D01*
X388151Y469151D01*
X384919Y471911D01*
X381296Y474132D01*
X377369Y475758D01*
X373237Y476750D01*
X369000Y477084D01*
D02*
G37*
G36*
X985000Y430608D02*
X982854Y430181D01*
X981035Y428965D01*
X979819Y427146D01*
X979392Y425000D01*
X979819Y422854D01*
X981035Y421035D01*
X982854Y419819D01*
X985000Y419392D01*
X987146Y419819D01*
X988965Y421035D01*
X990181Y422854D01*
X990608Y425000D01*
X990181Y427146D01*
X988965Y428965D01*
X987146Y430181D01*
X985000Y430608D01*
D02*
G37*
G36*
X425000Y430608D02*
X422854Y430181D01*
X421035Y428965D01*
X419819Y427146D01*
X419392Y425000D01*
X419819Y422854D01*
X421035Y421035D01*
X422854Y419819D01*
X425000Y419392D01*
X427146Y419819D01*
X428965Y421035D01*
X430181Y422854D01*
X430608Y425000D01*
X430181Y427146D01*
X428965Y428965D01*
X427146Y430181D01*
X425000Y430608D01*
D02*
G37*
G36*
X751000Y422608D02*
X748854Y422181D01*
X747035Y420965D01*
X745819Y419146D01*
X745392Y417000D01*
X745819Y414854D01*
X747035Y413035D01*
X748854Y411819D01*
X751000Y411392D01*
X753146Y411819D01*
X754965Y413035D01*
X756181Y414854D01*
X756608Y417000D01*
X756181Y419146D01*
X754965Y420965D01*
X753146Y422181D01*
X751000Y422608D01*
D02*
G37*
G36*
X935000Y410608D02*
X932854Y410181D01*
X931035Y408965D01*
X929819Y407146D01*
X929392Y405000D01*
X929819Y402854D01*
X931035Y401035D01*
X932854Y399819D01*
X935000Y399392D01*
X937146Y399819D01*
X938965Y401035D01*
X940181Y402854D01*
X940608Y405000D01*
X940181Y407146D01*
X938965Y408965D01*
X937146Y410181D01*
X935000Y410608D01*
D02*
G37*
G36*
X915000D02*
X912854Y410181D01*
X911035Y408965D01*
X909819Y407146D01*
X909392Y405000D01*
X909819Y402854D01*
X911035Y401035D01*
X912854Y399819D01*
X915000Y399392D01*
X917146Y399819D01*
X918965Y401035D01*
X920181Y402854D01*
X920608Y405000D01*
X920181Y407146D01*
X918965Y408965D01*
X917146Y410181D01*
X915000Y410608D01*
D02*
G37*
G36*
X895000D02*
X892854Y410181D01*
X891035Y408965D01*
X889819Y407146D01*
X889392Y405000D01*
X889819Y402854D01*
X891035Y401035D01*
X892854Y399819D01*
X895000Y399392D01*
X897146Y399819D01*
X898965Y401035D01*
X900181Y402854D01*
X900608Y405000D01*
X900181Y407146D01*
X898965Y408965D01*
X897146Y410181D01*
X895000Y410608D01*
D02*
G37*
G36*
X875000D02*
X872854Y410181D01*
X871035Y408965D01*
X869819Y407146D01*
X869392Y405000D01*
X869819Y402854D01*
X871035Y401035D01*
X872854Y399819D01*
X875000Y399392D01*
X877146Y399819D01*
X878965Y401035D01*
X880181Y402854D01*
X880608Y405000D01*
X880181Y407146D01*
X878965Y408965D01*
X877146Y410181D01*
X875000Y410608D01*
D02*
G37*
G36*
X855000D02*
X852854Y410181D01*
X851035Y408965D01*
X849819Y407146D01*
X849392Y405000D01*
X849819Y402854D01*
X851035Y401035D01*
X852854Y399819D01*
X855000Y399392D01*
X857146Y399819D01*
X858965Y401035D01*
X860181Y402854D01*
X860608Y405000D01*
X860181Y407146D01*
X858965Y408965D01*
X857146Y410181D01*
X855000Y410608D01*
D02*
G37*
G36*
X835000D02*
X832854Y410181D01*
X831035Y408965D01*
X829819Y407146D01*
X829392Y405000D01*
X829819Y402854D01*
X831035Y401035D01*
X832854Y399819D01*
X835000Y399392D01*
X837146Y399819D01*
X838965Y401035D01*
X840181Y402854D01*
X840608Y405000D01*
X840181Y407146D01*
X838965Y408965D01*
X837146Y410181D01*
X835000Y410608D01*
D02*
G37*
G36*
X815000D02*
X812854Y410181D01*
X811035Y408965D01*
X809819Y407146D01*
X809392Y405000D01*
X809819Y402854D01*
X811035Y401035D01*
X812854Y399819D01*
X815000Y399392D01*
X817146Y399819D01*
X818965Y401035D01*
X820181Y402854D01*
X820608Y405000D01*
X820181Y407146D01*
X818965Y408965D01*
X817146Y410181D01*
X815000Y410608D01*
D02*
G37*
G36*
X795000D02*
X792854Y410181D01*
X791035Y408965D01*
X789819Y407146D01*
X789392Y405000D01*
X789819Y402854D01*
X791035Y401035D01*
X792854Y399819D01*
X795000Y399392D01*
X797146Y399819D01*
X798965Y401035D01*
X800181Y402854D01*
X800608Y405000D01*
X800181Y407146D01*
X798965Y408965D01*
X797146Y410181D01*
X795000Y410608D01*
D02*
G37*
G36*
X716000Y421608D02*
X713854Y421181D01*
X712035Y419965D01*
X710819Y418146D01*
X710392Y416000D01*
X710819Y413854D01*
X712035Y412035D01*
X713854Y410819D01*
X714717Y410647D01*
Y409353D01*
X713854Y409181D01*
X712035Y407965D01*
X710819Y406146D01*
X710392Y404000D01*
X710819Y401854D01*
X712035Y400035D01*
X713854Y398819D01*
X716000Y398392D01*
X718146Y398819D01*
X719965Y400035D01*
X721181Y401854D01*
X721608Y404000D01*
X721181Y406146D01*
X719965Y407965D01*
X718146Y409181D01*
X717283Y409353D01*
Y410647D01*
X718146Y410819D01*
X719965Y412035D01*
X721181Y413854D01*
X721608Y416000D01*
X721181Y418146D01*
X719965Y419965D01*
X718146Y421181D01*
X716000Y421608D01*
D02*
G37*
G36*
X1050000Y452084D02*
X1045763Y451750D01*
X1041631Y450758D01*
X1037704Y449132D01*
X1034081Y446911D01*
X1030849Y444151D01*
X1028089Y440919D01*
X1025869Y437296D01*
X1024242Y433369D01*
X1023250Y429237D01*
X1022916Y425000D01*
X1023250Y420763D01*
X1024242Y416631D01*
X1025869Y412704D01*
X1028089Y409081D01*
X1030849Y405849D01*
X1034081Y403089D01*
X1037704Y400868D01*
X1041631Y399242D01*
X1045763Y398250D01*
X1050000Y397916D01*
X1054237Y398250D01*
X1058369Y399242D01*
X1062296Y400868D01*
X1065919Y403089D01*
X1069151Y405849D01*
X1071911Y409081D01*
X1074132Y412704D01*
X1075758Y416631D01*
X1076750Y420763D01*
X1077084Y425000D01*
X1076750Y429237D01*
X1075758Y433369D01*
X1074132Y437296D01*
X1071911Y440919D01*
X1069151Y444151D01*
X1065919Y446911D01*
X1062296Y449132D01*
X1058369Y450758D01*
X1054237Y451750D01*
X1050000Y452084D01*
D02*
G37*
G36*
X500000D02*
X495763Y451750D01*
X491631Y450758D01*
X487704Y449132D01*
X484081Y446911D01*
X480849Y444151D01*
X478089Y440919D01*
X475868Y437296D01*
X474242Y433369D01*
X473250Y429237D01*
X472916Y425000D01*
X473250Y420763D01*
X474242Y416631D01*
X475868Y412704D01*
X478089Y409081D01*
X480849Y405849D01*
X484081Y403089D01*
X487704Y400868D01*
X491631Y399242D01*
X495763Y398250D01*
X500000Y397916D01*
X504237Y398250D01*
X508369Y399242D01*
X512296Y400868D01*
X515919Y403089D01*
X519151Y405849D01*
X521911Y409081D01*
X524132Y412704D01*
X525758Y416631D01*
X526750Y420763D01*
X527084Y425000D01*
X526750Y429237D01*
X525758Y433369D01*
X524132Y437296D01*
X521911Y440919D01*
X519151Y444151D01*
X515919Y446911D01*
X512296Y449132D01*
X508369Y450758D01*
X504237Y451750D01*
X500000Y452084D01*
D02*
G37*
G36*
X743000Y400608D02*
X740854Y400181D01*
X739035Y398965D01*
X737819Y397146D01*
X737548Y395783D01*
X736253D01*
X736181Y396146D01*
X734965Y397965D01*
X733146Y399181D01*
X731000Y399608D01*
X728854Y399181D01*
X727035Y397965D01*
X725819Y396146D01*
X725392Y394000D01*
X725819Y391854D01*
X727035Y390035D01*
X728854Y388819D01*
X731000Y388392D01*
X733146Y388819D01*
X734965Y390035D01*
X736181Y391854D01*
X736452Y393217D01*
X737747D01*
X737819Y392854D01*
X739035Y391035D01*
X740854Y389819D01*
X743000Y389392D01*
X745146Y389819D01*
X746965Y391035D01*
X748181Y392854D01*
X748608Y395000D01*
X748181Y397146D01*
X746965Y398965D01*
X745146Y400181D01*
X743000Y400608D01*
D02*
G37*
G36*
X960000Y419604D02*
X956867Y419191D01*
X953948Y417982D01*
X951441Y416059D01*
X949518Y413552D01*
X948309Y410633D01*
X947896Y407500D01*
X948309Y404367D01*
X949518Y401448D01*
X951441Y398941D01*
X953948Y397018D01*
X956867Y395809D01*
X960000Y395396D01*
X963133Y395809D01*
X966052Y397018D01*
X968559Y398941D01*
X970482Y401448D01*
X971691Y404367D01*
X972104Y407500D01*
X971691Y410633D01*
X970482Y413552D01*
X968559Y416059D01*
X966052Y417982D01*
X963133Y419191D01*
X960000Y419604D01*
D02*
G37*
%LPD*%
G36*
X995000Y540000D02*
X1030000D01*
Y460000D01*
X925000D01*
Y440000D01*
X790000D01*
Y455000D01*
X845000D01*
Y555000D01*
X995000D01*
Y540000D01*
D02*
G37*
%LPC*%
G36*
X1015000Y536408D02*
X1011737Y535978D01*
X1008696Y534719D01*
X1006085Y532715D01*
X1004081Y530104D01*
X1002822Y527063D01*
X1002392Y523800D01*
X1002822Y520537D01*
X1004081Y517496D01*
X1006085Y514885D01*
X1008696Y512881D01*
X1011737Y511622D01*
X1015000Y511192D01*
X1018263Y511622D01*
X1021304Y512881D01*
X1023915Y514885D01*
X1025919Y517496D01*
X1027178Y520537D01*
X1027608Y523800D01*
X1027178Y527063D01*
X1025919Y530104D01*
X1023915Y532715D01*
X1021304Y534719D01*
X1018263Y535978D01*
X1015000Y536408D01*
D02*
G37*
G36*
X734000Y872608D02*
X731854Y872181D01*
X730035Y870965D01*
X728819Y869146D01*
X728392Y867000D01*
X728819Y864854D01*
X730035Y863035D01*
X731854Y861819D01*
X734000Y861392D01*
X736146Y861819D01*
X737965Y863035D01*
X739181Y864854D01*
X739608Y867000D01*
X739181Y869146D01*
X737965Y870965D01*
X736146Y872181D01*
X734000Y872608D01*
D02*
G37*
G36*
X715000D02*
X712854Y872181D01*
X711035Y870965D01*
X709819Y869146D01*
X709392Y867000D01*
X709819Y864854D01*
X711035Y863035D01*
X712854Y861819D01*
X715000Y861392D01*
X717146Y861819D01*
X718965Y863035D01*
X720181Y864854D01*
X720608Y867000D01*
X720181Y869146D01*
X718965Y870965D01*
X717146Y872181D01*
X715000Y872608D01*
D02*
G37*
G36*
X610000Y957608D02*
X607854Y957181D01*
X606035Y955965D01*
X604819Y954146D01*
X604392Y952000D01*
X604819Y949854D01*
X606035Y948035D01*
X607854Y946819D01*
X610000Y946392D01*
X612146Y946819D01*
X613965Y948035D01*
X615181Y949854D01*
X615608Y952000D01*
X615181Y954146D01*
X613965Y955965D01*
X612146Y957181D01*
X610000Y957608D01*
D02*
G37*
G36*
X661000Y949608D02*
X658854Y949181D01*
X657035Y947965D01*
X655819Y946146D01*
X655392Y944000D01*
X655819Y941854D01*
X657035Y940035D01*
X658854Y938819D01*
X661000Y938392D01*
X663146Y938819D01*
X664965Y940035D01*
X666181Y941854D01*
X666608Y944000D01*
X666181Y946146D01*
X664965Y947965D01*
X663146Y949181D01*
X661000Y949608D01*
D02*
G37*
G36*
X601000Y936608D02*
X598854Y936181D01*
X597035Y934965D01*
X595819Y933146D01*
X595392Y931000D01*
X595819Y928854D01*
X597035Y927035D01*
X598854Y925819D01*
X601000Y925392D01*
X603146Y925819D01*
X604965Y927035D01*
X606181Y928854D01*
X606608Y931000D01*
X606181Y933146D01*
X604965Y934965D01*
X603146Y936181D01*
X601000Y936608D01*
D02*
G37*
G36*
Y923608D02*
X598854Y923181D01*
X597035Y921965D01*
X595819Y920146D01*
X595392Y918000D01*
X595819Y915854D01*
X597035Y914035D01*
X598854Y912819D01*
X601000Y912392D01*
X603146Y912819D01*
X604965Y914035D01*
X606181Y915854D01*
X606608Y918000D01*
X606181Y920146D01*
X604965Y921965D01*
X603146Y923181D01*
X601000Y923608D01*
D02*
G37*
G36*
X580000Y911608D02*
X577854Y911181D01*
X576035Y909965D01*
X574819Y908146D01*
X574392Y906000D01*
X574819Y903854D01*
X576035Y902035D01*
X577854Y900819D01*
X580000Y900392D01*
X582146Y900819D01*
X583965Y902035D01*
X585181Y903854D01*
X585608Y906000D01*
X585181Y908146D01*
X583965Y909965D01*
X582146Y911181D01*
X580000Y911608D01*
D02*
G37*
G36*
X610000Y903608D02*
X607854Y903181D01*
X606035Y901965D01*
X604819Y900146D01*
X604392Y898000D01*
X604819Y895854D01*
X606035Y894035D01*
X607854Y892819D01*
X610000Y892392D01*
X612146Y892819D01*
X613965Y894035D01*
X615181Y895854D01*
X615608Y898000D01*
X615181Y900146D01*
X613965Y901965D01*
X612146Y903181D01*
X610000Y903608D01*
D02*
G37*
G36*
Y858608D02*
X607854Y858181D01*
X606035Y856965D01*
X604819Y855146D01*
X604392Y853000D01*
X604819Y850854D01*
X606035Y849035D01*
X607854Y847819D01*
X610000Y847392D01*
X612146Y847819D01*
X613965Y849035D01*
X615181Y850854D01*
X615608Y853000D01*
X615181Y855146D01*
X613965Y856965D01*
X612146Y858181D01*
X610000Y858608D01*
D02*
G37*
G36*
X661000Y849608D02*
X658854Y849181D01*
X657035Y847965D01*
X655819Y846146D01*
X655392Y844000D01*
X655819Y841854D01*
X657035Y840035D01*
X658854Y838819D01*
X661000Y838392D01*
X663146Y838819D01*
X664965Y840035D01*
X666181Y841854D01*
X666608Y844000D01*
X666181Y846146D01*
X664965Y847965D01*
X663146Y849181D01*
X661000Y849608D01*
D02*
G37*
G36*
X601000Y837608D02*
X598854Y837181D01*
X597035Y835965D01*
X595819Y834146D01*
X595392Y832000D01*
X595819Y829854D01*
X597035Y828035D01*
X598854Y826819D01*
X601000Y826392D01*
X603146Y826819D01*
X604965Y828035D01*
X606181Y829854D01*
X606608Y832000D01*
X606181Y834146D01*
X604965Y835965D01*
X603146Y837181D01*
X601000Y837608D01*
D02*
G37*
G36*
Y823608D02*
X598854Y823181D01*
X597035Y821965D01*
X595819Y820146D01*
X595392Y818000D01*
X595819Y815854D01*
X597035Y814035D01*
X598854Y812819D01*
X601000Y812392D01*
X603146Y812819D01*
X604965Y814035D01*
X606181Y815854D01*
X606608Y818000D01*
X606181Y820146D01*
X604965Y821965D01*
X603146Y823181D01*
X601000Y823608D01*
D02*
G37*
G36*
X580000Y811608D02*
X577854Y811181D01*
X576035Y809965D01*
X574819Y808146D01*
X574392Y806000D01*
X574819Y803854D01*
X576035Y802035D01*
X577854Y800819D01*
X580000Y800392D01*
X582146Y800819D01*
X583965Y802035D01*
X585181Y803854D01*
X585608Y806000D01*
X585181Y808146D01*
X583965Y809965D01*
X582146Y811181D01*
X580000Y811608D01*
D02*
G37*
G36*
X610000Y803608D02*
X607854Y803181D01*
X606035Y801965D01*
X604819Y800146D01*
X604392Y798000D01*
X604819Y795854D01*
X606035Y794035D01*
X607854Y792819D01*
X610000Y792392D01*
X612146Y792819D01*
X613965Y794035D01*
X615181Y795854D01*
X615608Y798000D01*
X615181Y800146D01*
X613965Y801965D01*
X612146Y803181D01*
X610000Y803608D01*
D02*
G37*
G36*
Y753608D02*
X607854Y753181D01*
X606035Y751965D01*
X604819Y750146D01*
X604392Y748000D01*
X604819Y745854D01*
X606035Y744035D01*
X607854Y742819D01*
X610000Y742392D01*
X612146Y742819D01*
X613965Y744035D01*
X615181Y745854D01*
X615608Y748000D01*
X615181Y750146D01*
X613965Y751965D01*
X612146Y753181D01*
X610000Y753608D01*
D02*
G37*
G36*
X661000Y744608D02*
X658854Y744181D01*
X657035Y742965D01*
X655819Y741146D01*
X655392Y739000D01*
X655819Y736854D01*
X657035Y735035D01*
X658854Y733819D01*
X661000Y733392D01*
X663146Y733819D01*
X664965Y735035D01*
X666181Y736854D01*
X666608Y739000D01*
X666181Y741146D01*
X664965Y742965D01*
X663146Y744181D01*
X661000Y744608D01*
D02*
G37*
G36*
X601000Y732608D02*
X598854Y732181D01*
X597035Y730965D01*
X595819Y729146D01*
X595392Y727000D01*
X595819Y724854D01*
X597035Y723035D01*
X598854Y721819D01*
X601000Y721392D01*
X603146Y721819D01*
X604965Y723035D01*
X606181Y724854D01*
X606608Y727000D01*
X606181Y729146D01*
X604965Y730965D01*
X603146Y732181D01*
X601000Y732608D01*
D02*
G37*
G36*
Y718608D02*
X598854Y718181D01*
X597035Y716965D01*
X595819Y715146D01*
X595392Y713000D01*
X595819Y710854D01*
X597035Y709035D01*
X598854Y707819D01*
X601000Y707392D01*
X603146Y707819D01*
X604965Y709035D01*
X606181Y710854D01*
X606608Y713000D01*
X606181Y715146D01*
X604965Y716965D01*
X603146Y718181D01*
X601000Y718608D01*
D02*
G37*
G36*
X580000Y706608D02*
X577854Y706181D01*
X576035Y704965D01*
X574819Y703146D01*
X574392Y701000D01*
X574819Y698854D01*
X576035Y697035D01*
X577854Y695819D01*
X580000Y695392D01*
X582146Y695819D01*
X583965Y697035D01*
X585181Y698854D01*
X585608Y701000D01*
X585181Y703146D01*
X583965Y704965D01*
X582146Y706181D01*
X580000Y706608D01*
D02*
G37*
G36*
X610000Y697608D02*
X607854Y697181D01*
X606035Y695965D01*
X604819Y694146D01*
X604392Y692000D01*
X604819Y689854D01*
X606035Y688035D01*
X607854Y686819D01*
X610000Y686392D01*
X612146Y686819D01*
X613965Y688035D01*
X615181Y689854D01*
X615608Y692000D01*
X615181Y694146D01*
X613965Y695965D01*
X612146Y697181D01*
X610000Y697608D01*
D02*
G37*
G36*
Y643608D02*
X607854Y643181D01*
X606035Y641965D01*
X604819Y640146D01*
X604392Y638000D01*
X604819Y635854D01*
X606035Y634035D01*
X607854Y632819D01*
X610000Y632392D01*
X612146Y632819D01*
X613965Y634035D01*
X615181Y635854D01*
X615608Y638000D01*
X615181Y640146D01*
X613965Y641965D01*
X612146Y643181D01*
X610000Y643608D01*
D02*
G37*
G36*
X661000Y634608D02*
X658854Y634181D01*
X657035Y632965D01*
X655819Y631146D01*
X655392Y629000D01*
X655819Y626854D01*
X657035Y625035D01*
X658854Y623819D01*
X661000Y623392D01*
X663146Y623819D01*
X664965Y625035D01*
X666181Y626854D01*
X666608Y629000D01*
X666181Y631146D01*
X664965Y632965D01*
X663146Y634181D01*
X661000Y634608D01*
D02*
G37*
G36*
X601000Y622608D02*
X598854Y622181D01*
X597035Y620965D01*
X595819Y619146D01*
X595392Y617000D01*
X595819Y614854D01*
X597035Y613035D01*
X598854Y611819D01*
X601000Y611392D01*
X603146Y611819D01*
X604965Y613035D01*
X606181Y614854D01*
X606608Y617000D01*
X606181Y619146D01*
X604965Y620965D01*
X603146Y622181D01*
X601000Y622608D01*
D02*
G37*
G36*
Y609608D02*
X598854Y609181D01*
X597035Y607965D01*
X595819Y606146D01*
X595392Y604000D01*
X595819Y601854D01*
X597035Y600035D01*
X598854Y598819D01*
X601000Y598392D01*
X603146Y598819D01*
X604965Y600035D01*
X606181Y601854D01*
X606608Y604000D01*
X606181Y606146D01*
X604965Y607965D01*
X603146Y609181D01*
X601000Y609608D01*
D02*
G37*
G36*
X579000Y596608D02*
X576854Y596181D01*
X575035Y594965D01*
X573819Y593146D01*
X573392Y591000D01*
X573819Y588854D01*
X575035Y587035D01*
X576854Y585819D01*
X579000Y585392D01*
X581146Y585819D01*
X582965Y587035D01*
X584181Y588854D01*
X584608Y591000D01*
X584181Y593146D01*
X582965Y594965D01*
X581146Y596181D01*
X579000Y596608D01*
D02*
G37*
G36*
X610000Y587608D02*
X607854Y587181D01*
X606035Y585965D01*
X604819Y584146D01*
X604392Y582000D01*
X604819Y579854D01*
X606035Y578035D01*
X607854Y576819D01*
X610000Y576392D01*
X612146Y576819D01*
X613965Y578035D01*
X615181Y579854D01*
X615608Y582000D01*
X615181Y584146D01*
X613965Y585965D01*
X612146Y587181D01*
X610000Y587608D01*
D02*
G37*
G36*
X580000Y565608D02*
X577854Y565181D01*
X576035Y563965D01*
X574819Y562146D01*
X574392Y560000D01*
X574819Y557854D01*
X576035Y556035D01*
X577854Y554819D01*
X580000Y554392D01*
X582146Y554819D01*
X583965Y556035D01*
X585181Y557854D01*
X585608Y560000D01*
X585181Y562146D01*
X583965Y563965D01*
X582146Y565181D01*
X580000Y565608D01*
D02*
G37*
G36*
X561000Y540608D02*
X558854Y540181D01*
X557035Y538965D01*
X555819Y537146D01*
X555392Y535000D01*
X555819Y532854D01*
X557035Y531035D01*
X558854Y529819D01*
X561000Y529392D01*
X563146Y529819D01*
X564965Y531035D01*
X566181Y532854D01*
X566608Y535000D01*
X566181Y537146D01*
X564965Y538965D01*
X563146Y540181D01*
X561000Y540608D01*
D02*
G37*
G36*
X610000Y533608D02*
X607854Y533181D01*
X606035Y531965D01*
X604819Y530146D01*
X604392Y528000D01*
X604819Y525854D01*
X606035Y524035D01*
X607854Y522819D01*
X610000Y522392D01*
X612146Y522819D01*
X613965Y524035D01*
X615181Y525854D01*
X615608Y528000D01*
X615181Y530146D01*
X613965Y531965D01*
X612146Y533181D01*
X610000Y533608D01*
D02*
G37*
G36*
X661000Y524608D02*
X658854Y524181D01*
X657035Y522965D01*
X655819Y521146D01*
X655392Y519000D01*
X655819Y516854D01*
X657035Y515035D01*
X658854Y513819D01*
X661000Y513392D01*
X663146Y513819D01*
X664965Y515035D01*
X666181Y516854D01*
X666608Y519000D01*
X666181Y521146D01*
X664965Y522965D01*
X663146Y524181D01*
X661000Y524608D01*
D02*
G37*
G36*
X601000Y512608D02*
X598854Y512181D01*
X597035Y510965D01*
X595819Y509146D01*
X595392Y507000D01*
X595819Y504854D01*
X597035Y503035D01*
X598854Y501819D01*
X601000Y501392D01*
X603146Y501819D01*
X604965Y503035D01*
X606181Y504854D01*
X606608Y507000D01*
X606181Y509146D01*
X604965Y510965D01*
X603146Y512181D01*
X601000Y512608D01*
D02*
G37*
G36*
X661000Y499608D02*
X658854Y499181D01*
X657035Y497965D01*
X655819Y496146D01*
X655392Y494000D01*
X655819Y491854D01*
X657035Y490035D01*
X658854Y488819D01*
X661000Y488392D01*
X663146Y488819D01*
X664965Y490035D01*
X666181Y491854D01*
X666608Y494000D01*
X666181Y496146D01*
X664965Y497965D01*
X663146Y499181D01*
X661000Y499608D01*
D02*
G37*
G36*
X601000Y498608D02*
X598854Y498181D01*
X597035Y496965D01*
X595819Y495146D01*
X595392Y493000D01*
X595819Y490854D01*
X597035Y489035D01*
X598854Y487819D01*
X601000Y487392D01*
X603146Y487819D01*
X604965Y489035D01*
X606181Y490854D01*
X606608Y493000D01*
X606181Y495146D01*
X604965Y496965D01*
X603146Y498181D01*
X601000Y498608D01*
D02*
G37*
G36*
X580000Y486608D02*
X577854Y486181D01*
X576035Y484965D01*
X574819Y483146D01*
X574392Y481000D01*
X574819Y478854D01*
X576035Y477035D01*
X577854Y475819D01*
X580000Y475392D01*
X582146Y475819D01*
X583965Y477035D01*
X585181Y478854D01*
X585608Y481000D01*
X585181Y483146D01*
X583965Y484965D01*
X582146Y486181D01*
X580000Y486608D01*
D02*
G37*
G36*
X610000Y477608D02*
X607854Y477181D01*
X606035Y475965D01*
X604819Y474146D01*
X604392Y472000D01*
X604819Y469854D01*
X606035Y468035D01*
X607854Y466819D01*
X610000Y466392D01*
X612146Y466819D01*
X613965Y468035D01*
X615181Y469854D01*
X615608Y472000D01*
X615181Y474146D01*
X613965Y475965D01*
X612146Y477181D01*
X610000Y477608D01*
D02*
G37*
G36*
X735000Y770608D02*
X732854Y770181D01*
X731035Y768965D01*
X729819Y767146D01*
X729392Y765000D01*
X729819Y762854D01*
X731035Y761035D01*
X732854Y759819D01*
X735000Y759392D01*
X737146Y759819D01*
X738965Y761035D01*
X740181Y762854D01*
X740608Y765000D01*
X740181Y767146D01*
X738965Y768965D01*
X737146Y770181D01*
X735000Y770608D01*
D02*
G37*
G36*
X715000D02*
X712854Y770181D01*
X711035Y768965D01*
X709819Y767146D01*
X709392Y765000D01*
X709819Y762854D01*
X711035Y761035D01*
X712854Y759819D01*
X715000Y759392D01*
X717146Y759819D01*
X718965Y761035D01*
X720181Y762854D01*
X720608Y765000D01*
X720181Y767146D01*
X718965Y768965D01*
X717146Y770181D01*
X715000Y770608D01*
D02*
G37*
G36*
X855000Y700608D02*
X852854Y700181D01*
X851035Y698965D01*
X849819Y697146D01*
X849392Y695000D01*
X849819Y692854D01*
X851035Y691035D01*
X852854Y689819D01*
X855000Y689392D01*
X857146Y689819D01*
X858965Y691035D01*
X860181Y692854D01*
X860608Y695000D01*
X860181Y697146D01*
X858965Y698965D01*
X857146Y700181D01*
X855000Y700608D01*
D02*
G37*
G36*
X840000D02*
X837854Y700181D01*
X836035Y698965D01*
X834819Y697146D01*
X834392Y695000D01*
X834819Y692854D01*
X836035Y691035D01*
X837854Y689819D01*
X840000Y689392D01*
X842146Y689819D01*
X843965Y691035D01*
X845181Y692854D01*
X845608Y695000D01*
X845181Y697146D01*
X843965Y698965D01*
X842146Y700181D01*
X840000Y700608D01*
D02*
G37*
G36*
X810000D02*
X807854Y700181D01*
X806035Y698965D01*
X804819Y697146D01*
X804392Y695000D01*
X804819Y692854D01*
X806035Y691035D01*
X807854Y689819D01*
X810000Y689392D01*
X812146Y689819D01*
X813965Y691035D01*
X815181Y692854D01*
X815608Y695000D01*
X815181Y697146D01*
X813965Y698965D01*
X812146Y700181D01*
X810000Y700608D01*
D02*
G37*
G36*
X735000Y666608D02*
X732854Y666181D01*
X731035Y664965D01*
X729819Y663146D01*
X729392Y661000D01*
X729819Y658854D01*
X731035Y657035D01*
X732854Y655819D01*
X735000Y655392D01*
X737146Y655819D01*
X738965Y657035D01*
X740181Y658854D01*
X740608Y661000D01*
X740181Y663146D01*
X738965Y664965D01*
X737146Y666181D01*
X735000Y666608D01*
D02*
G37*
G36*
X715000D02*
X712854Y666181D01*
X711035Y664965D01*
X709819Y663146D01*
X709392Y661000D01*
X709819Y658854D01*
X711035Y657035D01*
X712854Y655819D01*
X715000Y655392D01*
X717146Y655819D01*
X718965Y657035D01*
X720181Y658854D01*
X720608Y661000D01*
X720181Y663146D01*
X718965Y664965D01*
X717146Y666181D01*
X715000Y666608D01*
D02*
G37*
%LPD*%
D27*
X765000Y943000D02*
X774000Y952000D01*
X685000Y943000D02*
X765000D01*
X661000Y919000D02*
X685000Y943000D01*
X661000Y819000D02*
Y823000D01*
Y714000D02*
X690000Y743000D01*
X764000D01*
X773000Y752000D01*
X661000Y604000D02*
X697000Y640000D01*
X766000D01*
X773000Y647000D01*
X661000Y823000D02*
X682000Y844000D01*
X765000D01*
X774000Y853000D01*
D28*
X800000Y569000D02*
X851000D01*
X793000Y576000D02*
X800000Y569000D01*
X816000Y594000D02*
X822000Y600000D01*
X741000Y594000D02*
X816000D01*
X737000Y590000D02*
X741000Y594000D01*
X325000Y415000D02*
Y775800D01*
Y415000D02*
X350000Y390000D01*
X554000D01*
X561000Y397000D01*
X668000D01*
X687000Y416000D01*
X685000Y590000D02*
X737000D01*
X701000Y927000D02*
X774000D01*
X698000Y930000D02*
X701000Y927000D01*
X685000Y930000D02*
X698000D01*
X685000Y905000D02*
X692000Y912000D01*
X815000D01*
X822000Y905000D01*
X700000Y827000D02*
X774000D01*
X697000Y830000D02*
X700000Y827000D01*
X685000Y830000D02*
X697000D01*
X815000Y813000D02*
X822000Y806000D01*
X693000Y813000D02*
X815000D01*
X685000Y805000D02*
X693000Y813000D01*
X773000Y728000D02*
X774000Y727000D01*
X688000Y728000D02*
X773000D01*
X685000Y725000D02*
X688000Y728000D01*
X685000Y700000D02*
X698000Y713000D01*
X815000D01*
X822000Y706000D01*
X686000Y480000D02*
X761000Y555000D01*
X773000D01*
X783000Y565000D01*
X771000Y625000D02*
X774000Y622000D01*
X695000Y625000D02*
X771000D01*
X685000Y615000D02*
X695000Y625000D01*
X325000Y775800D02*
X354600Y805400D01*
X680000Y576000D02*
X793000D01*
X622000Y518000D02*
X680000Y576000D01*
X687000Y416000D02*
Y430000D01*
D29*
X790000Y620000D02*
X877000D01*
X881000Y616000D01*
X662000Y573000D02*
Y588000D01*
X678000Y604000D01*
X774000D01*
X790000Y620000D01*
D37*
X959000Y457500D02*
D03*
D38*
X1015000Y485700D02*
D03*
X1015000Y785700D02*
D03*
Y823800D02*
D03*
D40*
X354600Y805400D02*
D03*
D42*
X645400Y415000D02*
D03*
D43*
X881000Y616000D02*
D03*
X851000Y569000D02*
D03*
X940000Y645000D02*
D03*
X662000Y573000D02*
D03*
X800000Y635000D02*
D03*
X815000D02*
D03*
X830000D02*
D03*
X845000D02*
D03*
X860000D02*
D03*
X810000Y758000D02*
D03*
X825000D02*
D03*
X840000D02*
D03*
X855000D02*
D03*
X871000D02*
D03*
X870000Y740000D02*
D03*
X855000D02*
D03*
X840000D02*
D03*
X825000D02*
D03*
X810000D02*
D03*
X815000Y840000D02*
D03*
X830000D02*
D03*
X800000D02*
D03*
X845000D02*
D03*
X860000D02*
D03*
X940000Y1015000D02*
D03*
X907000Y955000D02*
D03*
Y980000D02*
D03*
Y1005000D02*
D03*
Y1025000D02*
D03*
X940000Y968000D02*
D03*
X724000Y990000D02*
D03*
X930000Y955000D02*
D03*
Y980000D02*
D03*
Y1005000D02*
D03*
Y1025000D02*
D03*
X822000Y600000D02*
D03*
X774000Y622000D02*
D03*
X822000Y706000D02*
D03*
X774000Y727000D02*
D03*
X822000Y806000D02*
D03*
X774000Y827000D02*
D03*
X822000Y905000D02*
D03*
X774000Y927000D02*
D03*
X686000Y480000D02*
D03*
X685000Y590000D02*
D03*
Y615000D02*
D03*
Y700000D02*
D03*
Y725000D02*
D03*
Y805000D02*
D03*
Y830000D02*
D03*
Y905000D02*
D03*
Y930000D02*
D03*
X783000Y565000D02*
D03*
X661000Y604000D02*
D03*
Y714000D02*
D03*
Y819000D02*
D03*
Y919000D02*
D03*
X581950Y629050D02*
D03*
X581950Y739050D02*
D03*
X582950Y844050D02*
D03*
X578950Y944050D02*
D03*
X581000Y519000D02*
D03*
X774000Y952000D02*
D03*
Y853000D02*
D03*
X773000Y752000D02*
D03*
Y647000D02*
D03*
X454000Y881000D02*
D03*
X472500Y797000D02*
D03*
X540000Y490000D02*
D03*
X560000D02*
D03*
X540000Y465000D02*
D03*
X560000D02*
D03*
X517000Y737000D02*
D03*
X687000Y430000D02*
D03*
X718620Y790000D02*
D03*
X738000Y464000D02*
D03*
X622000Y518000D02*
D03*
X800000Y855000D02*
D03*
X815000D02*
D03*
X830000D02*
D03*
X845000D02*
D03*
X860000D02*
D03*
X875000D02*
D03*
X890000D02*
D03*
X905000D02*
D03*
X920000D02*
D03*
X870000Y650000D02*
D03*
X855000D02*
D03*
X840000D02*
D03*
X825000D02*
D03*
X810000D02*
D03*
X1005000Y735000D02*
D03*
Y720000D02*
D03*
Y705000D02*
D03*
Y690000D02*
D03*
Y675000D02*
D03*
Y660000D02*
D03*
X965000Y735000D02*
D03*
Y720000D02*
D03*
Y705000D02*
D03*
Y690000D02*
D03*
Y675000D02*
D03*
Y660000D02*
D03*
X815000Y450000D02*
D03*
X830000D02*
D03*
X850000D02*
D03*
X865000D02*
D03*
X885000D02*
D03*
X900000D02*
D03*
X920000D02*
D03*
X890000Y475000D02*
D03*
Y505000D02*
D03*
Y525000D02*
D03*
Y550000D02*
D03*
X945000Y490000D02*
D03*
X985000D02*
D03*
X925000D02*
D03*
X965000D02*
D03*
M02*
