G04 Layer_Color=8388736*
%FSLAX44Y44*%
%MOMM*%
G71*
G01*
G75*
%ADD118R,1.0032X1.1032*%
%ADD119R,2.4032X0.7032*%
%ADD120O,2.4032X0.7032*%
%ADD121R,2.3332X3.2032*%
%ADD122R,4.7032X2.4032*%
%ADD123R,1.6032X2.8032*%
%ADD124R,4.0032X4.4032*%
%ADD125O,0.8032X2.4032*%
%ADD126R,2.4032X4.7032*%
%ADD127R,4.2032X2.2032*%
%ADD128R,2.0032X2.7032*%
%ADD129R,2.7032X2.0032*%
%ADD130R,2.4032X1.7032*%
%ADD131O,0.8032X2.1032*%
%ADD132R,0.8032X2.1032*%
%ADD133R,1.8032X0.8032*%
G04:AMPARAMS|DCode=134|XSize=1.8032mm|YSize=0.8032mm|CornerRadius=0.2516mm|HoleSize=0mm|Usage=FLASHONLY|Rotation=0.000|XOffset=0mm|YOffset=0mm|HoleType=Round|Shape=RoundedRectangle|*
%AMROUNDEDRECTD134*
21,1,1.8032,0.3000,0,0,0.0*
21,1,1.3000,0.8032,0,0,0.0*
1,1,0.5032,0.6500,-0.1500*
1,1,0.5032,-0.6500,-0.1500*
1,1,0.5032,-0.6500,0.1500*
1,1,0.5032,0.6500,0.1500*
%
%ADD134ROUNDEDRECTD134*%
%ADD135R,0.5032X1.2032*%
%ADD136O,0.5032X1.2032*%
%ADD137O,2.4032X0.8032*%
%ADD138R,1.1032X1.0032*%
%ADD139O,0.8032X2.1032*%
%ADD140R,2.2032X2.0032*%
%ADD141R,2.0032X2.2032*%
%ADD142O,1.7532X0.4532*%
%ADD143O,0.4532X1.7532*%
%ADD144R,2.8032X1.6032*%
%ADD145R,1.9032X1.4532*%
%ADD146C,1.2032*%
%ADD147R,1.8032X5.8032*%
%ADD148R,1.7032X2.4032*%
%ADD149R,4.5032X1.0032*%
%ADD150R,3.7032X3.0032*%
%ADD151R,1.8032X3.0032*%
%ADD152R,2.8032X3.8032*%
%ADD153O,1.2032X0.5032*%
%ADD154R,1.2032X0.5032*%
%ADD155R,0.5032X1.2032*%
%ADD156R,2.8032X2.8032*%
%ADD157O,0.5032X1.0032*%
%ADD158R,0.5032X1.0032*%
%ADD159R,1.0032X0.5032*%
%ADD160R,5.2032X9.2032*%
%ADD161O,0.4032X1.0032*%
%ADD162R,0.4032X1.0032*%
%ADD163R,1.0032X0.4032*%
%ADD164R,0.9032X0.5032*%
%ADD165R,0.5032X0.9032*%
%ADD166R,0.9032X1.6032*%
%ADD167R,1.2192X1.0032*%
%ADD168R,0.8500X0.9500*%
%ADD169R,5.5032X2.7032*%
%ADD170R,2.8032X2.8032*%
%ADD171O,0.5032X1.0532*%
%ADD172O,1.0532X0.5032*%
%ADD173C,1.9032*%
%ADD174O,1.7032X1.9032*%
%ADD175C,5.2032*%
%ADD176O,1.9032X1.7032*%
%ADD177C,1.8032*%
%ADD178R,1.8032X1.8032*%
%ADD179C,1.6032*%
%ADD180C,2.4032*%
%ADD181C,3.5032*%
%ADD182O,1.6032X1.7032*%
%ADD183C,2.3032*%
%ADD184C,0.7032*%
D118*
X1073620Y1814000D02*
D03*
X1058380D02*
D03*
X1101620D02*
D03*
X1086380D02*
D03*
X1075000Y1888000D02*
D03*
X1061000D02*
D03*
X537620Y899000D02*
D03*
X522380D02*
D03*
X1035620Y1059000D02*
D03*
X1020380D02*
D03*
X771000Y1199000D02*
D03*
X785000D02*
D03*
X814000Y1199000D02*
D03*
X800000D02*
D03*
X801380Y707000D02*
D03*
X816620D02*
D03*
X503380Y617000D02*
D03*
X518620D02*
D03*
X497000Y640000D02*
D03*
X483000D02*
D03*
X348000Y685000D02*
D03*
X362000D02*
D03*
X396000Y758000D02*
D03*
X382000D02*
D03*
X361380Y775000D02*
D03*
X376620D02*
D03*
X334380D02*
D03*
X349620D02*
D03*
X579380Y581000D02*
D03*
X594620D02*
D03*
X549380Y581000D02*
D03*
X564620D02*
D03*
X549380Y604000D02*
D03*
X564620D02*
D03*
X579380Y605000D02*
D03*
X594620D02*
D03*
X476620Y686000D02*
D03*
X461380D02*
D03*
X504620D02*
D03*
X489380D02*
D03*
X1065380Y907000D02*
D03*
X1080620D02*
D03*
X1065380Y894000D02*
D03*
X1080620D02*
D03*
X1056000Y872000D02*
D03*
X1070000D02*
D03*
X1145000Y741000D02*
D03*
X1131000D02*
D03*
X1172620Y770000D02*
D03*
X1157380D02*
D03*
X1172620Y786000D02*
D03*
X1157380D02*
D03*
X1019380Y1440000D02*
D03*
X1034620D02*
D03*
X1019380Y1453000D02*
D03*
X1034620D02*
D03*
X1050380Y1495000D02*
D03*
X1065620D02*
D03*
X1050380Y1508000D02*
D03*
X1065620D02*
D03*
X1050380Y1521000D02*
D03*
X1065620D02*
D03*
X1138000Y1360000D02*
D03*
X1124000D02*
D03*
X575620Y1505000D02*
D03*
X560380D02*
D03*
X527000Y1522000D02*
D03*
X541000D02*
D03*
X1165620Y1390000D02*
D03*
X1150380D02*
D03*
X1165620Y1408000D02*
D03*
X1150380D02*
D03*
X390380Y1850000D02*
D03*
X405620D02*
D03*
X1204620Y350000D02*
D03*
X1189380D02*
D03*
X1204620Y1850000D02*
D03*
X1189380D02*
D03*
X960380Y1600000D02*
D03*
X975620D02*
D03*
X932000Y1633000D02*
D03*
X946000D02*
D03*
D119*
X1039000Y1871000D02*
D03*
X360000Y739000D02*
D03*
D120*
X1039000Y1858300D02*
D03*
Y1845600D02*
D03*
Y1832900D02*
D03*
X1096500Y1871000D02*
D03*
Y1858300D02*
D03*
Y1845600D02*
D03*
Y1832900D02*
D03*
X417500Y700900D02*
D03*
Y713600D02*
D03*
Y726300D02*
D03*
Y739000D02*
D03*
X360000Y700900D02*
D03*
Y713600D02*
D03*
Y726300D02*
D03*
D121*
X1067750Y1851950D02*
D03*
X388750Y719950D02*
D03*
D122*
X1145000Y1869500D02*
D03*
Y1826500D02*
D03*
D123*
X1181240Y1788000D02*
D03*
X1150760D02*
D03*
X434760Y545000D02*
D03*
X465240D02*
D03*
X434760Y650000D02*
D03*
X465240D02*
D03*
D124*
X843000Y1492000D02*
D03*
Y1558000D02*
D03*
D125*
X923450Y1748000D02*
D03*
X910750D02*
D03*
X898050D02*
D03*
X885350D02*
D03*
X872650D02*
D03*
X859950D02*
D03*
X847250D02*
D03*
X834550D02*
D03*
X923450Y1694000D02*
D03*
X910750D02*
D03*
X898050D02*
D03*
X885350D02*
D03*
X872650D02*
D03*
X859950D02*
D03*
X847250D02*
D03*
X834550D02*
D03*
D126*
X504500Y727000D02*
D03*
X461500D02*
D03*
D127*
X583000Y812000D02*
D03*
Y778000D02*
D03*
X589000Y644000D02*
D03*
Y678000D02*
D03*
D128*
X930000Y1180000D02*
D03*
X902000D02*
D03*
X683000Y1562000D02*
D03*
X655000D02*
D03*
D129*
X1168000Y1714000D02*
D03*
Y1686000D02*
D03*
D130*
X969000Y672000D02*
D03*
Y628000D02*
D03*
X1030000D02*
D03*
Y672000D02*
D03*
X1090000D02*
D03*
Y628000D02*
D03*
X915000Y633000D02*
D03*
Y677000D02*
D03*
X790000Y633000D02*
D03*
Y677000D02*
D03*
D131*
X905100Y716000D02*
D03*
X892400D02*
D03*
Y816000D02*
D03*
X905100D02*
D03*
X917800Y716000D02*
D03*
X930500D02*
D03*
X943200D02*
D03*
X955900D02*
D03*
X968600D02*
D03*
X981300D02*
D03*
X994000D02*
D03*
X1006700D02*
D03*
X917800Y816000D02*
D03*
X930500D02*
D03*
X943200D02*
D03*
X955900D02*
D03*
X968600D02*
D03*
X981300D02*
D03*
X994000D02*
D03*
D132*
X1006700D02*
D03*
D133*
X1130000Y1589000D02*
D03*
Y1600000D02*
D03*
Y1611000D02*
D03*
Y1622000D02*
D03*
Y1633000D02*
D03*
Y1663000D02*
D03*
Y1674000D02*
D03*
Y1685000D02*
D03*
Y1696000D02*
D03*
Y1707000D02*
D03*
Y1718000D02*
D03*
Y1729000D02*
D03*
X1008000Y1589000D02*
D03*
Y1600000D02*
D03*
Y1611000D02*
D03*
Y1622000D02*
D03*
Y1633000D02*
D03*
Y1663000D02*
D03*
Y1674000D02*
D03*
Y1685000D02*
D03*
Y1696000D02*
D03*
Y1707000D02*
D03*
Y1718000D02*
D03*
D134*
Y1729000D02*
D03*
D135*
X610000Y500000D02*
D03*
X680000Y440000D02*
D03*
D136*
X603500Y500000D02*
D03*
X597000D02*
D03*
X590500D02*
D03*
X584000D02*
D03*
X577500D02*
D03*
X571000D02*
D03*
X564500D02*
D03*
X558000D02*
D03*
X551500D02*
D03*
X610000Y437000D02*
D03*
X603500D02*
D03*
X597000D02*
D03*
X590500D02*
D03*
X584000D02*
D03*
X577500D02*
D03*
X571000D02*
D03*
X564500D02*
D03*
X558000D02*
D03*
X551500D02*
D03*
X686500Y440000D02*
D03*
X693000D02*
D03*
X699500D02*
D03*
X706000D02*
D03*
X712500D02*
D03*
X719000D02*
D03*
X725500D02*
D03*
X732000D02*
D03*
X738500D02*
D03*
X680000Y503000D02*
D03*
X686500D02*
D03*
X693000D02*
D03*
X699500D02*
D03*
X706000D02*
D03*
X712500D02*
D03*
X719000D02*
D03*
X725500D02*
D03*
X732000D02*
D03*
X738500D02*
D03*
D137*
X448000Y949450D02*
D03*
Y936750D02*
D03*
Y924050D02*
D03*
Y911350D02*
D03*
Y898650D02*
D03*
Y885950D02*
D03*
Y873250D02*
D03*
Y860550D02*
D03*
X502000Y949450D02*
D03*
Y936750D02*
D03*
Y924050D02*
D03*
Y911350D02*
D03*
Y898650D02*
D03*
Y885950D02*
D03*
Y873250D02*
D03*
Y860550D02*
D03*
Y1176550D02*
D03*
Y1189250D02*
D03*
Y1201950D02*
D03*
Y1214650D02*
D03*
Y1227350D02*
D03*
Y1240050D02*
D03*
Y1252750D02*
D03*
Y1265450D02*
D03*
X448000Y1176550D02*
D03*
Y1189250D02*
D03*
Y1201950D02*
D03*
Y1214650D02*
D03*
Y1227350D02*
D03*
Y1240050D02*
D03*
Y1252750D02*
D03*
Y1265450D02*
D03*
Y1389450D02*
D03*
Y1376750D02*
D03*
Y1364050D02*
D03*
Y1351350D02*
D03*
Y1338650D02*
D03*
Y1325950D02*
D03*
Y1313250D02*
D03*
Y1300550D02*
D03*
X502000Y1389450D02*
D03*
Y1376750D02*
D03*
Y1364050D02*
D03*
Y1351350D02*
D03*
Y1338650D02*
D03*
Y1325950D02*
D03*
Y1313250D02*
D03*
Y1300550D02*
D03*
Y1435550D02*
D03*
Y1448250D02*
D03*
Y1460950D02*
D03*
Y1473650D02*
D03*
Y1486350D02*
D03*
Y1499050D02*
D03*
Y1511750D02*
D03*
Y1524450D02*
D03*
X448000Y1435550D02*
D03*
Y1448250D02*
D03*
Y1460950D02*
D03*
Y1473650D02*
D03*
Y1486350D02*
D03*
Y1499050D02*
D03*
Y1511750D02*
D03*
Y1524450D02*
D03*
D138*
X1045000Y987620D02*
D03*
Y972380D02*
D03*
X722000Y780620D02*
D03*
Y765380D02*
D03*
X706000Y780620D02*
D03*
Y765380D02*
D03*
X690000Y780620D02*
D03*
Y765380D02*
D03*
X722000Y750620D02*
D03*
Y735380D02*
D03*
X706000Y750620D02*
D03*
Y735380D02*
D03*
X690000Y750620D02*
D03*
Y735380D02*
D03*
X485000Y542380D02*
D03*
Y557620D02*
D03*
X505000Y557380D02*
D03*
Y572620D02*
D03*
X520000Y572380D02*
D03*
Y587620D02*
D03*
X335000Y700620D02*
D03*
Y685380D02*
D03*
Y727620D02*
D03*
Y712380D02*
D03*
X624000Y642380D02*
D03*
Y657620D02*
D03*
X625000Y671380D02*
D03*
Y686620D02*
D03*
X534000Y736620D02*
D03*
Y721380D02*
D03*
X616000Y749620D02*
D03*
Y734380D02*
D03*
Y776620D02*
D03*
Y761380D02*
D03*
X685000Y1263620D02*
D03*
Y1248380D02*
D03*
X550000Y1491620D02*
D03*
Y1476380D02*
D03*
X564000D02*
D03*
Y1491620D02*
D03*
X576000Y1476380D02*
D03*
Y1491620D02*
D03*
X588000D02*
D03*
Y1476380D02*
D03*
X600000D02*
D03*
Y1491620D02*
D03*
X612000D02*
D03*
Y1476380D02*
D03*
X634000Y1474380D02*
D03*
Y1489620D02*
D03*
X514000Y1544000D02*
D03*
Y1558000D02*
D03*
X550000Y1543380D02*
D03*
Y1558620D02*
D03*
X396000Y350380D02*
D03*
Y365620D02*
D03*
X958000Y1585000D02*
D03*
Y1571000D02*
D03*
X979000Y1585000D02*
D03*
Y1571000D02*
D03*
D139*
X828050Y789000D02*
D03*
X815350D02*
D03*
X802650D02*
D03*
X789950D02*
D03*
X828050Y729000D02*
D03*
X815350D02*
D03*
X802650D02*
D03*
X789950D02*
D03*
D140*
X973000Y1024000D02*
D03*
Y974000D02*
D03*
X1015000Y1024000D02*
D03*
Y974000D02*
D03*
D141*
X749000Y1325000D02*
D03*
X699000D02*
D03*
X749000Y1283000D02*
D03*
X699000D02*
D03*
D142*
X846250Y1133500D02*
D03*
Y1128500D02*
D03*
Y1123500D02*
D03*
Y1118500D02*
D03*
Y1113500D02*
D03*
Y1108500D02*
D03*
Y1103500D02*
D03*
Y1098500D02*
D03*
Y1093500D02*
D03*
Y1088500D02*
D03*
Y1083500D02*
D03*
Y1078500D02*
D03*
Y1073500D02*
D03*
Y1068500D02*
D03*
Y1063500D02*
D03*
Y1058500D02*
D03*
Y1053500D02*
D03*
Y1048500D02*
D03*
Y1043500D02*
D03*
Y1038500D02*
D03*
Y1033500D02*
D03*
Y1028500D02*
D03*
Y1023500D02*
D03*
Y1018500D02*
D03*
Y1013500D02*
D03*
Y1008500D02*
D03*
Y1003500D02*
D03*
Y998500D02*
D03*
Y993500D02*
D03*
Y988500D02*
D03*
Y983500D02*
D03*
Y978500D02*
D03*
Y973500D02*
D03*
Y968500D02*
D03*
Y963500D02*
D03*
Y958500D02*
D03*
X635750D02*
D03*
Y963500D02*
D03*
Y968500D02*
D03*
Y973500D02*
D03*
Y978500D02*
D03*
Y983500D02*
D03*
Y988500D02*
D03*
Y993500D02*
D03*
Y998500D02*
D03*
Y1003500D02*
D03*
Y1008500D02*
D03*
Y1013500D02*
D03*
Y1018500D02*
D03*
Y1023500D02*
D03*
Y1028500D02*
D03*
Y1033500D02*
D03*
Y1038500D02*
D03*
Y1043500D02*
D03*
Y1048500D02*
D03*
Y1053500D02*
D03*
Y1058500D02*
D03*
Y1063500D02*
D03*
Y1068500D02*
D03*
Y1073500D02*
D03*
Y1078500D02*
D03*
Y1083500D02*
D03*
Y1088500D02*
D03*
Y1093500D02*
D03*
Y1098500D02*
D03*
Y1103500D02*
D03*
Y1108500D02*
D03*
Y1113500D02*
D03*
Y1118500D02*
D03*
Y1123500D02*
D03*
Y1128500D02*
D03*
Y1133500D02*
D03*
D143*
X828500Y940750D02*
D03*
X823500D02*
D03*
X818500D02*
D03*
X813500D02*
D03*
X808500D02*
D03*
X803500D02*
D03*
X798500D02*
D03*
X793500D02*
D03*
X788500D02*
D03*
X783500D02*
D03*
X778500D02*
D03*
X773500D02*
D03*
X768500D02*
D03*
X763500D02*
D03*
X758500D02*
D03*
X753500D02*
D03*
X748500D02*
D03*
X743500D02*
D03*
X738500D02*
D03*
X733500D02*
D03*
X728500D02*
D03*
X723500D02*
D03*
X718500D02*
D03*
X713500D02*
D03*
X708500D02*
D03*
X703500D02*
D03*
X698500D02*
D03*
X693500D02*
D03*
X688500D02*
D03*
X683500D02*
D03*
X678500D02*
D03*
X673500D02*
D03*
X668500D02*
D03*
X663500D02*
D03*
X658500D02*
D03*
X653500D02*
D03*
Y1151250D02*
D03*
X658500D02*
D03*
X663500D02*
D03*
X668500D02*
D03*
X673500D02*
D03*
X678500D02*
D03*
X683500D02*
D03*
X688500D02*
D03*
X693500D02*
D03*
X698500D02*
D03*
X703500D02*
D03*
X708500D02*
D03*
X713500D02*
D03*
X718500D02*
D03*
X723500D02*
D03*
X728500D02*
D03*
X733500D02*
D03*
X738500D02*
D03*
X743500D02*
D03*
X748500D02*
D03*
X753500D02*
D03*
X758500D02*
D03*
X763500D02*
D03*
X768500D02*
D03*
X773500D02*
D03*
X778500D02*
D03*
X783500D02*
D03*
X788500D02*
D03*
X793500D02*
D03*
X798500D02*
D03*
X803500D02*
D03*
X808500D02*
D03*
X813500D02*
D03*
X818500D02*
D03*
X823500D02*
D03*
X828500D02*
D03*
D144*
X537000Y793240D02*
D03*
Y762760D02*
D03*
X541000Y647760D02*
D03*
Y678240D02*
D03*
D145*
X1158002Y1627000D02*
D03*
Y1595000D02*
D03*
D146*
X1165000Y515000D02*
D03*
Y540000D02*
D03*
Y565000D02*
D03*
Y590000D02*
D03*
Y615000D02*
D03*
Y640000D02*
D03*
Y665000D02*
D03*
Y690000D02*
D03*
Y746000D02*
D03*
Y838000D02*
D03*
Y822000D02*
D03*
X1170000Y804000D02*
D03*
Y1211034D02*
D03*
Y1231000D02*
D03*
Y1251000D02*
D03*
Y1271000D02*
D03*
Y1291000D02*
D03*
Y1311000D02*
D03*
Y1330500D02*
D03*
Y1350000D02*
D03*
Y1370000D02*
D03*
Y1430000D02*
D03*
Y1450000D02*
D03*
Y1470000D02*
D03*
D147*
X1055000Y470000D02*
D03*
X1088000D02*
D03*
X1022000D02*
D03*
X820000D02*
D03*
X853000D02*
D03*
X787000D02*
D03*
X935000D02*
D03*
X968000D02*
D03*
X902000D02*
D03*
D148*
X828000Y640000D02*
D03*
X872000D02*
D03*
D149*
X790000Y565000D02*
D03*
X850000D02*
D03*
X915000D02*
D03*
X975000D02*
D03*
X1035000D02*
D03*
X1090000D02*
D03*
D150*
X790000Y540000D02*
D03*
Y590000D02*
D03*
X850000Y540000D02*
D03*
Y590000D02*
D03*
X915000Y540000D02*
D03*
Y590000D02*
D03*
X975000Y540000D02*
D03*
Y590000D02*
D03*
X1035000Y540000D02*
D03*
Y590000D02*
D03*
X1090000Y540000D02*
D03*
Y590000D02*
D03*
D151*
X328000Y450000D02*
D03*
X385000D02*
D03*
X328000Y510000D02*
D03*
X385000D02*
D03*
D152*
X470000Y600000D02*
D03*
D153*
X450000Y615000D02*
D03*
D154*
Y610000D02*
D03*
Y605000D02*
D03*
Y600000D02*
D03*
Y595000D02*
D03*
Y590000D02*
D03*
Y585000D02*
D03*
X490000D02*
D03*
Y590000D02*
D03*
Y595000D02*
D03*
Y600000D02*
D03*
Y605000D02*
D03*
Y610000D02*
D03*
Y615000D02*
D03*
D155*
X460000Y575000D02*
D03*
X465000D02*
D03*
X470000D02*
D03*
X475000D02*
D03*
X480000D02*
D03*
Y625000D02*
D03*
X475000D02*
D03*
X470000D02*
D03*
X465000D02*
D03*
X460000D02*
D03*
D156*
X567750Y727000D02*
D03*
D157*
X558000Y707000D02*
D03*
D158*
X564500D02*
D03*
X571000D02*
D03*
X577500D02*
D03*
Y747000D02*
D03*
X571000D02*
D03*
X564500D02*
D03*
X558000D02*
D03*
D159*
X587500Y717000D02*
D03*
Y723500D02*
D03*
Y730000D02*
D03*
Y736500D02*
D03*
X548000D02*
D03*
Y730000D02*
D03*
Y723500D02*
D03*
Y717000D02*
D03*
D160*
X1106000Y807500D02*
D03*
X1099000Y1428500D02*
D03*
D161*
X1080000Y755000D02*
D03*
X1073000Y1376000D02*
D03*
D162*
X1084000Y755000D02*
D03*
X1088000D02*
D03*
X1092000D02*
D03*
X1096000D02*
D03*
X1100000D02*
D03*
X1104000D02*
D03*
X1108000D02*
D03*
X1112000D02*
D03*
X1116000D02*
D03*
X1120000D02*
D03*
X1124000D02*
D03*
X1128000D02*
D03*
X1132000D02*
D03*
Y860000D02*
D03*
X1128000D02*
D03*
X1124000D02*
D03*
X1120000D02*
D03*
X1116000D02*
D03*
X1112000D02*
D03*
X1108000D02*
D03*
X1104000D02*
D03*
X1100000D02*
D03*
X1096000D02*
D03*
X1092000D02*
D03*
X1088000D02*
D03*
X1084000D02*
D03*
X1080000D02*
D03*
X1077000Y1376000D02*
D03*
X1081000D02*
D03*
X1085000D02*
D03*
X1089000D02*
D03*
X1093000D02*
D03*
X1097000D02*
D03*
X1101000D02*
D03*
X1105000D02*
D03*
X1109000D02*
D03*
X1113000D02*
D03*
X1117000D02*
D03*
X1121000D02*
D03*
X1125000D02*
D03*
Y1481000D02*
D03*
X1121000D02*
D03*
X1117000D02*
D03*
X1113000D02*
D03*
X1109000D02*
D03*
X1105000D02*
D03*
X1101000D02*
D03*
X1097000D02*
D03*
X1093000D02*
D03*
X1089000D02*
D03*
X1085000D02*
D03*
X1081000D02*
D03*
X1077000D02*
D03*
X1073000D02*
D03*
D163*
X1138500Y761500D02*
D03*
Y765500D02*
D03*
Y769500D02*
D03*
Y773500D02*
D03*
Y777500D02*
D03*
Y781500D02*
D03*
Y785500D02*
D03*
Y789500D02*
D03*
Y793500D02*
D03*
Y797500D02*
D03*
Y801500D02*
D03*
Y805500D02*
D03*
Y809500D02*
D03*
Y813500D02*
D03*
Y817500D02*
D03*
Y821500D02*
D03*
Y825500D02*
D03*
Y829500D02*
D03*
Y833500D02*
D03*
Y837500D02*
D03*
Y841500D02*
D03*
Y845500D02*
D03*
Y849500D02*
D03*
Y853500D02*
D03*
X1073500D02*
D03*
Y849500D02*
D03*
Y845500D02*
D03*
Y841500D02*
D03*
Y837500D02*
D03*
Y833500D02*
D03*
Y829500D02*
D03*
Y825500D02*
D03*
Y821500D02*
D03*
Y817500D02*
D03*
Y813500D02*
D03*
Y809500D02*
D03*
Y805500D02*
D03*
Y801500D02*
D03*
Y797500D02*
D03*
Y793500D02*
D03*
Y789500D02*
D03*
Y785500D02*
D03*
Y781500D02*
D03*
Y777500D02*
D03*
Y773500D02*
D03*
Y769500D02*
D03*
Y765500D02*
D03*
Y761500D02*
D03*
X1131500Y1382500D02*
D03*
Y1386500D02*
D03*
Y1390500D02*
D03*
Y1394500D02*
D03*
Y1398500D02*
D03*
Y1402500D02*
D03*
Y1406500D02*
D03*
Y1410500D02*
D03*
Y1414500D02*
D03*
Y1418500D02*
D03*
Y1422500D02*
D03*
Y1426500D02*
D03*
Y1430500D02*
D03*
Y1434500D02*
D03*
Y1438500D02*
D03*
Y1442500D02*
D03*
Y1446500D02*
D03*
Y1450500D02*
D03*
Y1454500D02*
D03*
Y1458500D02*
D03*
Y1462500D02*
D03*
Y1466500D02*
D03*
Y1470500D02*
D03*
Y1474500D02*
D03*
X1066500D02*
D03*
Y1470500D02*
D03*
Y1466500D02*
D03*
Y1462500D02*
D03*
Y1458500D02*
D03*
Y1454500D02*
D03*
Y1450500D02*
D03*
Y1446500D02*
D03*
Y1442500D02*
D03*
Y1438500D02*
D03*
Y1434500D02*
D03*
Y1430500D02*
D03*
Y1426500D02*
D03*
Y1422500D02*
D03*
Y1418500D02*
D03*
Y1414500D02*
D03*
Y1410500D02*
D03*
Y1406500D02*
D03*
Y1402500D02*
D03*
Y1398500D02*
D03*
Y1394500D02*
D03*
Y1390500D02*
D03*
Y1386500D02*
D03*
Y1382500D02*
D03*
D164*
X941000Y1148000D02*
D03*
Y1143000D02*
D03*
Y1138000D02*
D03*
Y1133000D02*
D03*
Y1128000D02*
D03*
X971000D02*
D03*
Y1133000D02*
D03*
Y1138000D02*
D03*
Y1143000D02*
D03*
Y1148000D02*
D03*
D165*
X951000Y1123000D02*
D03*
X956000D02*
D03*
X961000D02*
D03*
Y1153000D02*
D03*
X956000D02*
D03*
X951000D02*
D03*
D166*
X799500Y1183000D02*
D03*
X784500D02*
D03*
D167*
X961000Y1615380D02*
D03*
Y1630620D02*
D03*
D168*
X538250Y1551750D02*
D03*
Y1538250D02*
D03*
X527750D02*
D03*
Y1551750D02*
D03*
D169*
X445000Y459000D02*
D03*
Y511000D02*
D03*
D170*
X592000Y1546000D02*
D03*
D171*
X579500Y1565500D02*
D03*
X584500D02*
D03*
X589500D02*
D03*
X594500D02*
D03*
X599500D02*
D03*
X604500D02*
D03*
Y1526500D02*
D03*
X599500D02*
D03*
X594500D02*
D03*
X589500D02*
D03*
X584500D02*
D03*
X579500D02*
D03*
D172*
X611500Y1558500D02*
D03*
Y1553500D02*
D03*
Y1548500D02*
D03*
Y1543500D02*
D03*
Y1538500D02*
D03*
Y1533500D02*
D03*
X572500D02*
D03*
Y1538500D02*
D03*
Y1543500D02*
D03*
Y1548500D02*
D03*
Y1553500D02*
D03*
Y1558500D02*
D03*
D173*
X1071000Y1785700D02*
D03*
Y1760300D02*
D03*
X1040000Y1785700D02*
D03*
Y1760300D02*
D03*
X400400Y560000D02*
D03*
Y610800D02*
D03*
X324200Y560000D02*
D03*
Y610800D02*
D03*
D174*
X898800Y1864400D02*
D03*
X924200D02*
D03*
X949600D02*
D03*
X975000D02*
D03*
Y1813600D02*
D03*
X949600D02*
D03*
X924200D02*
D03*
X898800D02*
D03*
X873400Y1864400D02*
D03*
X848000D02*
D03*
X873400Y1813600D02*
D03*
X848000D02*
D03*
X1071200Y339600D02*
D03*
X1045800D02*
D03*
X1020400D02*
D03*
X995000D02*
D03*
Y390400D02*
D03*
X1020400D02*
D03*
X1045800D02*
D03*
X1071200D02*
D03*
X1096600Y339600D02*
D03*
X1122000D02*
D03*
X1096600Y390400D02*
D03*
X1122000D02*
D03*
X877200Y339600D02*
D03*
X851800D02*
D03*
X826400D02*
D03*
X801000D02*
D03*
Y390400D02*
D03*
X826400D02*
D03*
X851800D02*
D03*
X877200D02*
D03*
X902600Y339600D02*
D03*
X928000D02*
D03*
X902600Y390400D02*
D03*
X928000D02*
D03*
X735000D02*
D03*
X709600D02*
D03*
X735000Y339600D02*
D03*
X709600D02*
D03*
X684200Y390400D02*
D03*
X658800D02*
D03*
X633400D02*
D03*
X608000D02*
D03*
X582600D02*
D03*
X557200D02*
D03*
X531800D02*
D03*
X506400D02*
D03*
X481000D02*
D03*
X455600D02*
D03*
Y339600D02*
D03*
X481000D02*
D03*
X506400D02*
D03*
X531800D02*
D03*
X557200D02*
D03*
X582600D02*
D03*
X608000D02*
D03*
X633400D02*
D03*
X658800D02*
D03*
X684200D02*
D03*
D175*
X350000Y1100000D02*
D03*
X1250000D02*
D03*
X1240000Y1190000D02*
D03*
X350000Y1850000D02*
D03*
Y350000D02*
D03*
X1250000Y1850000D02*
D03*
X1240000Y1750000D02*
D03*
Y1010000D02*
D03*
Y450000D02*
D03*
X1250000Y350000D02*
D03*
D176*
X339600Y895800D02*
D03*
Y921200D02*
D03*
Y946600D02*
D03*
Y972000D02*
D03*
X390400D02*
D03*
Y946600D02*
D03*
Y921200D02*
D03*
Y895800D02*
D03*
X339600Y870400D02*
D03*
Y845000D02*
D03*
X390400Y870400D02*
D03*
Y845000D02*
D03*
X339600Y1660800D02*
D03*
Y1686200D02*
D03*
Y1711600D02*
D03*
Y1737000D02*
D03*
X390400D02*
D03*
Y1711600D02*
D03*
Y1686200D02*
D03*
Y1660800D02*
D03*
X339600Y1635400D02*
D03*
Y1610000D02*
D03*
X390400Y1635400D02*
D03*
Y1610000D02*
D03*
X339600Y1270800D02*
D03*
Y1296200D02*
D03*
Y1321600D02*
D03*
Y1347000D02*
D03*
X390400D02*
D03*
Y1321600D02*
D03*
Y1296200D02*
D03*
Y1270800D02*
D03*
X339600Y1245400D02*
D03*
Y1220000D02*
D03*
X390400Y1245400D02*
D03*
Y1220000D02*
D03*
X339600Y1465800D02*
D03*
Y1491200D02*
D03*
Y1516600D02*
D03*
Y1542000D02*
D03*
X390400D02*
D03*
Y1516600D02*
D03*
Y1491200D02*
D03*
Y1465800D02*
D03*
X339600Y1440400D02*
D03*
Y1415000D02*
D03*
X390400Y1440400D02*
D03*
Y1415000D02*
D03*
D177*
X1224600Y703800D02*
D03*
Y754600D02*
D03*
Y729200D02*
D03*
Y780000D02*
D03*
Y678400D02*
D03*
Y653000D02*
D03*
Y627600D02*
D03*
Y602200D02*
D03*
Y576800D02*
D03*
Y551400D02*
D03*
X1250000Y576800D02*
D03*
Y602200D02*
D03*
Y627600D02*
D03*
Y653000D02*
D03*
Y678400D02*
D03*
Y703800D02*
D03*
Y729200D02*
D03*
Y754600D02*
D03*
Y780000D02*
D03*
Y907000D02*
D03*
Y881600D02*
D03*
Y856200D02*
D03*
Y830800D02*
D03*
Y805400D02*
D03*
X1224600D02*
D03*
Y830800D02*
D03*
Y856200D02*
D03*
Y881600D02*
D03*
Y907000D02*
D03*
Y1443800D02*
D03*
Y1494600D02*
D03*
Y1469200D02*
D03*
Y1520000D02*
D03*
Y1418400D02*
D03*
Y1393000D02*
D03*
Y1367600D02*
D03*
Y1342200D02*
D03*
Y1316800D02*
D03*
Y1291400D02*
D03*
X1250000Y1316800D02*
D03*
Y1342200D02*
D03*
Y1367600D02*
D03*
Y1393000D02*
D03*
Y1418400D02*
D03*
Y1443800D02*
D03*
Y1469200D02*
D03*
Y1494600D02*
D03*
Y1520000D02*
D03*
Y1647000D02*
D03*
Y1621600D02*
D03*
Y1596200D02*
D03*
Y1570800D02*
D03*
Y1545400D02*
D03*
X1224600D02*
D03*
Y1570800D02*
D03*
Y1596200D02*
D03*
Y1621600D02*
D03*
Y1647000D02*
D03*
X632000Y1608000D02*
D03*
X606600D02*
D03*
X510000D02*
D03*
X535400D02*
D03*
X764000Y1827500D02*
D03*
Y1802100D02*
D03*
Y1776700D02*
D03*
Y1751300D02*
D03*
Y1725900D02*
D03*
Y1700500D02*
D03*
Y1675100D02*
D03*
Y1649700D02*
D03*
Y1624300D02*
D03*
Y1598900D02*
D03*
X738600D02*
D03*
Y1624300D02*
D03*
Y1649700D02*
D03*
Y1675100D02*
D03*
Y1700500D02*
D03*
Y1725900D02*
D03*
Y1827500D02*
D03*
Y1776700D02*
D03*
Y1802100D02*
D03*
Y1751300D02*
D03*
D178*
X1250000Y551400D02*
D03*
Y1291400D02*
D03*
D179*
X914700Y1600000D02*
D03*
X927400Y1587300D02*
D03*
X902000D02*
D03*
X927400Y1612700D02*
D03*
X902000D02*
D03*
D180*
X490350Y1843000D02*
D03*
X651650D02*
D03*
D181*
X507500Y1811200D02*
D03*
X634500D02*
D03*
D182*
X520250Y1658900D02*
D03*
X540550D02*
D03*
X560850D02*
D03*
X581150D02*
D03*
X601450D02*
D03*
X621750D02*
D03*
X631900Y1633500D02*
D03*
X611600D02*
D03*
X591300D02*
D03*
X550700D02*
D03*
X530400D02*
D03*
X510100D02*
D03*
D183*
X907500Y1240000D02*
D03*
Y1440000D02*
D03*
D184*
X592000Y1536000D02*
D03*
Y1556000D02*
D03*
X582000Y1546000D02*
D03*
X602000D02*
D03*
X592000D02*
D03*
M02*
