G04 Layer_Physical_Order=1*
G04 Layer_Color=255*
%FSLAX44Y44*%
%MOMM*%
G71*
G01*
G75*
%ADD10R,0.8000X0.9000*%
%ADD11R,0.9000X0.8000*%
%ADD12O,0.8500X0.3000*%
%ADD13O,0.3000X0.8500*%
%ADD14R,2.6000X2.6000*%
%ADD15R,5.3000X2.5000*%
%ADD16C,1.0000*%
%ADD17R,1.8000X2.5000*%
%ADD18R,0.7500X0.8500*%
%ADD19R,0.8000X0.2000*%
%ADD20R,0.2000X0.8000*%
%ADD21O,0.2000X0.8000*%
%ADD22R,5.0000X9.0000*%
%ADD23R,1.0160X0.8000*%
%ADD24R,0.7000X1.4000*%
%ADD25R,0.3000X0.7000*%
%ADD26R,0.7000X0.3000*%
%ADD27R,0.8000X0.3000*%
%ADD28R,0.3000X0.8000*%
%ADD29O,0.3000X0.8000*%
%ADD30R,2.6000X2.6000*%
%ADD31R,2.6000X1.4000*%
%ADD32R,4.0000X2.0000*%
%ADD33R,2.2000X0.5000*%
%ADD34O,2.2000X0.5000*%
%ADD35R,2.1300X3.0000*%
%ADD36R,1.4000X2.6000*%
%ADD37R,0.3000X1.0000*%
%ADD38R,1.0000X0.3000*%
%ADD39O,1.0000X0.3000*%
%ADD40R,2.6000X3.6000*%
%ADD41R,1.6000X2.8000*%
%ADD42R,2.2000X1.5000*%
%ADD43R,3.5000X2.8000*%
%ADD44R,4.3000X0.8000*%
%ADD45R,1.5000X2.2000*%
%ADD46R,1.6000X5.6000*%
%ADD47O,2.2000X0.6000*%
%ADD48R,1.7000X1.2500*%
%ADD49O,0.2500X1.5500*%
%ADD50O,1.5500X0.2500*%
%ADD51R,1.8000X2.0000*%
%ADD52R,2.0000X1.8000*%
%ADD53O,0.6000X1.9000*%
%ADD54O,0.3000X1.0000*%
%ADD55R,0.3000X1.0000*%
G04:AMPARAMS|DCode=56|XSize=1.6mm|YSize=0.6mm|CornerRadius=0.15mm|HoleSize=0mm|Usage=FLASHONLY|Rotation=0.000|XOffset=0mm|YOffset=0mm|HoleType=Round|Shape=RoundedRectangle|*
%AMROUNDEDRECTD56*
21,1,1.6000,0.3000,0,0,0.0*
21,1,1.3000,0.6000,0,0,0.0*
1,1,0.3000,0.6500,-0.1500*
1,1,0.3000,-0.6500,-0.1500*
1,1,0.3000,-0.6500,0.1500*
1,1,0.3000,0.6500,0.1500*
%
%ADD56ROUNDEDRECTD56*%
%ADD57R,1.6000X0.6000*%
%ADD58R,0.6000X1.9000*%
%ADD59O,0.6000X1.9000*%
%ADD60R,2.5000X1.8000*%
%ADD61R,2.2000X4.5000*%
%ADD62O,0.6000X2.2000*%
%ADD63R,3.8000X4.2000*%
%ADD64R,4.5000X2.2000*%
%ADD65C,0.2000*%
%ADD66C,0.3000*%
%ADD67C,1.0000*%
%ADD68C,0.5000*%
%ADD69C,0.2540*%
%ADD70C,0.7500*%
%ADD71C,2.0000*%
%ADD72R,4.8000X1.9000*%
%ADD73R,3.2000X6.1000*%
%ADD74R,8.4000X1.9000*%
%ADD75R,6.3000X1.6000*%
%ADD76R,5.2000X1.2000*%
%ADD77R,0.8000X6.1000*%
%ADD78R,4.0000X9.0000*%
%ADD79R,0.7000X2.5000*%
%ADD80R,5.4000X8.7000*%
%ADD81R,4.1000X3.8000*%
%ADD82R,3.5000X1.4000*%
%ADD83C,2.4000*%
%ADD84C,1.6000*%
%ADD85C,3.3000*%
%ADD86C,1.8000*%
%ADD87C,2.1000*%
%ADD88O,1.5000X1.7000*%
%ADD89O,1.7000X1.5000*%
%ADD90C,1.4000*%
%ADD91R,1.6000X1.6000*%
%ADD92C,1.7000*%
%ADD93C,5.0000*%
%ADD94C,0.7000*%
%ADD95C,0.5000*%
G36*
X566000Y742000D02*
X552750D01*
Y733569D01*
X548000D01*
X547655Y733500D01*
X542000D01*
Y729123D01*
X540880Y728525D01*
X540646Y728681D01*
X538500Y729108D01*
X536354Y728681D01*
X534535Y727465D01*
X534478Y727380D01*
X527500D01*
Y715380D01*
X540500D01*
Y718290D01*
X540646Y718319D01*
X542465Y719535D01*
X542730Y719931D01*
X548000D01*
X548345Y720000D01*
X552750D01*
Y712000D01*
X566000D01*
Y673000D01*
X497000D01*
Y754794D01*
X498270Y755179D01*
X499035Y754035D01*
X500854Y752819D01*
X503000Y752392D01*
X505146Y752819D01*
X506965Y754035D01*
X508181Y755854D01*
X508608Y758000D01*
X508181Y760146D01*
X506965Y761965D01*
X505146Y763181D01*
X503000Y763608D01*
X500854Y763181D01*
X499035Y761965D01*
X498270Y760821D01*
X497000Y761206D01*
Y765000D01*
X566000D01*
Y742000D01*
D02*
G37*
G36*
X347000Y734500D02*
X369000D01*
Y718598D01*
X368500Y718188D01*
X351500D01*
X349744Y717839D01*
X348741Y717169D01*
X341500D01*
Y718380D01*
X328500D01*
Y706380D01*
Y694620D01*
X341500D01*
Y706380D01*
Y710031D01*
X348741D01*
X349744Y709361D01*
X351500Y709012D01*
X368500D01*
X369000Y708602D01*
Y705899D01*
X368500Y705488D01*
X351500D01*
X349744Y705139D01*
X348256Y704144D01*
X347261Y702656D01*
X346912Y700900D01*
X347261Y699144D01*
X348256Y697656D01*
X349744Y696661D01*
X351500Y696312D01*
X368500D01*
X369000Y695901D01*
Y692152D01*
X368000Y691500D01*
X356000D01*
Y678500D01*
X368000D01*
X369000Y677848D01*
Y675000D01*
X475000D01*
Y632000D01*
X466500D01*
Y630000D01*
X310000D01*
Y740000D01*
X347000D01*
Y734500D01*
D02*
G37*
G36*
X405000Y475000D02*
X470000D01*
Y435000D01*
X376000D01*
Y500179D01*
X377270Y500806D01*
X378948Y499518D01*
X381867Y498309D01*
X385000Y497896D01*
X388133Y498309D01*
X391052Y499518D01*
X393559Y501441D01*
X395482Y503948D01*
X396691Y506867D01*
X397104Y510000D01*
Y524000D01*
X405000D01*
Y475000D01*
D02*
G37*
%LPC*%
G36*
X517000Y763608D02*
X514854Y763181D01*
X513035Y761965D01*
X511819Y760146D01*
X511392Y758000D01*
X511819Y755854D01*
X513035Y754035D01*
X514854Y752819D01*
X517000Y752392D01*
X519146Y752819D01*
X520965Y754035D01*
X522181Y755854D01*
X522608Y758000D01*
X522181Y760146D01*
X520965Y761965D01*
X519146Y763181D01*
X517000Y763608D01*
D02*
G37*
G36*
X342000Y691500D02*
X341500Y691380D01*
X341500Y691380D01*
X328500D01*
Y679380D01*
X341500D01*
X342000Y678500D01*
X343492D01*
X343819Y676854D01*
X345035Y675035D01*
X346854Y673819D01*
X349000Y673392D01*
X351146Y673819D01*
X352965Y675035D01*
X354181Y676854D01*
X354608Y679000D01*
X354181Y681146D01*
X354000Y681417D01*
Y691500D01*
X342720D01*
X342000Y691500D01*
D02*
G37*
G36*
X443760Y665000D02*
X425760D01*
Y635000D01*
X443760D01*
Y665000D01*
D02*
G37*
%LPD*%
D10*
X567620Y1690000D02*
D03*
X552380D02*
D03*
X536620D02*
D03*
X521380D02*
D03*
X946000Y1633000D02*
D03*
X932000D02*
D03*
X975620Y1600000D02*
D03*
X960380D02*
D03*
X1189380Y1850000D02*
D03*
X1204620D02*
D03*
X1189380Y350000D02*
D03*
X1204620D02*
D03*
X405620Y1850000D02*
D03*
X390380D02*
D03*
X1150380Y1408000D02*
D03*
X1165620D02*
D03*
X1150380Y1390000D02*
D03*
X1165620D02*
D03*
X530000Y1616000D02*
D03*
X516000D02*
D03*
X549380Y1599000D02*
D03*
X564620D02*
D03*
X1124000Y1360000D02*
D03*
X1138000D02*
D03*
X1065620Y1521000D02*
D03*
X1050380D02*
D03*
X1065620Y1508000D02*
D03*
X1050380D02*
D03*
X1065620Y1495000D02*
D03*
X1050380D02*
D03*
X1034620Y1453000D02*
D03*
X1019380D02*
D03*
X1034620Y1440000D02*
D03*
X1019380D02*
D03*
X1157380Y786000D02*
D03*
X1172620D02*
D03*
X1157380Y770000D02*
D03*
X1172620D02*
D03*
X1131000Y741000D02*
D03*
X1145000D02*
D03*
X1070000Y872000D02*
D03*
X1056000D02*
D03*
X1080620Y894000D02*
D03*
X1065380D02*
D03*
X1080620Y907000D02*
D03*
X1065380D02*
D03*
X489380Y686000D02*
D03*
X504620D02*
D03*
X461380D02*
D03*
X476620D02*
D03*
X594620Y605000D02*
D03*
X579380D02*
D03*
X564620Y604000D02*
D03*
X549380D02*
D03*
X564620Y581000D02*
D03*
X549380D02*
D03*
X594620Y581000D02*
D03*
X579380D02*
D03*
X349620Y775000D02*
D03*
X334380D02*
D03*
X376620D02*
D03*
X361380D02*
D03*
X382000Y758000D02*
D03*
X396000D02*
D03*
X362000Y685000D02*
D03*
X348000D02*
D03*
X483000Y640000D02*
D03*
X497000D02*
D03*
X518620Y617000D02*
D03*
X503380D02*
D03*
X816620Y707000D02*
D03*
X801380D02*
D03*
X800000Y1199000D02*
D03*
X814000D02*
D03*
X785000Y1199000D02*
D03*
X771000D02*
D03*
X1020380Y1059000D02*
D03*
X1035620D02*
D03*
X522380Y899000D02*
D03*
X537620D02*
D03*
X1061000Y1888000D02*
D03*
X1075000D02*
D03*
X1086380Y1814000D02*
D03*
X1101620D02*
D03*
X1058380D02*
D03*
X1073620D02*
D03*
D11*
X979000Y1571000D02*
D03*
Y1585000D02*
D03*
X958000Y1571000D02*
D03*
Y1585000D02*
D03*
X396000Y365620D02*
D03*
Y350380D02*
D03*
X539000Y1652620D02*
D03*
Y1637380D02*
D03*
X503000Y1652000D02*
D03*
Y1638000D02*
D03*
X623000Y1583620D02*
D03*
Y1568380D02*
D03*
X601000Y1570380D02*
D03*
Y1585620D02*
D03*
X589000D02*
D03*
Y1570380D02*
D03*
X577000D02*
D03*
Y1585620D02*
D03*
X565000D02*
D03*
Y1570380D02*
D03*
X553000Y1585620D02*
D03*
Y1570380D02*
D03*
X539000D02*
D03*
Y1585620D02*
D03*
X685000Y1248380D02*
D03*
Y1263620D02*
D03*
X616000Y761380D02*
D03*
Y776620D02*
D03*
Y734380D02*
D03*
Y749620D02*
D03*
X534000Y721380D02*
D03*
Y736620D02*
D03*
X625000Y686620D02*
D03*
Y671380D02*
D03*
X624000Y657620D02*
D03*
Y642380D02*
D03*
X335000Y712380D02*
D03*
Y727620D02*
D03*
Y685380D02*
D03*
Y700620D02*
D03*
X520000Y587620D02*
D03*
Y572380D02*
D03*
X505000Y572620D02*
D03*
Y557380D02*
D03*
X485000Y557620D02*
D03*
Y542380D02*
D03*
X690000Y735380D02*
D03*
Y750620D02*
D03*
X706000Y735380D02*
D03*
Y750620D02*
D03*
X722000Y735380D02*
D03*
Y750620D02*
D03*
X690000Y765380D02*
D03*
Y780620D02*
D03*
X706000Y765380D02*
D03*
Y780620D02*
D03*
X722000Y765380D02*
D03*
Y780620D02*
D03*
X1045000Y972380D02*
D03*
Y987620D02*
D03*
D12*
X561500Y1652500D02*
D03*
Y1647500D02*
D03*
Y1642500D02*
D03*
Y1637500D02*
D03*
Y1632500D02*
D03*
Y1627500D02*
D03*
X600500D02*
D03*
Y1632500D02*
D03*
Y1637500D02*
D03*
Y1642500D02*
D03*
Y1647500D02*
D03*
Y1652500D02*
D03*
D13*
X568500Y1620500D02*
D03*
X573500D02*
D03*
X578500D02*
D03*
X583500D02*
D03*
X588500D02*
D03*
X593500D02*
D03*
Y1659500D02*
D03*
X588500D02*
D03*
X583500D02*
D03*
X578500D02*
D03*
X573500D02*
D03*
X568500D02*
D03*
D14*
X581000Y1640000D02*
D03*
D15*
X445000Y511000D02*
D03*
Y459000D02*
D03*
D16*
X1170000Y1470000D02*
D03*
Y1450000D02*
D03*
Y1430000D02*
D03*
Y1370000D02*
D03*
Y1350000D02*
D03*
Y1330500D02*
D03*
Y1311000D02*
D03*
Y1291000D02*
D03*
Y1271000D02*
D03*
Y1251000D02*
D03*
Y1231000D02*
D03*
Y1211034D02*
D03*
Y804000D02*
D03*
X1165000Y822000D02*
D03*
Y838000D02*
D03*
Y746000D02*
D03*
Y690000D02*
D03*
Y665000D02*
D03*
Y640000D02*
D03*
Y615000D02*
D03*
Y590000D02*
D03*
Y565000D02*
D03*
Y540000D02*
D03*
Y515000D02*
D03*
D17*
X644000Y1656000D02*
D03*
X672000D02*
D03*
X902000Y1180000D02*
D03*
X930000D02*
D03*
D18*
X516750Y1645750D02*
D03*
Y1632250D02*
D03*
X527250D02*
D03*
Y1645750D02*
D03*
D19*
X1066500Y1382500D02*
D03*
Y1386500D02*
D03*
Y1390500D02*
D03*
Y1394500D02*
D03*
Y1398500D02*
D03*
Y1402500D02*
D03*
Y1406500D02*
D03*
Y1410500D02*
D03*
Y1414500D02*
D03*
Y1418500D02*
D03*
Y1422500D02*
D03*
Y1426500D02*
D03*
Y1430500D02*
D03*
Y1434500D02*
D03*
Y1438500D02*
D03*
Y1442500D02*
D03*
Y1446500D02*
D03*
Y1450500D02*
D03*
Y1454500D02*
D03*
Y1458500D02*
D03*
Y1462500D02*
D03*
Y1466500D02*
D03*
Y1470500D02*
D03*
Y1474500D02*
D03*
X1131500D02*
D03*
Y1470500D02*
D03*
Y1466500D02*
D03*
Y1462500D02*
D03*
Y1458500D02*
D03*
Y1454500D02*
D03*
Y1450500D02*
D03*
Y1446500D02*
D03*
Y1442500D02*
D03*
Y1438500D02*
D03*
Y1434500D02*
D03*
Y1430500D02*
D03*
Y1426500D02*
D03*
Y1422500D02*
D03*
Y1418500D02*
D03*
Y1414500D02*
D03*
Y1410500D02*
D03*
Y1406500D02*
D03*
Y1402500D02*
D03*
Y1398500D02*
D03*
Y1394500D02*
D03*
Y1390500D02*
D03*
Y1386500D02*
D03*
Y1382500D02*
D03*
X1073500Y761500D02*
D03*
Y765500D02*
D03*
Y769500D02*
D03*
Y773500D02*
D03*
Y777500D02*
D03*
Y781500D02*
D03*
Y785500D02*
D03*
Y789500D02*
D03*
Y793500D02*
D03*
Y797500D02*
D03*
Y801500D02*
D03*
Y805500D02*
D03*
Y809500D02*
D03*
Y813500D02*
D03*
Y817500D02*
D03*
Y821500D02*
D03*
Y825500D02*
D03*
Y829500D02*
D03*
Y833500D02*
D03*
Y837500D02*
D03*
Y841500D02*
D03*
Y845500D02*
D03*
Y849500D02*
D03*
Y853500D02*
D03*
X1138500D02*
D03*
Y849500D02*
D03*
Y845500D02*
D03*
Y841500D02*
D03*
Y837500D02*
D03*
Y833500D02*
D03*
Y829500D02*
D03*
Y825500D02*
D03*
Y821500D02*
D03*
Y817500D02*
D03*
Y813500D02*
D03*
Y809500D02*
D03*
Y805500D02*
D03*
Y801500D02*
D03*
Y797500D02*
D03*
Y793500D02*
D03*
Y789500D02*
D03*
Y785500D02*
D03*
Y781500D02*
D03*
Y777500D02*
D03*
Y773500D02*
D03*
Y769500D02*
D03*
Y765500D02*
D03*
Y761500D02*
D03*
D20*
X1073000Y1481000D02*
D03*
X1077000D02*
D03*
X1081000D02*
D03*
X1085000D02*
D03*
X1089000D02*
D03*
X1093000D02*
D03*
X1097000D02*
D03*
X1101000D02*
D03*
X1105000D02*
D03*
X1109000D02*
D03*
X1113000D02*
D03*
X1117000D02*
D03*
X1121000D02*
D03*
X1125000D02*
D03*
Y1376000D02*
D03*
X1121000D02*
D03*
X1117000D02*
D03*
X1113000D02*
D03*
X1109000D02*
D03*
X1105000D02*
D03*
X1101000D02*
D03*
X1097000D02*
D03*
X1093000D02*
D03*
X1089000D02*
D03*
X1085000D02*
D03*
X1081000D02*
D03*
X1077000D02*
D03*
X1080000Y860000D02*
D03*
X1084000D02*
D03*
X1088000D02*
D03*
X1092000D02*
D03*
X1096000D02*
D03*
X1100000D02*
D03*
X1104000D02*
D03*
X1108000D02*
D03*
X1112000D02*
D03*
X1116000D02*
D03*
X1120000D02*
D03*
X1124000D02*
D03*
X1128000D02*
D03*
X1132000D02*
D03*
Y755000D02*
D03*
X1128000D02*
D03*
X1124000D02*
D03*
X1120000D02*
D03*
X1116000D02*
D03*
X1112000D02*
D03*
X1108000D02*
D03*
X1104000D02*
D03*
X1100000D02*
D03*
X1096000D02*
D03*
X1092000D02*
D03*
X1088000D02*
D03*
X1084000D02*
D03*
D21*
X1073000Y1376000D02*
D03*
X1080000Y755000D02*
D03*
D22*
X1099000Y1428500D02*
D03*
X1106000Y807500D02*
D03*
D23*
X961000Y1630620D02*
D03*
Y1615380D02*
D03*
D24*
X784500Y1183000D02*
D03*
X799500D02*
D03*
D25*
X951000Y1153000D02*
D03*
X956000D02*
D03*
X961000D02*
D03*
Y1123000D02*
D03*
X956000D02*
D03*
X951000D02*
D03*
D26*
X971000Y1148000D02*
D03*
Y1143000D02*
D03*
Y1138000D02*
D03*
Y1133000D02*
D03*
Y1128000D02*
D03*
X941000D02*
D03*
Y1133000D02*
D03*
Y1138000D02*
D03*
Y1143000D02*
D03*
Y1148000D02*
D03*
D27*
X548000Y717000D02*
D03*
Y723500D02*
D03*
Y730000D02*
D03*
Y736500D02*
D03*
X587500D02*
D03*
Y730000D02*
D03*
Y723500D02*
D03*
Y717000D02*
D03*
D28*
X558000Y747000D02*
D03*
X564500D02*
D03*
X571000D02*
D03*
X577500D02*
D03*
Y707000D02*
D03*
X571000D02*
D03*
X564500D02*
D03*
D29*
X558000D02*
D03*
D30*
X567750Y727000D02*
D03*
D31*
X541000Y678240D02*
D03*
Y647760D02*
D03*
X537000Y762760D02*
D03*
Y793240D02*
D03*
D32*
X589000Y678000D02*
D03*
Y644000D02*
D03*
X583000Y778000D02*
D03*
Y812000D02*
D03*
D33*
X360000Y739000D02*
D03*
X1039000Y1871000D02*
D03*
D34*
X360000Y726300D02*
D03*
Y713600D02*
D03*
Y700900D02*
D03*
X417500Y739000D02*
D03*
Y726300D02*
D03*
Y713600D02*
D03*
Y700900D02*
D03*
X1096500Y1832900D02*
D03*
Y1845600D02*
D03*
Y1858300D02*
D03*
Y1871000D02*
D03*
X1039000Y1832900D02*
D03*
Y1845600D02*
D03*
Y1858300D02*
D03*
D35*
X388750Y719950D02*
D03*
X1067750Y1851950D02*
D03*
D36*
X465240Y650000D02*
D03*
X434760D02*
D03*
X465240Y545000D02*
D03*
X434760D02*
D03*
X1150760Y1788000D02*
D03*
X1181240D02*
D03*
D37*
X460000Y625000D02*
D03*
X465000D02*
D03*
X470000D02*
D03*
X475000D02*
D03*
X480000D02*
D03*
Y575000D02*
D03*
X475000D02*
D03*
X470000D02*
D03*
X465000D02*
D03*
X460000D02*
D03*
D38*
X490000Y615000D02*
D03*
Y610000D02*
D03*
Y605000D02*
D03*
Y600000D02*
D03*
Y595000D02*
D03*
Y590000D02*
D03*
Y585000D02*
D03*
X450000D02*
D03*
Y590000D02*
D03*
Y595000D02*
D03*
Y600000D02*
D03*
Y605000D02*
D03*
Y610000D02*
D03*
D39*
Y615000D02*
D03*
D40*
X470000Y600000D02*
D03*
D41*
X385000Y510000D02*
D03*
X328000D02*
D03*
X385000Y450000D02*
D03*
X328000D02*
D03*
D42*
X790000Y677000D02*
D03*
Y633000D02*
D03*
X915000Y677000D02*
D03*
Y633000D02*
D03*
X1090000Y628000D02*
D03*
Y672000D02*
D03*
X1030000D02*
D03*
Y628000D02*
D03*
X969000D02*
D03*
Y672000D02*
D03*
D43*
X1090000Y590000D02*
D03*
Y540000D02*
D03*
X1035000Y590000D02*
D03*
Y540000D02*
D03*
X975000Y590000D02*
D03*
Y540000D02*
D03*
X915000Y590000D02*
D03*
Y540000D02*
D03*
X850000Y590000D02*
D03*
Y540000D02*
D03*
X790000Y590000D02*
D03*
Y540000D02*
D03*
D44*
X1090000Y565000D02*
D03*
X1035000D02*
D03*
X975000D02*
D03*
X915000D02*
D03*
X850000D02*
D03*
X790000D02*
D03*
D45*
X872000Y640000D02*
D03*
X828000D02*
D03*
D46*
X902000Y470000D02*
D03*
X968000D02*
D03*
X935000D02*
D03*
X787000D02*
D03*
X853000D02*
D03*
X820000D02*
D03*
X1022000D02*
D03*
X1088000D02*
D03*
X1055000D02*
D03*
D47*
X448000Y1524450D02*
D03*
Y1511750D02*
D03*
Y1499050D02*
D03*
Y1486350D02*
D03*
Y1473650D02*
D03*
Y1460950D02*
D03*
Y1448250D02*
D03*
Y1435550D02*
D03*
X502000Y1524450D02*
D03*
Y1511750D02*
D03*
Y1499050D02*
D03*
Y1486350D02*
D03*
Y1473650D02*
D03*
Y1460950D02*
D03*
Y1448250D02*
D03*
Y1435550D02*
D03*
Y1300550D02*
D03*
Y1313250D02*
D03*
Y1325950D02*
D03*
Y1338650D02*
D03*
Y1351350D02*
D03*
Y1364050D02*
D03*
Y1376750D02*
D03*
Y1389450D02*
D03*
X448000Y1300550D02*
D03*
Y1313250D02*
D03*
Y1325950D02*
D03*
Y1338650D02*
D03*
Y1351350D02*
D03*
Y1364050D02*
D03*
Y1376750D02*
D03*
Y1389450D02*
D03*
Y1265450D02*
D03*
Y1252750D02*
D03*
Y1240050D02*
D03*
Y1227350D02*
D03*
Y1214650D02*
D03*
Y1201950D02*
D03*
Y1189250D02*
D03*
Y1176550D02*
D03*
X502000Y1265450D02*
D03*
Y1252750D02*
D03*
Y1240050D02*
D03*
Y1227350D02*
D03*
Y1214650D02*
D03*
Y1201950D02*
D03*
Y1189250D02*
D03*
Y1176550D02*
D03*
Y860550D02*
D03*
Y873250D02*
D03*
Y885950D02*
D03*
Y898650D02*
D03*
Y911350D02*
D03*
Y924050D02*
D03*
Y936750D02*
D03*
Y949450D02*
D03*
X448000Y860550D02*
D03*
Y873250D02*
D03*
Y885950D02*
D03*
Y898650D02*
D03*
Y911350D02*
D03*
Y924050D02*
D03*
Y936750D02*
D03*
Y949450D02*
D03*
D48*
X1158002Y1595000D02*
D03*
Y1627000D02*
D03*
D49*
X828500Y1151250D02*
D03*
X823500D02*
D03*
X818500D02*
D03*
X813500D02*
D03*
X808500D02*
D03*
X803500D02*
D03*
X798500D02*
D03*
X793500D02*
D03*
X788500D02*
D03*
X783500D02*
D03*
X778500D02*
D03*
X773500D02*
D03*
X768500D02*
D03*
X763500D02*
D03*
X758500D02*
D03*
X753500D02*
D03*
X748500D02*
D03*
X743500D02*
D03*
X738500D02*
D03*
X733500D02*
D03*
X728500D02*
D03*
X723500D02*
D03*
X718500D02*
D03*
X713500D02*
D03*
X708500D02*
D03*
X703500D02*
D03*
X698500D02*
D03*
X693500D02*
D03*
X688500D02*
D03*
X683500D02*
D03*
X678500D02*
D03*
X673500D02*
D03*
X668500D02*
D03*
X663500D02*
D03*
X658500D02*
D03*
X653500D02*
D03*
Y940750D02*
D03*
X658500D02*
D03*
X663500D02*
D03*
X668500D02*
D03*
X673500D02*
D03*
X678500D02*
D03*
X683500D02*
D03*
X688500D02*
D03*
X693500D02*
D03*
X698500D02*
D03*
X703500D02*
D03*
X708500D02*
D03*
X713500D02*
D03*
X718500D02*
D03*
X723500D02*
D03*
X728500D02*
D03*
X733500D02*
D03*
X738500D02*
D03*
X743500D02*
D03*
X748500D02*
D03*
X753500D02*
D03*
X758500D02*
D03*
X763500D02*
D03*
X768500D02*
D03*
X773500D02*
D03*
X778500D02*
D03*
X783500D02*
D03*
X788500D02*
D03*
X793500D02*
D03*
X798500D02*
D03*
X803500D02*
D03*
X808500D02*
D03*
X813500D02*
D03*
X818500D02*
D03*
X823500D02*
D03*
X828500D02*
D03*
D50*
X635750Y1133500D02*
D03*
Y1128500D02*
D03*
Y1123500D02*
D03*
Y1118500D02*
D03*
Y1113500D02*
D03*
Y1108500D02*
D03*
Y1103500D02*
D03*
Y1098500D02*
D03*
Y1093500D02*
D03*
Y1088500D02*
D03*
Y1083500D02*
D03*
Y1078500D02*
D03*
Y1073500D02*
D03*
Y1068500D02*
D03*
Y1063500D02*
D03*
Y1058500D02*
D03*
Y1053500D02*
D03*
Y1048500D02*
D03*
Y1043500D02*
D03*
Y1038500D02*
D03*
Y1033500D02*
D03*
Y1028500D02*
D03*
Y1023500D02*
D03*
Y1018500D02*
D03*
Y1013500D02*
D03*
Y1008500D02*
D03*
Y1003500D02*
D03*
Y998500D02*
D03*
Y993500D02*
D03*
Y988500D02*
D03*
Y983500D02*
D03*
Y978500D02*
D03*
Y973500D02*
D03*
Y968500D02*
D03*
Y963500D02*
D03*
Y958500D02*
D03*
X846250D02*
D03*
Y963500D02*
D03*
Y968500D02*
D03*
Y973500D02*
D03*
Y978500D02*
D03*
Y983500D02*
D03*
Y988500D02*
D03*
Y993500D02*
D03*
Y998500D02*
D03*
Y1003500D02*
D03*
Y1008500D02*
D03*
Y1013500D02*
D03*
Y1018500D02*
D03*
Y1023500D02*
D03*
Y1028500D02*
D03*
Y1033500D02*
D03*
Y1038500D02*
D03*
Y1043500D02*
D03*
Y1048500D02*
D03*
Y1053500D02*
D03*
Y1058500D02*
D03*
Y1063500D02*
D03*
Y1068500D02*
D03*
Y1073500D02*
D03*
Y1078500D02*
D03*
Y1083500D02*
D03*
Y1088500D02*
D03*
Y1093500D02*
D03*
Y1098500D02*
D03*
Y1103500D02*
D03*
Y1108500D02*
D03*
Y1113500D02*
D03*
Y1118500D02*
D03*
Y1123500D02*
D03*
Y1128500D02*
D03*
Y1133500D02*
D03*
D51*
X699000Y1283000D02*
D03*
X749000D02*
D03*
X699000Y1325000D02*
D03*
X749000D02*
D03*
D52*
X1015000Y974000D02*
D03*
Y1024000D02*
D03*
X973000Y974000D02*
D03*
Y1024000D02*
D03*
D53*
X789950Y729000D02*
D03*
X802650D02*
D03*
X815350D02*
D03*
X828050D02*
D03*
X789950Y789000D02*
D03*
X802650D02*
D03*
X815350D02*
D03*
X828050D02*
D03*
D54*
X738500Y503000D02*
D03*
X732000D02*
D03*
X725500D02*
D03*
X719000D02*
D03*
X712500D02*
D03*
X706000D02*
D03*
X699500D02*
D03*
X693000D02*
D03*
X686500D02*
D03*
X680000D02*
D03*
X738500Y440000D02*
D03*
X732000D02*
D03*
X725500D02*
D03*
X719000D02*
D03*
X712500D02*
D03*
X706000D02*
D03*
X699500D02*
D03*
X693000D02*
D03*
X686500D02*
D03*
X551500Y437000D02*
D03*
X558000D02*
D03*
X564500D02*
D03*
X571000D02*
D03*
X577500D02*
D03*
X584000D02*
D03*
X590500D02*
D03*
X597000D02*
D03*
X603500D02*
D03*
X610000D02*
D03*
X551500Y500000D02*
D03*
X558000D02*
D03*
X564500D02*
D03*
X571000D02*
D03*
X577500D02*
D03*
X584000D02*
D03*
X590500D02*
D03*
X597000D02*
D03*
X603500D02*
D03*
D55*
X680000Y440000D02*
D03*
X610000Y500000D02*
D03*
D56*
X1008000Y1729000D02*
D03*
D57*
Y1718000D02*
D03*
Y1707000D02*
D03*
Y1696000D02*
D03*
Y1685000D02*
D03*
Y1674000D02*
D03*
Y1663000D02*
D03*
Y1633000D02*
D03*
Y1622000D02*
D03*
Y1611000D02*
D03*
Y1600000D02*
D03*
Y1589000D02*
D03*
X1130000Y1729000D02*
D03*
Y1718000D02*
D03*
Y1707000D02*
D03*
Y1696000D02*
D03*
Y1685000D02*
D03*
Y1674000D02*
D03*
Y1663000D02*
D03*
Y1633000D02*
D03*
Y1622000D02*
D03*
Y1611000D02*
D03*
Y1600000D02*
D03*
Y1589000D02*
D03*
D58*
X1006700Y816000D02*
D03*
D59*
X994000D02*
D03*
X981300D02*
D03*
X968600D02*
D03*
X955900D02*
D03*
X943200D02*
D03*
X930500D02*
D03*
X917800D02*
D03*
X1006700Y716000D02*
D03*
X994000D02*
D03*
X981300D02*
D03*
X968600D02*
D03*
X955900D02*
D03*
X943200D02*
D03*
X930500D02*
D03*
X917800D02*
D03*
X905100Y816000D02*
D03*
X892400D02*
D03*
Y716000D02*
D03*
X905100D02*
D03*
D60*
X1168000Y1686000D02*
D03*
Y1714000D02*
D03*
D61*
X461500Y727000D02*
D03*
X504500D02*
D03*
D62*
X834550Y1694000D02*
D03*
X847250D02*
D03*
X859950D02*
D03*
X872650D02*
D03*
X885350D02*
D03*
X898050D02*
D03*
X910750D02*
D03*
X923450D02*
D03*
X834550Y1748000D02*
D03*
X847250D02*
D03*
X859950D02*
D03*
X872650D02*
D03*
X885350D02*
D03*
X898050D02*
D03*
X910750D02*
D03*
X923450D02*
D03*
D63*
X843000Y1558000D02*
D03*
Y1492000D02*
D03*
D64*
X1145000Y1826500D02*
D03*
Y1869500D02*
D03*
D65*
X604000Y1112000D02*
Y1529000D01*
X589000Y1544000D02*
Y1570380D01*
Y1544000D02*
X604000Y1529000D01*
X600000Y1109657D02*
Y1521000D01*
X565000Y1556000D02*
Y1570380D01*
Y1556000D02*
X600000Y1521000D01*
X596000Y1252000D02*
Y1516000D01*
X553000Y1559000D02*
Y1570380D01*
Y1559000D02*
X596000Y1516000D01*
X660000Y1258637D02*
Y1579000D01*
X624000Y1609314D02*
X656000Y1577314D01*
Y1256981D02*
Y1577314D01*
X651000Y1242000D02*
Y1576657D01*
X634000Y1195000D02*
Y1551000D01*
X623000Y1562000D02*
X634000Y1551000D01*
X623000Y1562000D02*
Y1568380D01*
X634000Y1195000D02*
X658500Y1170500D01*
X626000Y1191000D02*
Y1221000D01*
X620000Y1227000D02*
X626000Y1221000D01*
X622000Y1166000D02*
Y1219343D01*
X612000Y1229343D02*
X622000Y1219343D01*
X629000Y1576000D02*
X643000Y1562000D01*
X656000Y1256981D02*
X706000Y1206981D01*
X628000Y1611000D02*
X660000Y1579000D01*
X620000Y1607657D02*
X651000Y1576657D01*
X609000Y1554000D02*
Y1577620D01*
Y1554000D02*
X620000Y1543000D01*
X643000Y1228000D02*
Y1562000D01*
X647000Y1231000D02*
Y1575000D01*
X626250Y1858250D02*
Y1863900D01*
X601000Y1833000D02*
X626250Y1858250D01*
X586192Y1833000D02*
X601000D01*
X528192Y1775000D02*
X586192Y1833000D01*
X528000Y1775000D02*
X528192D01*
X493750Y1862250D02*
X525000Y1831000D01*
Y1778000D02*
Y1831000D01*
X522000Y1676000D02*
X538380Y1659620D01*
X554500Y1647500D02*
X561500D01*
X540000Y1664000D02*
X548000D01*
X551000Y1651000D02*
Y1661000D01*
Y1651000D02*
X554500Y1647500D01*
X548000Y1664000D02*
X551000Y1661000D01*
X546500Y1647500D02*
Y1657863D01*
Y1647500D02*
X551500Y1642500D01*
X544743Y1659620D02*
X546500Y1657863D01*
X551500Y1642500D02*
X561500D01*
X538380Y1659620D02*
X544743D01*
X493757Y1746757D02*
X525000Y1778000D01*
X493757Y1684828D02*
Y1746757D01*
X498000Y1745000D02*
X528000Y1775000D01*
X498000Y1686243D02*
Y1745000D01*
X493757Y1684828D02*
X502586Y1676000D01*
X522000D01*
X498000Y1686243D02*
X504000Y1680243D01*
X523757D01*
X540000Y1664000D01*
X572000Y1681343D02*
X578500Y1674843D01*
X572000Y1681343D02*
Y1687620D01*
X564620Y1695000D02*
X572000Y1687620D01*
X564620Y1695000D02*
Y1702380D01*
X541000Y1726000D02*
X564620Y1702380D01*
X573500Y1659500D02*
Y1671000D01*
X528000Y1719686D02*
X537686Y1710000D01*
X569500Y1675000D02*
X573500Y1671000D01*
X553000Y1675000D02*
X569500D01*
X537686Y1690314D02*
X553000Y1675000D01*
X537686Y1690314D02*
Y1710000D01*
X567700Y1740000D02*
X579100Y1751400D01*
X535000Y1740000D02*
X567700D01*
X528000Y1733000D02*
X535000Y1740000D01*
X528000Y1719686D02*
Y1733000D01*
X578500Y1659500D02*
Y1674843D01*
X599400Y1751400D02*
X604500D01*
X579500Y1731500D02*
X599400Y1751400D01*
X579500Y1679500D02*
Y1731500D01*
Y1679500D02*
X583500Y1675500D01*
Y1659500D02*
Y1675500D01*
X591750Y1688750D02*
Y1726000D01*
X586000Y1683000D02*
X591750Y1688750D01*
X586000Y1683000D02*
X588500Y1680500D01*
Y1659500D02*
Y1680500D01*
X881000Y1401000D02*
Y1618000D01*
X887000Y1391971D02*
Y1617000D01*
X820000Y1340000D02*
X881000Y1401000D01*
X933000Y1797000D02*
X949600Y1813600D01*
X923000Y1797000D02*
X933000D01*
X885350Y1759350D02*
X923000Y1797000D01*
X885350Y1748000D02*
Y1759350D01*
X872650Y1755650D02*
X924200Y1807200D01*
X872650Y1748000D02*
Y1755650D01*
X859950Y1748000D02*
Y1756950D01*
X850000Y1766000D02*
X855000D01*
X847250Y1763250D02*
X850000Y1766000D01*
X847250Y1748000D02*
Y1763250D01*
X1185000Y1323000D02*
X1216600Y1291400D01*
X1189000Y1330000D02*
X1214000Y1305000D01*
X960380Y1600000D02*
Y1614760D01*
X975620Y1588380D02*
Y1600000D01*
X960380Y1587380D02*
Y1600000D01*
X990000Y1051000D02*
X1033000Y1094000D01*
X990000Y999000D02*
Y1051000D01*
Y999000D02*
X1015000Y974000D01*
X1045000Y972380D02*
X1052380Y965000D01*
X1053000D01*
X1015000Y974000D02*
X1028620Y987620D01*
X1045000D01*
X951000Y1030000D02*
X954000Y1033000D01*
X951000Y971000D02*
Y1030000D01*
Y971000D02*
X969000Y953000D01*
X967343Y941000D02*
X1234343D01*
X937000Y971343D02*
X967343Y941000D01*
X937000Y971343D02*
Y977000D01*
X932000Y982000D02*
X937000Y977000D01*
X969000Y945000D02*
X1236000D01*
X941000Y973000D02*
X969000Y945000D01*
X941000Y973000D02*
Y989000D01*
X969000Y953000D02*
X1130000D01*
X974337Y1066000D02*
X1101000Y1192663D01*
X975681Y1073000D02*
X1097000Y1194319D01*
X974024Y1077000D02*
X1093000Y1195976D01*
X972994Y1059000D02*
X1105000Y1191006D01*
X976000Y1044000D02*
X1117000Y1185000D01*
X973308Y1048000D02*
X1113000Y1187692D01*
X971651Y1052000D02*
X1109000Y1189349D01*
X1000000Y1108633D02*
Y1205000D01*
X972367Y1081000D02*
X1000000Y1108633D01*
X996000Y1110290D02*
Y1203343D01*
X970710Y1085000D02*
X996000Y1110290D01*
X992000Y1111947D02*
Y1201686D01*
X970553Y1090500D02*
X992000Y1111947D01*
X988000Y1113604D02*
Y1200030D01*
X968896Y1094500D02*
X988000Y1113604D01*
X971000Y1138000D02*
X979000D01*
X983000Y1134000D01*
Y1121343D02*
Y1134000D01*
X962657Y1101000D02*
X983000Y1121343D01*
X925337Y1094500D02*
X968896D01*
X960030Y1073000D02*
X975681D01*
X958373Y1077000D02*
X974024D01*
X956000Y1081000D02*
X972367D01*
X954343Y1085000D02*
X970710D01*
X926994Y1090500D02*
X970553D01*
X1033000Y1094000D02*
X1038000D01*
X1234343Y941000D02*
X1262000Y913343D01*
Y750000D02*
Y913343D01*
X1254000Y742000D02*
X1262000Y750000D01*
X1236000Y945000D02*
X1266000Y915000D01*
Y748343D02*
Y915000D01*
X1250000Y732343D02*
X1266000Y748343D01*
X986000Y932000D02*
X997000Y921000D01*
X969151Y932000D02*
X986000D01*
X925000Y976151D02*
X969151Y932000D01*
X997000Y921000D02*
X1029000D01*
X1237000Y767600D02*
X1250000Y754600D01*
X1237000Y767600D02*
Y914343D01*
X1222343Y929000D02*
X1237000Y914343D01*
X1037000Y929000D02*
X1222343D01*
X1029000Y921000D02*
X1037000Y929000D01*
X1027000Y933000D02*
X1224000D01*
X1024000Y930000D02*
X1027000Y933000D01*
X1224000D02*
X1250000Y907000D01*
X595000Y1056000D02*
X607500Y1068500D01*
X635750D01*
X588000Y1063000D02*
X598500Y1073500D01*
X635750D01*
X1190000Y1565000D02*
X1199000Y1556000D01*
X893000Y1353000D02*
X900500Y1345500D01*
X893000Y1353000D02*
Y1362000D01*
X900000Y1369000D01*
X612000Y1229343D02*
Y1232000D01*
X622000Y1166000D02*
X659000Y1129000D01*
Y1058000D02*
Y1129000D01*
X654500Y1053500D02*
X659000Y1058000D01*
X635750Y1053500D02*
X654500D01*
X664000Y1120000D02*
X667000Y1123000D01*
X664000Y1013000D02*
Y1120000D01*
X649500Y998500D02*
X664000Y1013000D01*
X668000Y1110000D02*
X674000Y1116000D01*
X668000Y1011343D02*
Y1110000D01*
X650157Y993500D02*
X668000Y1011343D01*
X904000Y1352000D02*
X911000D01*
X947343Y1252000D02*
X996000Y1203343D01*
X945157Y1239843D02*
X953843D01*
X992000Y1201686D01*
X943500Y1261500D02*
X1000000Y1205000D01*
X945000Y1240000D02*
X945157Y1239843D01*
X927501Y1261500D02*
X943500D01*
X938000Y1252000D02*
X947343D01*
X359000Y775000D02*
X419500Y835500D01*
X552500D01*
X555000Y838000D01*
X602500Y1078500D02*
X635750D01*
X585000Y1198000D02*
X588000Y1195000D01*
X608843Y1083500D02*
X635750D01*
X588000Y1209000D02*
X592000Y1205000D01*
X609500Y1088500D02*
X635750D01*
X620000Y1227000D02*
Y1543000D01*
X626000Y1191000D02*
X653500Y1163500D01*
X613157Y1108500D02*
X635750D01*
X621500Y1113500D02*
X635750D01*
X613000Y1122000D02*
X621500Y1113500D01*
X1139500Y1398500D02*
X1149000Y1408000D01*
X1150380D01*
X700000Y457657D02*
Y484000D01*
Y457657D02*
X706000Y451657D01*
Y440000D02*
Y451657D01*
X688000Y464000D02*
X699500Y452500D01*
Y440000D02*
Y452500D01*
X676000Y483000D02*
X682000Y477000D01*
Y458000D02*
Y477000D01*
Y458000D02*
X693000Y447000D01*
Y440000D02*
Y447000D01*
X675000Y459000D02*
Y464000D01*
Y459000D02*
X686500Y447500D01*
Y440000D02*
Y447500D01*
X725500Y449500D02*
X728000Y452000D01*
X725500Y440000D02*
Y449500D01*
X735000Y482000D02*
X737000Y484000D01*
X735000Y448000D02*
Y482000D01*
X732000Y445000D02*
X735000Y448000D01*
X732000Y440000D02*
Y445000D01*
X727000Y463000D02*
Y480000D01*
X719000Y455000D02*
X727000Y463000D01*
X719000Y440000D02*
Y455000D01*
X724000Y483000D02*
X727000Y480000D01*
X712500Y440000D02*
Y461500D01*
X712343Y1219314D02*
X742657D01*
X714000Y1223314D02*
X741000D01*
X502000Y885950D02*
X524950D01*
X474000Y1003849D02*
X530000Y947849D01*
Y891000D02*
Y947849D01*
X524950Y885950D02*
X530000Y891000D01*
X502000Y911350D02*
X518000D01*
X515500Y956500D02*
X515692D01*
X523000Y949192D01*
Y916350D02*
Y949192D01*
X518000Y911350D02*
X523000Y916350D01*
X408000Y1173343D02*
X458657Y1122686D01*
Y969000D02*
X485172Y942485D01*
X454000Y968000D02*
X481172Y940828D01*
X404000Y1171686D02*
Y1231800D01*
X408000Y1173343D02*
Y1278600D01*
X400000Y1170030D02*
Y1183029D01*
X376000Y1207029D02*
X400000Y1183029D01*
X412000Y1175000D02*
Y1300000D01*
X1138500Y1557500D02*
X1140000Y1556000D01*
X738000Y1236000D02*
X742343D01*
X728500Y1151250D02*
Y1199500D01*
X733500Y1151250D02*
Y1198843D01*
X738500Y1151250D02*
Y1198186D01*
X757000Y1183314D02*
Y1199716D01*
X753000Y1181657D02*
Y1201373D01*
X743500Y1151250D02*
Y1197530D01*
X1076500Y1495500D02*
X1078500Y1493500D01*
X1065620Y1493380D02*
Y1495000D01*
X1154000Y1468000D02*
Y1476000D01*
X1144500Y1458500D02*
X1154000Y1468000D01*
X1131500Y1458500D02*
X1144500D01*
X1143000Y1466000D02*
Y1475000D01*
X1139500Y1462500D02*
X1143000Y1466000D01*
X1131500Y1462500D02*
X1139500D01*
X778000Y833000D02*
Y851000D01*
X776000Y853000D02*
X778000Y851000D01*
X770000Y841000D02*
Y860343D01*
X657343Y849000D02*
X723500Y915157D01*
X644000Y849000D02*
X657343D01*
X690000Y780620D02*
X699000Y789620D01*
X776000Y853000D02*
Y860686D01*
X829657Y888000D02*
X945000D01*
X831000Y895000D02*
X935000D01*
X803000Y850000D02*
X811000D01*
X1155000Y854000D02*
Y855000D01*
Y849000D02*
Y854000D01*
X380000Y858000D02*
X427192D01*
X439192Y846000D01*
X374000Y864000D02*
X380000Y858000D01*
X374000Y864000D02*
Y899000D01*
X385000Y910000D01*
X463000Y872657D02*
X485657Y850000D01*
X463000Y872657D02*
Y894000D01*
X458350Y898650D02*
X463000Y894000D01*
X448000Y898650D02*
X458350D01*
X465000Y853000D02*
Y865000D01*
X456750Y873250D02*
X465000Y865000D01*
X448000Y873250D02*
X456750D01*
X385000Y910000D02*
X405000D01*
X419050Y924050D01*
X448000D01*
X1147500Y841500D02*
X1155000Y849000D01*
X1138500Y841500D02*
X1147500D01*
X1163000Y850000D02*
X1169000D01*
X1150500Y837500D02*
X1163000Y850000D01*
X1138500Y837500D02*
X1150500D01*
X1131101Y874000D02*
X1170314D01*
X1132757Y870000D02*
X1168657D01*
X1135000Y866000D02*
X1167000D01*
X1129444Y878000D02*
X1172000D01*
X1108657Y887000D02*
X1168657D01*
X1107000Y891000D02*
X1170314D01*
X944985Y1220015D02*
X968015D01*
X988000Y1200030D01*
X930000Y1235000D02*
X944985Y1220015D01*
X907180Y1076343D02*
X925337Y1094500D01*
X895030Y1076343D02*
X907180D01*
X846250Y1083500D02*
X859349D01*
X881686Y1063000D02*
X895030Y1076343D01*
X870500Y1064157D02*
X871657Y1063000D01*
X881686D01*
X859349Y1083500D02*
X870500Y1072349D01*
Y1064157D02*
Y1072349D01*
X908837Y1072343D02*
X926994Y1090500D01*
X846250Y1078500D02*
X858692D01*
X896686Y1072343D02*
X908837D01*
X883343Y1059000D02*
X896686Y1072343D01*
X870000Y1059000D02*
X883343D01*
X866500Y1062500D02*
Y1070692D01*
X858692Y1078500D02*
X866500Y1070692D01*
Y1062500D02*
X870000Y1059000D01*
X935000Y1255000D02*
X938000Y1252000D01*
X925672Y1056328D02*
X954343Y1085000D01*
X907328Y1056328D02*
X925672D01*
X900000Y1049000D02*
X907328Y1056328D01*
X854500Y958500D02*
X860000Y953000D01*
X846250Y958500D02*
X854500D01*
X922000Y1047000D02*
X956000Y1081000D01*
X910000Y1047000D02*
X922000D01*
X863500Y963500D02*
X870000Y957000D01*
X846250Y963500D02*
X863500D01*
X770000Y1115000D02*
X787000D01*
X728000Y1073000D02*
X770000Y1115000D01*
X919000Y1005000D02*
Y1015000D01*
X728000Y999000D02*
Y1073000D01*
X688500Y959500D02*
X728000Y999000D01*
X688500Y940750D02*
Y959500D01*
X635750Y993500D02*
X650157D01*
X635750Y998500D02*
X649500D01*
X718500Y1151250D02*
Y1207500D01*
X685000Y1241000D02*
X718500Y1207500D01*
X718000Y1083000D02*
X735000Y1100000D01*
X718000Y1002686D02*
Y1083000D01*
X714000Y1094000D02*
X725000Y1105000D01*
X714000Y1004343D02*
Y1094000D01*
X678500Y963186D02*
X718000Y1002686D01*
X678500Y940750D02*
Y963186D01*
X673500Y963843D02*
X714000Y1004343D01*
X673500Y940750D02*
Y963843D01*
X920858Y1033828D02*
X960030Y1073000D01*
X921373Y1040000D02*
X958373Y1077000D01*
X905000Y1090000D02*
X908500Y1093500D01*
X904657Y1090000D02*
X905000D01*
X904157Y1089500D02*
X904657Y1090000D01*
X897500Y1089500D02*
X904157D01*
X888000Y1080000D02*
X897500Y1089500D01*
X902500Y1093500D02*
X906500Y1097500D01*
X885000Y1090000D02*
X888500Y1093500D01*
X902500D01*
X877500Y1069772D02*
Y1079500D01*
X878000Y1080000D01*
X906500Y1097500D02*
X909843D01*
X917343Y1105000D01*
X911500Y1093500D02*
X919000Y1101000D01*
X908500Y1093500D02*
X911500D01*
X907000Y1104000D02*
Y1112029D01*
X931808Y1084000D02*
X940000D01*
X928904Y1081096D02*
X931808Y1084000D01*
X923247Y1081096D02*
X928904D01*
X910494Y1068343D02*
X923247Y1081096D01*
X898343Y1068343D02*
X910494D01*
X885000Y1055000D02*
X898343Y1068343D01*
X886657Y1051000D02*
X900000Y1064343D01*
X933500Y1076500D02*
X934000Y1077000D01*
X924308Y1076500D02*
X933500D01*
X912151Y1064343D02*
X924308Y1076500D01*
X900000Y1064343D02*
X912151D01*
X917328Y1060328D02*
X927000Y1070000D01*
X901642Y1060328D02*
X917328D01*
X888314Y1047000D02*
X901642Y1060328D01*
X857000Y1047000D02*
X888314D01*
X859000Y1051000D02*
X886657D01*
X861000Y1055000D02*
X885000D01*
X857500Y1058500D02*
X861000Y1055000D01*
X846250Y1058500D02*
X857500D01*
X856500Y1053500D02*
X859000Y1051000D01*
X846250Y1053500D02*
X856500D01*
X855500Y1048500D02*
X857000Y1047000D01*
X846250Y1048500D02*
X855500D01*
X1145637Y1382000D02*
X1158000D01*
X1170000Y1370000D01*
X1158620Y1418620D02*
X1170000Y1430000D01*
X1158620Y1402620D02*
Y1418620D01*
X1156000Y1400000D02*
X1158620Y1402620D01*
X1147000Y1400000D02*
X1156000D01*
X1150000Y1450000D02*
X1170000D01*
X1146500Y1446500D02*
X1150000Y1450000D01*
X1131500Y1446500D02*
X1146500D01*
X1163000Y1470000D02*
X1170000D01*
X1143500Y1450500D02*
X1163000Y1470000D01*
X1131500Y1450500D02*
X1143500D01*
X1197000Y1369800D02*
Y1475970D01*
X1121444Y1498000D02*
X1174970D01*
X1193000Y1356000D02*
Y1474314D01*
X1123101Y1494000D02*
X1173314D01*
X1189000Y1330000D02*
Y1472657D01*
X1124757Y1490000D02*
X1171657D01*
X1174970Y1498000D02*
X1197000Y1475970D01*
X1173314Y1494000D02*
X1193000Y1474314D01*
X1171657Y1490000D02*
X1189000Y1472657D01*
X1185000Y1323000D02*
Y1471000D01*
X1170000Y1486000D02*
X1185000Y1471000D01*
X1127657Y1486000D02*
X1170000D01*
X1172000Y1507000D02*
X1201000Y1478000D01*
X1173657Y1511000D02*
X1205000Y1479657D01*
X1175314Y1515000D02*
X1209000Y1481314D01*
X1176971Y1519000D02*
X1213000Y1482970D01*
X1098000Y1507000D02*
X1172000D01*
X1201000Y1380000D02*
Y1478000D01*
X1096343Y1511000D02*
X1173657D01*
X1205000Y1392000D02*
Y1479657D01*
X1094686Y1515000D02*
X1175314D01*
X1209000Y1414000D02*
Y1481314D01*
X1093029Y1519000D02*
X1176971D01*
X1213000Y1430000D02*
Y1482970D01*
X1161500Y825500D02*
X1165000Y822000D01*
X1138500Y825500D02*
X1161500D01*
X1156500Y829500D02*
X1165000Y838000D01*
X1138500Y829500D02*
X1156500D01*
X1122284Y724000D02*
X1171000D01*
X1108284Y710000D02*
X1122284Y724000D01*
X1058402Y710000D02*
X1108284D01*
X1029000Y739402D02*
X1058402Y710000D01*
X1029000Y739402D02*
Y774000D01*
X1000000Y803000D02*
X1029000Y774000D01*
X1000000Y803000D02*
Y833000D01*
X1029000Y796059D02*
Y815582D01*
X794000Y890000D02*
X794343D01*
X762000Y858000D02*
X794000Y890000D01*
X789500Y894500D02*
X795000Y900000D01*
X789308Y894500D02*
X789500D01*
X758000Y863192D02*
X789308Y894500D01*
X758000Y553657D02*
Y863192D01*
X767000Y908000D02*
Y910000D01*
X753500Y923500D02*
X767000Y910000D01*
X753500Y923500D02*
Y940750D01*
X805000Y1020000D02*
Y1023000D01*
X748500Y963500D02*
X805000Y1020000D01*
X743500Y972500D02*
X803998Y1032999D01*
X743500Y940750D02*
Y972500D01*
X803998Y1032999D02*
X809999D01*
X783000Y1039500D02*
X827000D01*
X777500Y1043500D02*
X846250D01*
X777000Y1033500D02*
X783000Y1039500D01*
X774000Y1040000D02*
X777500Y1043500D01*
X740000Y1033500D02*
X777000D01*
X827000Y1039500D02*
X833000Y1033500D01*
X846250D01*
X748500Y940750D02*
Y963500D01*
X804000Y811000D02*
X815000D01*
X828050Y797950D01*
Y789000D02*
Y797950D01*
X802650Y789000D02*
X815350D01*
X821000Y964000D02*
X824000Y967000D01*
X818000Y972000D02*
Y999000D01*
X830500Y1003500D02*
X846250D01*
X824000Y997000D02*
X830500Y1003500D01*
X824000Y967000D02*
Y997000D01*
X836692Y1008500D02*
X846250D01*
X835942Y1007750D02*
X836692Y1008500D01*
X826750Y1007750D02*
X835942D01*
X818000Y999000D02*
X826750Y1007750D01*
X817000Y972000D02*
X818000D01*
X817000Y971000D02*
Y972000D01*
X832500Y1023500D02*
X846250D01*
X812000Y1003000D02*
X832500Y1023500D01*
X812000Y981000D02*
Y1003000D01*
X810000Y979000D02*
X812000Y981000D01*
X930500Y816000D02*
Y828500D01*
X968600Y816000D02*
Y831400D01*
X686657Y912000D02*
X699000D01*
X668500Y930157D02*
X686657Y912000D01*
X668500Y930157D02*
Y940750D01*
X689000Y904000D02*
X693000D01*
X663500Y929500D02*
X689000Y904000D01*
X663500Y929500D02*
Y940750D01*
X1022000Y862180D02*
Y871000D01*
Y862180D02*
X1054837Y829343D01*
X1031000Y858837D02*
Y862000D01*
Y858837D02*
X1056494Y833343D01*
X1224600Y703800D02*
X1236000Y715200D01*
Y734000D01*
X1244000Y742000D01*
X1254000D01*
X925000Y976151D02*
Y990000D01*
X917686Y1025000D02*
X944686Y1052000D01*
X914000Y1025000D02*
X917686D01*
X869828Y1033828D02*
X920858D01*
X861000Y1040000D02*
X921373D01*
X839000Y918000D02*
X854000Y933000D01*
X905000D01*
X910896Y945000D02*
X1037000Y818896D01*
X850000Y949000D02*
X854000Y945000D01*
X910896D01*
X864500Y1093500D02*
X878000Y1080000D01*
X846250Y1093500D02*
X864500D01*
X1039000Y856494D02*
Y868000D01*
Y856494D02*
X1057994Y837500D01*
X971000Y1128000D02*
X976000D01*
X978000Y1126000D01*
X961000Y1117000D02*
Y1123000D01*
X953000Y1109000D02*
X961000Y1117000D01*
X956000Y1118000D02*
Y1123000D01*
X951000Y1113000D02*
X956000Y1118000D01*
X951000Y1119000D02*
Y1123000D01*
X949000Y1117000D02*
X951000Y1119000D01*
X919000Y1117000D02*
X949000D01*
X962000Y1134000D02*
X963000Y1133000D01*
X910536Y1012192D02*
X946343Y1048000D01*
X919000Y1015000D02*
X948000Y1044000D01*
X706000Y1130000D02*
X825417D01*
X766000Y1138000D02*
X827760D01*
X802000Y1123000D02*
X816000D01*
X803000Y1116000D02*
X834000D01*
X799000Y1126000D02*
X802000Y1123000D01*
X704343Y1126000D02*
X799000D01*
X688500Y1141843D02*
X704343Y1126000D01*
X688500Y1141843D02*
Y1151250D01*
X693500Y1142500D02*
X706000Y1130000D01*
X693500Y1142500D02*
Y1151250D01*
X705000Y1008000D02*
Y1113000D01*
X710000Y1101000D02*
X713000Y1104000D01*
X710000Y1006000D02*
Y1101000D01*
X695000Y1012000D02*
Y1120000D01*
X763500Y1140500D02*
X766000Y1138000D01*
X763500Y1140500D02*
Y1151250D01*
X905000Y1012192D02*
X910536D01*
X867308Y983500D02*
X877000Y993192D01*
X886000D02*
X905000Y1012192D01*
X877000Y993192D02*
X886000D01*
X846250Y983500D02*
X867308D01*
X814000Y918000D02*
X839000D01*
X808500Y923500D02*
X814000Y918000D01*
X808500Y923500D02*
Y940750D01*
X813500D02*
Y948308D01*
X802000Y988000D02*
X804000Y990000D01*
X802000Y972000D02*
Y988000D01*
Y972000D02*
X816500Y957500D01*
Y951308D02*
Y957500D01*
X813500Y948308D02*
X816500Y951308D01*
X832000Y989000D02*
X836500Y993500D01*
X832000Y951000D02*
Y989000D01*
Y951000D02*
X842000Y941000D01*
X797500Y996843D02*
X827657Y1027000D01*
X803500Y940750D02*
Y955000D01*
X797500Y961000D02*
X803500Y955000D01*
X797500Y961000D02*
Y996843D01*
X868000Y1032000D02*
X869828Y1033828D01*
X815000Y1020000D02*
Y1025000D01*
X793500Y998500D02*
X815000Y1020000D01*
X793500Y940750D02*
Y998500D01*
X782000Y1091000D02*
Y1095000D01*
X816000Y1094808D02*
Y1103000D01*
X790000Y1085000D02*
X806192D01*
X816000Y1094808D01*
X832692Y1108500D02*
X846250D01*
X831192Y1110000D02*
X832692Y1108500D01*
X823000Y1110000D02*
X831192D01*
X816000Y1103000D02*
X823000Y1110000D01*
X836500Y1113500D02*
X846250D01*
X834000Y1116000D02*
X836500Y1113500D01*
X832692Y1098500D02*
X846250D01*
X811692Y1077500D02*
X832692Y1098500D01*
X796500Y1077500D02*
X811692D01*
X782000Y1095000D02*
X803000Y1116000D01*
X762000Y552000D02*
Y858000D01*
X790000Y906686D02*
Y910000D01*
X754000Y870686D02*
X790000Y906686D01*
X754000Y556000D02*
Y870686D01*
X828500Y1103500D02*
X846250D01*
X874000Y1168000D02*
Y1176000D01*
Y1168000D02*
X906000Y1136000D01*
X917343Y1113000D02*
X951000D01*
X915686Y1109000D02*
X953000D01*
X906000Y1136000D02*
X923000D01*
X926000Y1133000D01*
X941000D01*
X947000Y1159000D02*
X951000Y1155000D01*
Y1153000D02*
Y1155000D01*
X934000Y1148000D02*
X941000D01*
X963000Y1133000D02*
X971000D01*
Y1148000D02*
X976000D01*
X978000Y1146000D01*
Y1145000D02*
Y1146000D01*
X976000Y1143000D02*
X978000Y1145000D01*
X971000Y1143000D02*
X976000D01*
X933000Y1126000D02*
X935000Y1128000D01*
X941000D01*
X961000Y1153000D02*
Y1158000D01*
X958000Y1161000D02*
X961000Y1158000D01*
X956000Y1159000D02*
X958000Y1161000D01*
X956000Y1153000D02*
Y1159000D01*
X905000Y990494D02*
Y1000000D01*
X894000Y984523D02*
Y992000D01*
X872500Y968500D02*
X876000Y965000D01*
X846250Y968500D02*
X872500D01*
X879000Y986000D02*
X886867D01*
X846250Y978500D02*
X888710D01*
X846250Y973500D02*
X888053D01*
X842000Y941000D02*
X909239D01*
X836500Y993500D02*
X846250D01*
X909239Y941000D02*
X1033000Y817239D01*
X757000Y1183314D02*
X773500Y1166814D01*
Y1151250D02*
Y1166814D01*
X753000Y1181657D02*
X768500Y1166157D01*
Y1151250D02*
Y1166157D01*
X985000Y1438657D02*
X1011343Y1465000D01*
X1042000D01*
X1045500Y1461500D01*
X1012500Y1460500D02*
X1040500D01*
X1043500Y1457500D01*
X1034620Y1440000D02*
X1039000D01*
X1048500Y1449500D01*
X1250000Y1469200D02*
X1264000Y1483200D01*
Y1549000D01*
X1256000Y1557000D02*
X1264000Y1549000D01*
X1215000Y1557000D02*
X1256000D01*
X1200000Y1542000D02*
X1215000Y1557000D01*
X1250000Y1494600D02*
Y1494657D01*
X1236000Y1508657D02*
X1250000Y1494657D01*
X1236000Y1508657D02*
Y1526000D01*
X1229000Y1533000D02*
X1236000Y1526000D01*
X1211000Y1533000D02*
X1229000D01*
X1206000Y1538000D02*
X1211000Y1533000D01*
X1224600Y1443800D02*
X1237000Y1456200D01*
Y1502000D01*
X1231000Y1508000D02*
X1237000Y1502000D01*
X1215000Y1508000D02*
X1231000D01*
X1189000Y1534000D02*
X1215000Y1508000D01*
X1219400Y1494600D02*
X1224600D01*
X1184000Y1530000D02*
X1219400Y1494600D01*
X799500Y1183000D02*
Y1198500D01*
X784500Y1183000D02*
Y1198500D01*
X793500Y1177000D02*
X799500Y1183000D01*
X793500Y1151250D02*
Y1177000D01*
X784500Y1183000D02*
X788500Y1179000D01*
Y1151250D02*
Y1179000D01*
X594000Y1035000D02*
X603000D01*
X575000Y1054000D02*
X594000Y1035000D01*
X483650Y1227350D02*
X490000Y1221000D01*
X448000Y1227350D02*
X483650D01*
X448000Y1265450D02*
X462450D01*
X473000Y1276000D01*
X597500Y1043500D02*
X635750D01*
X477172Y910000D02*
Y939172D01*
Y876828D02*
Y910000D01*
X465000D02*
X477172D01*
X485172Y931828D02*
X492950Y924050D01*
X481000Y952314D02*
X489172Y944142D01*
X481000Y952314D02*
Y956000D01*
X477314D02*
X481000D01*
X678500Y1139500D02*
Y1151250D01*
X671000Y1164000D02*
X673500Y1161500D01*
Y1151250D02*
Y1161500D01*
X668500Y1161500D02*
X671000Y1164000D01*
X668500Y1151250D02*
Y1161500D01*
X708500Y1151250D02*
Y1163500D01*
X751000Y1139000D02*
X753500Y1141500D01*
Y1151250D01*
X748500Y1160500D02*
X751000Y1163000D01*
X748500Y1151250D02*
Y1160500D01*
X856500Y1133500D02*
X859000Y1131000D01*
X846250Y1133500D02*
X856500D01*
X856500Y1128500D02*
X859000Y1131000D01*
X846250Y1128500D02*
X856500D01*
X834000Y1065000D02*
X835500Y1063500D01*
X846250D01*
X856500Y1068500D02*
X858000Y1067000D01*
X846250Y1068500D02*
X856500D01*
X834000Y1013500D02*
X846250D01*
X856500Y1018500D02*
X858000Y1017000D01*
X846250Y1018500D02*
X856500D01*
X818500Y930500D02*
Y940750D01*
X823500D02*
Y952500D01*
X828500Y934000D02*
X833250Y929250D01*
X828500Y934000D02*
Y940750D01*
X763500Y928500D02*
Y940750D01*
X758500D02*
Y951500D01*
X703500Y951500D02*
X705250Y953250D01*
X703500Y940750D02*
Y951500D01*
X707000Y929000D02*
X708500Y930500D01*
Y940750D01*
X623250Y953250D02*
X628500Y958500D01*
X635750D01*
X623500Y963500D02*
X635750D01*
Y1013500D02*
X648000D01*
X625000Y1008500D02*
X635750D01*
X623000Y1058500D02*
X635750D01*
Y1063500D02*
X647000D01*
X636000Y1128250D02*
X649250D01*
X635750Y1128500D02*
X636000Y1128250D01*
X625000Y1123500D02*
X635750D01*
X469000Y1496500D02*
X483250Y1482250D01*
X469000Y1496500D02*
Y1515000D01*
X459550Y1524450D02*
X469000Y1515000D01*
X448000Y1524450D02*
X459550D01*
X464000Y1482000D02*
Y1509000D01*
X461250Y1511750D02*
X464000Y1509000D01*
X448000Y1511750D02*
X461250D01*
X483250Y1454250D02*
Y1458250D01*
X477250Y1448250D02*
X483250Y1454250D01*
X448000Y1448250D02*
X477250D01*
X464500Y1341500D02*
Y1398530D01*
X490000Y1312000D02*
Y1316000D01*
X464500Y1341500D02*
X490000Y1316000D01*
X488858Y1325950D02*
X502000D01*
X468500Y1346308D02*
Y1400186D01*
Y1346308D02*
X488858Y1325950D01*
X376000Y1207029D02*
Y1256400D01*
X429000Y1481000D02*
X436350Y1473650D01*
X448000D01*
X419000Y1479000D02*
X429000Y1469000D01*
X419000Y1479000D02*
Y1490000D01*
X428050Y1499050D01*
X448000D01*
X390400Y1491200D02*
X420650Y1460950D01*
X448000D01*
X502000Y898650D02*
X522030D01*
X390400Y1321600D02*
X412000Y1300000D01*
X390400Y1296200D02*
X408000Y1278600D01*
X390400Y1245400D02*
X404000Y1231800D01*
X376000Y1256400D02*
X390400Y1270800D01*
X485172Y931828D02*
Y942485D01*
X489172Y940828D02*
X493250Y936750D01*
X489172Y940828D02*
Y944142D01*
X481172Y881828D02*
Y940828D01*
X477172Y876828D02*
X493450Y860550D01*
X502000D01*
X481172Y881828D02*
X489750Y873250D01*
X502000D01*
X492950Y924050D02*
X502000D01*
X493250Y936750D02*
X502000D01*
X608000Y390400D02*
Y410000D01*
X590500Y427500D02*
X608000Y410000D01*
X590500Y427500D02*
Y437000D01*
X584000Y391800D02*
Y437000D01*
X557200Y390400D02*
Y407200D01*
X577500Y427500D01*
Y437000D01*
X531800Y391143D02*
X571000Y430343D01*
Y437000D01*
X506400Y390400D02*
X538000Y422000D01*
X557000D01*
X564500Y429500D01*
Y437000D01*
X481000Y390400D02*
X516600Y426000D01*
X553000D01*
X558000Y431000D01*
Y437000D01*
X608620Y749620D02*
X616000D01*
X595500Y736500D02*
X608620Y749620D01*
X587500Y736500D02*
X595500D01*
X334380Y737240D02*
X335000Y736620D01*
Y727620D02*
Y736620D01*
X334380Y737240D02*
Y775000D01*
X1134500Y1382500D02*
X1138000Y1379000D01*
X1131500Y1382500D02*
X1134500D01*
X1141137Y1386500D02*
X1145637Y1382000D01*
X1131500Y1386500D02*
X1141137D01*
X1047500Y1465500D02*
X1053686D01*
X1054686Y1466500D01*
X1066500D01*
X1045500Y1461500D02*
X1055343D01*
X1056343Y1462500D01*
X1066500D01*
X1043500Y1457500D02*
X1057000D01*
X1058000Y1458500D01*
X1066500D01*
X1035120Y1453500D02*
X1057500D01*
X1060500Y1450500D01*
X1055843Y1449500D02*
X1058843Y1446500D01*
X1048500Y1449500D02*
X1055843D01*
X1059000Y1472000D02*
Y1473000D01*
Y1472000D02*
X1060500Y1470500D01*
X1059000Y1473000D02*
X1060500Y1474500D01*
X1066500D01*
X1060500Y1470500D02*
X1066500D01*
X1054500Y1442500D02*
X1066500D01*
X1058843Y1446500D02*
X1066500D01*
X1060500Y1450500D02*
X1066500D01*
X1056500Y1434500D02*
X1066500D01*
X1058000Y1397000D02*
X1059500Y1398500D01*
X1066500D01*
X1137843Y1402500D02*
X1142000Y1406657D01*
X1131500Y1402500D02*
X1137843D01*
X1131500Y1398500D02*
X1139500D01*
X1141500Y1394500D02*
X1147000Y1400000D01*
X1131500Y1394500D02*
X1141500D01*
X1131500Y1390500D02*
X1146880D01*
X1124000Y1362000D02*
Y1366000D01*
X1121000Y1369000D02*
X1124000Y1366000D01*
X1121000Y1369000D02*
Y1376000D01*
X1129000Y1371000D02*
X1130000Y1372000D01*
X1126000Y1371000D02*
X1129000D01*
X1125000Y1372000D02*
X1126000Y1371000D01*
X1125000Y1372000D02*
Y1376000D01*
X1109000Y1189349D02*
Y1376000D01*
X1105000Y1191006D02*
Y1376000D01*
X1101000Y1192663D02*
Y1376000D01*
X1097000Y1194319D02*
Y1376000D01*
X1093000Y1195976D02*
Y1376000D01*
X1077000Y1369000D02*
Y1376000D01*
X1209000Y1414000D02*
X1218000Y1405000D01*
X1205000Y1392000D02*
X1217000Y1380000D01*
X1201000Y1380000D02*
X1213400Y1367600D01*
X1197000Y1369800D02*
X1224600Y1342200D01*
X1193000Y1356000D02*
X1219000Y1330000D01*
X1213000Y1430000D02*
X1224600Y1418400D01*
X1216600Y1291400D02*
X1224600D01*
X1238200Y1305000D02*
X1250000Y1316800D01*
X1214000Y1305000D02*
X1238200D01*
X1213400Y1367600D02*
X1224600D01*
X1237000Y1380000D02*
X1250000Y1393000D01*
X1217000Y1380000D02*
X1237000D01*
X1236600Y1405000D02*
X1250000Y1418400D01*
X1218000Y1405000D02*
X1236600D01*
X1069343Y1484000D02*
X1073000D01*
X1068343Y1485000D02*
X1069343Y1484000D01*
X1066000Y1485000D02*
X1068343D01*
X1075242Y1488000D02*
X1077000Y1486243D01*
X1071000Y1488000D02*
X1075242D01*
X1065620Y1493380D02*
X1071000Y1488000D01*
X1078500Y1490399D02*
X1081000Y1487899D01*
X1078500Y1490399D02*
Y1493500D01*
X1082500Y1492056D02*
X1085000Y1489556D01*
X1082500Y1508470D02*
X1093029Y1519000D01*
X1082500Y1492056D02*
Y1508470D01*
X1086500Y1506814D02*
X1094686Y1515000D01*
X1086500Y1493713D02*
Y1506814D01*
Y1493713D02*
X1089000Y1491213D01*
X1090500Y1505157D02*
X1096343Y1511000D01*
X1090500Y1495370D02*
Y1505157D01*
Y1495370D02*
X1093000Y1492870D01*
X1094500Y1497027D02*
X1097000Y1494527D01*
X1094500Y1503500D02*
X1098000Y1507000D01*
X1094500Y1497027D02*
Y1503500D01*
X1113000Y1489556D02*
X1121444Y1498000D01*
X1113000Y1481000D02*
Y1489556D01*
X1117000Y1487899D02*
X1123101Y1494000D01*
X1117000Y1481000D02*
Y1487899D01*
X1121000Y1486243D02*
X1124757Y1490000D01*
X1121000Y1481000D02*
Y1486243D01*
X1125000Y1483343D02*
X1127657Y1486000D01*
X1125000Y1481000D02*
Y1483343D01*
X1108000Y1491000D02*
X1109000Y1490000D01*
Y1481000D02*
Y1490000D01*
X1100000Y1501000D02*
X1101000Y1500000D01*
Y1481000D02*
Y1500000D01*
X1097000Y1481000D02*
Y1494527D01*
X1093000Y1481000D02*
Y1492870D01*
X1089000Y1481000D02*
Y1491213D01*
X1085000Y1481000D02*
Y1489556D01*
X1081000Y1481000D02*
Y1487899D01*
X1077000Y1481000D02*
Y1486243D01*
X1065000Y1484000D02*
X1066000Y1485000D01*
X1065000Y1484000D02*
X1065000D01*
X1073000Y1481000D02*
Y1484000D01*
X1066500Y1438500D02*
X1089000D01*
X1066500Y1394500D02*
X1078500D01*
X1081000Y1376000D02*
Y1410500D01*
X1109000Y1418500D02*
X1131500D01*
X1105000Y1434500D02*
Y1481000D01*
X1070000Y872000D02*
X1071586D01*
X1080000Y863586D01*
Y860000D02*
Y863586D01*
X1077500Y871742D02*
X1084000Y865242D01*
X1052000Y883000D02*
X1074000D01*
X1077500Y879500D01*
Y871742D02*
Y879500D01*
X1132000Y863000D02*
X1135000Y866000D01*
X1132000Y860000D02*
Y863000D01*
X1128000Y865242D02*
X1132757Y870000D01*
X1124000Y866899D02*
X1131101Y874000D01*
X1120000Y868556D02*
X1129444Y878000D01*
X1108000Y873500D02*
X1110500Y876000D01*
X1108000Y860000D02*
Y873500D01*
X1120000Y874213D02*
Y878000D01*
X1116000Y870213D02*
X1120000Y874213D01*
X1116000Y860000D02*
Y870213D01*
X1090500Y885814D02*
X1103686Y899000D01*
X1094500Y884157D02*
X1105343Y895000D01*
X1098500Y882500D02*
X1107000Y891000D01*
X1103686Y899000D02*
X1192000D01*
X1105343Y895000D02*
X1190343D01*
X1102500Y880843D02*
X1108657Y887000D01*
X1104000Y860000D02*
Y873527D01*
X1102500Y875027D02*
X1104000Y873527D01*
X1102500Y875027D02*
Y880843D01*
X1098500Y873370D02*
X1100000Y871870D01*
Y860000D02*
Y871870D01*
X1094500Y871713D02*
X1096000Y870213D01*
Y860000D02*
Y870213D01*
X1090500Y870056D02*
X1092000Y868556D01*
Y860000D02*
Y868556D01*
X1086000Y868899D02*
X1088000Y866899D01*
Y860000D02*
Y866899D01*
X1084000Y860000D02*
Y865242D01*
X1098500Y873370D02*
Y882500D01*
X1090500Y870056D02*
Y885814D01*
X1094500Y871713D02*
Y884157D01*
X1086000Y868899D02*
Y872000D01*
X1120000Y860000D02*
Y868556D01*
X1124000Y860000D02*
Y866899D01*
X1128000Y860000D02*
Y865242D01*
X556000Y1654000D02*
Y1656000D01*
Y1654000D02*
X557500Y1652500D01*
X561500D01*
X539120Y1637500D02*
X561500D01*
X550500Y1632500D02*
X561500D01*
X546000Y1628000D02*
X550500Y1632500D01*
X532500Y1628000D02*
X546000D01*
X557500Y1627500D02*
X561500D01*
X555000Y1625000D02*
X557500Y1627500D01*
X578500Y1611500D02*
Y1620500D01*
X568500Y1617500D02*
Y1620500D01*
X556380Y1605380D02*
X568500Y1617500D01*
X573500Y1616386D02*
Y1620500D01*
X571000Y1613886D02*
X573500Y1616386D01*
X571000Y1609343D02*
Y1613886D01*
X583500Y1615692D02*
Y1620500D01*
Y1615692D02*
X585000Y1614192D01*
X588500Y1616500D02*
Y1620500D01*
Y1616500D02*
X589000Y1616000D01*
Y1585620D02*
Y1616000D01*
X593500Y1607500D02*
Y1620500D01*
X600500Y1627500D02*
X604500D01*
X607000Y1625000D01*
X600500Y1632500D02*
X606500D01*
X611000Y1628000D01*
X600500Y1637500D02*
X607500D01*
X615000Y1630000D01*
Y1607000D02*
Y1630000D01*
X568500Y1659500D02*
Y1665500D01*
X566000Y1668000D02*
X568500Y1665500D01*
X600500Y1642500D02*
X611500D01*
X620000Y1634000D01*
X600500Y1647500D02*
X613500D01*
X624000Y1637000D01*
Y1609314D02*
Y1637000D01*
X600500Y1652500D02*
X614157D01*
X628000Y1638657D01*
Y1611000D02*
Y1638657D01*
X1084000Y749000D02*
Y755000D01*
X1081000Y746000D02*
X1084000Y749000D01*
X1088000Y749000D02*
Y755000D01*
Y749000D02*
X1091000Y746000D01*
X1100000Y742000D02*
Y755000D01*
X1096000Y738000D02*
X1100000Y742000D01*
X1070000Y738000D02*
X1096000D01*
X1104000Y740343D02*
Y755000D01*
X1097657Y734000D02*
X1104000Y740343D01*
X1068343Y734000D02*
X1097657D01*
X1108000Y738000D02*
Y755000D01*
X1100000Y730000D02*
X1108000Y738000D01*
X1066686Y730000D02*
X1100000D01*
X1112000Y736343D02*
Y755000D01*
X1101657Y726000D02*
X1112000Y736343D01*
X1065030Y726000D02*
X1101657D01*
X1116000Y734686D02*
Y755000D01*
X1103314Y722000D02*
X1116000Y734686D01*
X1063373Y722000D02*
X1103314D01*
X1120000Y733029D02*
Y755000D01*
X1104970Y718000D02*
X1120000Y733029D01*
X1061716Y718000D02*
X1104970D01*
X1124000Y731373D02*
Y755000D01*
X1106627Y714000D02*
X1124000Y731373D01*
X1060059Y714000D02*
X1106627D01*
X1128000Y745000D02*
Y755000D01*
X1132000Y751000D02*
Y755000D01*
Y751000D02*
X1133000Y750000D01*
X1135000D01*
X1136000Y751000D01*
X1067500Y773500D02*
X1073500D01*
X1065000Y771000D02*
X1067500Y773500D01*
X1065000Y770000D02*
Y771000D01*
X1065500Y777500D02*
X1073500D01*
X1064000Y779000D02*
X1065500Y777500D01*
X1066500Y813500D02*
X1073500D01*
X1064000Y811000D02*
X1066500Y813500D01*
X1067500Y829500D02*
X1073500D01*
X1063657Y833343D02*
X1067500Y829500D01*
X1065843Y825500D02*
X1073500D01*
X1062000Y829343D02*
X1065843Y825500D01*
X1062500Y821500D02*
X1073500D01*
X1066500Y849500D02*
X1073500D01*
X1065000Y851000D02*
X1066500Y849500D01*
X1066500Y853500D02*
X1073500D01*
X1065000Y852000D02*
X1066500Y853500D01*
X1061308Y845500D02*
X1073500D01*
X1057000Y849808D02*
X1061308Y845500D01*
X1057000Y849808D02*
Y861000D01*
X1059651Y841500D02*
X1073500D01*
X1057994Y837500D02*
X1073500D01*
X1056494Y833343D02*
X1063657D01*
X1054837Y829343D02*
X1062000D01*
X1138500Y761500D02*
X1141500D01*
X1145000Y758000D01*
Y757000D02*
Y758000D01*
X1138500Y765500D02*
X1145692D01*
X1151500Y759692D01*
X1138500Y769500D02*
X1154880D01*
X1148157Y773500D02*
X1150380Y775723D01*
Y775743D01*
X1138500Y777500D02*
X1146480D01*
X1150981Y782000D01*
X1150380Y775743D02*
X1152637Y778000D01*
X1138500Y773500D02*
X1148157D01*
X1150981Y782000D02*
X1153380D01*
X1138500Y781500D02*
X1144824D01*
X1148000Y784676D01*
Y792000D01*
X1116000Y797500D02*
X1138500D01*
Y793500D02*
X1143843D01*
X1149343Y799000D01*
Y802657D01*
X1149000Y803000D02*
X1149343Y802657D01*
X1112000Y813500D02*
Y860000D01*
X1057000Y751000D02*
X1070000Y738000D01*
X1057000Y751000D02*
Y802000D01*
X1053000Y806000D02*
X1057000Y802000D01*
X1053000Y806000D02*
Y825523D01*
X894000Y984523D02*
X1053000Y825523D01*
X1053000Y749343D02*
X1068343Y734000D01*
X1053000Y749343D02*
Y800343D01*
X1049000Y804343D02*
X1053000Y800343D01*
X1049000Y804343D02*
Y823867D01*
X886867Y986000D02*
X1049000Y823867D01*
X1049000Y747686D02*
X1066686Y730000D01*
X1049000Y747686D02*
Y798686D01*
X1045000Y802686D02*
X1049000Y798686D01*
X1045000Y802686D02*
Y822210D01*
X888710Y978500D02*
X1045000Y822210D01*
X1045000Y746030D02*
X1065030Y726000D01*
X1045000Y746030D02*
Y797029D01*
X1041000Y801030D02*
X1045000Y797029D01*
X1041000Y801030D02*
Y820553D01*
X888053Y973500D02*
X1041000Y820553D01*
X1041000Y744373D02*
X1063373Y722000D01*
X1041000Y744373D02*
Y795373D01*
X1037000Y799373D02*
X1041000Y795373D01*
X1037000Y799373D02*
Y818896D01*
X1037000Y742716D02*
X1061716Y718000D01*
X1037000Y742716D02*
Y793716D01*
X1033000Y797716D02*
X1037000Y793716D01*
X1033000Y797716D02*
Y817239D01*
X1033000Y741059D02*
X1060059Y714000D01*
X1033000Y741059D02*
Y792059D01*
X1029000Y796059D02*
X1033000Y792059D01*
X1200600Y551400D02*
X1224600D01*
X1199000Y564000D02*
X1237200D01*
X1250000Y576800D01*
X1209800Y602200D02*
X1224600D01*
X1212400Y627600D02*
X1224600D01*
X1215000Y642000D02*
X1239000D01*
X1250000Y653000D01*
X1217000Y665000D02*
X1236600D01*
X1250000Y678400D01*
X1152637Y778000D02*
X1162123D01*
X1165000Y780877D01*
X1186000Y566000D02*
X1200600Y551400D01*
X1190000Y573000D02*
X1199000Y564000D01*
X1194000Y596000D02*
X1200000Y590000D01*
X1198000Y614000D02*
X1209800Y602200D01*
X1202000Y638000D02*
X1212400Y627600D01*
X1206000Y651000D02*
X1215000Y642000D01*
X1206000Y651000D02*
Y670343D01*
X1202000Y638000D02*
Y668686D01*
X1198000Y614000D02*
Y667030D01*
X1194000Y596000D02*
Y665373D01*
X1190000Y573000D02*
Y663716D01*
X1186000Y566000D02*
Y662059D01*
X470000Y567000D02*
Y575000D01*
Y567000D02*
X479380Y557620D01*
X485000D01*
X467860Y542380D02*
X485000D01*
X480000Y570000D02*
Y575000D01*
Y570000D02*
X483000Y567000D01*
X499380D01*
X485240Y557380D02*
X505000D01*
X505240Y572380D02*
X520000D01*
X499380Y567000D02*
X505000Y572620D01*
X475000Y595000D02*
X490000D01*
X489500Y585500D02*
X490000Y585000D01*
X483757Y585500D02*
X489500D01*
X470000Y599257D02*
X483757Y585500D01*
X490000Y605000D02*
X499000D01*
X577500Y437000D02*
Y450500D01*
X573000Y455000D02*
X577500Y450500D01*
X584000Y437000D02*
Y468000D01*
X578000Y474000D02*
X584000Y468000D01*
X573000Y474000D02*
X578000D01*
X590500Y437000D02*
Y448500D01*
X597000Y455000D01*
X597000Y437000D02*
Y444000D01*
X604000Y451000D01*
Y468000D01*
X597000Y475000D02*
X604000Y468000D01*
X571000Y437000D02*
Y445000D01*
X566000Y450000D02*
X571000Y445000D01*
X566000Y450000D02*
Y469000D01*
X562000Y473000D02*
X566000Y469000D01*
X554000Y473000D02*
X562000D01*
X564500Y437000D02*
Y443500D01*
X554000Y454000D02*
X564500Y443500D01*
X554000Y454000D02*
X554000D01*
X558000Y437000D02*
Y442000D01*
X553000Y447000D02*
X558000Y442000D01*
X547000Y447000D02*
X553000D01*
X543000Y451000D02*
X547000Y447000D01*
X543000Y451000D02*
Y468000D01*
X537000Y474000D02*
X543000Y468000D01*
X531000Y474000D02*
X537000D01*
X686500Y423500D02*
Y440000D01*
X675000Y412000D02*
X686500Y423500D01*
X655000Y412000D02*
X675000D01*
X633400Y390400D02*
X655000Y412000D01*
X693000Y422000D02*
Y440000D01*
X661400Y390400D02*
X693000Y422000D01*
X699500Y421500D02*
Y440000D01*
X684200Y406200D02*
X699500Y421500D01*
X684200Y390400D02*
Y406200D01*
X706000Y424000D02*
Y440000D01*
Y424000D02*
X709600Y420400D01*
Y390400D02*
Y420400D01*
X725500Y434500D02*
Y440000D01*
Y434500D02*
X734000Y426000D01*
X767000D01*
X801000Y392000D01*
Y390400D02*
Y392000D01*
X719000Y433000D02*
Y440000D01*
Y433000D02*
X731000Y421000D01*
X762000D01*
X786000Y397000D01*
Y385000D02*
Y397000D01*
Y385000D02*
X796000Y375000D01*
X811000D01*
X826400Y390400D01*
X712500Y430500D02*
Y440000D01*
Y430500D02*
X727000Y416000D01*
X759000D01*
X781000Y394000D01*
Y382000D02*
Y394000D01*
Y382000D02*
X793000Y370000D01*
X831400D01*
X851800Y390400D01*
X564500Y500000D02*
Y517500D01*
X571000Y500000D02*
Y518343D01*
X577500Y500000D02*
Y519186D01*
X584000Y500000D02*
Y520029D01*
X590500Y500000D02*
Y520873D01*
X597000Y500000D02*
Y521716D01*
X603500Y500000D02*
Y522559D01*
X732000Y503000D02*
Y522000D01*
X762000Y552000D01*
X725500Y503000D02*
Y521157D01*
X758000Y553657D01*
X719000Y503000D02*
Y521000D01*
X754000Y556000D01*
X712500Y503000D02*
Y520157D01*
X750000Y557657D01*
X706000Y503000D02*
Y520000D01*
X746000Y560000D01*
X693000Y503000D02*
Y568059D01*
X699500Y503000D02*
Y567216D01*
X690000Y750620D02*
Y765380D01*
X706000Y750620D02*
Y765380D01*
X722000Y750620D02*
Y765380D01*
X393250Y949450D02*
X448000D01*
X405950Y936750D02*
X448000D01*
X390400Y921200D02*
X405950Y936750D01*
X412950Y873250D02*
X448000D01*
X390400Y895800D02*
X412950Y873250D01*
X426750Y1448250D02*
X448000D01*
X396000Y1479000D02*
X426750Y1448250D01*
X380000Y1479000D02*
X396000D01*
X375000Y1484000D02*
X380000Y1479000D01*
X375000Y1484000D02*
Y1501200D01*
X390400Y1516600D01*
X438550Y1524450D02*
X448000D01*
X435000Y1528000D02*
X438550Y1524450D01*
X435000Y1528000D02*
Y1695000D01*
X418400Y1711600D02*
X435000Y1695000D01*
X390400Y1711600D02*
X418400D01*
X390400Y1686200D02*
X431000Y1645600D01*
Y1515000D02*
Y1645600D01*
Y1515000D02*
X434250Y1511750D01*
X448000D01*
X489650Y1351350D02*
X502000D01*
X484000Y1357000D02*
X489650Y1351350D01*
X484000Y1357000D02*
Y1396000D01*
X463000Y1417000D02*
X484000Y1396000D01*
X439200Y1417000D02*
X463000D01*
X390400Y1465800D02*
X439200Y1417000D01*
X390400Y1440400D02*
X410143D01*
X437543Y1413000D01*
X461343D01*
X475000Y1399343D01*
Y1363000D02*
Y1399343D01*
X459686Y1409000D02*
X468500Y1400186D01*
X412000Y1409000D02*
X459686D01*
X402000Y1399000D02*
X412000Y1409000D01*
X382000Y1399000D02*
X402000D01*
X458030Y1405000D02*
X464500Y1398530D01*
X413657Y1405000D02*
X458030D01*
X403657Y1395000D02*
X413657Y1405000D01*
X380343Y1395000D02*
X403657D01*
X369000Y1412000D02*
X382000Y1399000D01*
X369000Y1412000D02*
Y1639400D01*
X390400Y1660800D01*
X365000Y1410343D02*
X380343Y1395000D01*
X365000Y1410343D02*
Y1610000D01*
X339600Y1635400D02*
X365000Y1610000D01*
X502000Y1376750D02*
X523250D01*
X502000Y1300550D02*
X517550D01*
X531000Y1314000D01*
X523250Y1376750D02*
X531000Y1369000D01*
X746000Y560000D02*
Y874000D01*
X773500Y901500D01*
Y940750D01*
X778500Y900843D02*
Y940750D01*
X750000Y872343D02*
X778500Y900843D01*
X750000Y557657D02*
Y872343D01*
X645000Y831000D02*
X728500Y914500D01*
Y940750D01*
X733500Y913843D02*
Y940750D01*
X649000Y829343D02*
X733500Y913843D01*
X653000Y827686D02*
X738500Y913186D01*
Y940750D01*
X657000Y826030D02*
X745000Y914029D01*
Y920000D01*
X723500Y915157D02*
Y940750D01*
X671000Y791971D02*
Y826000D01*
X678000Y793314D02*
Y834000D01*
X685000Y794657D02*
Y842000D01*
X692000Y796000D02*
Y850000D01*
X638000Y865000D02*
X658000D01*
X621500Y1038500D02*
X635750D01*
X636657Y872000D02*
X651000D01*
X622157Y1033500D02*
X635750D01*
X616500Y1018500D02*
X635750D01*
X634314Y880000D02*
X644000D01*
X632971Y887000D02*
X651000D01*
X618500Y1003500D02*
X635750D01*
X706000Y780620D02*
Y864000D01*
X722000Y780620D02*
Y802000D01*
X714000Y810000D02*
X722000Y802000D01*
X714000Y810000D02*
Y872000D01*
X699000Y789620D02*
Y857000D01*
Y858000D01*
X630627Y895000D02*
X640000D01*
X629284Y902000D02*
X653000D01*
X630000Y910000D02*
X665000D01*
X565000Y1603343D02*
X571000Y1609343D01*
X565000Y1585620D02*
Y1603343D01*
X585000Y1608000D02*
Y1614192D01*
X577000Y1600000D02*
X585000Y1608000D01*
X577000Y1585620D02*
Y1600000D01*
X593500Y1607500D02*
X601000Y1600000D01*
Y1585620D02*
Y1600000D01*
Y1585620D02*
X609000Y1577620D01*
X610500Y1093500D02*
X635750D01*
X611157Y1098500D02*
X635750D01*
X612500Y1103500D02*
X635750D01*
X653500Y1151250D02*
Y1163500D01*
X607000Y1595000D02*
Y1625000D01*
Y1595000D02*
X614000Y1588000D01*
X611000Y1598000D02*
Y1628000D01*
Y1598000D02*
X623000Y1586000D01*
X614000Y1579000D02*
Y1588000D01*
Y1579000D02*
X617000Y1576000D01*
X629000D01*
X658500Y1151250D02*
Y1170500D01*
X708500Y1163500D02*
Y1169500D01*
X620000Y1607657D02*
Y1634000D01*
X635750Y968500D02*
Y969250D01*
X644010D02*
X646510Y971750D01*
X654750D01*
X695000Y1012000D01*
X635750Y969250D02*
X644010D01*
X653500Y940750D02*
Y956500D01*
X705000Y1008000D01*
X658500Y940750D02*
Y954500D01*
X710000Y1006000D01*
X698500Y1151250D02*
Y1172500D01*
X1017000Y907000D02*
X1020000Y910000D01*
X1011000Y914000D02*
X1053981D01*
X1058481Y918500D01*
X1060137Y914500D02*
X1142500D01*
X1150000Y907000D01*
X1020000Y910000D02*
X1055637D01*
X1060137Y914500D01*
X1155500Y918500D02*
X1163000Y911000D01*
X1058481Y918500D02*
X1155500D01*
X1209100Y922500D02*
X1224600Y907000D01*
X1049500Y922500D02*
X1209100D01*
X1047000Y920000D02*
X1049500Y922500D01*
X1040000Y920000D02*
X1047000D01*
X776000Y860686D02*
X794314Y879000D01*
X820657D01*
X829657Y888000D01*
X792657Y883000D02*
X819000D01*
X831000Y895000D01*
X770000Y860343D02*
X792657Y883000D01*
X927000Y884000D02*
X932000Y879000D01*
X831314Y884000D02*
X927000D01*
X822314Y875000D02*
X831314Y884000D01*
X795971Y875000D02*
X822314D01*
X785000Y864029D02*
X795971Y875000D01*
X785000Y827000D02*
Y864029D01*
X781000Y823000D02*
X785000Y827000D01*
X770000Y823000D02*
X781000D01*
X914000Y880000D02*
X922000Y872000D01*
X832971Y880000D02*
X914000D01*
X823970Y871000D02*
X832971Y880000D01*
X797627Y871000D02*
X823970D01*
X789000Y862373D02*
X797627Y871000D01*
X789000Y821000D02*
Y862373D01*
X780000Y812000D02*
X789000Y821000D01*
X771000Y812000D02*
X780000D01*
X630000Y853000D02*
Y866000D01*
X585000Y1023000D02*
X586000Y1022000D01*
X617000Y860000D02*
Y873343D01*
X578000Y1015000D02*
X582000Y1011000D01*
X578000Y1015000D02*
Y1016000D01*
X635750Y1118500D02*
X647500D01*
X651000Y1115000D01*
Y1107000D02*
Y1115000D01*
X570000Y1005000D02*
X577000Y998000D01*
X605000Y865000D02*
Y878000D01*
X588000Y1104343D02*
X608843Y1083500D01*
X592000Y1106000D02*
X609500Y1088500D01*
X596000Y1108000D02*
X610500Y1093500D01*
X600000Y1109657D02*
X611157Y1098500D01*
X604000Y1112000D02*
X612500Y1103500D01*
X588000Y1104343D02*
Y1195000D01*
X592000Y1106000D02*
Y1205000D01*
X609000Y1207000D02*
X614000Y1212000D01*
X609000Y1112657D02*
X613157Y1108500D01*
X609000Y1112657D02*
Y1207000D01*
X531000Y1314000D02*
Y1369000D01*
X613000Y1122000D02*
Y1148000D01*
X616000Y1151000D01*
X626500Y1133500D02*
X635750D01*
X624000Y1136000D02*
X626500Y1133500D01*
X624000Y1136000D02*
Y1142000D01*
X628000Y824000D02*
X630000Y826000D01*
Y836192D01*
X608000Y834000D02*
X623000D01*
X596000Y846000D02*
X608000Y834000D01*
X439192Y846000D02*
X596000D01*
X608500Y840500D02*
X625692D01*
X599000Y850000D02*
X608500Y840500D01*
X485657Y850000D02*
X599000D01*
X625692Y840500D02*
X630000Y836192D01*
X598000Y862000D02*
Y878000D01*
Y862000D02*
X615000Y845000D01*
X1208000Y674000D02*
X1217000Y665000D01*
X1208000Y674000D02*
Y877343D01*
X1190343Y895000D02*
X1208000Y877343D01*
X1212000Y691000D02*
Y879000D01*
Y691000D02*
X1224600Y678400D01*
X1192000Y899000D02*
X1212000Y879000D01*
X1184000Y664059D02*
X1186000Y662059D01*
X1184000Y664059D02*
Y849000D01*
X1167000Y866000D02*
X1184000Y849000D01*
X1188000Y665716D02*
X1190000Y663716D01*
X1188000Y665716D02*
Y850657D01*
X1192000Y667373D02*
X1194000Y665373D01*
X1192000Y667373D02*
Y852314D01*
X1196000Y669029D02*
X1198000Y667030D01*
X1200000Y670686D02*
X1202000Y668686D01*
X1204000Y672343D02*
X1206000Y670343D01*
X1204000Y672343D02*
Y857314D01*
X1200000Y670686D02*
Y855657D01*
X1196000Y669029D02*
Y854000D01*
X1168657Y870000D02*
X1188000Y850657D01*
X1170314Y874000D02*
X1192000Y852314D01*
X1172000Y878000D02*
X1196000Y854000D01*
X1168657Y887000D02*
X1200000Y855657D01*
X1170314Y891000D02*
X1204000Y857314D01*
X1148000Y792000D02*
X1157000Y801000D01*
Y807000D01*
X1163000Y813000D01*
X1174000D01*
X1180000Y807000D01*
Y721000D02*
Y807000D01*
X1174000Y715000D02*
X1180000Y721000D01*
X1118941Y715000D02*
X1174000D01*
X1109941Y706000D02*
X1118941Y715000D01*
X1056745Y706000D02*
X1109941D01*
X1025000Y737745D02*
X1056745Y706000D01*
X1025000Y737745D02*
Y772343D01*
X799343Y1276000D02*
X828000D01*
X875000Y1323000D01*
X797686Y1280000D02*
X826343D01*
X874343Y1328000D01*
X711000Y1187000D02*
X714000Y1190000D01*
Y1204637D01*
X706000Y1200000D02*
Y1206981D01*
X990000Y1438000D02*
X1012500Y1460500D01*
X1012000Y1427000D02*
X1019000D01*
X801000Y1272000D02*
X832000D01*
X877000Y1317000D01*
X802657Y1268000D02*
X833657D01*
X878657Y1313000D01*
X804314Y1264000D02*
X835314D01*
X880314Y1309000D01*
X805971Y1260000D02*
X836971D01*
X881971Y1305000D01*
X821201Y1255201D02*
X837828D01*
X883627Y1301000D01*
X833000Y1245000D02*
X836000D01*
X1007343Y790000D02*
X1025000Y772343D01*
X962000Y849000D02*
X975000Y836000D01*
Y801000D02*
Y836000D01*
Y801000D02*
X986000Y790000D01*
X1007343D01*
X974000Y859000D02*
X1000000Y833000D01*
X805000Y840000D02*
X810000Y835000D01*
X924000D01*
X930500Y828500D01*
X811000Y850000D02*
X819000Y842000D01*
X958000D01*
X968600Y831400D01*
X530000Y1616000D02*
Y1629500D01*
X528250Y1632250D02*
X532500Y1628000D01*
X533620Y1658000D02*
X539000Y1652620D01*
X521000Y1658000D02*
X533620D01*
X516750Y1653750D02*
X521000Y1658000D01*
X516750Y1645750D02*
Y1653750D01*
X798284Y866000D02*
X913000D01*
X794000Y861716D02*
X798284Y866000D01*
X794000Y831000D02*
Y861716D01*
Y831000D02*
X797000Y828000D01*
X698500Y928500D02*
Y940750D01*
X706500Y915000D02*
X708000D01*
X702500Y919000D02*
X706500Y915000D01*
X698500Y928500D02*
X698657D01*
X705407Y921750D01*
X690000Y893000D02*
X695686D01*
X705407Y921750D02*
X713250D01*
X695686Y893000D02*
X716000Y913314D01*
Y919000D01*
X713250Y921750D02*
X716000Y919000D01*
X803000Y859000D02*
X974000D01*
X865000Y849000D02*
X962000D01*
X683500Y922500D02*
Y940750D01*
Y922500D02*
X687000Y919000D01*
X702500D01*
X693500Y927500D02*
Y940750D01*
X480000Y625000D02*
Y637000D01*
X490000Y595000D02*
X504000D01*
X511000Y602000D01*
Y626000D01*
X497000Y640000D02*
X511000Y626000D01*
X490000Y615000D02*
X501380D01*
X1219000Y1330000D02*
X1230000D01*
X1242200Y1342200D01*
X1250000D01*
X1200000Y590000D02*
X1230000D01*
X1242200Y602200D01*
X1250000D01*
X1123000Y1546000D02*
X1127000Y1542000D01*
X1200000D01*
X1121343Y1542000D02*
X1125343Y1538000D01*
X1206000D01*
X1119000D02*
X1123000Y1534000D01*
X1189000D01*
X1117343D02*
X1121343Y1530000D01*
X1184000D01*
X1142000Y1406657D02*
Y1413000D01*
X1151000Y1422000D01*
Y1426000D01*
X1131500Y1414500D02*
X1137843D01*
X1141000Y1417657D01*
X683500Y1151250D02*
Y1161500D01*
X681000Y1164000D02*
X683500Y1161500D01*
X671000Y1164000D02*
X681000D01*
X815000Y927000D02*
X815250Y927250D01*
X818500Y930500D01*
X591000Y1008000D02*
X621500Y1038500D01*
X586000Y917000D02*
X638000Y865000D01*
X595000Y1006343D02*
X622157Y1033500D01*
X590000Y918657D02*
X636657Y872000D01*
X599000Y1001000D02*
X616500Y1018500D01*
X594000Y920314D02*
X634314Y880000D01*
X603000Y988000D02*
X618500Y1003500D01*
X598000Y921971D02*
X632971Y887000D01*
X602000Y923627D02*
X630627Y895000D01*
X578000Y912343D02*
X617000Y873343D01*
X574000Y909000D02*
X605000Y878000D01*
X570000Y906000D02*
X598000Y878000D01*
X610000Y972000D02*
X616500Y978500D01*
X635750D01*
X598000Y976971D02*
X603000Y981971D01*
Y988000D01*
X594000Y978627D02*
X599000Y983627D01*
X590000Y980284D02*
X595000Y985284D01*
X586000Y981941D02*
X591000Y986941D01*
Y1008000D01*
X582000Y983598D02*
X586000Y987598D01*
Y1022000D01*
X578000Y985255D02*
X582000Y989255D01*
Y1011000D01*
X574000Y986912D02*
X577000Y989911D01*
Y998000D01*
X565000Y991000D02*
X570000Y986000D01*
X599000Y983627D02*
Y1001000D01*
X595000Y985284D02*
Y1006343D01*
X602000Y975314D02*
X615186Y988500D01*
X606000Y973657D02*
X615843Y983500D01*
X635750D01*
X602000Y923627D02*
Y975314D01*
X615186Y988500D02*
X635750D01*
X598000Y921971D02*
Y976971D01*
X594000Y920314D02*
Y978627D01*
X590000Y918657D02*
Y980284D01*
X586000Y917000D02*
Y981941D01*
X578000Y912343D02*
Y985255D01*
X570000Y906000D02*
Y986000D01*
X610000Y930000D02*
X630000Y910000D01*
X610000Y930000D02*
Y972000D01*
X606000Y925284D02*
Y973657D01*
Y925284D02*
X629284Y902000D01*
X582000Y914000D02*
Y983598D01*
Y914000D02*
X630000Y866000D01*
X574000Y909000D02*
Y986912D01*
X619500Y973500D02*
X635750D01*
X614000Y968000D02*
X619500Y973500D01*
X614000Y935000D02*
Y968000D01*
Y935000D02*
X629000Y920000D01*
X667000D01*
X673000Y914000D01*
Y870314D02*
Y914000D01*
X661186Y858500D02*
X673000Y870314D01*
X655308Y858500D02*
X661186D01*
X654808Y859000D02*
X655308Y858500D01*
X642000Y859000D02*
X654808D01*
X637000Y854000D02*
X642000Y859000D01*
X633000Y784000D02*
X634500Y785500D01*
X540000Y490000D02*
Y504000D01*
X734000Y491000D02*
X738500Y495500D01*
Y503000D01*
X540000Y490000D02*
X548000Y482000D01*
X661000D01*
X670000Y491000D01*
X734000D01*
X678000Y583059D02*
X693000Y568059D01*
X678000Y583059D02*
Y787657D01*
X685000Y794657D01*
X682000Y584716D02*
Y786000D01*
X692000Y796000D01*
X682000Y584716D02*
X699500Y567216D01*
X634500Y785500D02*
Y837500D01*
X627000Y845000D02*
X634500Y837500D01*
X615000Y845000D02*
X627000D01*
X637000Y842000D02*
X641000Y838000D01*
X637000Y842000D02*
Y854000D01*
X603500Y522559D02*
X674000Y593059D01*
Y789314D01*
X678000Y793314D01*
X597000Y521716D02*
X670000Y594716D01*
Y790971D01*
X671000Y791971D01*
X666000Y596373D02*
Y816000D01*
X664000Y818000D02*
X666000Y816000D01*
X590500Y520873D02*
X666000Y596373D01*
X584000Y520029D02*
X662000Y598030D01*
Y718000D01*
X657000Y723000D02*
X662000Y718000D01*
X657000Y723000D02*
Y826030D01*
X577500Y519186D02*
X658000Y599686D01*
Y716343D01*
X653000Y721343D02*
X658000Y716343D01*
X653000Y721343D02*
Y827686D01*
X571000Y518343D02*
X654000Y601343D01*
Y714686D01*
X649000Y719686D02*
X654000Y714686D01*
X649000Y719686D02*
Y829343D01*
X564500Y517500D02*
X650000Y603000D01*
Y713000D01*
X645000Y718000D02*
X650000Y713000D01*
X645000Y718000D02*
Y831000D01*
X641000Y716000D02*
Y838000D01*
Y716000D02*
X646000Y711000D01*
Y610000D02*
Y711000D01*
X540000Y504000D02*
X646000Y610000D01*
X1180000Y807000D02*
Y839000D01*
X1177000Y842000D02*
X1180000Y839000D01*
X1073500Y817500D02*
X1090000D01*
X1061000Y823000D02*
X1062500Y821500D01*
X1153380Y782000D02*
X1157380Y786000D01*
X1141000Y1417657D02*
Y1424000D01*
X1080620Y886380D02*
X1084000Y883000D01*
Y874500D02*
Y883000D01*
X1080620Y886380D02*
Y894000D01*
Y907000D01*
X635750Y1048500D02*
X648500D01*
X654000Y1043000D01*
X770000Y1052000D02*
X812000D01*
X888000Y1115000D02*
Y1125373D01*
X1088000Y755000D02*
Y789500D01*
X1165000Y801000D02*
X1167000D01*
X1165000Y780877D02*
Y801000D01*
X1151500Y759500D02*
Y759692D01*
Y759500D02*
X1165000Y746000D01*
X553000Y1585620D02*
X556380Y1589000D01*
Y1605380D01*
X539000Y1585620D02*
X553000D01*
X917000Y899000D02*
X921000Y903000D01*
X941582D01*
X1029000Y815582D01*
X820000Y897000D02*
X826000D01*
X828000Y899000D01*
X917000D01*
X806000Y890000D02*
Y893000D01*
X817000Y904000D01*
X877000D01*
X783500Y927500D02*
Y940750D01*
Y927500D02*
X803000Y908000D01*
X870000D01*
X877000Y904000D02*
X883000Y910000D01*
X883500D01*
X1017494Y878000D02*
X1029000D01*
X1039000Y868000D01*
X905000Y990494D02*
X1017494Y878000D01*
X1043000Y858151D02*
X1059651Y841500D01*
X1043000Y858151D02*
Y869657D01*
X1030657Y882000D02*
X1043000Y869657D01*
X1019151Y882000D02*
X1030657D01*
X982000Y919151D02*
X1019151Y882000D01*
X870000Y908000D02*
X881000Y919000D01*
X920000D01*
X929000Y910000D01*
X982000Y919151D02*
Y924000D01*
X803500Y1151250D02*
Y1168500D01*
X818500Y1151250D02*
Y1163500D01*
X813500Y1151250D02*
Y1164157D01*
X808500Y1151250D02*
Y1164814D01*
X818500Y1163500D02*
X833000Y1178000D01*
X846686D01*
X915686Y1109000D01*
X831343Y1182000D02*
X848343D01*
X829686Y1186000D02*
X850000D01*
X813500Y1164157D02*
X831343Y1182000D01*
X848343D02*
X917343Y1113000D01*
X808500Y1164814D02*
X829686Y1186000D01*
X850000D02*
X919000Y1117000D01*
X827760Y1138000D02*
X832760Y1143000D01*
X876030D01*
X907000Y1112029D01*
X834417Y1139000D02*
X874373D01*
X888000Y1125373D01*
X825417Y1130000D02*
X834417Y1139000D01*
X828500Y1151250D02*
Y1158500D01*
X831000Y1161000D01*
X844000D01*
X854000Y1151000D01*
X823500Y1151250D02*
Y1160500D01*
X832000Y1169000D01*
X840000D01*
X859000Y1237000D02*
X871000Y1249000D01*
Y1267000D01*
X857000Y1249000D02*
Y1260343D01*
X555000Y1623000D02*
Y1625000D01*
X751000Y1763700D02*
X764000Y1776700D01*
X751000Y1588000D02*
Y1763700D01*
X900500Y1345500D02*
X914000D01*
X874343Y1328000D02*
X907000D01*
X875000Y1323000D02*
X910000D01*
X877000Y1317000D02*
X911000D01*
X878657Y1313000D02*
X915000D01*
X880314Y1309000D02*
X917000D01*
X881971Y1305000D02*
X920000D01*
X1008000Y1472000D02*
X1041000D01*
X1047500Y1465500D01*
X909000Y1362000D02*
X940000Y1393000D01*
X911000Y1352000D02*
X944000Y1385000D01*
X914000Y1345500D02*
X948000Y1379500D01*
X907000Y1328000D02*
X952000Y1373000D01*
X910000Y1323000D02*
X956000Y1369000D01*
X911000Y1317000D02*
X960000Y1366000D01*
X915000Y1313000D02*
X964000Y1362000D01*
X917000Y1309000D02*
X968000Y1360000D01*
X920000Y1305000D02*
X972000Y1357000D01*
X980000Y1444000D02*
X1008000Y1472000D01*
X994000Y1409000D02*
X1012000Y1427000D01*
X966000Y1066000D02*
X974337D01*
X957000Y1059000D02*
X972994D01*
X917343Y1105000D02*
X961000D01*
X978000Y1122000D01*
Y1126000D01*
X919000Y1101000D02*
X962657D01*
X944686Y1052000D02*
X971651D01*
X946343Y1048000D02*
X973308D01*
X1113000Y1187692D02*
Y1376000D01*
X1117000Y1185000D02*
Y1376000D01*
X948000Y1044000D02*
X976000D01*
X836000Y1245000D02*
X887000Y1296000D01*
X857000Y1260343D02*
X887657Y1291000D01*
X883627Y1301000D02*
X929000D01*
X976000Y1348000D01*
X994000Y1338000D02*
Y1409000D01*
X990000Y1339657D02*
Y1438000D01*
X887657Y1291000D02*
X935686D01*
X985000Y1340314D01*
Y1438657D01*
X887000Y1296000D02*
X935030D01*
X980000Y1340970D01*
Y1444000D01*
X871000Y1267000D02*
X891000Y1287000D01*
X937343D01*
X990000Y1339657D01*
X880000Y1266000D02*
X897000Y1283000D01*
X939000D01*
X994000Y1338000D01*
X1054000Y1175000D02*
Y1382000D01*
X643000Y1228000D02*
X698500Y1172500D01*
X647000Y1231000D02*
X708500Y1169500D01*
X651000Y1242000D02*
X687000Y1206000D01*
X615000Y1607000D02*
X647000Y1575000D01*
X660000Y1258637D02*
X714000Y1204637D01*
X404000Y1171686D02*
X454000Y1121686D01*
Y968000D02*
Y1121686D01*
X465000Y968314D02*
X477314Y956000D01*
X458657Y969000D02*
Y1122686D01*
X465000Y968314D02*
Y1122000D01*
X412000Y1175000D02*
X465000Y1122000D01*
X449000Y967343D02*
Y1121030D01*
X400000Y1170030D02*
X449000Y1121030D01*
Y967343D02*
X477172Y939172D01*
X470000Y1002000D02*
X515500Y956500D01*
X470000Y1002000D02*
Y1057000D01*
X474000Y1003849D02*
Y1055343D01*
X479550Y1300550D02*
X502000D01*
X459000Y1280000D02*
X479550Y1300550D01*
X434000Y1280000D02*
X459000D01*
X418000Y1264000D02*
X434000Y1280000D01*
X418000Y1177000D02*
Y1264000D01*
Y1177000D02*
X461000Y1134000D01*
X532000D01*
X580000Y1061000D02*
X597500Y1043500D01*
X580000Y1061000D02*
Y1189000D01*
X533000Y1236000D02*
X580000Y1189000D01*
X533000Y1236000D02*
Y1260000D01*
X517000Y1276000D02*
X533000Y1260000D01*
X473000Y1276000D02*
X517000D01*
X548000Y1151000D02*
X561000Y1164000D01*
X548000Y1135000D02*
Y1151000D01*
X470000Y1057000D02*
X548000Y1135000D01*
X558000Y1139343D02*
Y1147000D01*
X474000Y1055343D02*
X558000Y1139343D01*
X575000Y1054000D02*
Y1188000D01*
X542000Y1221000D02*
X575000Y1188000D01*
X490000Y1221000D02*
X542000D01*
X588000Y1093000D02*
X602500Y1078500D01*
X555000Y857000D02*
Y1001000D01*
X596000Y1108000D02*
Y1252000D01*
X940000Y1393000D02*
Y1481000D01*
X1032000Y1573000D01*
X944000Y1479343D02*
X1033657Y1569000D01*
X948000Y1477686D02*
X1035314Y1565000D01*
X1190000D01*
X952000Y1476030D02*
X1033471Y1557500D01*
X1138500D01*
X956000Y1474373D02*
X1032627Y1551000D01*
X1129000D01*
X960000Y1472716D02*
X1033284Y1546000D01*
X1123000D01*
X964000Y1471059D02*
X1034941Y1542000D01*
X1121343D01*
X968000Y1469402D02*
X1036598Y1538000D01*
X1119000D01*
X972000Y1467745D02*
X1038255Y1534000D01*
X1117343D01*
X976000Y1466089D02*
X1030911Y1521000D01*
X1050380D01*
X944000Y1385000D02*
Y1479343D01*
X948000Y1379500D02*
Y1477686D01*
X952000Y1373000D02*
Y1476030D01*
X956000Y1369000D02*
Y1474373D01*
X960000Y1366000D02*
Y1472716D01*
X964000Y1362000D02*
Y1471059D01*
X968000Y1360000D02*
Y1469402D01*
X972000Y1357000D02*
Y1467745D01*
X976000Y1348000D02*
Y1466089D01*
X928000Y1427314D02*
Y1494000D01*
X932000Y1425657D02*
Y1492343D01*
X936000Y1424000D02*
Y1490686D01*
X1179000Y1601400D02*
X1224600Y1647000D01*
X1175000Y1619000D02*
X1217000Y1661000D01*
X1236000D01*
X1250000Y1647000D01*
X1033657Y1569000D02*
X1164000D01*
X1179000Y1584000D01*
Y1601400D01*
X1032000Y1573000D02*
X1162343D01*
X1175000Y1585657D01*
Y1619000D01*
X911000Y1641000D02*
X959000D01*
X984000Y1666000D01*
Y1682000D01*
X998000Y1696000D01*
X887000Y1617000D02*
X911000Y1641000D01*
X998000Y1696000D02*
X1008000D01*
X1000000Y1707000D02*
X1008000D01*
X938000Y1645000D02*
X1000000Y1707000D01*
X908000Y1645000D02*
X938000D01*
X881000Y1618000D02*
X908000Y1645000D01*
X685000Y1241000D02*
Y1248380D01*
Y1263620D02*
Y1269000D01*
X699000Y1283000D01*
X695000Y1236657D02*
X712343Y1219314D01*
X695000Y1236657D02*
Y1242000D01*
X702000Y1235314D02*
X714000Y1223314D01*
X702000Y1235314D02*
Y1247000D01*
X697000Y1252000D02*
X702000Y1247000D01*
X740686Y1229000D02*
X741000D01*
X739000Y1227314D02*
X740686Y1229000D01*
X715657Y1227314D02*
X739000D01*
X706000Y1236971D02*
X715657Y1227314D01*
X706000Y1236971D02*
Y1253000D01*
X744192Y1264000D02*
X745000Y1263192D01*
X742000Y1264000D02*
X744192D01*
X757000Y1199716D02*
X787284Y1230000D01*
X846000D01*
X753000Y1201373D02*
X788627Y1237000D01*
X697000Y1262000D02*
X706000Y1253000D01*
X708000Y1264000D02*
X732808D01*
X739308Y1257500D01*
X752530D01*
X730500Y1253500D02*
X754186D01*
X720000Y1243000D02*
X730500Y1253500D01*
X788627Y1237000D02*
X859000D01*
X745000Y1263192D02*
X750308Y1268500D01*
X757873D01*
X768000Y1278627D01*
X752530Y1257500D02*
X887000Y1391971D01*
X754186Y1253500D02*
X928000Y1427314D01*
X742343Y1236000D02*
X932000Y1425657D01*
X741000Y1229000D02*
X936000Y1424000D01*
X741000Y1223314D02*
X797686Y1280000D01*
X742657Y1219314D02*
X799343Y1276000D01*
X728500Y1199500D02*
X801000Y1272000D01*
X733500Y1198843D02*
X802657Y1268000D01*
X738500Y1198186D02*
X804314Y1264000D01*
X743500Y1197530D02*
X805971Y1260000D01*
X810998Y1244998D02*
X821201Y1255201D01*
X800999Y1244998D02*
X810998D01*
X781000Y1313000D02*
X797000D01*
X779100Y1590100D02*
Y1660000D01*
X764000Y1675100D02*
X779100Y1660000D01*
X768000Y1326000D02*
X781000Y1313000D01*
X768000Y1326000D02*
Y1579000D01*
X779100Y1590100D01*
X768000Y1278627D02*
Y1320343D01*
X764000Y1324343D02*
X768000Y1320343D01*
X764000Y1324343D02*
Y1575000D01*
X751000Y1588000D02*
X764000Y1575000D01*
X793000Y1366314D02*
Y1565000D01*
X789000Y1364657D02*
Y1566657D01*
X785000Y1363000D02*
Y1568314D01*
X781000Y1362000D02*
Y1569971D01*
X847250Y1636221D01*
Y1694000D01*
X785000Y1568314D02*
X858950Y1642264D01*
Y1693000D01*
X859950Y1694000D01*
X789000Y1566657D02*
X871650Y1649307D01*
Y1693000D01*
X872650Y1694000D01*
X793000Y1565000D02*
X884350Y1656350D01*
Y1693000D01*
X885350Y1694000D01*
X723500Y1151250D02*
Y1206500D01*
X727000Y1210000D01*
X777000Y1346000D02*
Y1358000D01*
X781000Y1362000D01*
X750500Y1174000D02*
X753000D01*
X758500Y1168500D01*
Y1151250D02*
Y1168500D01*
X750000Y1174000D02*
X750500D01*
X785000Y1363000D02*
X786000Y1362000D01*
Y1343000D02*
Y1362000D01*
X764000Y1181971D02*
Y1188000D01*
Y1181971D02*
X778500Y1167470D01*
Y1151250D02*
Y1167470D01*
X789000Y1334000D02*
X793000Y1338000D01*
X789000Y1364657D02*
X793000Y1360657D01*
Y1338000D02*
Y1360657D01*
X774000Y1177627D02*
X783500Y1168127D01*
X774000Y1177627D02*
Y1185000D01*
X783500Y1151250D02*
Y1168127D01*
X796000Y1327000D02*
X797000Y1328000D01*
Y1362314D01*
X793000Y1366314D02*
X797000Y1362314D01*
X846250Y1123500D02*
X867500D01*
X873000Y1129000D01*
X893000Y1411000D02*
X895000Y1409000D01*
X893000Y1411000D02*
Y1559000D01*
X900000Y1566000D01*
X1014600Y1845600D02*
X1039000D01*
X993000Y1824000D02*
X1014600Y1845600D01*
X1009314Y1564000D02*
X1017343D01*
X1086343Y1633000D01*
X936000Y1490686D02*
X1009314Y1564000D01*
X1086343Y1633000D02*
X1130000D01*
X932000Y1492343D02*
X1007657Y1568000D01*
X1015686D01*
X1112000Y1664314D01*
Y1676000D01*
X1121000Y1685000D01*
X1130000D01*
X928000Y1494000D02*
X1006314Y1572314D01*
X1014343D01*
X1101000Y1658970D01*
Y1677500D01*
X1119500Y1696000D01*
X1130000D01*
X693003Y608000D02*
Y611332D01*
Y609666D01*
X703000D01*
Y608000D01*
Y611332D01*
X693003Y616331D02*
X703000D01*
X699668D01*
X693003Y622995D01*
X698002Y617997D01*
X703000Y622995D01*
X704666Y626327D02*
Y632992D01*
X703000Y637990D02*
X694669D01*
X698002D01*
Y636324D01*
Y639656D01*
Y637990D01*
X694669D01*
X693003Y639656D01*
X703000Y649653D02*
Y646321D01*
X701334Y644655D01*
X698002D01*
X696336Y646321D01*
Y649653D01*
X698002Y651319D01*
X699668D01*
Y644655D01*
X696336Y661316D02*
Y656318D01*
X698002Y654652D01*
X701334D01*
X703000Y656318D01*
Y661316D01*
Y664648D02*
Y667981D01*
Y666314D01*
X696336D01*
Y664648D01*
X694669Y674645D02*
X696336D01*
Y672979D01*
Y676311D01*
Y674645D01*
X701334D01*
X703000Y676311D01*
D66*
X593500Y1666500D02*
X594000Y1667000D01*
X593500Y1659500D02*
Y1666500D01*
X1040000Y1059000D02*
Y1061000D01*
X349620Y775000D02*
X359000D01*
X564620Y604000D02*
X578380D01*
X564620Y581000D02*
X579380D01*
X1065620Y1508000D02*
Y1521000D01*
X1076000Y1495000D02*
Y1503000D01*
X1065620Y1508000D02*
X1071000D01*
X1076000Y1503000D01*
X960400Y425000D02*
X995000Y390400D01*
X926000Y425000D02*
X960400D01*
X902000Y449000D02*
X926000Y425000D01*
X902000Y449000D02*
Y470000D01*
X1090000Y472000D02*
Y540000D01*
X1022000Y470000D02*
Y511000D01*
X1035000Y524000D01*
Y540000D01*
X1090000Y590000D02*
Y628000D01*
X1035000Y590000D02*
Y623000D01*
X975000Y590000D02*
Y622000D01*
X915000Y590000D02*
Y633000D01*
X963000Y628000D02*
X969000D01*
X943200Y647800D02*
X963000Y628000D01*
X1076000Y642000D02*
X1090000Y628000D01*
X1023000Y642000D02*
X1076000D01*
X1002000Y663000D02*
X1023000Y642000D01*
X1002000Y663000D02*
Y681000D01*
X981300Y701700D02*
X1002000Y681000D01*
X981300Y701700D02*
Y716000D01*
X968600Y703400D02*
X994000Y678000D01*
Y646000D02*
Y678000D01*
Y646000D02*
X1012000Y628000D01*
X1030000D01*
X968600Y703400D02*
Y716000D01*
X943200Y647800D02*
Y716000D01*
X915000Y633000D02*
Y645000D01*
X931000Y661000D01*
Y688000D01*
X917800Y701200D02*
X931000Y688000D01*
X917800Y701200D02*
Y716000D01*
X849000Y634000D02*
X866000D01*
X833000Y662000D02*
X860000D01*
X816620Y678380D02*
X833000Y662000D01*
X816620Y678380D02*
Y707000D01*
X860000Y662000D02*
X872000Y650000D01*
Y640000D02*
Y650000D01*
Y612000D02*
Y640000D01*
X850000Y590000D02*
X872000Y612000D01*
X790000Y633000D02*
X807000Y650000D01*
Y689000D01*
X801380Y694620D02*
X807000Y689000D01*
X801380Y694620D02*
Y707000D01*
X815350Y708270D02*
Y729000D01*
X802650Y708270D02*
Y729000D01*
X790000Y590000D02*
Y633000D01*
X1088000Y424400D02*
Y470000D01*
Y424400D02*
X1122000Y390400D01*
X1022000Y439600D02*
Y470000D01*
Y439600D02*
X1071200Y390400D01*
X1016200Y420000D02*
X1045800Y390400D01*
X996000Y420000D02*
X1016200D01*
X968000Y448000D02*
X996000Y420000D01*
X968000Y448000D02*
Y470000D01*
Y533000D01*
X902000Y527000D02*
X915000Y540000D01*
X902000Y470000D02*
Y527000D01*
X853000Y470000D02*
Y537000D01*
X787000Y470000D02*
Y537000D01*
X897400Y421000D02*
X928000Y390400D01*
X861000Y421000D02*
X897400D01*
X853000Y429000D02*
X861000Y421000D01*
X853000Y429000D02*
Y470000D01*
X878000Y415000D02*
X902600Y390400D01*
X828000Y415000D02*
X878000D01*
X820000Y423000D02*
X828000Y415000D01*
X820000Y423000D02*
Y470000D01*
X860600Y407000D02*
X877200Y390400D01*
X809000Y407000D02*
X860600D01*
X787000Y429000D02*
X809000Y407000D01*
X787000Y429000D02*
Y470000D01*
X433450Y1300550D02*
X448000D01*
X502000Y1389450D02*
X517550D01*
X432550D02*
X448000D01*
X538500Y723500D02*
X548000D01*
X577500Y736750D02*
Y747000D01*
Y707000D02*
Y717250D01*
X548000Y730000D02*
X564750D01*
X417500Y700900D02*
X435100D01*
X441000Y695000D01*
X467620D01*
X476620Y686000D01*
X489380D01*
X396000Y744000D02*
Y755000D01*
Y744000D02*
X401000Y739000D01*
X417500D01*
X382000Y743000D02*
Y755000D01*
X378000Y739000D02*
X382000Y743000D01*
X360000Y739000D02*
X378000D01*
X362000Y685000D02*
X369000D01*
X374000Y690000D01*
Y699000D01*
X372100Y700900D02*
X374000Y699000D01*
X360000Y700900D02*
X372100D01*
X336220Y713600D02*
X360000D01*
X335000Y700620D02*
Y712380D01*
X490000Y585000D02*
X517380D01*
X544000Y437000D02*
X551500D01*
X603500Y425500D02*
Y437000D01*
X432350Y1351350D02*
X448000D01*
X433250Y1313250D02*
X448000D01*
X610000Y429000D02*
Y437000D01*
Y429000D02*
X614000Y425000D01*
X551500Y491500D02*
Y500000D01*
X550000Y490000D02*
X551500Y491500D01*
X510500Y1652000D02*
X516750Y1645750D01*
X503000Y1652000D02*
X510500D01*
X503000Y1637000D02*
X512000Y1628000D01*
X503000Y1637000D02*
Y1638000D01*
X516000Y1616000D02*
Y1624000D01*
X512000Y1628000D02*
X516000Y1624000D01*
X690000Y735380D02*
X706000D01*
X722000D01*
X520000Y587620D02*
Y615620D01*
X571000Y696000D02*
Y707000D01*
Y696000D02*
X589000Y678000D01*
X624000Y657620D02*
Y670380D01*
X587500Y717000D02*
X596000D01*
X615000Y698000D01*
Y679380D02*
Y698000D01*
Y679380D02*
X624000Y670380D01*
X549380Y581000D02*
Y584380D01*
X557000Y592000D01*
X604000D01*
X614000Y602000D01*
X589000Y644000D02*
X598000D01*
X599620Y642380D01*
X686500Y503000D02*
Y511500D01*
X680000Y503000D02*
Y506000D01*
X673000Y513000D02*
X680000Y506000D01*
X1142000Y1424000D02*
Y1431000D01*
X1150000Y1439000D01*
X1175000D01*
X1179000Y1435000D01*
Y1421380D02*
Y1435000D01*
X1165620Y1408000D02*
X1179000Y1421380D01*
X1165620Y1390000D02*
Y1408000D01*
X590620Y642380D02*
X599620D01*
X614000Y628000D01*
Y602000D02*
Y628000D01*
X1165620Y1390000D02*
X1180000Y1375620D01*
Y1201000D02*
Y1375620D01*
X1040000Y1061000D02*
X1180000Y1201000D01*
D67*
X1106300Y1760300D02*
X1132000Y1786000D01*
X1071000Y1760300D02*
X1106300D01*
X1224500Y1265500D02*
X1259500D01*
X1191000Y1232000D02*
X1224500Y1265500D01*
X1261300Y1329700D02*
X1271500Y1319500D01*
Y1277500D02*
Y1319500D01*
X1259500Y1265500D02*
X1271500Y1277500D01*
X1016000Y1042000D02*
X1176000D01*
X1008000Y1050000D02*
X1016000Y1042000D01*
X1000000D02*
X1008000Y1050000D01*
X1235000Y960000D02*
X1275000Y920000D01*
X1176000Y978000D02*
X1194000Y960000D01*
X1235000D01*
X1268000Y590000D02*
X1275000Y597000D01*
Y920000D01*
X599620Y642380D02*
X624000D01*
X634620D01*
X994300Y1760300D02*
X1040000D01*
X953000Y1683000D02*
Y1719000D01*
X926000Y1656000D02*
X953000Y1683000D01*
X903000Y1656000D02*
X926000D01*
X843000Y1596000D02*
X903000Y1656000D01*
X843000Y1558000D02*
Y1596000D01*
X1176000Y978000D02*
Y1042000D01*
X1191000Y1057000D01*
Y1232000D01*
X1002900Y1785700D02*
X1040000D01*
X975000Y1813600D02*
X1002900Y1785700D01*
X953000Y1719000D02*
X994300Y1760300D01*
D68*
X1073620Y1814000D02*
X1086380D01*
X1080000Y1815000D02*
Y1829000D01*
X1083900Y1832900D01*
X1096500D01*
X1127500Y1826500D02*
X1145000D01*
X1115000Y1814000D02*
X1127500Y1826500D01*
X1101620Y1814000D02*
X1115000D01*
X1075000Y1880000D02*
Y1888000D01*
Y1880000D02*
X1084000Y1871000D01*
X1096500D01*
X1061000Y1880000D02*
Y1888000D01*
X1052000Y1871000D02*
X1061000Y1880000D01*
X1039000Y1871000D02*
X1052000D01*
X1224600Y1316800D02*
X1237500Y1329700D01*
X1261300D01*
X948380Y1630620D02*
X961000D01*
X946000Y1633000D02*
X948380Y1630620D01*
X987000Y1622000D02*
X1008000D01*
X978380Y1630620D02*
X987000Y1622000D01*
X961000Y1630620D02*
X978380D01*
X1204620Y1850000D02*
X1250000D01*
X1204620Y350000D02*
X1250000D01*
X350000Y350000D02*
X395620D01*
X350000Y1850000D02*
X390380D01*
X930000Y1170000D02*
X949000D01*
X932000Y1150000D02*
Y1168000D01*
X949000Y1170000D02*
X958000Y1161000D01*
X616000Y749620D02*
Y761380D01*
Y776620D02*
Y799000D01*
X603000Y812000D02*
X616000Y799000D01*
X585364Y812000D02*
X603000D01*
X577000Y778000D02*
X583000D01*
X571000Y772000D02*
X577000Y778000D01*
X571000Y747000D02*
Y772000D01*
X1130000Y1718000D02*
X1164000D01*
X1267700Y589700D02*
X1268000Y590000D01*
X1237500Y589700D02*
X1267700D01*
X1224600Y576800D02*
X1237500Y589700D01*
X1172620Y770000D02*
Y786000D01*
X1138000Y1352000D02*
Y1362000D01*
X1124000Y1351000D02*
Y1362000D01*
X408000Y1334000D02*
X418000Y1324000D01*
Y1308000D02*
Y1324000D01*
Y1308000D02*
X425450Y1300550D01*
X433450D01*
X532000Y568000D02*
X555000Y545000D01*
X532000Y568000D02*
Y622000D01*
X520000Y634000D02*
X532000Y622000D01*
X520000Y634000D02*
Y682000D01*
X535000Y604000D02*
X549380D01*
X1172620Y770000D02*
X1174000Y768620D01*
Y754000D02*
Y768620D01*
X868500Y1201000D02*
X907500Y1240000D01*
X836000Y1201000D02*
X868500D01*
X803500Y1168500D02*
X836000Y1201000D01*
X335000Y685380D02*
X347620D01*
D69*
X914700Y1600000D02*
X960380D01*
X975620D02*
X1008000D01*
D70*
X994000Y716000D02*
Y730000D01*
X984000Y740000D02*
X994000Y730000D01*
X914000Y740000D02*
X984000D01*
X905100Y731100D02*
X914000Y740000D01*
X905100Y716000D02*
Y731100D01*
D71*
X365000Y552000D02*
X385000Y532000D01*
X365000Y552000D02*
Y590000D01*
X385000Y510000D02*
Y532000D01*
D72*
X617000Y1667500D02*
D03*
D73*
X1139000Y1805500D02*
D03*
D74*
X1127000Y1876500D02*
D03*
D75*
X439500Y741000D02*
D03*
D76*
X344000Y727000D02*
D03*
D77*
X462000Y549500D02*
D03*
D78*
X340000Y480000D02*
D03*
D79*
X462500Y633500D02*
D03*
D80*
X843000Y1468500D02*
D03*
D81*
X365500Y599000D02*
D03*
D82*
X1020500Y1858000D02*
D03*
D83*
X482550Y1784400D02*
D03*
X637450D02*
D03*
D84*
X604500Y1751400D02*
D03*
X579100D02*
D03*
X553700D02*
D03*
X528300D02*
D03*
X591750Y1726000D02*
D03*
X566400D02*
D03*
X541000D02*
D03*
X515600D02*
D03*
X738600Y1751300D02*
D03*
Y1802100D02*
D03*
Y1776700D02*
D03*
Y1827500D02*
D03*
Y1725900D02*
D03*
Y1700500D02*
D03*
Y1675100D02*
D03*
Y1649700D02*
D03*
Y1624300D02*
D03*
Y1598900D02*
D03*
X764000D02*
D03*
Y1624300D02*
D03*
Y1649700D02*
D03*
Y1675100D02*
D03*
Y1700500D02*
D03*
Y1725900D02*
D03*
Y1751300D02*
D03*
Y1776700D02*
D03*
Y1802100D02*
D03*
Y1827500D02*
D03*
X1224600Y1647000D02*
D03*
Y1621600D02*
D03*
Y1596200D02*
D03*
Y1570800D02*
D03*
Y1545400D02*
D03*
X1250000D02*
D03*
Y1570800D02*
D03*
Y1596200D02*
D03*
Y1621600D02*
D03*
Y1647000D02*
D03*
Y1520000D02*
D03*
Y1494600D02*
D03*
Y1469200D02*
D03*
Y1443800D02*
D03*
Y1418400D02*
D03*
Y1393000D02*
D03*
Y1367600D02*
D03*
Y1342200D02*
D03*
Y1316800D02*
D03*
X1224600Y1291400D02*
D03*
Y1316800D02*
D03*
Y1342200D02*
D03*
Y1367600D02*
D03*
Y1393000D02*
D03*
Y1418400D02*
D03*
Y1520000D02*
D03*
Y1469200D02*
D03*
Y1494600D02*
D03*
Y1443800D02*
D03*
Y907000D02*
D03*
Y881600D02*
D03*
Y856200D02*
D03*
Y830800D02*
D03*
Y805400D02*
D03*
X1250000D02*
D03*
Y830800D02*
D03*
Y856200D02*
D03*
Y881600D02*
D03*
Y907000D02*
D03*
Y780000D02*
D03*
Y754600D02*
D03*
Y729200D02*
D03*
Y703800D02*
D03*
Y678400D02*
D03*
Y653000D02*
D03*
Y627600D02*
D03*
Y602200D02*
D03*
Y576800D02*
D03*
X1224600Y551400D02*
D03*
Y576800D02*
D03*
Y602200D02*
D03*
Y627600D02*
D03*
Y653000D02*
D03*
Y678400D02*
D03*
Y780000D02*
D03*
Y729200D02*
D03*
Y754600D02*
D03*
Y703800D02*
D03*
D85*
X617150Y1814900D02*
D03*
X502850D02*
D03*
D86*
X493750Y1863900D02*
D03*
X626250D02*
D03*
X519150D02*
D03*
X600850D02*
D03*
D87*
X907500Y1440000D02*
D03*
Y1240000D02*
D03*
D88*
X684200Y339600D02*
D03*
X658800D02*
D03*
X633400D02*
D03*
X608000D02*
D03*
X582600D02*
D03*
X557200D02*
D03*
X531800D02*
D03*
X506400D02*
D03*
X481000D02*
D03*
X455600D02*
D03*
Y390400D02*
D03*
X481000D02*
D03*
X506400D02*
D03*
X531800D02*
D03*
X557200D02*
D03*
X582600D02*
D03*
X608000D02*
D03*
X633400D02*
D03*
X658800D02*
D03*
X684200D02*
D03*
X709600Y339600D02*
D03*
X735000D02*
D03*
X709600Y390400D02*
D03*
X735000D02*
D03*
X928000D02*
D03*
X902600D02*
D03*
X928000Y339600D02*
D03*
X902600D02*
D03*
X877200Y390400D02*
D03*
X851800D02*
D03*
X826400D02*
D03*
X801000D02*
D03*
Y339600D02*
D03*
X826400D02*
D03*
X851800D02*
D03*
X877200D02*
D03*
X1122000Y390400D02*
D03*
X1096600D02*
D03*
X1122000Y339600D02*
D03*
X1096600D02*
D03*
X1071200Y390400D02*
D03*
X1045800D02*
D03*
X1020400D02*
D03*
X995000D02*
D03*
Y339600D02*
D03*
X1020400D02*
D03*
X1045800D02*
D03*
X1071200D02*
D03*
X848000Y1813600D02*
D03*
X873400D02*
D03*
X848000Y1864400D02*
D03*
X873400D02*
D03*
X898800Y1813600D02*
D03*
X924200D02*
D03*
X949600D02*
D03*
X975000D02*
D03*
Y1864400D02*
D03*
X949600D02*
D03*
X924200D02*
D03*
X898800D02*
D03*
D89*
X390400Y1415000D02*
D03*
Y1440400D02*
D03*
X339600Y1415000D02*
D03*
Y1440400D02*
D03*
X390400Y1465800D02*
D03*
Y1491200D02*
D03*
Y1516600D02*
D03*
Y1542000D02*
D03*
X339600D02*
D03*
Y1516600D02*
D03*
Y1491200D02*
D03*
Y1465800D02*
D03*
X390400Y1220000D02*
D03*
Y1245400D02*
D03*
X339600Y1220000D02*
D03*
Y1245400D02*
D03*
X390400Y1270800D02*
D03*
Y1296200D02*
D03*
Y1321600D02*
D03*
Y1347000D02*
D03*
X339600D02*
D03*
Y1321600D02*
D03*
Y1296200D02*
D03*
Y1270800D02*
D03*
X390400Y1610000D02*
D03*
Y1635400D02*
D03*
X339600Y1610000D02*
D03*
Y1635400D02*
D03*
X390400Y1660800D02*
D03*
Y1686200D02*
D03*
Y1711600D02*
D03*
Y1737000D02*
D03*
X339600D02*
D03*
Y1711600D02*
D03*
Y1686200D02*
D03*
Y1660800D02*
D03*
X390400Y845000D02*
D03*
Y870400D02*
D03*
X339600Y845000D02*
D03*
Y870400D02*
D03*
X390400Y895800D02*
D03*
Y921200D02*
D03*
Y946600D02*
D03*
Y972000D02*
D03*
X339600D02*
D03*
Y946600D02*
D03*
Y921200D02*
D03*
Y895800D02*
D03*
D90*
X902000Y1612700D02*
D03*
X927400D02*
D03*
X902000Y1587300D02*
D03*
X927400D02*
D03*
X914700Y1600000D02*
D03*
D91*
X1250000Y1291400D02*
D03*
Y551400D02*
D03*
D92*
X324200Y610800D02*
D03*
Y560000D02*
D03*
X400400Y610800D02*
D03*
Y560000D02*
D03*
X1040000Y1760300D02*
D03*
Y1785700D02*
D03*
X1071000Y1760300D02*
D03*
Y1785700D02*
D03*
D93*
X1250000Y350000D02*
D03*
X1240000Y450000D02*
D03*
Y1010000D02*
D03*
Y1750000D02*
D03*
X1250000Y1850000D02*
D03*
X350000Y350000D02*
D03*
Y1850000D02*
D03*
X1240000Y1190000D02*
D03*
X1250000Y1100000D02*
D03*
X350000D02*
D03*
D94*
X545000Y1708000D02*
D03*
X550000Y1812000D02*
D03*
X625000Y1698000D02*
D03*
X600000Y1843000D02*
D03*
X550000Y1688000D02*
D03*
X521000D02*
D03*
X572000Y1779000D02*
D03*
X606000Y1677000D02*
D03*
X586000Y1683000D02*
D03*
X595000Y1668000D02*
D03*
X860000Y1736000D02*
D03*
X855000Y1766000D02*
D03*
X873000Y1769000D02*
D03*
X836000Y1768000D02*
D03*
X923000Y1683000D02*
D03*
X924000Y1759000D02*
D03*
X840000Y1667000D02*
D03*
X839000Y1722000D02*
D03*
X834000Y1685000D02*
D03*
Y1740000D02*
D03*
X1182000Y1775000D02*
D03*
X1026000Y1833000D02*
D03*
X1027000Y1858000D02*
D03*
X1091000Y1803000D02*
D03*
X1198000Y1813000D02*
D03*
X1177000D02*
D03*
X1198000Y1834000D02*
D03*
X1177000D02*
D03*
X1188000Y1800000D02*
D03*
X1153000Y1878000D02*
D03*
X1133000D02*
D03*
X1052000Y1814000D02*
D03*
X1109000Y1858000D02*
D03*
X1039000Y1883000D02*
D03*
X1109000Y1846000D02*
D03*
X1074000Y1842000D02*
D03*
X1062000D02*
D03*
X1073000Y1862000D02*
D03*
X1062000D02*
D03*
X979000Y1566000D02*
D03*
X958000D02*
D03*
X1064000Y1061000D02*
D03*
X1008000Y1050000D02*
D03*
X1000000Y1042000D02*
D03*
X954000Y1033000D02*
D03*
X1130000Y953000D02*
D03*
X1040000Y1059000D02*
D03*
X1017000D02*
D03*
X1024000Y930000D02*
D03*
X1053000Y965000D02*
D03*
X410000Y1851000D02*
D03*
X396000Y370000D02*
D03*
X1184000Y1850000D02*
D03*
X1185000Y350000D02*
D03*
X654000Y1043000D02*
D03*
X595000Y1056000D02*
D03*
X588000Y1063000D02*
D03*
X1199000Y1556000D02*
D03*
X900000Y1369000D02*
D03*
X612000Y1232000D02*
D03*
X904000Y1352000D02*
D03*
X909000Y1362000D02*
D03*
X944000Y1239000D02*
D03*
X555000Y838000D02*
D03*
Y857000D02*
D03*
X585000Y1198000D02*
D03*
X1015000Y1439000D02*
D03*
Y1452000D02*
D03*
X588000Y1209000D02*
D03*
X614000Y1212000D02*
D03*
X1170000Y804000D02*
D03*
X1149000Y1392000D02*
D03*
X663000Y474000D02*
D03*
X700000Y484000D02*
D03*
X689000Y464000D02*
D03*
X676000Y483000D02*
D03*
X675000Y464000D02*
D03*
X748000Y474000D02*
D03*
X712000D02*
D03*
X728000Y452000D02*
D03*
X724000Y483000D02*
D03*
X712500Y461500D02*
D03*
X737000Y484000D02*
D03*
X741000Y434000D02*
D03*
X678000D02*
D03*
X983000Y982000D02*
D03*
X1006000Y1015000D02*
D03*
X600000Y581000D02*
D03*
Y605000D02*
D03*
X1140000Y1556000D02*
D03*
X1129000Y1551000D02*
D03*
X1154000Y1476000D02*
D03*
X1143000Y1475000D02*
D03*
X1170000Y1211034D02*
D03*
Y1231000D02*
D03*
Y1251000D02*
D03*
Y1271000D02*
D03*
Y1291000D02*
D03*
Y1311000D02*
D03*
Y1330500D02*
D03*
Y1350000D02*
D03*
Y1370000D02*
D03*
Y1430000D02*
D03*
Y1450000D02*
D03*
Y1470000D02*
D03*
X778000Y833000D02*
D03*
X770000Y841000D02*
D03*
X644000Y849000D02*
D03*
X803000Y850000D02*
D03*
X805000Y840000D02*
D03*
X945000Y888000D02*
D03*
X935000Y895000D02*
D03*
X1163000Y911000D02*
D03*
X1150000Y907000D02*
D03*
X465000Y853000D02*
D03*
X1155000Y854000D02*
D03*
X1169000Y850000D02*
D03*
X800000Y1700000D02*
D03*
X437000Y1487000D02*
D03*
X926999Y1260998D02*
D03*
X930000Y1235000D02*
D03*
X935000Y1255000D02*
D03*
X900000Y1049000D02*
D03*
X860000Y953000D02*
D03*
X910000Y1047000D02*
D03*
X870000Y957000D02*
D03*
X833000Y1245000D02*
D03*
X787000Y1115000D02*
D03*
X806000Y890000D02*
D03*
X919000Y1005000D02*
D03*
X712000Y1302000D02*
D03*
X740000Y1293000D02*
D03*
X700000Y1315000D02*
D03*
X738000Y1236000D02*
D03*
X820000Y1340000D02*
D03*
X846000Y1230000D02*
D03*
X674000Y1116000D02*
D03*
X667000Y1123000D02*
D03*
X927000Y1633000D02*
D03*
X1121000Y1589000D02*
D03*
Y1718000D02*
D03*
Y1729000D02*
D03*
X1016000Y1611000D02*
D03*
X1017000Y1589000D02*
D03*
X735000Y1100000D02*
D03*
X725000Y1105000D02*
D03*
X740000Y1033500D02*
D03*
X966000Y1066000D02*
D03*
X957000Y1059000D02*
D03*
X888000Y1080000D02*
D03*
X885000Y1090000D02*
D03*
X877500Y1069772D02*
D03*
X860000Y1068000D02*
D03*
X907000Y1104000D02*
D03*
X1165000Y838000D02*
D03*
Y822000D02*
D03*
X1171000Y724000D02*
D03*
X794343Y890000D02*
D03*
X767000Y908000D02*
D03*
X805000Y1023000D02*
D03*
X809999Y1032999D02*
D03*
X828000Y719000D02*
D03*
X804000Y811000D02*
D03*
X790000Y798000D02*
D03*
X816000Y799000D02*
D03*
X823000Y964000D02*
D03*
X817000Y972000D02*
D03*
X810000Y979000D02*
D03*
X918000Y806000D02*
D03*
X699000Y912000D02*
D03*
X693000Y904000D02*
D03*
X1022000Y871000D02*
D03*
X1032000Y864000D02*
D03*
X940000Y1084000D02*
D03*
X941000Y989000D02*
D03*
X934000Y1077000D02*
D03*
X932000Y982000D02*
D03*
X927000Y1070000D02*
D03*
X925000Y990000D02*
D03*
X914000Y1025000D02*
D03*
X905000Y933000D02*
D03*
X850000Y949000D02*
D03*
X962000Y1134000D02*
D03*
X705000Y1113000D02*
D03*
X713000Y1104000D02*
D03*
X695000Y1120000D02*
D03*
X804000Y990000D02*
D03*
X868000Y1032000D02*
D03*
X815000Y1025000D02*
D03*
X861000Y1040000D02*
D03*
X826000Y1027000D02*
D03*
X774000Y1040000D02*
D03*
X795000Y901000D02*
D03*
X782000Y1091000D02*
D03*
X796500Y1077500D02*
D03*
X790000Y1085000D02*
D03*
Y910000D02*
D03*
X808000Y1109000D02*
D03*
Y1096000D02*
D03*
X828500Y1103500D02*
D03*
X874000Y1176000D02*
D03*
X947000Y1159000D02*
D03*
X932000Y1150000D02*
D03*
X978000Y1146000D02*
D03*
X933000Y1125000D02*
D03*
X958000Y1161000D02*
D03*
X905000Y1000000D02*
D03*
X894000Y992000D02*
D03*
X879000Y986000D02*
D03*
X876000Y965000D02*
D03*
X824000Y954000D02*
D03*
X818000Y1199000D02*
D03*
X767000D02*
D03*
X603000Y1035000D02*
D03*
X515000Y1228000D02*
D03*
X532000Y1314000D02*
D03*
X542000Y899000D02*
D03*
X437000Y886000D02*
D03*
X434000Y842000D02*
D03*
X437000Y861000D02*
D03*
X436000Y937000D02*
D03*
X438000Y950000D02*
D03*
X470000Y922000D02*
D03*
X485000Y910000D02*
D03*
X465000D02*
D03*
X481000Y956000D02*
D03*
X491000Y924000D02*
D03*
X513000Y950000D02*
D03*
X470000Y878000D02*
D03*
X436000Y911000D02*
D03*
X1165000Y690000D02*
D03*
Y665000D02*
D03*
Y640000D02*
D03*
Y615000D02*
D03*
Y590000D02*
D03*
Y565000D02*
D03*
Y540000D02*
D03*
Y515000D02*
D03*
X1080000Y627000D02*
D03*
X1041000D02*
D03*
X956000Y807000D02*
D03*
X1007000D02*
D03*
X905000Y806000D02*
D03*
X892000D02*
D03*
X967000Y740000D02*
D03*
Y757000D02*
D03*
X970000Y699000D02*
D03*
X987000Y697000D02*
D03*
X948000Y764000D02*
D03*
X931000D02*
D03*
X948000Y740000D02*
D03*
X930000D02*
D03*
X1090000Y680000D02*
D03*
X1030000Y679000D02*
D03*
X975000D02*
D03*
X915000Y684000D02*
D03*
X964000Y626000D02*
D03*
X916000D02*
D03*
X1007000Y726000D02*
D03*
X956000D02*
D03*
X930000D02*
D03*
X892000Y725000D02*
D03*
X849000Y634000D02*
D03*
X821000Y639000D02*
D03*
X800000Y632000D02*
D03*
X790000Y718000D02*
D03*
Y685000D02*
D03*
X820000Y470000D02*
D03*
X935000D02*
D03*
X1055000D02*
D03*
X678000Y1138000D02*
D03*
X671000Y1164000D02*
D03*
X709000Y1137000D02*
D03*
X708500Y1163500D02*
D03*
X751000Y1138000D02*
D03*
Y1165000D02*
D03*
X859000Y1131000D02*
D03*
X833000Y1065000D02*
D03*
X833250Y1014250D02*
D03*
X859250Y1018250D02*
D03*
X810000Y954000D02*
D03*
X815250Y927250D02*
D03*
X833250Y929250D02*
D03*
X762250Y927250D02*
D03*
X760250Y953250D02*
D03*
X705250D02*
D03*
X708250Y928250D02*
D03*
X642250Y947250D02*
D03*
X649250Y965250D02*
D03*
X623250Y953250D02*
D03*
Y963250D02*
D03*
Y1010250D02*
D03*
X649250Y1012250D02*
D03*
X622250Y1059250D02*
D03*
X648250Y1062250D02*
D03*
X649250Y1128250D02*
D03*
X475250Y1265250D02*
D03*
X492250D02*
D03*
X474250Y1523250D02*
D03*
X492250Y1524250D02*
D03*
X483250Y1482250D02*
D03*
X473250D02*
D03*
X463250Y1481250D02*
D03*
X491250Y1473250D02*
D03*
X483250Y1458250D02*
D03*
X473250D02*
D03*
X460250Y1460250D02*
D03*
X513250Y1338250D02*
D03*
X433250Y1300250D02*
D03*
X437000Y1240000D02*
D03*
Y1253000D02*
D03*
X429000Y1481000D02*
D03*
Y1469000D02*
D03*
X460350Y1202350D02*
D03*
X460000Y1176000D02*
D03*
X513350Y1240350D02*
D03*
Y1202350D02*
D03*
Y1189350D02*
D03*
X436350Y1215350D02*
D03*
X517900Y1389800D02*
D03*
X432900D02*
D03*
X575000Y719000D02*
D03*
X561000D02*
D03*
X575000Y734000D02*
D03*
X561000D02*
D03*
X616000Y731000D02*
D03*
X538500Y723500D02*
D03*
X517000Y758000D02*
D03*
X503000D02*
D03*
X511000Y709000D02*
D03*
Y722000D02*
D03*
X468000Y745000D02*
D03*
X455000Y740000D02*
D03*
X484000Y707000D02*
D03*
X483000Y725000D02*
D03*
X457000Y685000D02*
D03*
X415000Y682000D02*
D03*
X429000Y726000D02*
D03*
X389000Y710000D02*
D03*
Y730000D02*
D03*
X349000Y726000D02*
D03*
X381000Y775000D02*
D03*
X1190000Y881000D02*
D03*
X1189000Y1621000D02*
D03*
X1138000Y1379000D02*
D03*
X1057000Y1473000D02*
D03*
X1053000Y1443000D02*
D03*
X1056500Y1434500D02*
D03*
X1057000Y1397000D02*
D03*
X1149000Y1407000D02*
D03*
X1130000Y1372000D02*
D03*
X1077000Y1367000D02*
D03*
X1082500Y1465000D02*
D03*
X1115000D02*
D03*
X1082500Y1390000D02*
D03*
X1115000D02*
D03*
X1082500Y1440000D02*
D03*
X1115000D02*
D03*
Y1415000D02*
D03*
X1122500Y795000D02*
D03*
Y820000D02*
D03*
X1090000D02*
D03*
X1122500Y770000D02*
D03*
X1090000D02*
D03*
X1122500Y845000D02*
D03*
X1090000D02*
D03*
X1107500Y1493500D02*
D03*
X1101000Y1500000D02*
D03*
X1076000Y1495000D02*
D03*
X1066000Y1483000D02*
D03*
X1155000Y786000D02*
D03*
X1154880Y769500D02*
D03*
X1110500Y876000D02*
D03*
X1120000Y878000D02*
D03*
X1084000Y874500D02*
D03*
X558000Y1658000D02*
D03*
X554000Y1623000D02*
D03*
X578500Y1611500D02*
D03*
X566000Y1668000D02*
D03*
X1079000Y745000D02*
D03*
X1090000D02*
D03*
X1137000Y751000D02*
D03*
X1064000Y769000D02*
D03*
Y779000D02*
D03*
Y809000D02*
D03*
X1061000Y821000D02*
D03*
X1064000Y852000D02*
D03*
X1145000Y757000D02*
D03*
X1149000Y803000D02*
D03*
X350000Y515000D02*
D03*
Y500000D02*
D03*
Y460000D02*
D03*
X351000Y445000D02*
D03*
X383000Y519000D02*
D03*
Y501000D02*
D03*
X434000Y551000D02*
D03*
Y537000D02*
D03*
X439000Y425000D02*
D03*
X455000D02*
D03*
X470000D02*
D03*
X485000D02*
D03*
X499000D02*
D03*
X431000Y514000D02*
D03*
X450000D02*
D03*
X468000D02*
D03*
X500000Y605000D02*
D03*
X435000Y658000D02*
D03*
Y642000D02*
D03*
X573000Y465000D02*
D03*
X597000D02*
D03*
X573000Y455000D02*
D03*
Y474000D02*
D03*
X597000Y455000D02*
D03*
Y475000D02*
D03*
X544000Y437000D02*
D03*
X603500Y425500D02*
D03*
X531000Y474000D02*
D03*
X554000Y473000D02*
D03*
X530000Y464000D02*
D03*
X554000D02*
D03*
Y454000D02*
D03*
X475000Y1363000D02*
D03*
X491000Y1364000D02*
D03*
X432350Y1351350D02*
D03*
X433250Y1313250D02*
D03*
X475000Y1349000D02*
D03*
X490000Y1351000D02*
D03*
Y1326000D02*
D03*
Y1312000D02*
D03*
X745000Y920000D02*
D03*
X664000Y818000D02*
D03*
X671000Y826000D02*
D03*
X678000Y834000D02*
D03*
X685000Y842000D02*
D03*
X692000Y850000D02*
D03*
X658000Y865000D02*
D03*
X651000Y872000D02*
D03*
X644000Y880000D02*
D03*
X651000Y887000D02*
D03*
X699000Y857000D02*
D03*
X706000Y864000D02*
D03*
X714000Y872000D02*
D03*
X640000Y895000D02*
D03*
X653000Y902000D02*
D03*
X665000Y910000D02*
D03*
X577000Y1566000D02*
D03*
X601000D02*
D03*
X589000Y1582000D02*
D03*
X687000Y1206000D02*
D03*
X711000Y1187000D02*
D03*
X1017000Y907000D02*
D03*
X1011000Y914000D02*
D03*
X1040000Y921000D02*
D03*
X932000Y879000D02*
D03*
X922000Y872000D02*
D03*
X770000Y823000D02*
D03*
X803000Y859000D02*
D03*
X771000Y812000D02*
D03*
X630000Y853000D02*
D03*
X617000Y860000D02*
D03*
X578000Y1015000D02*
D03*
X585000Y1023000D02*
D03*
X651000Y1107000D02*
D03*
X570000Y1005000D02*
D03*
X605000Y865000D02*
D03*
X623250Y1125250D02*
D03*
X616000Y1151000D02*
D03*
X624000Y1142000D02*
D03*
X565000Y991000D02*
D03*
X623000Y834000D02*
D03*
X628000Y824000D02*
D03*
X706000Y1200000D02*
D03*
X1151000Y1426000D02*
D03*
X1019000Y1427000D02*
D03*
X880000Y1266000D02*
D03*
X816000Y1123000D02*
D03*
X1052000Y883000D02*
D03*
X982000Y806000D02*
D03*
X993000D02*
D03*
X614000Y425000D02*
D03*
X550000Y490000D02*
D03*
X512000Y1628000D02*
D03*
X528000Y1651000D02*
D03*
X542000Y1674000D02*
D03*
X582000Y1838000D02*
D03*
X637000Y1683000D02*
D03*
X542000Y1838000D02*
D03*
X1051000Y872000D02*
D03*
X1057000Y861000D02*
D03*
X913000Y866000D02*
D03*
X797000Y828000D02*
D03*
X708000Y915000D02*
D03*
X690000Y893000D02*
D03*
X865000Y850000D02*
D03*
X820000Y897000D02*
D03*
X692000Y926000D02*
D03*
X542000Y640000D02*
D03*
X576000Y635000D02*
D03*
X596000D02*
D03*
X586000Y661000D02*
D03*
X625000Y692000D02*
D03*
X682000Y1087000D02*
D03*
Y1051000D02*
D03*
X673000Y1669000D02*
D03*
Y1642000D02*
D03*
X796000Y1662000D02*
D03*
Y1764000D02*
D03*
X1148000Y1595000D02*
D03*
X1166000D02*
D03*
X1148000Y1628000D02*
D03*
X1167000Y1627000D02*
D03*
X1156000Y1686000D02*
D03*
X1182000Y1686000D02*
D03*
X1046000Y1508000D02*
D03*
X833000Y700000D02*
D03*
X698000Y735000D02*
D03*
X714000D02*
D03*
X1083000Y1411000D02*
D03*
X1101000Y1526000D02*
D03*
X1142000Y1424000D02*
D03*
X894000Y1169000D02*
D03*
X861000Y1111000D02*
D03*
X735000Y969000D02*
D03*
X633000Y784000D02*
D03*
X686500Y511500D02*
D03*
X673000Y513000D02*
D03*
X549000Y599000D02*
D03*
X524000Y793000D02*
D03*
X550000D02*
D03*
X571000Y814000D02*
D03*
X597000D02*
D03*
X1177000Y842000D02*
D03*
X1108000Y907000D02*
D03*
X1100000Y784000D02*
D03*
X1145000Y735000D02*
D03*
X943000Y806000D02*
D03*
X1176000Y1401000D02*
D03*
X1138000Y1352000D02*
D03*
X1124000Y1351000D02*
D03*
X1067000Y907000D02*
D03*
X1060000Y894000D02*
D03*
X1046000Y1495000D02*
D03*
X1038000Y1094000D02*
D03*
X770000Y1052000D02*
D03*
X812000D02*
D03*
X888000Y1115000D02*
D03*
X408000Y1334000D02*
D03*
X1132000Y735000D02*
D03*
X466000Y650000D02*
D03*
X634620Y642380D02*
D03*
X537000Y763000D02*
D03*
X612000Y505000D02*
D03*
X555000Y545000D02*
D03*
X1165000Y746000D02*
D03*
X1164000Y760000D02*
D03*
X1173000Y754000D02*
D03*
X544000Y1601000D02*
D03*
X539000Y1565000D02*
D03*
X428000Y1506000D02*
D03*
X458000Y1435000D02*
D03*
X429000Y714000D02*
D03*
X585000Y795000D02*
D03*
X883500Y910000D02*
D03*
X1028000Y889000D02*
D03*
X929000Y910000D02*
D03*
X982000Y924000D02*
D03*
X854000Y1151000D02*
D03*
X840000Y1169000D02*
D03*
X857000Y1249000D02*
D03*
X1070000Y867000D02*
D03*
X616000Y1596000D02*
D03*
X637620Y1614000D02*
D03*
X965000Y1336000D02*
D03*
X1054000Y1175000D02*
D03*
Y1382000D02*
D03*
X532000Y1134000D02*
D03*
X561000Y1164000D02*
D03*
X558000Y1147000D02*
D03*
X588000Y1093000D02*
D03*
X554000Y1002000D02*
D03*
X365000Y590000D02*
D03*
X844000Y1438000D02*
D03*
X349000Y679000D02*
D03*
X365000Y609000D02*
D03*
X824000Y1438000D02*
D03*
X695000Y1242000D02*
D03*
X697000Y1252000D02*
D03*
Y1262000D02*
D03*
X742000Y1264000D02*
D03*
X708000D02*
D03*
X720000Y1243000D02*
D03*
X800999Y1244998D02*
D03*
X797000Y1313000D02*
D03*
X727000Y1210000D02*
D03*
X777000Y1346000D02*
D03*
X750500Y1174000D02*
D03*
X786000Y1343000D02*
D03*
X764000Y1188000D02*
D03*
X789000Y1334000D02*
D03*
X774000Y1185000D02*
D03*
X796000Y1327000D02*
D03*
X873000Y1130000D02*
D03*
X895000Y1409000D02*
D03*
X900000Y1566000D02*
D03*
X993000Y1824000D02*
D03*
X1013000Y1855000D02*
D03*
D95*
X581000Y1640000D02*
D03*
X591000D02*
D03*
X571000D02*
D03*
X581000Y1650000D02*
D03*
Y1630000D02*
D03*
M02*
